%TF.GenerationSoftware,KiCad,Pcbnew,9.0.2+dfsg-1*%
%TF.CreationDate,2026-07-17T01:09:15+02:00*%
%TF.ProjectId,chumby-breakout,6368756d-6279-42d6-9272-65616b6f7574,rev?*%
%TF.SameCoordinates,Original*%
%TF.FileFunction,Legend,Top*%
%TF.FilePolarity,Positive*%
%FSLAX46Y46*%
G04 Gerber Fmt 4.6, Leading zero omitted, Abs format (unit mm)*
G04 Created by KiCad (PCBNEW 9.0.2+dfsg-1) date 2026-07-17 01:09:15*
%MOMM*%
%LPD*%
G01*
G04 APERTURE LIST*
%ADD10C,0.180000*%
%ADD11C,0.224999*%
%ADD12C,0.150000*%
%ADD13C,0.120000*%
G04 APERTURE END LIST*
D10*
X128457143Y-124488640D02*
X128628572Y-124545782D01*
X128628572Y-124545782D02*
X128914286Y-124545782D01*
X128914286Y-124545782D02*
X129028572Y-124488640D01*
X129028572Y-124488640D02*
X129085714Y-124431497D01*
X129085714Y-124431497D02*
X129142857Y-124317211D01*
X129142857Y-124317211D02*
X129142857Y-124202925D01*
X129142857Y-124202925D02*
X129085714Y-124088640D01*
X129085714Y-124088640D02*
X129028572Y-124031497D01*
X129028572Y-124031497D02*
X128914286Y-123974354D01*
X128914286Y-123974354D02*
X128685714Y-123917211D01*
X128685714Y-123917211D02*
X128571429Y-123860068D01*
X128571429Y-123860068D02*
X128514286Y-123802925D01*
X128514286Y-123802925D02*
X128457143Y-123688640D01*
X128457143Y-123688640D02*
X128457143Y-123574354D01*
X128457143Y-123574354D02*
X128514286Y-123460068D01*
X128514286Y-123460068D02*
X128571429Y-123402925D01*
X128571429Y-123402925D02*
X128685714Y-123345782D01*
X128685714Y-123345782D02*
X128971429Y-123345782D01*
X128971429Y-123345782D02*
X129142857Y-123402925D01*
X129657143Y-124545782D02*
X129657143Y-123345782D01*
X129657143Y-123345782D02*
X130114286Y-123345782D01*
X130114286Y-123345782D02*
X130228571Y-123402925D01*
X130228571Y-123402925D02*
X130285714Y-123460068D01*
X130285714Y-123460068D02*
X130342857Y-123574354D01*
X130342857Y-123574354D02*
X130342857Y-123745782D01*
X130342857Y-123745782D02*
X130285714Y-123860068D01*
X130285714Y-123860068D02*
X130228571Y-123917211D01*
X130228571Y-123917211D02*
X130114286Y-123974354D01*
X130114286Y-123974354D02*
X129657143Y-123974354D01*
X130857143Y-124545782D02*
X130857143Y-123345782D01*
X131542857Y-124545782D02*
X131028571Y-123860068D01*
X131542857Y-123345782D02*
X130857143Y-124031497D01*
X105914286Y-124545782D02*
X105914286Y-123345782D01*
X105914286Y-123345782D02*
X106371429Y-123345782D01*
X106371429Y-123345782D02*
X106485714Y-123402925D01*
X106485714Y-123402925D02*
X106542857Y-123460068D01*
X106542857Y-123460068D02*
X106600000Y-123574354D01*
X106600000Y-123574354D02*
X106600000Y-123745782D01*
X106600000Y-123745782D02*
X106542857Y-123860068D01*
X106542857Y-123860068D02*
X106485714Y-123917211D01*
X106485714Y-123917211D02*
X106371429Y-123974354D01*
X106371429Y-123974354D02*
X105914286Y-123974354D01*
X107114286Y-124545782D02*
X107114286Y-123745782D01*
X107114286Y-123345782D02*
X107057143Y-123402925D01*
X107057143Y-123402925D02*
X107114286Y-123460068D01*
X107114286Y-123460068D02*
X107171429Y-123402925D01*
X107171429Y-123402925D02*
X107114286Y-123345782D01*
X107114286Y-123345782D02*
X107114286Y-123460068D01*
X109228572Y-124545782D02*
X108542858Y-124545782D01*
X108885715Y-124545782D02*
X108885715Y-123345782D01*
X108885715Y-123345782D02*
X108771429Y-123517211D01*
X108771429Y-123517211D02*
X108657144Y-123631497D01*
X108657144Y-123631497D02*
X108542858Y-123688640D01*
X109628572Y-123345782D02*
X110428572Y-123345782D01*
X110428572Y-123345782D02*
X109914286Y-124545782D01*
X110885715Y-124088640D02*
X111800001Y-124088640D01*
X112314286Y-123460068D02*
X112371429Y-123402925D01*
X112371429Y-123402925D02*
X112485715Y-123345782D01*
X112485715Y-123345782D02*
X112771429Y-123345782D01*
X112771429Y-123345782D02*
X112885715Y-123402925D01*
X112885715Y-123402925D02*
X112942857Y-123460068D01*
X112942857Y-123460068D02*
X113000000Y-123574354D01*
X113000000Y-123574354D02*
X113000000Y-123688640D01*
X113000000Y-123688640D02*
X112942857Y-123860068D01*
X112942857Y-123860068D02*
X112257143Y-124545782D01*
X112257143Y-124545782D02*
X113000000Y-124545782D01*
X114028572Y-123345782D02*
X113800000Y-123345782D01*
X113800000Y-123345782D02*
X113685714Y-123402925D01*
X113685714Y-123402925D02*
X113628572Y-123460068D01*
X113628572Y-123460068D02*
X113514286Y-123631497D01*
X113514286Y-123631497D02*
X113457143Y-123860068D01*
X113457143Y-123860068D02*
X113457143Y-124317211D01*
X113457143Y-124317211D02*
X113514286Y-124431497D01*
X113514286Y-124431497D02*
X113571429Y-124488640D01*
X113571429Y-124488640D02*
X113685714Y-124545782D01*
X113685714Y-124545782D02*
X113914286Y-124545782D01*
X113914286Y-124545782D02*
X114028572Y-124488640D01*
X114028572Y-124488640D02*
X114085714Y-124431497D01*
X114085714Y-124431497D02*
X114142857Y-124317211D01*
X114142857Y-124317211D02*
X114142857Y-124031497D01*
X114142857Y-124031497D02*
X114085714Y-123917211D01*
X114085714Y-123917211D02*
X114028572Y-123860068D01*
X114028572Y-123860068D02*
X113914286Y-123802925D01*
X113914286Y-123802925D02*
X113685714Y-123802925D01*
X113685714Y-123802925D02*
X113571429Y-123860068D01*
X113571429Y-123860068D02*
X113514286Y-123917211D01*
X113514286Y-123917211D02*
X113457143Y-124031497D01*
X179600000Y-124545782D02*
X179600000Y-123345782D01*
X180114286Y-124545782D02*
X180114286Y-123917211D01*
X180114286Y-123917211D02*
X180057143Y-123802925D01*
X180057143Y-123802925D02*
X179942857Y-123745782D01*
X179942857Y-123745782D02*
X179771428Y-123745782D01*
X179771428Y-123745782D02*
X179657143Y-123802925D01*
X179657143Y-123802925D02*
X179600000Y-123860068D01*
X181200000Y-123745782D02*
X181200000Y-124545782D01*
X180685714Y-123745782D02*
X180685714Y-124374354D01*
X180685714Y-124374354D02*
X180742857Y-124488640D01*
X180742857Y-124488640D02*
X180857142Y-124545782D01*
X180857142Y-124545782D02*
X181028571Y-124545782D01*
X181028571Y-124545782D02*
X181142857Y-124488640D01*
X181142857Y-124488640D02*
X181200000Y-124431497D01*
X181771428Y-124545782D02*
X181771428Y-123345782D01*
X181771428Y-123802925D02*
X181885714Y-123745782D01*
X181885714Y-123745782D02*
X182114285Y-123745782D01*
X182114285Y-123745782D02*
X182228571Y-123802925D01*
X182228571Y-123802925D02*
X182285714Y-123860068D01*
X182285714Y-123860068D02*
X182342856Y-123974354D01*
X182342856Y-123974354D02*
X182342856Y-124317211D01*
X182342856Y-124317211D02*
X182285714Y-124431497D01*
X182285714Y-124431497D02*
X182228571Y-124488640D01*
X182228571Y-124488640D02*
X182114285Y-124545782D01*
X182114285Y-124545782D02*
X181885714Y-124545782D01*
X181885714Y-124545782D02*
X181771428Y-124488640D01*
X184171428Y-123917211D02*
X184342856Y-123974354D01*
X184342856Y-123974354D02*
X184399999Y-124031497D01*
X184399999Y-124031497D02*
X184457142Y-124145782D01*
X184457142Y-124145782D02*
X184457142Y-124317211D01*
X184457142Y-124317211D02*
X184399999Y-124431497D01*
X184399999Y-124431497D02*
X184342856Y-124488640D01*
X184342856Y-124488640D02*
X184228571Y-124545782D01*
X184228571Y-124545782D02*
X183771428Y-124545782D01*
X183771428Y-124545782D02*
X183771428Y-123345782D01*
X183771428Y-123345782D02*
X184171428Y-123345782D01*
X184171428Y-123345782D02*
X184285714Y-123402925D01*
X184285714Y-123402925D02*
X184342856Y-123460068D01*
X184342856Y-123460068D02*
X184399999Y-123574354D01*
X184399999Y-123574354D02*
X184399999Y-123688640D01*
X184399999Y-123688640D02*
X184342856Y-123802925D01*
X184342856Y-123802925D02*
X184285714Y-123860068D01*
X184285714Y-123860068D02*
X184171428Y-123917211D01*
X184171428Y-123917211D02*
X183771428Y-123917211D01*
X121685712Y-97345782D02*
X121114284Y-97345782D01*
X121114284Y-97345782D02*
X121057141Y-97917211D01*
X121057141Y-97917211D02*
X121114284Y-97860068D01*
X121114284Y-97860068D02*
X121228570Y-97802925D01*
X121228570Y-97802925D02*
X121514284Y-97802925D01*
X121514284Y-97802925D02*
X121628570Y-97860068D01*
X121628570Y-97860068D02*
X121685712Y-97917211D01*
X121685712Y-97917211D02*
X121742855Y-98031497D01*
X121742855Y-98031497D02*
X121742855Y-98317211D01*
X121742855Y-98317211D02*
X121685712Y-98431497D01*
X121685712Y-98431497D02*
X121628570Y-98488640D01*
X121628570Y-98488640D02*
X121514284Y-98545782D01*
X121514284Y-98545782D02*
X121228570Y-98545782D01*
X121228570Y-98545782D02*
X121114284Y-98488640D01*
X121114284Y-98488640D02*
X121057141Y-98431497D01*
X122085712Y-97345782D02*
X122485712Y-98545782D01*
X122485712Y-98545782D02*
X122885712Y-97345782D01*
X124199998Y-98545782D02*
X124199998Y-97345782D01*
X124771427Y-98545782D02*
X124771427Y-97345782D01*
X124771427Y-97345782D02*
X125457141Y-98545782D01*
X125457141Y-98545782D02*
X125457141Y-97345782D01*
X127171427Y-97345782D02*
X127399999Y-97345782D01*
X127399999Y-97345782D02*
X127514284Y-97402925D01*
X127514284Y-97402925D02*
X127628570Y-97517211D01*
X127628570Y-97517211D02*
X127685713Y-97745782D01*
X127685713Y-97745782D02*
X127685713Y-98145782D01*
X127685713Y-98145782D02*
X127628570Y-98374354D01*
X127628570Y-98374354D02*
X127514284Y-98488640D01*
X127514284Y-98488640D02*
X127399999Y-98545782D01*
X127399999Y-98545782D02*
X127171427Y-98545782D01*
X127171427Y-98545782D02*
X127057142Y-98488640D01*
X127057142Y-98488640D02*
X126942856Y-98374354D01*
X126942856Y-98374354D02*
X126885713Y-98145782D01*
X126885713Y-98145782D02*
X126885713Y-97745782D01*
X126885713Y-97745782D02*
X126942856Y-97517211D01*
X126942856Y-97517211D02*
X127057142Y-97402925D01*
X127057142Y-97402925D02*
X127171427Y-97345782D01*
X128199999Y-98545782D02*
X128199999Y-97345782D01*
X128199999Y-97345782D02*
X128885713Y-98545782D01*
X128885713Y-98545782D02*
X128885713Y-97345782D01*
X130028570Y-98545782D02*
X129457142Y-98545782D01*
X129457142Y-98545782D02*
X129457142Y-97345782D01*
X130657142Y-97974354D02*
X130657142Y-98545782D01*
X130257142Y-97345782D02*
X130657142Y-97974354D01*
X130657142Y-97974354D02*
X131057142Y-97345782D01*
X132371428Y-98088640D02*
X133285714Y-98088640D01*
X134599999Y-97345782D02*
X135285714Y-97345782D01*
X134942856Y-98545782D02*
X134942856Y-97345782D01*
X135685714Y-98545782D02*
X135685714Y-97345782D01*
X135685714Y-97917211D02*
X136371428Y-97917211D01*
X136371428Y-98545782D02*
X136371428Y-97345782D01*
X136942857Y-97917211D02*
X137342857Y-97917211D01*
X137514285Y-98545782D02*
X136942857Y-98545782D01*
X136942857Y-98545782D02*
X136942857Y-97345782D01*
X136942857Y-97345782D02*
X137514285Y-97345782D01*
X139171428Y-97345782D02*
X139400000Y-97345782D01*
X139400000Y-97345782D02*
X139514285Y-97402925D01*
X139514285Y-97402925D02*
X139628571Y-97517211D01*
X139628571Y-97517211D02*
X139685714Y-97745782D01*
X139685714Y-97745782D02*
X139685714Y-98145782D01*
X139685714Y-98145782D02*
X139628571Y-98374354D01*
X139628571Y-98374354D02*
X139514285Y-98488640D01*
X139514285Y-98488640D02*
X139400000Y-98545782D01*
X139400000Y-98545782D02*
X139171428Y-98545782D01*
X139171428Y-98545782D02*
X139057143Y-98488640D01*
X139057143Y-98488640D02*
X138942857Y-98374354D01*
X138942857Y-98374354D02*
X138885714Y-98145782D01*
X138885714Y-98145782D02*
X138885714Y-97745782D01*
X138885714Y-97745782D02*
X138942857Y-97517211D01*
X138942857Y-97517211D02*
X139057143Y-97402925D01*
X139057143Y-97402925D02*
X139171428Y-97345782D01*
X140885714Y-98545782D02*
X140485714Y-97974354D01*
X140200000Y-98545782D02*
X140200000Y-97345782D01*
X140200000Y-97345782D02*
X140657143Y-97345782D01*
X140657143Y-97345782D02*
X140771428Y-97402925D01*
X140771428Y-97402925D02*
X140828571Y-97460068D01*
X140828571Y-97460068D02*
X140885714Y-97574354D01*
X140885714Y-97574354D02*
X140885714Y-97745782D01*
X140885714Y-97745782D02*
X140828571Y-97860068D01*
X140828571Y-97860068D02*
X140771428Y-97917211D01*
X140771428Y-97917211D02*
X140657143Y-97974354D01*
X140657143Y-97974354D02*
X140200000Y-97974354D01*
X141400000Y-98545782D02*
X141400000Y-97345782D01*
X142600000Y-97402925D02*
X142485715Y-97345782D01*
X142485715Y-97345782D02*
X142314286Y-97345782D01*
X142314286Y-97345782D02*
X142142857Y-97402925D01*
X142142857Y-97402925D02*
X142028572Y-97517211D01*
X142028572Y-97517211D02*
X141971429Y-97631497D01*
X141971429Y-97631497D02*
X141914286Y-97860068D01*
X141914286Y-97860068D02*
X141914286Y-98031497D01*
X141914286Y-98031497D02*
X141971429Y-98260068D01*
X141971429Y-98260068D02*
X142028572Y-98374354D01*
X142028572Y-98374354D02*
X142142857Y-98488640D01*
X142142857Y-98488640D02*
X142314286Y-98545782D01*
X142314286Y-98545782D02*
X142428572Y-98545782D01*
X142428572Y-98545782D02*
X142600000Y-98488640D01*
X142600000Y-98488640D02*
X142657143Y-98431497D01*
X142657143Y-98431497D02*
X142657143Y-98031497D01*
X142657143Y-98031497D02*
X142428572Y-98031497D01*
X143171429Y-98545782D02*
X143171429Y-97345782D01*
X143742858Y-98545782D02*
X143742858Y-97345782D01*
X143742858Y-97345782D02*
X144428572Y-98545782D01*
X144428572Y-98545782D02*
X144428572Y-97345782D01*
X144942858Y-98202925D02*
X145514287Y-98202925D01*
X144828572Y-98545782D02*
X145228572Y-97345782D01*
X145228572Y-97345782D02*
X145628572Y-98545782D01*
X146600000Y-98545782D02*
X146028572Y-98545782D01*
X146028572Y-98545782D02*
X146028572Y-97345782D01*
X148542858Y-98545782D02*
X147857144Y-98545782D01*
X148200001Y-98545782D02*
X148200001Y-97345782D01*
X148200001Y-97345782D02*
X148085715Y-97517211D01*
X148085715Y-97517211D02*
X147971430Y-97631497D01*
X147971430Y-97631497D02*
X147857144Y-97688640D01*
X149000001Y-97460068D02*
X149057144Y-97402925D01*
X149057144Y-97402925D02*
X149171430Y-97345782D01*
X149171430Y-97345782D02*
X149457144Y-97345782D01*
X149457144Y-97345782D02*
X149571430Y-97402925D01*
X149571430Y-97402925D02*
X149628572Y-97460068D01*
X149628572Y-97460068D02*
X149685715Y-97574354D01*
X149685715Y-97574354D02*
X149685715Y-97688640D01*
X149685715Y-97688640D02*
X149628572Y-97860068D01*
X149628572Y-97860068D02*
X148942858Y-98545782D01*
X148942858Y-98545782D02*
X149685715Y-98545782D01*
X150028572Y-97345782D02*
X150428572Y-98545782D01*
X150428572Y-98545782D02*
X150828572Y-97345782D01*
X152028572Y-97345782D02*
X152314286Y-98545782D01*
X152314286Y-98545782D02*
X152542858Y-97688640D01*
X152542858Y-97688640D02*
X152771429Y-98545782D01*
X152771429Y-98545782D02*
X153057144Y-97345782D01*
X153457144Y-98202925D02*
X154028573Y-98202925D01*
X153342858Y-98545782D02*
X153742858Y-97345782D01*
X153742858Y-97345782D02*
X154142858Y-98545782D01*
X155228572Y-98545782D02*
X154828572Y-97974354D01*
X154542858Y-98545782D02*
X154542858Y-97345782D01*
X154542858Y-97345782D02*
X155000001Y-97345782D01*
X155000001Y-97345782D02*
X155114286Y-97402925D01*
X155114286Y-97402925D02*
X155171429Y-97460068D01*
X155171429Y-97460068D02*
X155228572Y-97574354D01*
X155228572Y-97574354D02*
X155228572Y-97745782D01*
X155228572Y-97745782D02*
X155171429Y-97860068D01*
X155171429Y-97860068D02*
X155114286Y-97917211D01*
X155114286Y-97917211D02*
X155000001Y-97974354D01*
X155000001Y-97974354D02*
X154542858Y-97974354D01*
X155571429Y-97345782D02*
X156257144Y-97345782D01*
X155914286Y-98545782D02*
X155914286Y-97345782D01*
X157971430Y-97917211D02*
X157571430Y-97917211D01*
X157571430Y-98545782D02*
X157571430Y-97345782D01*
X157571430Y-97345782D02*
X158142858Y-97345782D01*
X159285715Y-98545782D02*
X158885715Y-97974354D01*
X158600001Y-98545782D02*
X158600001Y-97345782D01*
X158600001Y-97345782D02*
X159057144Y-97345782D01*
X159057144Y-97345782D02*
X159171429Y-97402925D01*
X159171429Y-97402925D02*
X159228572Y-97460068D01*
X159228572Y-97460068D02*
X159285715Y-97574354D01*
X159285715Y-97574354D02*
X159285715Y-97745782D01*
X159285715Y-97745782D02*
X159228572Y-97860068D01*
X159228572Y-97860068D02*
X159171429Y-97917211D01*
X159171429Y-97917211D02*
X159057144Y-97974354D01*
X159057144Y-97974354D02*
X158600001Y-97974354D01*
X159800001Y-98545782D02*
X159800001Y-97345782D01*
X160371430Y-97917211D02*
X160771430Y-97917211D01*
X160942858Y-98545782D02*
X160371430Y-98545782D01*
X160371430Y-98545782D02*
X160371430Y-97345782D01*
X160371430Y-97345782D02*
X160942858Y-97345782D01*
X161400001Y-98488640D02*
X161571430Y-98545782D01*
X161571430Y-98545782D02*
X161857144Y-98545782D01*
X161857144Y-98545782D02*
X161971430Y-98488640D01*
X161971430Y-98488640D02*
X162028572Y-98431497D01*
X162028572Y-98431497D02*
X162085715Y-98317211D01*
X162085715Y-98317211D02*
X162085715Y-98202925D01*
X162085715Y-98202925D02*
X162028572Y-98088640D01*
X162028572Y-98088640D02*
X161971430Y-98031497D01*
X161971430Y-98031497D02*
X161857144Y-97974354D01*
X161857144Y-97974354D02*
X161628572Y-97917211D01*
X161628572Y-97917211D02*
X161514287Y-97860068D01*
X161514287Y-97860068D02*
X161457144Y-97802925D01*
X161457144Y-97802925D02*
X161400001Y-97688640D01*
X161400001Y-97688640D02*
X161400001Y-97574354D01*
X161400001Y-97574354D02*
X161457144Y-97460068D01*
X161457144Y-97460068D02*
X161514287Y-97402925D01*
X161514287Y-97402925D02*
X161628572Y-97345782D01*
X161628572Y-97345782D02*
X161914287Y-97345782D01*
X161914287Y-97345782D02*
X162085715Y-97402925D01*
X163342858Y-97345782D02*
X164028573Y-97345782D01*
X163685715Y-98545782D02*
X163685715Y-97345782D01*
X164428573Y-98545782D02*
X164428573Y-97345782D01*
X164428573Y-97917211D02*
X165114287Y-97917211D01*
X165114287Y-98545782D02*
X165114287Y-97345782D01*
X165685716Y-97917211D02*
X166085716Y-97917211D01*
X166257144Y-98545782D02*
X165685716Y-98545782D01*
X165685716Y-98545782D02*
X165685716Y-97345782D01*
X165685716Y-97345782D02*
X166257144Y-97345782D01*
X167685716Y-98545782D02*
X167685716Y-97345782D01*
X167685716Y-97345782D02*
X168142859Y-97345782D01*
X168142859Y-97345782D02*
X168257144Y-97402925D01*
X168257144Y-97402925D02*
X168314287Y-97460068D01*
X168314287Y-97460068D02*
X168371430Y-97574354D01*
X168371430Y-97574354D02*
X168371430Y-97745782D01*
X168371430Y-97745782D02*
X168314287Y-97860068D01*
X168314287Y-97860068D02*
X168257144Y-97917211D01*
X168257144Y-97917211D02*
X168142859Y-97974354D01*
X168142859Y-97974354D02*
X167685716Y-97974354D01*
X168885716Y-98545782D02*
X168885716Y-97345782D01*
X164685715Y-124545782D02*
X164685715Y-123345782D01*
X165200001Y-124545782D02*
X165200001Y-123917211D01*
X165200001Y-123917211D02*
X165142858Y-123802925D01*
X165142858Y-123802925D02*
X165028572Y-123745782D01*
X165028572Y-123745782D02*
X164857143Y-123745782D01*
X164857143Y-123745782D02*
X164742858Y-123802925D01*
X164742858Y-123802925D02*
X164685715Y-123860068D01*
X166285715Y-123745782D02*
X166285715Y-124545782D01*
X165771429Y-123745782D02*
X165771429Y-124374354D01*
X165771429Y-124374354D02*
X165828572Y-124488640D01*
X165828572Y-124488640D02*
X165942857Y-124545782D01*
X165942857Y-124545782D02*
X166114286Y-124545782D01*
X166114286Y-124545782D02*
X166228572Y-124488640D01*
X166228572Y-124488640D02*
X166285715Y-124431497D01*
X166857143Y-124545782D02*
X166857143Y-123345782D01*
X166857143Y-123802925D02*
X166971429Y-123745782D01*
X166971429Y-123745782D02*
X167200000Y-123745782D01*
X167200000Y-123745782D02*
X167314286Y-123802925D01*
X167314286Y-123802925D02*
X167371429Y-123860068D01*
X167371429Y-123860068D02*
X167428571Y-123974354D01*
X167428571Y-123974354D02*
X167428571Y-124317211D01*
X167428571Y-124317211D02*
X167371429Y-124431497D01*
X167371429Y-124431497D02*
X167314286Y-124488640D01*
X167314286Y-124488640D02*
X167200000Y-124545782D01*
X167200000Y-124545782D02*
X166971429Y-124545782D01*
X166971429Y-124545782D02*
X166857143Y-124488640D01*
X168800000Y-124202925D02*
X169371429Y-124202925D01*
X168685714Y-124545782D02*
X169085714Y-123345782D01*
X169085714Y-123345782D02*
X169485714Y-124545782D01*
X143428571Y-124545782D02*
X143428571Y-123345782D01*
X143428571Y-123917211D02*
X144114285Y-123917211D01*
X144114285Y-124545782D02*
X144114285Y-123345782D01*
X144685714Y-124545782D02*
X144685714Y-123345782D01*
X144685714Y-123345782D02*
X145142857Y-123345782D01*
X145142857Y-123345782D02*
X145257142Y-123402925D01*
X145257142Y-123402925D02*
X145314285Y-123460068D01*
X145314285Y-123460068D02*
X145371428Y-123574354D01*
X145371428Y-123574354D02*
X145371428Y-123745782D01*
X145371428Y-123745782D02*
X145314285Y-123860068D01*
X145314285Y-123860068D02*
X145257142Y-123917211D01*
X145257142Y-123917211D02*
X145142857Y-123974354D01*
X145142857Y-123974354D02*
X144685714Y-123974354D01*
X147371428Y-124545782D02*
X146800000Y-124545782D01*
X146800000Y-124545782D02*
X146800000Y-123345782D01*
X148628572Y-123288640D02*
X147600000Y-124831497D01*
X149714286Y-124545782D02*
X149314286Y-123974354D01*
X149028572Y-124545782D02*
X149028572Y-123345782D01*
X149028572Y-123345782D02*
X149485715Y-123345782D01*
X149485715Y-123345782D02*
X149600000Y-123402925D01*
X149600000Y-123402925D02*
X149657143Y-123460068D01*
X149657143Y-123460068D02*
X149714286Y-123574354D01*
X149714286Y-123574354D02*
X149714286Y-123745782D01*
X149714286Y-123745782D02*
X149657143Y-123860068D01*
X149657143Y-123860068D02*
X149600000Y-123917211D01*
X149600000Y-123917211D02*
X149485715Y-123974354D01*
X149485715Y-123974354D02*
X149028572Y-123974354D01*
X151085715Y-123288640D02*
X150057143Y-124831497D01*
X152114286Y-123402925D02*
X152000001Y-123345782D01*
X152000001Y-123345782D02*
X151828572Y-123345782D01*
X151828572Y-123345782D02*
X151657143Y-123402925D01*
X151657143Y-123402925D02*
X151542858Y-123517211D01*
X151542858Y-123517211D02*
X151485715Y-123631497D01*
X151485715Y-123631497D02*
X151428572Y-123860068D01*
X151428572Y-123860068D02*
X151428572Y-124031497D01*
X151428572Y-124031497D02*
X151485715Y-124260068D01*
X151485715Y-124260068D02*
X151542858Y-124374354D01*
X151542858Y-124374354D02*
X151657143Y-124488640D01*
X151657143Y-124488640D02*
X151828572Y-124545782D01*
X151828572Y-124545782D02*
X151942858Y-124545782D01*
X151942858Y-124545782D02*
X152114286Y-124488640D01*
X152114286Y-124488640D02*
X152171429Y-124431497D01*
X152171429Y-124431497D02*
X152171429Y-124031497D01*
X152171429Y-124031497D02*
X151942858Y-124031497D01*
X153542858Y-123288640D02*
X152514286Y-124831497D01*
X153942858Y-124545782D02*
X153942858Y-123345782D01*
X153942858Y-123345782D02*
X154228572Y-123345782D01*
X154228572Y-123345782D02*
X154400001Y-123402925D01*
X154400001Y-123402925D02*
X154514286Y-123517211D01*
X154514286Y-123517211D02*
X154571429Y-123631497D01*
X154571429Y-123631497D02*
X154628572Y-123860068D01*
X154628572Y-123860068D02*
X154628572Y-124031497D01*
X154628572Y-124031497D02*
X154571429Y-124260068D01*
X154571429Y-124260068D02*
X154514286Y-124374354D01*
X154514286Y-124374354D02*
X154400001Y-124488640D01*
X154400001Y-124488640D02*
X154228572Y-124545782D01*
X154228572Y-124545782D02*
X153942858Y-124545782D01*
X155142858Y-123917211D02*
X155542858Y-123917211D01*
X155714286Y-124545782D02*
X155142858Y-124545782D01*
X155142858Y-124545782D02*
X155142858Y-123345782D01*
X155142858Y-123345782D02*
X155714286Y-123345782D01*
X156057143Y-123345782D02*
X156742858Y-123345782D01*
X156400000Y-124545782D02*
X156400000Y-123345782D01*
D11*
X115892857Y-96539371D02*
X115821429Y-96610800D01*
X115821429Y-96610800D02*
X115607143Y-96682228D01*
X115607143Y-96682228D02*
X115464286Y-96682228D01*
X115464286Y-96682228D02*
X115250000Y-96610800D01*
X115250000Y-96610800D02*
X115107143Y-96467942D01*
X115107143Y-96467942D02*
X115035714Y-96325085D01*
X115035714Y-96325085D02*
X114964286Y-96039371D01*
X114964286Y-96039371D02*
X114964286Y-95825085D01*
X114964286Y-95825085D02*
X115035714Y-95539371D01*
X115035714Y-95539371D02*
X115107143Y-95396514D01*
X115107143Y-95396514D02*
X115250000Y-95253657D01*
X115250000Y-95253657D02*
X115464286Y-95182228D01*
X115464286Y-95182228D02*
X115607143Y-95182228D01*
X115607143Y-95182228D02*
X115821429Y-95253657D01*
X115821429Y-95253657D02*
X115892857Y-95325085D01*
X116535714Y-96682228D02*
X116535714Y-95182228D01*
X116535714Y-95896514D02*
X117392857Y-95896514D01*
X117392857Y-96682228D02*
X117392857Y-95182228D01*
X118107143Y-95182228D02*
X118107143Y-96396514D01*
X118107143Y-96396514D02*
X118178572Y-96539371D01*
X118178572Y-96539371D02*
X118250001Y-96610800D01*
X118250001Y-96610800D02*
X118392858Y-96682228D01*
X118392858Y-96682228D02*
X118678572Y-96682228D01*
X118678572Y-96682228D02*
X118821429Y-96610800D01*
X118821429Y-96610800D02*
X118892858Y-96539371D01*
X118892858Y-96539371D02*
X118964286Y-96396514D01*
X118964286Y-96396514D02*
X118964286Y-95182228D01*
X119678572Y-96682228D02*
X119678572Y-95182228D01*
X119678572Y-95182228D02*
X120178572Y-96253657D01*
X120178572Y-96253657D02*
X120678572Y-95182228D01*
X120678572Y-95182228D02*
X120678572Y-96682228D01*
X121892858Y-95896514D02*
X122107144Y-95967942D01*
X122107144Y-95967942D02*
X122178573Y-96039371D01*
X122178573Y-96039371D02*
X122250001Y-96182228D01*
X122250001Y-96182228D02*
X122250001Y-96396514D01*
X122250001Y-96396514D02*
X122178573Y-96539371D01*
X122178573Y-96539371D02*
X122107144Y-96610800D01*
X122107144Y-96610800D02*
X121964287Y-96682228D01*
X121964287Y-96682228D02*
X121392858Y-96682228D01*
X121392858Y-96682228D02*
X121392858Y-95182228D01*
X121392858Y-95182228D02*
X121892858Y-95182228D01*
X121892858Y-95182228D02*
X122035716Y-95253657D01*
X122035716Y-95253657D02*
X122107144Y-95325085D01*
X122107144Y-95325085D02*
X122178573Y-95467942D01*
X122178573Y-95467942D02*
X122178573Y-95610800D01*
X122178573Y-95610800D02*
X122107144Y-95753657D01*
X122107144Y-95753657D02*
X122035716Y-95825085D01*
X122035716Y-95825085D02*
X121892858Y-95896514D01*
X121892858Y-95896514D02*
X121392858Y-95896514D01*
X123178573Y-95967942D02*
X123178573Y-96682228D01*
X122678573Y-95182228D02*
X123178573Y-95967942D01*
X123178573Y-95967942D02*
X123678573Y-95182228D01*
X125321429Y-96682228D02*
X125321429Y-95182228D01*
X125321429Y-95182228D02*
X125678572Y-95182228D01*
X125678572Y-95182228D02*
X125892858Y-95253657D01*
X125892858Y-95253657D02*
X126035715Y-95396514D01*
X126035715Y-95396514D02*
X126107144Y-95539371D01*
X126107144Y-95539371D02*
X126178572Y-95825085D01*
X126178572Y-95825085D02*
X126178572Y-96039371D01*
X126178572Y-96039371D02*
X126107144Y-96325085D01*
X126107144Y-96325085D02*
X126035715Y-96467942D01*
X126035715Y-96467942D02*
X125892858Y-96610800D01*
X125892858Y-96610800D02*
X125678572Y-96682228D01*
X125678572Y-96682228D02*
X125321429Y-96682228D01*
X126750001Y-96253657D02*
X127464287Y-96253657D01*
X126607144Y-96682228D02*
X127107144Y-95182228D01*
X127107144Y-95182228D02*
X127607144Y-96682228D01*
X128107143Y-95182228D02*
X128107143Y-96396514D01*
X128107143Y-96396514D02*
X128178572Y-96539371D01*
X128178572Y-96539371D02*
X128250001Y-96610800D01*
X128250001Y-96610800D02*
X128392858Y-96682228D01*
X128392858Y-96682228D02*
X128678572Y-96682228D01*
X128678572Y-96682228D02*
X128821429Y-96610800D01*
X128821429Y-96610800D02*
X128892858Y-96539371D01*
X128892858Y-96539371D02*
X128964286Y-96396514D01*
X128964286Y-96396514D02*
X128964286Y-95182228D01*
X130464287Y-95253657D02*
X130321430Y-95182228D01*
X130321430Y-95182228D02*
X130107144Y-95182228D01*
X130107144Y-95182228D02*
X129892858Y-95253657D01*
X129892858Y-95253657D02*
X129750001Y-95396514D01*
X129750001Y-95396514D02*
X129678572Y-95539371D01*
X129678572Y-95539371D02*
X129607144Y-95825085D01*
X129607144Y-95825085D02*
X129607144Y-96039371D01*
X129607144Y-96039371D02*
X129678572Y-96325085D01*
X129678572Y-96325085D02*
X129750001Y-96467942D01*
X129750001Y-96467942D02*
X129892858Y-96610800D01*
X129892858Y-96610800D02*
X130107144Y-96682228D01*
X130107144Y-96682228D02*
X130250001Y-96682228D01*
X130250001Y-96682228D02*
X130464287Y-96610800D01*
X130464287Y-96610800D02*
X130535715Y-96539371D01*
X130535715Y-96539371D02*
X130535715Y-96039371D01*
X130535715Y-96039371D02*
X130250001Y-96039371D01*
X131178572Y-96682228D02*
X131178572Y-95182228D01*
X131178572Y-95896514D02*
X132035715Y-95896514D01*
X132035715Y-96682228D02*
X132035715Y-95182228D01*
X132535716Y-95182228D02*
X133392859Y-95182228D01*
X132964287Y-96682228D02*
X132964287Y-95182228D01*
X133892858Y-95896514D02*
X134392858Y-95896514D01*
X134607144Y-96682228D02*
X133892858Y-96682228D01*
X133892858Y-96682228D02*
X133892858Y-95182228D01*
X133892858Y-95182228D02*
X134607144Y-95182228D01*
X136107144Y-96682228D02*
X135607144Y-95967942D01*
X135250001Y-96682228D02*
X135250001Y-95182228D01*
X135250001Y-95182228D02*
X135821430Y-95182228D01*
X135821430Y-95182228D02*
X135964287Y-95253657D01*
X135964287Y-95253657D02*
X136035716Y-95325085D01*
X136035716Y-95325085D02*
X136107144Y-95467942D01*
X136107144Y-95467942D02*
X136107144Y-95682228D01*
X136107144Y-95682228D02*
X136035716Y-95825085D01*
X136035716Y-95825085D02*
X135964287Y-95896514D01*
X135964287Y-95896514D02*
X135821430Y-95967942D01*
X135821430Y-95967942D02*
X135250001Y-95967942D01*
X137607144Y-96539371D02*
X137535716Y-96610800D01*
X137535716Y-96610800D02*
X137321430Y-96682228D01*
X137321430Y-96682228D02*
X137178573Y-96682228D01*
X137178573Y-96682228D02*
X136964287Y-96610800D01*
X136964287Y-96610800D02*
X136821430Y-96467942D01*
X136821430Y-96467942D02*
X136750001Y-96325085D01*
X136750001Y-96325085D02*
X136678573Y-96039371D01*
X136678573Y-96039371D02*
X136678573Y-95825085D01*
X136678573Y-95825085D02*
X136750001Y-95539371D01*
X136750001Y-95539371D02*
X136821430Y-95396514D01*
X136821430Y-95396514D02*
X136964287Y-95253657D01*
X136964287Y-95253657D02*
X137178573Y-95182228D01*
X137178573Y-95182228D02*
X137321430Y-95182228D01*
X137321430Y-95182228D02*
X137535716Y-95253657D01*
X137535716Y-95253657D02*
X137607144Y-95325085D01*
X138178573Y-96253657D02*
X138892859Y-96253657D01*
X138035716Y-96682228D02*
X138535716Y-95182228D01*
X138535716Y-95182228D02*
X139035716Y-96682228D01*
X140392858Y-96682228D02*
X139892858Y-95967942D01*
X139535715Y-96682228D02*
X139535715Y-95182228D01*
X139535715Y-95182228D02*
X140107144Y-95182228D01*
X140107144Y-95182228D02*
X140250001Y-95253657D01*
X140250001Y-95253657D02*
X140321430Y-95325085D01*
X140321430Y-95325085D02*
X140392858Y-95467942D01*
X140392858Y-95467942D02*
X140392858Y-95682228D01*
X140392858Y-95682228D02*
X140321430Y-95825085D01*
X140321430Y-95825085D02*
X140250001Y-95896514D01*
X140250001Y-95896514D02*
X140107144Y-95967942D01*
X140107144Y-95967942D02*
X139535715Y-95967942D01*
X141035715Y-96682228D02*
X141035715Y-95182228D01*
X141035715Y-95182228D02*
X141392858Y-95182228D01*
X141392858Y-95182228D02*
X141607144Y-95253657D01*
X141607144Y-95253657D02*
X141750001Y-95396514D01*
X141750001Y-95396514D02*
X141821430Y-95539371D01*
X141821430Y-95539371D02*
X141892858Y-95825085D01*
X141892858Y-95825085D02*
X141892858Y-96039371D01*
X141892858Y-96039371D02*
X141821430Y-96325085D01*
X141821430Y-96325085D02*
X141750001Y-96467942D01*
X141750001Y-96467942D02*
X141607144Y-96610800D01*
X141607144Y-96610800D02*
X141392858Y-96682228D01*
X141392858Y-96682228D02*
X141035715Y-96682228D01*
X144178572Y-95896514D02*
X144392858Y-95967942D01*
X144392858Y-95967942D02*
X144464287Y-96039371D01*
X144464287Y-96039371D02*
X144535715Y-96182228D01*
X144535715Y-96182228D02*
X144535715Y-96396514D01*
X144535715Y-96396514D02*
X144464287Y-96539371D01*
X144464287Y-96539371D02*
X144392858Y-96610800D01*
X144392858Y-96610800D02*
X144250001Y-96682228D01*
X144250001Y-96682228D02*
X143678572Y-96682228D01*
X143678572Y-96682228D02*
X143678572Y-95182228D01*
X143678572Y-95182228D02*
X144178572Y-95182228D01*
X144178572Y-95182228D02*
X144321430Y-95253657D01*
X144321430Y-95253657D02*
X144392858Y-95325085D01*
X144392858Y-95325085D02*
X144464287Y-95467942D01*
X144464287Y-95467942D02*
X144464287Y-95610800D01*
X144464287Y-95610800D02*
X144392858Y-95753657D01*
X144392858Y-95753657D02*
X144321430Y-95825085D01*
X144321430Y-95825085D02*
X144178572Y-95896514D01*
X144178572Y-95896514D02*
X143678572Y-95896514D01*
X146035715Y-96682228D02*
X145535715Y-95967942D01*
X145178572Y-96682228D02*
X145178572Y-95182228D01*
X145178572Y-95182228D02*
X145750001Y-95182228D01*
X145750001Y-95182228D02*
X145892858Y-95253657D01*
X145892858Y-95253657D02*
X145964287Y-95325085D01*
X145964287Y-95325085D02*
X146035715Y-95467942D01*
X146035715Y-95467942D02*
X146035715Y-95682228D01*
X146035715Y-95682228D02*
X145964287Y-95825085D01*
X145964287Y-95825085D02*
X145892858Y-95896514D01*
X145892858Y-95896514D02*
X145750001Y-95967942D01*
X145750001Y-95967942D02*
X145178572Y-95967942D01*
X146678572Y-95896514D02*
X147178572Y-95896514D01*
X147392858Y-96682228D02*
X146678572Y-96682228D01*
X146678572Y-96682228D02*
X146678572Y-95182228D01*
X146678572Y-95182228D02*
X147392858Y-95182228D01*
X147964287Y-96253657D02*
X148678573Y-96253657D01*
X147821430Y-96682228D02*
X148321430Y-95182228D01*
X148321430Y-95182228D02*
X148821430Y-96682228D01*
X149321429Y-96682228D02*
X149321429Y-95182228D01*
X150178572Y-96682228D02*
X149535715Y-95825085D01*
X150178572Y-95182228D02*
X149321429Y-96039371D01*
X151107144Y-95182228D02*
X151392858Y-95182228D01*
X151392858Y-95182228D02*
X151535715Y-95253657D01*
X151535715Y-95253657D02*
X151678572Y-95396514D01*
X151678572Y-95396514D02*
X151750001Y-95682228D01*
X151750001Y-95682228D02*
X151750001Y-96182228D01*
X151750001Y-96182228D02*
X151678572Y-96467942D01*
X151678572Y-96467942D02*
X151535715Y-96610800D01*
X151535715Y-96610800D02*
X151392858Y-96682228D01*
X151392858Y-96682228D02*
X151107144Y-96682228D01*
X151107144Y-96682228D02*
X150964287Y-96610800D01*
X150964287Y-96610800D02*
X150821429Y-96467942D01*
X150821429Y-96467942D02*
X150750001Y-96182228D01*
X150750001Y-96182228D02*
X150750001Y-95682228D01*
X150750001Y-95682228D02*
X150821429Y-95396514D01*
X150821429Y-95396514D02*
X150964287Y-95253657D01*
X150964287Y-95253657D02*
X151107144Y-95182228D01*
X152392858Y-95182228D02*
X152392858Y-96396514D01*
X152392858Y-96396514D02*
X152464287Y-96539371D01*
X152464287Y-96539371D02*
X152535716Y-96610800D01*
X152535716Y-96610800D02*
X152678573Y-96682228D01*
X152678573Y-96682228D02*
X152964287Y-96682228D01*
X152964287Y-96682228D02*
X153107144Y-96610800D01*
X153107144Y-96610800D02*
X153178573Y-96539371D01*
X153178573Y-96539371D02*
X153250001Y-96396514D01*
X153250001Y-96396514D02*
X153250001Y-95182228D01*
X153750002Y-95182228D02*
X154607145Y-95182228D01*
X154178573Y-96682228D02*
X154178573Y-95182228D01*
X156678573Y-97253657D02*
X156607144Y-97182228D01*
X156607144Y-97182228D02*
X156464287Y-96967942D01*
X156464287Y-96967942D02*
X156392859Y-96825085D01*
X156392859Y-96825085D02*
X156321430Y-96610800D01*
X156321430Y-96610800D02*
X156250001Y-96253657D01*
X156250001Y-96253657D02*
X156250001Y-95967942D01*
X156250001Y-95967942D02*
X156321430Y-95610800D01*
X156321430Y-95610800D02*
X156392859Y-95396514D01*
X156392859Y-95396514D02*
X156464287Y-95253657D01*
X156464287Y-95253657D02*
X156607144Y-95039371D01*
X156607144Y-95039371D02*
X156678573Y-94967942D01*
X157035716Y-95182228D02*
X157892859Y-95182228D01*
X157464287Y-96682228D02*
X157464287Y-95182228D01*
X159250001Y-96682228D02*
X158750001Y-95967942D01*
X158392858Y-96682228D02*
X158392858Y-95182228D01*
X158392858Y-95182228D02*
X158964287Y-95182228D01*
X158964287Y-95182228D02*
X159107144Y-95253657D01*
X159107144Y-95253657D02*
X159178573Y-95325085D01*
X159178573Y-95325085D02*
X159250001Y-95467942D01*
X159250001Y-95467942D02*
X159250001Y-95682228D01*
X159250001Y-95682228D02*
X159178573Y-95825085D01*
X159178573Y-95825085D02*
X159107144Y-95896514D01*
X159107144Y-95896514D02*
X158964287Y-95967942D01*
X158964287Y-95967942D02*
X158392858Y-95967942D01*
X160178573Y-95967942D02*
X160178573Y-96682228D01*
X159678573Y-95182228D02*
X160178573Y-95967942D01*
X160178573Y-95967942D02*
X160678573Y-95182228D01*
X161464287Y-95182228D02*
X161750001Y-95182228D01*
X161750001Y-95182228D02*
X161892858Y-95253657D01*
X161892858Y-95253657D02*
X162035715Y-95396514D01*
X162035715Y-95396514D02*
X162107144Y-95682228D01*
X162107144Y-95682228D02*
X162107144Y-96182228D01*
X162107144Y-96182228D02*
X162035715Y-96467942D01*
X162035715Y-96467942D02*
X161892858Y-96610800D01*
X161892858Y-96610800D02*
X161750001Y-96682228D01*
X161750001Y-96682228D02*
X161464287Y-96682228D01*
X161464287Y-96682228D02*
X161321430Y-96610800D01*
X161321430Y-96610800D02*
X161178572Y-96467942D01*
X161178572Y-96467942D02*
X161107144Y-96182228D01*
X161107144Y-96182228D02*
X161107144Y-95682228D01*
X161107144Y-95682228D02*
X161178572Y-95396514D01*
X161178572Y-95396514D02*
X161321430Y-95253657D01*
X161321430Y-95253657D02*
X161464287Y-95182228D01*
X162750001Y-95182228D02*
X162750001Y-96396514D01*
X162750001Y-96396514D02*
X162821430Y-96539371D01*
X162821430Y-96539371D02*
X162892859Y-96610800D01*
X162892859Y-96610800D02*
X163035716Y-96682228D01*
X163035716Y-96682228D02*
X163321430Y-96682228D01*
X163321430Y-96682228D02*
X163464287Y-96610800D01*
X163464287Y-96610800D02*
X163535716Y-96539371D01*
X163535716Y-96539371D02*
X163607144Y-96396514D01*
X163607144Y-96396514D02*
X163607144Y-95182228D01*
X164107145Y-95182228D02*
X164964288Y-95182228D01*
X164535716Y-96682228D02*
X164535716Y-95182228D01*
X166607144Y-96682228D02*
X166607144Y-95682228D01*
X166607144Y-95967942D02*
X166678573Y-95825085D01*
X166678573Y-95825085D02*
X166750002Y-95753657D01*
X166750002Y-95753657D02*
X166892859Y-95682228D01*
X166892859Y-95682228D02*
X167035716Y-95682228D01*
X168107144Y-96610800D02*
X167964287Y-96682228D01*
X167964287Y-96682228D02*
X167678573Y-96682228D01*
X167678573Y-96682228D02*
X167535715Y-96610800D01*
X167535715Y-96610800D02*
X167464287Y-96467942D01*
X167464287Y-96467942D02*
X167464287Y-95896514D01*
X167464287Y-95896514D02*
X167535715Y-95753657D01*
X167535715Y-95753657D02*
X167678573Y-95682228D01*
X167678573Y-95682228D02*
X167964287Y-95682228D01*
X167964287Y-95682228D02*
X168107144Y-95753657D01*
X168107144Y-95753657D02*
X168178573Y-95896514D01*
X168178573Y-95896514D02*
X168178573Y-96039371D01*
X168178573Y-96039371D02*
X167464287Y-96182228D01*
X168678572Y-95682228D02*
X169035715Y-96682228D01*
X169035715Y-96682228D02*
X169392858Y-95682228D01*
X171392858Y-95182228D02*
X171535715Y-95182228D01*
X171535715Y-95182228D02*
X171678572Y-95253657D01*
X171678572Y-95253657D02*
X171750001Y-95325085D01*
X171750001Y-95325085D02*
X171821429Y-95467942D01*
X171821429Y-95467942D02*
X171892858Y-95753657D01*
X171892858Y-95753657D02*
X171892858Y-96110800D01*
X171892858Y-96110800D02*
X171821429Y-96396514D01*
X171821429Y-96396514D02*
X171750001Y-96539371D01*
X171750001Y-96539371D02*
X171678572Y-96610800D01*
X171678572Y-96610800D02*
X171535715Y-96682228D01*
X171535715Y-96682228D02*
X171392858Y-96682228D01*
X171392858Y-96682228D02*
X171250001Y-96610800D01*
X171250001Y-96610800D02*
X171178572Y-96539371D01*
X171178572Y-96539371D02*
X171107143Y-96396514D01*
X171107143Y-96396514D02*
X171035715Y-96110800D01*
X171035715Y-96110800D02*
X171035715Y-95753657D01*
X171035715Y-95753657D02*
X171107143Y-95467942D01*
X171107143Y-95467942D02*
X171178572Y-95325085D01*
X171178572Y-95325085D02*
X171250001Y-95253657D01*
X171250001Y-95253657D02*
X171392858Y-95182228D01*
X172535714Y-96539371D02*
X172607143Y-96610800D01*
X172607143Y-96610800D02*
X172535714Y-96682228D01*
X172535714Y-96682228D02*
X172464286Y-96610800D01*
X172464286Y-96610800D02*
X172535714Y-96539371D01*
X172535714Y-96539371D02*
X172535714Y-96682228D01*
X173535715Y-95182228D02*
X173678572Y-95182228D01*
X173678572Y-95182228D02*
X173821429Y-95253657D01*
X173821429Y-95253657D02*
X173892858Y-95325085D01*
X173892858Y-95325085D02*
X173964286Y-95467942D01*
X173964286Y-95467942D02*
X174035715Y-95753657D01*
X174035715Y-95753657D02*
X174035715Y-96110800D01*
X174035715Y-96110800D02*
X173964286Y-96396514D01*
X173964286Y-96396514D02*
X173892858Y-96539371D01*
X173892858Y-96539371D02*
X173821429Y-96610800D01*
X173821429Y-96610800D02*
X173678572Y-96682228D01*
X173678572Y-96682228D02*
X173535715Y-96682228D01*
X173535715Y-96682228D02*
X173392858Y-96610800D01*
X173392858Y-96610800D02*
X173321429Y-96539371D01*
X173321429Y-96539371D02*
X173250000Y-96396514D01*
X173250000Y-96396514D02*
X173178572Y-96110800D01*
X173178572Y-96110800D02*
X173178572Y-95753657D01*
X173178572Y-95753657D02*
X173250000Y-95467942D01*
X173250000Y-95467942D02*
X173321429Y-95325085D01*
X173321429Y-95325085D02*
X173392858Y-95253657D01*
X173392858Y-95253657D02*
X173535715Y-95182228D01*
X174535714Y-97253657D02*
X174607143Y-97182228D01*
X174607143Y-97182228D02*
X174750000Y-96967942D01*
X174750000Y-96967942D02*
X174821429Y-96825085D01*
X174821429Y-96825085D02*
X174892857Y-96610800D01*
X174892857Y-96610800D02*
X174964286Y-96253657D01*
X174964286Y-96253657D02*
X174964286Y-95967942D01*
X174964286Y-95967942D02*
X174892857Y-95610800D01*
X174892857Y-95610800D02*
X174821429Y-95396514D01*
X174821429Y-95396514D02*
X174750000Y-95253657D01*
X174750000Y-95253657D02*
X174607143Y-95039371D01*
X174607143Y-95039371D02*
X174535714Y-94967942D01*
D10*
X173085714Y-81345782D02*
X172514286Y-81345782D01*
X172514286Y-81345782D02*
X172457143Y-81917211D01*
X172457143Y-81917211D02*
X172514286Y-81860068D01*
X172514286Y-81860068D02*
X172628572Y-81802925D01*
X172628572Y-81802925D02*
X172914286Y-81802925D01*
X172914286Y-81802925D02*
X173028572Y-81860068D01*
X173028572Y-81860068D02*
X173085714Y-81917211D01*
X173085714Y-81917211D02*
X173142857Y-82031497D01*
X173142857Y-82031497D02*
X173142857Y-82317211D01*
X173142857Y-82317211D02*
X173085714Y-82431497D01*
X173085714Y-82431497D02*
X173028572Y-82488640D01*
X173028572Y-82488640D02*
X172914286Y-82545782D01*
X172914286Y-82545782D02*
X172628572Y-82545782D01*
X172628572Y-82545782D02*
X172514286Y-82488640D01*
X172514286Y-82488640D02*
X172457143Y-82431497D01*
X173485714Y-81345782D02*
X173885714Y-82545782D01*
X173885714Y-82545782D02*
X174285714Y-81345782D01*
X175428571Y-81745782D02*
X175885714Y-81745782D01*
X175600000Y-81345782D02*
X175600000Y-82374354D01*
X175600000Y-82374354D02*
X175657143Y-82488640D01*
X175657143Y-82488640D02*
X175771428Y-82545782D01*
X175771428Y-82545782D02*
X175885714Y-82545782D01*
X176457142Y-82545782D02*
X176342857Y-82488640D01*
X176342857Y-82488640D02*
X176285714Y-82431497D01*
X176285714Y-82431497D02*
X176228571Y-82317211D01*
X176228571Y-82317211D02*
X176228571Y-81974354D01*
X176228571Y-81974354D02*
X176285714Y-81860068D01*
X176285714Y-81860068D02*
X176342857Y-81802925D01*
X176342857Y-81802925D02*
X176457142Y-81745782D01*
X176457142Y-81745782D02*
X176628571Y-81745782D01*
X176628571Y-81745782D02*
X176742857Y-81802925D01*
X176742857Y-81802925D02*
X176800000Y-81860068D01*
X176800000Y-81860068D02*
X176857142Y-81974354D01*
X176857142Y-81974354D02*
X176857142Y-82317211D01*
X176857142Y-82317211D02*
X176800000Y-82431497D01*
X176800000Y-82431497D02*
X176742857Y-82488640D01*
X176742857Y-82488640D02*
X176628571Y-82545782D01*
X176628571Y-82545782D02*
X176457142Y-82545782D01*
X178285714Y-82545782D02*
X178285714Y-81345782D01*
X178285714Y-81345782D02*
X178742857Y-81345782D01*
X178742857Y-81345782D02*
X178857142Y-81402925D01*
X178857142Y-81402925D02*
X178914285Y-81460068D01*
X178914285Y-81460068D02*
X178971428Y-81574354D01*
X178971428Y-81574354D02*
X178971428Y-81745782D01*
X178971428Y-81745782D02*
X178914285Y-81860068D01*
X178914285Y-81860068D02*
X178857142Y-81917211D01*
X178857142Y-81917211D02*
X178742857Y-81974354D01*
X178742857Y-81974354D02*
X178285714Y-81974354D01*
X179485714Y-82545782D02*
X179485714Y-81745782D01*
X179485714Y-81345782D02*
X179428571Y-81402925D01*
X179428571Y-81402925D02*
X179485714Y-81460068D01*
X179485714Y-81460068D02*
X179542857Y-81402925D01*
X179542857Y-81402925D02*
X179485714Y-81345782D01*
X179485714Y-81345782D02*
X179485714Y-81460068D01*
X115600001Y-82488640D02*
X115485715Y-82545782D01*
X115485715Y-82545782D02*
X115257143Y-82545782D01*
X115257143Y-82545782D02*
X115142858Y-82488640D01*
X115142858Y-82488640D02*
X115085715Y-82431497D01*
X115085715Y-82431497D02*
X115028572Y-82317211D01*
X115028572Y-82317211D02*
X115028572Y-81974354D01*
X115028572Y-81974354D02*
X115085715Y-81860068D01*
X115085715Y-81860068D02*
X115142858Y-81802925D01*
X115142858Y-81802925D02*
X115257143Y-81745782D01*
X115257143Y-81745782D02*
X115485715Y-81745782D01*
X115485715Y-81745782D02*
X115600001Y-81802925D01*
X116114286Y-82545782D02*
X116114286Y-81345782D01*
X116628572Y-82545782D02*
X116628572Y-81917211D01*
X116628572Y-81917211D02*
X116571429Y-81802925D01*
X116571429Y-81802925D02*
X116457143Y-81745782D01*
X116457143Y-81745782D02*
X116285714Y-81745782D01*
X116285714Y-81745782D02*
X116171429Y-81802925D01*
X116171429Y-81802925D02*
X116114286Y-81860068D01*
X117714286Y-81745782D02*
X117714286Y-82545782D01*
X117200000Y-81745782D02*
X117200000Y-82374354D01*
X117200000Y-82374354D02*
X117257143Y-82488640D01*
X117257143Y-82488640D02*
X117371428Y-82545782D01*
X117371428Y-82545782D02*
X117542857Y-82545782D01*
X117542857Y-82545782D02*
X117657143Y-82488640D01*
X117657143Y-82488640D02*
X117714286Y-82431497D01*
X118285714Y-82545782D02*
X118285714Y-81745782D01*
X118285714Y-81860068D02*
X118342857Y-81802925D01*
X118342857Y-81802925D02*
X118457142Y-81745782D01*
X118457142Y-81745782D02*
X118628571Y-81745782D01*
X118628571Y-81745782D02*
X118742857Y-81802925D01*
X118742857Y-81802925D02*
X118800000Y-81917211D01*
X118800000Y-81917211D02*
X118800000Y-82545782D01*
X118800000Y-81917211D02*
X118857142Y-81802925D01*
X118857142Y-81802925D02*
X118971428Y-81745782D01*
X118971428Y-81745782D02*
X119142857Y-81745782D01*
X119142857Y-81745782D02*
X119257142Y-81802925D01*
X119257142Y-81802925D02*
X119314285Y-81917211D01*
X119314285Y-81917211D02*
X119314285Y-82545782D01*
X119885714Y-82545782D02*
X119885714Y-81345782D01*
X119885714Y-81802925D02*
X120000000Y-81745782D01*
X120000000Y-81745782D02*
X120228571Y-81745782D01*
X120228571Y-81745782D02*
X120342857Y-81802925D01*
X120342857Y-81802925D02*
X120400000Y-81860068D01*
X120400000Y-81860068D02*
X120457142Y-81974354D01*
X120457142Y-81974354D02*
X120457142Y-82317211D01*
X120457142Y-82317211D02*
X120400000Y-82431497D01*
X120400000Y-82431497D02*
X120342857Y-82488640D01*
X120342857Y-82488640D02*
X120228571Y-82545782D01*
X120228571Y-82545782D02*
X120000000Y-82545782D01*
X120000000Y-82545782D02*
X119885714Y-82488640D01*
X120971428Y-82545782D02*
X120971428Y-81745782D01*
X120971428Y-81345782D02*
X120914285Y-81402925D01*
X120914285Y-81402925D02*
X120971428Y-81460068D01*
X120971428Y-81460068D02*
X121028571Y-81402925D01*
X121028571Y-81402925D02*
X120971428Y-81345782D01*
X120971428Y-81345782D02*
X120971428Y-81460068D01*
X121714285Y-82545782D02*
X121600000Y-82488640D01*
X121600000Y-82488640D02*
X121542857Y-82374354D01*
X121542857Y-82374354D02*
X121542857Y-81345782D01*
X122171428Y-82545782D02*
X122171428Y-81745782D01*
X122171428Y-81345782D02*
X122114285Y-81402925D01*
X122114285Y-81402925D02*
X122171428Y-81460068D01*
X122171428Y-81460068D02*
X122228571Y-81402925D01*
X122228571Y-81402925D02*
X122171428Y-81345782D01*
X122171428Y-81345782D02*
X122171428Y-81460068D01*
X123257143Y-82488640D02*
X123142857Y-82545782D01*
X123142857Y-82545782D02*
X122914285Y-82545782D01*
X122914285Y-82545782D02*
X122800000Y-82488640D01*
X122800000Y-82488640D02*
X122742857Y-82431497D01*
X122742857Y-82431497D02*
X122685714Y-82317211D01*
X122685714Y-82317211D02*
X122685714Y-81974354D01*
X122685714Y-81974354D02*
X122742857Y-81860068D01*
X122742857Y-81860068D02*
X122800000Y-81802925D01*
X122800000Y-81802925D02*
X122914285Y-81745782D01*
X122914285Y-81745782D02*
X123142857Y-81745782D01*
X123142857Y-81745782D02*
X123257143Y-81802925D01*
X124285714Y-82545782D02*
X124285714Y-81917211D01*
X124285714Y-81917211D02*
X124228571Y-81802925D01*
X124228571Y-81802925D02*
X124114285Y-81745782D01*
X124114285Y-81745782D02*
X123885714Y-81745782D01*
X123885714Y-81745782D02*
X123771428Y-81802925D01*
X124285714Y-82488640D02*
X124171428Y-82545782D01*
X124171428Y-82545782D02*
X123885714Y-82545782D01*
X123885714Y-82545782D02*
X123771428Y-82488640D01*
X123771428Y-82488640D02*
X123714285Y-82374354D01*
X123714285Y-82374354D02*
X123714285Y-82260068D01*
X123714285Y-82260068D02*
X123771428Y-82145782D01*
X123771428Y-82145782D02*
X123885714Y-82088640D01*
X123885714Y-82088640D02*
X124171428Y-82088640D01*
X124171428Y-82088640D02*
X124285714Y-82031497D01*
X125028570Y-82545782D02*
X124914285Y-82488640D01*
X124914285Y-82488640D02*
X124857142Y-82374354D01*
X124857142Y-82374354D02*
X124857142Y-81345782D01*
D12*
X98738095Y-80804819D02*
X98738095Y-79804819D01*
X98738095Y-80281009D02*
X99309523Y-80281009D01*
X99309523Y-80804819D02*
X99309523Y-79804819D01*
X100309523Y-80804819D02*
X99738095Y-80804819D01*
X100023809Y-80804819D02*
X100023809Y-79804819D01*
X100023809Y-79804819D02*
X99928571Y-79947676D01*
X99928571Y-79947676D02*
X99833333Y-80042914D01*
X99833333Y-80042914D02*
X99738095Y-80090533D01*
X181116666Y-91659819D02*
X181116666Y-92374104D01*
X181116666Y-92374104D02*
X181069047Y-92516961D01*
X181069047Y-92516961D02*
X180973809Y-92612200D01*
X180973809Y-92612200D02*
X180830952Y-92659819D01*
X180830952Y-92659819D02*
X180735714Y-92659819D01*
X181497619Y-91659819D02*
X182116666Y-91659819D01*
X182116666Y-91659819D02*
X181783333Y-92040771D01*
X181783333Y-92040771D02*
X181926190Y-92040771D01*
X181926190Y-92040771D02*
X182021428Y-92088390D01*
X182021428Y-92088390D02*
X182069047Y-92136009D01*
X182069047Y-92136009D02*
X182116666Y-92231247D01*
X182116666Y-92231247D02*
X182116666Y-92469342D01*
X182116666Y-92469342D02*
X182069047Y-92564580D01*
X182069047Y-92564580D02*
X182021428Y-92612200D01*
X182021428Y-92612200D02*
X181926190Y-92659819D01*
X181926190Y-92659819D02*
X181640476Y-92659819D01*
X181640476Y-92659819D02*
X181545238Y-92612200D01*
X181545238Y-92612200D02*
X181497619Y-92564580D01*
X101834819Y-128333333D02*
X102549104Y-128333333D01*
X102549104Y-128333333D02*
X102691961Y-128380952D01*
X102691961Y-128380952D02*
X102787200Y-128476190D01*
X102787200Y-128476190D02*
X102834819Y-128619047D01*
X102834819Y-128619047D02*
X102834819Y-128714285D01*
X101930057Y-127904761D02*
X101882438Y-127857142D01*
X101882438Y-127857142D02*
X101834819Y-127761904D01*
X101834819Y-127761904D02*
X101834819Y-127523809D01*
X101834819Y-127523809D02*
X101882438Y-127428571D01*
X101882438Y-127428571D02*
X101930057Y-127380952D01*
X101930057Y-127380952D02*
X102025295Y-127333333D01*
X102025295Y-127333333D02*
X102120533Y-127333333D01*
X102120533Y-127333333D02*
X102263390Y-127380952D01*
X102263390Y-127380952D02*
X102834819Y-127952380D01*
X102834819Y-127952380D02*
X102834819Y-127333333D01*
X191954819Y-138008333D02*
X192669104Y-138008333D01*
X192669104Y-138008333D02*
X192811961Y-138055952D01*
X192811961Y-138055952D02*
X192907200Y-138151190D01*
X192907200Y-138151190D02*
X192954819Y-138294047D01*
X192954819Y-138294047D02*
X192954819Y-138389285D01*
X191954819Y-137055952D02*
X191954819Y-137532142D01*
X191954819Y-137532142D02*
X192431009Y-137579761D01*
X192431009Y-137579761D02*
X192383390Y-137532142D01*
X192383390Y-137532142D02*
X192335771Y-137436904D01*
X192335771Y-137436904D02*
X192335771Y-137198809D01*
X192335771Y-137198809D02*
X192383390Y-137103571D01*
X192383390Y-137103571D02*
X192431009Y-137055952D01*
X192431009Y-137055952D02*
X192526247Y-137008333D01*
X192526247Y-137008333D02*
X192764342Y-137008333D01*
X192764342Y-137008333D02*
X192859580Y-137055952D01*
X192859580Y-137055952D02*
X192907200Y-137103571D01*
X192907200Y-137103571D02*
X192954819Y-137198809D01*
X192954819Y-137198809D02*
X192954819Y-137436904D01*
X192954819Y-137436904D02*
X192907200Y-137532142D01*
X192907200Y-137532142D02*
X192859580Y-137579761D01*
X98738095Y-126804819D02*
X98738095Y-125804819D01*
X98738095Y-126281009D02*
X99309523Y-126281009D01*
X99309523Y-126804819D02*
X99309523Y-125804819D01*
X99690476Y-125804819D02*
X100309523Y-125804819D01*
X100309523Y-125804819D02*
X99976190Y-126185771D01*
X99976190Y-126185771D02*
X100119047Y-126185771D01*
X100119047Y-126185771D02*
X100214285Y-126233390D01*
X100214285Y-126233390D02*
X100261904Y-126281009D01*
X100261904Y-126281009D02*
X100309523Y-126376247D01*
X100309523Y-126376247D02*
X100309523Y-126614342D01*
X100309523Y-126614342D02*
X100261904Y-126709580D01*
X100261904Y-126709580D02*
X100214285Y-126757200D01*
X100214285Y-126757200D02*
X100119047Y-126804819D01*
X100119047Y-126804819D02*
X99833333Y-126804819D01*
X99833333Y-126804819D02*
X99738095Y-126757200D01*
X99738095Y-126757200D02*
X99690476Y-126709580D01*
X175954819Y-138008333D02*
X176669104Y-138008333D01*
X176669104Y-138008333D02*
X176811961Y-138055952D01*
X176811961Y-138055952D02*
X176907200Y-138151190D01*
X176907200Y-138151190D02*
X176954819Y-138294047D01*
X176954819Y-138294047D02*
X176954819Y-138389285D01*
X176288152Y-137103571D02*
X176954819Y-137103571D01*
X175907200Y-137341666D02*
X176621485Y-137579761D01*
X176621485Y-137579761D02*
X176621485Y-136960714D01*
X104194819Y-88238094D02*
X103194819Y-88238094D01*
X103194819Y-88238094D02*
X103194819Y-87857142D01*
X103194819Y-87857142D02*
X103242438Y-87761904D01*
X103242438Y-87761904D02*
X103290057Y-87714285D01*
X103290057Y-87714285D02*
X103385295Y-87666666D01*
X103385295Y-87666666D02*
X103528152Y-87666666D01*
X103528152Y-87666666D02*
X103623390Y-87714285D01*
X103623390Y-87714285D02*
X103671009Y-87761904D01*
X103671009Y-87761904D02*
X103718628Y-87857142D01*
X103718628Y-87857142D02*
X103718628Y-88238094D01*
X104194819Y-86714285D02*
X104194819Y-87285713D01*
X104194819Y-86999999D02*
X103194819Y-86999999D01*
X103194819Y-86999999D02*
X103337676Y-87095237D01*
X103337676Y-87095237D02*
X103432914Y-87190475D01*
X103432914Y-87190475D02*
X103480533Y-87285713D01*
X129666666Y-130504819D02*
X129666666Y-131219104D01*
X129666666Y-131219104D02*
X129619047Y-131361961D01*
X129619047Y-131361961D02*
X129523809Y-131457200D01*
X129523809Y-131457200D02*
X129380952Y-131504819D01*
X129380952Y-131504819D02*
X129285714Y-131504819D01*
X130047619Y-130504819D02*
X130714285Y-130504819D01*
X130714285Y-130504819D02*
X130285714Y-131504819D01*
X189738095Y-80804819D02*
X189738095Y-79804819D01*
X189738095Y-80281009D02*
X190309523Y-80281009D01*
X190309523Y-80804819D02*
X190309523Y-79804819D01*
X190738095Y-79900057D02*
X190785714Y-79852438D01*
X190785714Y-79852438D02*
X190880952Y-79804819D01*
X190880952Y-79804819D02*
X191119047Y-79804819D01*
X191119047Y-79804819D02*
X191214285Y-79852438D01*
X191214285Y-79852438D02*
X191261904Y-79900057D01*
X191261904Y-79900057D02*
X191309523Y-79995295D01*
X191309523Y-79995295D02*
X191309523Y-80090533D01*
X191309523Y-80090533D02*
X191261904Y-80233390D01*
X191261904Y-80233390D02*
X190690476Y-80804819D01*
X190690476Y-80804819D02*
X191309523Y-80804819D01*
X146146666Y-122654819D02*
X146146666Y-123369104D01*
X146146666Y-123369104D02*
X146099047Y-123511961D01*
X146099047Y-123511961D02*
X146003809Y-123607200D01*
X146003809Y-123607200D02*
X145860952Y-123654819D01*
X145860952Y-123654819D02*
X145765714Y-123654819D01*
X147051428Y-122654819D02*
X146860952Y-122654819D01*
X146860952Y-122654819D02*
X146765714Y-122702438D01*
X146765714Y-122702438D02*
X146718095Y-122750057D01*
X146718095Y-122750057D02*
X146622857Y-122892914D01*
X146622857Y-122892914D02*
X146575238Y-123083390D01*
X146575238Y-123083390D02*
X146575238Y-123464342D01*
X146575238Y-123464342D02*
X146622857Y-123559580D01*
X146622857Y-123559580D02*
X146670476Y-123607200D01*
X146670476Y-123607200D02*
X146765714Y-123654819D01*
X146765714Y-123654819D02*
X146956190Y-123654819D01*
X146956190Y-123654819D02*
X147051428Y-123607200D01*
X147051428Y-123607200D02*
X147099047Y-123559580D01*
X147099047Y-123559580D02*
X147146666Y-123464342D01*
X147146666Y-123464342D02*
X147146666Y-123226247D01*
X147146666Y-123226247D02*
X147099047Y-123131009D01*
X147099047Y-123131009D02*
X147051428Y-123083390D01*
X147051428Y-123083390D02*
X146956190Y-123035771D01*
X146956190Y-123035771D02*
X146765714Y-123035771D01*
X146765714Y-123035771D02*
X146670476Y-123083390D01*
X146670476Y-123083390D02*
X146622857Y-123131009D01*
X146622857Y-123131009D02*
X146575238Y-123226247D01*
D13*
%TO.C,J3*%
X168640000Y-85295000D02*
X168640000Y-76755000D01*
X168640000Y-88995000D02*
X168640000Y-90975000D01*
X179000000Y-91855000D02*
X180000000Y-91855000D01*
X179500000Y-91355000D02*
X179000000Y-91855000D01*
X180000000Y-91855000D02*
X179500000Y-91355000D01*
X183360000Y-76755000D02*
X168640000Y-76755000D01*
X183360000Y-85295000D02*
X183360000Y-76755000D01*
X183360000Y-90975000D02*
X168640000Y-90975000D01*
X183360000Y-90975000D02*
X183360000Y-88995000D01*
%TO.C,J2*%
X103380000Y-125350000D02*
X116300000Y-125350000D01*
X103380000Y-128000000D02*
X103380000Y-125350000D01*
X103380000Y-130650000D02*
X103380000Y-129270000D01*
X104760000Y-130650000D02*
X103380000Y-130650000D01*
X106030000Y-128000000D02*
X103380000Y-128000000D01*
X106030000Y-130650000D02*
X106030000Y-128000000D01*
X106030000Y-130650000D02*
X116300000Y-130650000D01*
X116300000Y-130650000D02*
X116300000Y-125350000D01*
%TO.C,J5*%
X178890000Y-131160000D02*
X178890000Y-131430000D01*
X180640000Y-125755000D02*
X180640000Y-127375000D01*
X180640000Y-127375000D02*
X179600000Y-127375000D01*
X189360000Y-125275000D02*
X188900000Y-125275000D01*
X189360000Y-125275000D02*
X189360000Y-127375000D01*
X190400000Y-127375000D02*
X189360000Y-127375000D01*
X191110000Y-131160000D02*
X191110000Y-131430000D01*
%TO.C,J4*%
X162890000Y-131160000D02*
X162890000Y-131430000D01*
X164640000Y-125755000D02*
X164640000Y-127375000D01*
X164640000Y-127375000D02*
X163600000Y-127375000D01*
X173360000Y-125275000D02*
X172900000Y-125275000D01*
X173360000Y-125275000D02*
X173360000Y-127375000D01*
X174400000Y-127375000D02*
X173360000Y-127375000D01*
X175110000Y-131160000D02*
X175110000Y-131430000D01*
%TO.C,P1*%
X104630000Y-82940000D02*
X145530000Y-82940000D01*
X104630000Y-92060000D02*
X104630000Y-82940000D01*
X105930000Y-84250000D02*
X144230000Y-84250000D01*
X105930000Y-90750000D02*
X105930000Y-84250000D01*
X109340000Y-93450000D02*
X110340000Y-93450000D01*
X109840000Y-92450000D02*
X109340000Y-93450000D01*
X110340000Y-93450000D02*
X109840000Y-92450000D01*
X123030000Y-90750000D02*
X105930000Y-90750000D01*
X123030000Y-92060000D02*
X123030000Y-90750000D01*
X127130000Y-90750000D02*
X127130000Y-90750000D01*
X127130000Y-90750000D02*
X127130000Y-92060000D01*
X144230000Y-84250000D02*
X144230000Y-90750000D01*
X144230000Y-90750000D02*
X127130000Y-90750000D01*
X145530000Y-82940000D02*
X145530000Y-92060000D01*
X145530000Y-92060000D02*
X104630000Y-92060000D01*
%TO.C,J7*%
X124940000Y-122140000D02*
X124940000Y-129960000D01*
X124940000Y-128360000D02*
X125860000Y-128360000D01*
X124940000Y-129960000D02*
X125860000Y-129960000D01*
X125700000Y-124400000D02*
X126700000Y-124400000D01*
X125700000Y-126000000D02*
X125700000Y-124400000D01*
X125860000Y-128360000D02*
X126140000Y-128360000D01*
X125860000Y-129960000D02*
X125860000Y-128360000D01*
X126700000Y-124400000D02*
X126700000Y-126000000D01*
X126700000Y-126000000D02*
X125700000Y-126000000D01*
X127500000Y-126500000D02*
X127500000Y-122140000D01*
X132500000Y-122140000D02*
X132500000Y-126500000D01*
X132500000Y-126500000D02*
X127500000Y-126500000D01*
X133300000Y-124400000D02*
X133300000Y-122140000D01*
X133300000Y-124400000D02*
X133300000Y-126000000D01*
X133300000Y-126000000D02*
X134300000Y-126000000D01*
X133800000Y-124400000D02*
X133800000Y-122140000D01*
X133860000Y-128360000D02*
X133860000Y-129575000D01*
X133860000Y-128360000D02*
X134140000Y-128360000D01*
X134140000Y-128360000D02*
X134140000Y-129960000D01*
X134140000Y-129960000D02*
X135060000Y-129960000D01*
X134300000Y-124400000D02*
X133300000Y-124400000D01*
X134300000Y-126000000D02*
X134300000Y-124400000D01*
X135060000Y-122140000D02*
X124940000Y-122140000D01*
X135060000Y-128360000D02*
X134140000Y-128360000D01*
X135060000Y-129960000D02*
X135060000Y-122140000D01*
%TO.C,J6*%
X136340000Y-124190000D02*
X136340000Y-131810000D01*
X136340000Y-124190000D02*
X156660000Y-124190000D01*
X136340000Y-131810000D02*
X156660000Y-131810000D01*
X156660000Y-130540000D02*
X136340000Y-130540000D01*
X156660000Y-131810000D02*
X156660000Y-124190000D01*
%TD*%
M02*
