%TF.GenerationSoftware,KiCad,Pcbnew,9.0.2+dfsg-1*%
%TF.CreationDate,2026-07-17T01:09:15+02:00*%
%TF.ProjectId,chumby-breakout,6368756d-6279-42d6-9272-65616b6f7574,rev?*%
%TF.SameCoordinates,Original*%
%TF.FileFunction,AssemblyDrawing,Top*%
%FSLAX46Y46*%
G04 Gerber Fmt 4.6, Leading zero omitted, Abs format (unit mm)*
G04 Created by KiCad (PCBNEW 9.0.2+dfsg-1) date 2026-07-17 01:09:15*
%MOMM*%
%LPD*%
G01*
G04 APERTURE LIST*
%ADD10C,0.150000*%
%ADD11C,0.100000*%
G04 APERTURE END LIST*
D10*
X87095238Y-89104819D02*
X87095238Y-88104819D01*
X87095238Y-88104819D02*
X87428571Y-88819104D01*
X87428571Y-88819104D02*
X87761904Y-88104819D01*
X87761904Y-88104819D02*
X87761904Y-89104819D01*
X88380952Y-89104819D02*
X88285714Y-89057200D01*
X88285714Y-89057200D02*
X88238095Y-89009580D01*
X88238095Y-89009580D02*
X88190476Y-88914342D01*
X88190476Y-88914342D02*
X88190476Y-88628628D01*
X88190476Y-88628628D02*
X88238095Y-88533390D01*
X88238095Y-88533390D02*
X88285714Y-88485771D01*
X88285714Y-88485771D02*
X88380952Y-88438152D01*
X88380952Y-88438152D02*
X88523809Y-88438152D01*
X88523809Y-88438152D02*
X88619047Y-88485771D01*
X88619047Y-88485771D02*
X88666666Y-88533390D01*
X88666666Y-88533390D02*
X88714285Y-88628628D01*
X88714285Y-88628628D02*
X88714285Y-88914342D01*
X88714285Y-88914342D02*
X88666666Y-89009580D01*
X88666666Y-89009580D02*
X88619047Y-89057200D01*
X88619047Y-89057200D02*
X88523809Y-89104819D01*
X88523809Y-89104819D02*
X88380952Y-89104819D01*
X89571428Y-88438152D02*
X89571428Y-89104819D01*
X89142857Y-88438152D02*
X89142857Y-88961961D01*
X89142857Y-88961961D02*
X89190476Y-89057200D01*
X89190476Y-89057200D02*
X89285714Y-89104819D01*
X89285714Y-89104819D02*
X89428571Y-89104819D01*
X89428571Y-89104819D02*
X89523809Y-89057200D01*
X89523809Y-89057200D02*
X89571428Y-89009580D01*
X90047619Y-88438152D02*
X90047619Y-89104819D01*
X90047619Y-88533390D02*
X90095238Y-88485771D01*
X90095238Y-88485771D02*
X90190476Y-88438152D01*
X90190476Y-88438152D02*
X90333333Y-88438152D01*
X90333333Y-88438152D02*
X90428571Y-88485771D01*
X90428571Y-88485771D02*
X90476190Y-88581009D01*
X90476190Y-88581009D02*
X90476190Y-89104819D01*
X90809524Y-88438152D02*
X91190476Y-88438152D01*
X90952381Y-88104819D02*
X90952381Y-88961961D01*
X90952381Y-88961961D02*
X91000000Y-89057200D01*
X91000000Y-89057200D02*
X91095238Y-89104819D01*
X91095238Y-89104819D02*
X91190476Y-89104819D01*
X91523810Y-89104819D02*
X91523810Y-88438152D01*
X91523810Y-88104819D02*
X91476191Y-88152438D01*
X91476191Y-88152438D02*
X91523810Y-88200057D01*
X91523810Y-88200057D02*
X91571429Y-88152438D01*
X91571429Y-88152438D02*
X91523810Y-88104819D01*
X91523810Y-88104819D02*
X91523810Y-88200057D01*
X92000000Y-88438152D02*
X92000000Y-89104819D01*
X92000000Y-88533390D02*
X92047619Y-88485771D01*
X92047619Y-88485771D02*
X92142857Y-88438152D01*
X92142857Y-88438152D02*
X92285714Y-88438152D01*
X92285714Y-88438152D02*
X92380952Y-88485771D01*
X92380952Y-88485771D02*
X92428571Y-88581009D01*
X92428571Y-88581009D02*
X92428571Y-89104819D01*
X93333333Y-88438152D02*
X93333333Y-89247676D01*
X93333333Y-89247676D02*
X93285714Y-89342914D01*
X93285714Y-89342914D02*
X93238095Y-89390533D01*
X93238095Y-89390533D02*
X93142857Y-89438152D01*
X93142857Y-89438152D02*
X93000000Y-89438152D01*
X93000000Y-89438152D02*
X92904762Y-89390533D01*
X93333333Y-89057200D02*
X93238095Y-89104819D01*
X93238095Y-89104819D02*
X93047619Y-89104819D01*
X93047619Y-89104819D02*
X92952381Y-89057200D01*
X92952381Y-89057200D02*
X92904762Y-89009580D01*
X92904762Y-89009580D02*
X92857143Y-88914342D01*
X92857143Y-88914342D02*
X92857143Y-88628628D01*
X92857143Y-88628628D02*
X92904762Y-88533390D01*
X92904762Y-88533390D02*
X92952381Y-88485771D01*
X92952381Y-88485771D02*
X93047619Y-88438152D01*
X93047619Y-88438152D02*
X93238095Y-88438152D01*
X93238095Y-88438152D02*
X93333333Y-88485771D01*
X93809524Y-89104819D02*
X93809524Y-88104819D01*
X93809524Y-88581009D02*
X94380952Y-88581009D01*
X94380952Y-89104819D02*
X94380952Y-88104819D01*
X95000000Y-89104819D02*
X94904762Y-89057200D01*
X94904762Y-89057200D02*
X94857143Y-89009580D01*
X94857143Y-89009580D02*
X94809524Y-88914342D01*
X94809524Y-88914342D02*
X94809524Y-88628628D01*
X94809524Y-88628628D02*
X94857143Y-88533390D01*
X94857143Y-88533390D02*
X94904762Y-88485771D01*
X94904762Y-88485771D02*
X95000000Y-88438152D01*
X95000000Y-88438152D02*
X95142857Y-88438152D01*
X95142857Y-88438152D02*
X95238095Y-88485771D01*
X95238095Y-88485771D02*
X95285714Y-88533390D01*
X95285714Y-88533390D02*
X95333333Y-88628628D01*
X95333333Y-88628628D02*
X95333333Y-88914342D01*
X95333333Y-88914342D02*
X95285714Y-89009580D01*
X95285714Y-89009580D02*
X95238095Y-89057200D01*
X95238095Y-89057200D02*
X95142857Y-89104819D01*
X95142857Y-89104819D02*
X95000000Y-89104819D01*
X95904762Y-89104819D02*
X95809524Y-89057200D01*
X95809524Y-89057200D02*
X95761905Y-88961961D01*
X95761905Y-88961961D02*
X95761905Y-88104819D01*
X96666667Y-89057200D02*
X96571429Y-89104819D01*
X96571429Y-89104819D02*
X96380953Y-89104819D01*
X96380953Y-89104819D02*
X96285715Y-89057200D01*
X96285715Y-89057200D02*
X96238096Y-88961961D01*
X96238096Y-88961961D02*
X96238096Y-88581009D01*
X96238096Y-88581009D02*
X96285715Y-88485771D01*
X96285715Y-88485771D02*
X96380953Y-88438152D01*
X96380953Y-88438152D02*
X96571429Y-88438152D01*
X96571429Y-88438152D02*
X96666667Y-88485771D01*
X96666667Y-88485771D02*
X96714286Y-88581009D01*
X96714286Y-88581009D02*
X96714286Y-88676247D01*
X96714286Y-88676247D02*
X96238096Y-88771485D01*
X96904763Y-89200057D02*
X97666667Y-89200057D01*
X97809525Y-88104819D02*
X98428572Y-88104819D01*
X98428572Y-88104819D02*
X98095239Y-88485771D01*
X98095239Y-88485771D02*
X98238096Y-88485771D01*
X98238096Y-88485771D02*
X98333334Y-88533390D01*
X98333334Y-88533390D02*
X98380953Y-88581009D01*
X98380953Y-88581009D02*
X98428572Y-88676247D01*
X98428572Y-88676247D02*
X98428572Y-88914342D01*
X98428572Y-88914342D02*
X98380953Y-89009580D01*
X98380953Y-89009580D02*
X98333334Y-89057200D01*
X98333334Y-89057200D02*
X98238096Y-89104819D01*
X98238096Y-89104819D02*
X97952382Y-89104819D01*
X97952382Y-89104819D02*
X97857144Y-89057200D01*
X97857144Y-89057200D02*
X97809525Y-89009580D01*
X98857144Y-89009580D02*
X98904763Y-89057200D01*
X98904763Y-89057200D02*
X98857144Y-89104819D01*
X98857144Y-89104819D02*
X98809525Y-89057200D01*
X98809525Y-89057200D02*
X98857144Y-89009580D01*
X98857144Y-89009580D02*
X98857144Y-89104819D01*
X99285715Y-88200057D02*
X99333334Y-88152438D01*
X99333334Y-88152438D02*
X99428572Y-88104819D01*
X99428572Y-88104819D02*
X99666667Y-88104819D01*
X99666667Y-88104819D02*
X99761905Y-88152438D01*
X99761905Y-88152438D02*
X99809524Y-88200057D01*
X99809524Y-88200057D02*
X99857143Y-88295295D01*
X99857143Y-88295295D02*
X99857143Y-88390533D01*
X99857143Y-88390533D02*
X99809524Y-88533390D01*
X99809524Y-88533390D02*
X99238096Y-89104819D01*
X99238096Y-89104819D02*
X99857143Y-89104819D01*
X100285715Y-89104819D02*
X100285715Y-88438152D01*
X100285715Y-88533390D02*
X100333334Y-88485771D01*
X100333334Y-88485771D02*
X100428572Y-88438152D01*
X100428572Y-88438152D02*
X100571429Y-88438152D01*
X100571429Y-88438152D02*
X100666667Y-88485771D01*
X100666667Y-88485771D02*
X100714286Y-88581009D01*
X100714286Y-88581009D02*
X100714286Y-89104819D01*
X100714286Y-88581009D02*
X100761905Y-88485771D01*
X100761905Y-88485771D02*
X100857143Y-88438152D01*
X100857143Y-88438152D02*
X101000000Y-88438152D01*
X101000000Y-88438152D02*
X101095239Y-88485771D01*
X101095239Y-88485771D02*
X101142858Y-88581009D01*
X101142858Y-88581009D02*
X101142858Y-89104819D01*
X101619048Y-89104819D02*
X101619048Y-88438152D01*
X101619048Y-88533390D02*
X101666667Y-88485771D01*
X101666667Y-88485771D02*
X101761905Y-88438152D01*
X101761905Y-88438152D02*
X101904762Y-88438152D01*
X101904762Y-88438152D02*
X102000000Y-88485771D01*
X102000000Y-88485771D02*
X102047619Y-88581009D01*
X102047619Y-88581009D02*
X102047619Y-89104819D01*
X102047619Y-88581009D02*
X102095238Y-88485771D01*
X102095238Y-88485771D02*
X102190476Y-88438152D01*
X102190476Y-88438152D02*
X102333333Y-88438152D01*
X102333333Y-88438152D02*
X102428572Y-88485771D01*
X102428572Y-88485771D02*
X102476191Y-88581009D01*
X102476191Y-88581009D02*
X102476191Y-89104819D01*
X102714286Y-89200057D02*
X103476190Y-89200057D01*
X103714286Y-89104819D02*
X103714286Y-88104819D01*
X103714286Y-88104819D02*
X104047619Y-88819104D01*
X104047619Y-88819104D02*
X104380952Y-88104819D01*
X104380952Y-88104819D02*
X104380952Y-89104819D01*
X104761905Y-88104819D02*
X105380952Y-88104819D01*
X105380952Y-88104819D02*
X105047619Y-88485771D01*
X105047619Y-88485771D02*
X105190476Y-88485771D01*
X105190476Y-88485771D02*
X105285714Y-88533390D01*
X105285714Y-88533390D02*
X105333333Y-88581009D01*
X105333333Y-88581009D02*
X105380952Y-88676247D01*
X105380952Y-88676247D02*
X105380952Y-88914342D01*
X105380952Y-88914342D02*
X105333333Y-89009580D01*
X105333333Y-89009580D02*
X105285714Y-89057200D01*
X105285714Y-89057200D02*
X105190476Y-89104819D01*
X105190476Y-89104819D02*
X104904762Y-89104819D01*
X104904762Y-89104819D02*
X104809524Y-89057200D01*
X104809524Y-89057200D02*
X104761905Y-89009580D01*
X105571429Y-89200057D02*
X106333333Y-89200057D01*
X106571429Y-89104819D02*
X106571429Y-88104819D01*
X106571429Y-88104819D02*
X106952381Y-88104819D01*
X106952381Y-88104819D02*
X107047619Y-88152438D01*
X107047619Y-88152438D02*
X107095238Y-88200057D01*
X107095238Y-88200057D02*
X107142857Y-88295295D01*
X107142857Y-88295295D02*
X107142857Y-88438152D01*
X107142857Y-88438152D02*
X107095238Y-88533390D01*
X107095238Y-88533390D02*
X107047619Y-88581009D01*
X107047619Y-88581009D02*
X106952381Y-88628628D01*
X106952381Y-88628628D02*
X106571429Y-88628628D01*
X108000000Y-89104819D02*
X108000000Y-88581009D01*
X108000000Y-88581009D02*
X107952381Y-88485771D01*
X107952381Y-88485771D02*
X107857143Y-88438152D01*
X107857143Y-88438152D02*
X107666667Y-88438152D01*
X107666667Y-88438152D02*
X107571429Y-88485771D01*
X108000000Y-89057200D02*
X107904762Y-89104819D01*
X107904762Y-89104819D02*
X107666667Y-89104819D01*
X107666667Y-89104819D02*
X107571429Y-89057200D01*
X107571429Y-89057200D02*
X107523810Y-88961961D01*
X107523810Y-88961961D02*
X107523810Y-88866723D01*
X107523810Y-88866723D02*
X107571429Y-88771485D01*
X107571429Y-88771485D02*
X107666667Y-88723866D01*
X107666667Y-88723866D02*
X107904762Y-88723866D01*
X107904762Y-88723866D02*
X108000000Y-88676247D01*
X108904762Y-89104819D02*
X108904762Y-88104819D01*
X108904762Y-89057200D02*
X108809524Y-89104819D01*
X108809524Y-89104819D02*
X108619048Y-89104819D01*
X108619048Y-89104819D02*
X108523810Y-89057200D01*
X108523810Y-89057200D02*
X108476191Y-89009580D01*
X108476191Y-89009580D02*
X108428572Y-88914342D01*
X108428572Y-88914342D02*
X108428572Y-88628628D01*
X108428572Y-88628628D02*
X108476191Y-88533390D01*
X108476191Y-88533390D02*
X108523810Y-88485771D01*
X108523810Y-88485771D02*
X108619048Y-88438152D01*
X108619048Y-88438152D02*
X108809524Y-88438152D01*
X108809524Y-88438152D02*
X108904762Y-88485771D01*
X109142858Y-89200057D02*
X109904762Y-89200057D01*
X110000001Y-88104819D02*
X110333334Y-89104819D01*
X110333334Y-89104819D02*
X110666667Y-88104819D01*
X111000001Y-89104819D02*
X111000001Y-88438152D01*
X111000001Y-88104819D02*
X110952382Y-88152438D01*
X110952382Y-88152438D02*
X111000001Y-88200057D01*
X111000001Y-88200057D02*
X111047620Y-88152438D01*
X111047620Y-88152438D02*
X111000001Y-88104819D01*
X111000001Y-88104819D02*
X111000001Y-88200057D01*
X111904762Y-89104819D02*
X111904762Y-88581009D01*
X111904762Y-88581009D02*
X111857143Y-88485771D01*
X111857143Y-88485771D02*
X111761905Y-88438152D01*
X111761905Y-88438152D02*
X111571429Y-88438152D01*
X111571429Y-88438152D02*
X111476191Y-88485771D01*
X111904762Y-89057200D02*
X111809524Y-89104819D01*
X111809524Y-89104819D02*
X111571429Y-89104819D01*
X111571429Y-89104819D02*
X111476191Y-89057200D01*
X111476191Y-89057200D02*
X111428572Y-88961961D01*
X111428572Y-88961961D02*
X111428572Y-88866723D01*
X111428572Y-88866723D02*
X111476191Y-88771485D01*
X111476191Y-88771485D02*
X111571429Y-88723866D01*
X111571429Y-88723866D02*
X111809524Y-88723866D01*
X111809524Y-88723866D02*
X111904762Y-88676247D01*
X98738095Y-84954819D02*
X98738095Y-83954819D01*
X98738095Y-84431009D02*
X99309523Y-84431009D01*
X99309523Y-84954819D02*
X99309523Y-83954819D01*
X100309523Y-84954819D02*
X99738095Y-84954819D01*
X100023809Y-84954819D02*
X100023809Y-83954819D01*
X100023809Y-83954819D02*
X99928571Y-84097676D01*
X99928571Y-84097676D02*
X99833333Y-84192914D01*
X99833333Y-84192914D02*
X99738095Y-84240533D01*
X164119046Y-82309819D02*
X164119046Y-83119342D01*
X164119046Y-83119342D02*
X164166665Y-83214580D01*
X164166665Y-83214580D02*
X164214284Y-83262200D01*
X164214284Y-83262200D02*
X164309522Y-83309819D01*
X164309522Y-83309819D02*
X164499998Y-83309819D01*
X164499998Y-83309819D02*
X164595236Y-83262200D01*
X164595236Y-83262200D02*
X164642855Y-83214580D01*
X164642855Y-83214580D02*
X164690474Y-83119342D01*
X164690474Y-83119342D02*
X164690474Y-82309819D01*
X165119046Y-83262200D02*
X165261903Y-83309819D01*
X165261903Y-83309819D02*
X165499998Y-83309819D01*
X165499998Y-83309819D02*
X165595236Y-83262200D01*
X165595236Y-83262200D02*
X165642855Y-83214580D01*
X165642855Y-83214580D02*
X165690474Y-83119342D01*
X165690474Y-83119342D02*
X165690474Y-83024104D01*
X165690474Y-83024104D02*
X165642855Y-82928866D01*
X165642855Y-82928866D02*
X165595236Y-82881247D01*
X165595236Y-82881247D02*
X165499998Y-82833628D01*
X165499998Y-82833628D02*
X165309522Y-82786009D01*
X165309522Y-82786009D02*
X165214284Y-82738390D01*
X165214284Y-82738390D02*
X165166665Y-82690771D01*
X165166665Y-82690771D02*
X165119046Y-82595533D01*
X165119046Y-82595533D02*
X165119046Y-82500295D01*
X165119046Y-82500295D02*
X165166665Y-82405057D01*
X165166665Y-82405057D02*
X165214284Y-82357438D01*
X165214284Y-82357438D02*
X165309522Y-82309819D01*
X165309522Y-82309819D02*
X165547617Y-82309819D01*
X165547617Y-82309819D02*
X165690474Y-82357438D01*
X166452379Y-82786009D02*
X166595236Y-82833628D01*
X166595236Y-82833628D02*
X166642855Y-82881247D01*
X166642855Y-82881247D02*
X166690474Y-82976485D01*
X166690474Y-82976485D02*
X166690474Y-83119342D01*
X166690474Y-83119342D02*
X166642855Y-83214580D01*
X166642855Y-83214580D02*
X166595236Y-83262200D01*
X166595236Y-83262200D02*
X166499998Y-83309819D01*
X166499998Y-83309819D02*
X166119046Y-83309819D01*
X166119046Y-83309819D02*
X166119046Y-82309819D01*
X166119046Y-82309819D02*
X166452379Y-82309819D01*
X166452379Y-82309819D02*
X166547617Y-82357438D01*
X166547617Y-82357438D02*
X166595236Y-82405057D01*
X166595236Y-82405057D02*
X166642855Y-82500295D01*
X166642855Y-82500295D02*
X166642855Y-82595533D01*
X166642855Y-82595533D02*
X166595236Y-82690771D01*
X166595236Y-82690771D02*
X166547617Y-82738390D01*
X166547617Y-82738390D02*
X166452379Y-82786009D01*
X166452379Y-82786009D02*
X166119046Y-82786009D01*
X166880951Y-83405057D02*
X167642855Y-83405057D01*
X167833332Y-83024104D02*
X168309522Y-83024104D01*
X167738094Y-83309819D02*
X168071427Y-82309819D01*
X168071427Y-82309819D02*
X168404760Y-83309819D01*
X168499999Y-83405057D02*
X169261903Y-83405057D01*
X169499999Y-83309819D02*
X169499999Y-82309819D01*
X170071427Y-83309819D02*
X169642856Y-82738390D01*
X170071427Y-82309819D02*
X169499999Y-82881247D01*
X170404761Y-82643152D02*
X170642856Y-83309819D01*
X170880951Y-82643152D02*
X170642856Y-83309819D01*
X170642856Y-83309819D02*
X170547618Y-83547914D01*
X170547618Y-83547914D02*
X170499999Y-83595533D01*
X170499999Y-83595533D02*
X170404761Y-83643152D01*
X171690475Y-83262200D02*
X171595237Y-83309819D01*
X171595237Y-83309819D02*
X171404761Y-83309819D01*
X171404761Y-83309819D02*
X171309523Y-83262200D01*
X171309523Y-83262200D02*
X171261904Y-83214580D01*
X171261904Y-83214580D02*
X171214285Y-83119342D01*
X171214285Y-83119342D02*
X171214285Y-82833628D01*
X171214285Y-82833628D02*
X171261904Y-82738390D01*
X171261904Y-82738390D02*
X171309523Y-82690771D01*
X171309523Y-82690771D02*
X171404761Y-82643152D01*
X171404761Y-82643152D02*
X171595237Y-82643152D01*
X171595237Y-82643152D02*
X171690475Y-82690771D01*
X172261904Y-83309819D02*
X172166666Y-83262200D01*
X172166666Y-83262200D02*
X172119047Y-83214580D01*
X172119047Y-83214580D02*
X172071428Y-83119342D01*
X172071428Y-83119342D02*
X172071428Y-82833628D01*
X172071428Y-82833628D02*
X172119047Y-82738390D01*
X172119047Y-82738390D02*
X172166666Y-82690771D01*
X172166666Y-82690771D02*
X172261904Y-82643152D01*
X172261904Y-82643152D02*
X172404761Y-82643152D01*
X172404761Y-82643152D02*
X172499999Y-82690771D01*
X172499999Y-82690771D02*
X172547618Y-82738390D01*
X172547618Y-82738390D02*
X172595237Y-82833628D01*
X172595237Y-82833628D02*
X172595237Y-83119342D01*
X172595237Y-83119342D02*
X172547618Y-83214580D01*
X172547618Y-83214580D02*
X172499999Y-83262200D01*
X172499999Y-83262200D02*
X172404761Y-83309819D01*
X172404761Y-83309819D02*
X172261904Y-83309819D01*
X173023809Y-82643152D02*
X173023809Y-83309819D01*
X173023809Y-82738390D02*
X173071428Y-82690771D01*
X173071428Y-82690771D02*
X173166666Y-82643152D01*
X173166666Y-82643152D02*
X173309523Y-82643152D01*
X173309523Y-82643152D02*
X173404761Y-82690771D01*
X173404761Y-82690771D02*
X173452380Y-82786009D01*
X173452380Y-82786009D02*
X173452380Y-83309819D01*
X173690476Y-83405057D02*
X174452380Y-83405057D01*
X174690476Y-83309819D02*
X174690476Y-82309819D01*
X175261904Y-83309819D02*
X174833333Y-82738390D01*
X175261904Y-82309819D02*
X174690476Y-82881247D01*
X175690476Y-82309819D02*
X175690476Y-83119342D01*
X175690476Y-83119342D02*
X175738095Y-83214580D01*
X175738095Y-83214580D02*
X175785714Y-83262200D01*
X175785714Y-83262200D02*
X175880952Y-83309819D01*
X175880952Y-83309819D02*
X176071428Y-83309819D01*
X176071428Y-83309819D02*
X176166666Y-83262200D01*
X176166666Y-83262200D02*
X176214285Y-83214580D01*
X176214285Y-83214580D02*
X176261904Y-83119342D01*
X176261904Y-83119342D02*
X176261904Y-82309819D01*
X176690476Y-83262200D02*
X176833333Y-83309819D01*
X176833333Y-83309819D02*
X177071428Y-83309819D01*
X177071428Y-83309819D02*
X177166666Y-83262200D01*
X177166666Y-83262200D02*
X177214285Y-83214580D01*
X177214285Y-83214580D02*
X177261904Y-83119342D01*
X177261904Y-83119342D02*
X177261904Y-83024104D01*
X177261904Y-83024104D02*
X177214285Y-82928866D01*
X177214285Y-82928866D02*
X177166666Y-82881247D01*
X177166666Y-82881247D02*
X177071428Y-82833628D01*
X177071428Y-82833628D02*
X176880952Y-82786009D01*
X176880952Y-82786009D02*
X176785714Y-82738390D01*
X176785714Y-82738390D02*
X176738095Y-82690771D01*
X176738095Y-82690771D02*
X176690476Y-82595533D01*
X176690476Y-82595533D02*
X176690476Y-82500295D01*
X176690476Y-82500295D02*
X176738095Y-82405057D01*
X176738095Y-82405057D02*
X176785714Y-82357438D01*
X176785714Y-82357438D02*
X176880952Y-82309819D01*
X176880952Y-82309819D02*
X177119047Y-82309819D01*
X177119047Y-82309819D02*
X177261904Y-82357438D01*
X178023809Y-82786009D02*
X178166666Y-82833628D01*
X178166666Y-82833628D02*
X178214285Y-82881247D01*
X178214285Y-82881247D02*
X178261904Y-82976485D01*
X178261904Y-82976485D02*
X178261904Y-83119342D01*
X178261904Y-83119342D02*
X178214285Y-83214580D01*
X178214285Y-83214580D02*
X178166666Y-83262200D01*
X178166666Y-83262200D02*
X178071428Y-83309819D01*
X178071428Y-83309819D02*
X177690476Y-83309819D01*
X177690476Y-83309819D02*
X177690476Y-82309819D01*
X177690476Y-82309819D02*
X178023809Y-82309819D01*
X178023809Y-82309819D02*
X178119047Y-82357438D01*
X178119047Y-82357438D02*
X178166666Y-82405057D01*
X178166666Y-82405057D02*
X178214285Y-82500295D01*
X178214285Y-82500295D02*
X178214285Y-82595533D01*
X178214285Y-82595533D02*
X178166666Y-82690771D01*
X178166666Y-82690771D02*
X178119047Y-82738390D01*
X178119047Y-82738390D02*
X178023809Y-82786009D01*
X178023809Y-82786009D02*
X177690476Y-82786009D01*
X178595238Y-82309819D02*
X179261904Y-83309819D01*
X179261904Y-82309819D02*
X178595238Y-83309819D01*
X179642857Y-82928866D02*
X180404762Y-82928866D01*
X180833333Y-83024104D02*
X181309523Y-83024104D01*
X180738095Y-83309819D02*
X181071428Y-82309819D01*
X181071428Y-82309819D02*
X181404761Y-83309819D01*
X181690476Y-83262200D02*
X181833333Y-83309819D01*
X181833333Y-83309819D02*
X182071428Y-83309819D01*
X182071428Y-83309819D02*
X182166666Y-83262200D01*
X182166666Y-83262200D02*
X182214285Y-83214580D01*
X182214285Y-83214580D02*
X182261904Y-83119342D01*
X182261904Y-83119342D02*
X182261904Y-83024104D01*
X182261904Y-83024104D02*
X182214285Y-82928866D01*
X182214285Y-82928866D02*
X182166666Y-82881247D01*
X182166666Y-82881247D02*
X182071428Y-82833628D01*
X182071428Y-82833628D02*
X181880952Y-82786009D01*
X181880952Y-82786009D02*
X181785714Y-82738390D01*
X181785714Y-82738390D02*
X181738095Y-82690771D01*
X181738095Y-82690771D02*
X181690476Y-82595533D01*
X181690476Y-82595533D02*
X181690476Y-82500295D01*
X181690476Y-82500295D02*
X181738095Y-82405057D01*
X181738095Y-82405057D02*
X181785714Y-82357438D01*
X181785714Y-82357438D02*
X181880952Y-82309819D01*
X181880952Y-82309819D02*
X182119047Y-82309819D01*
X182119047Y-82309819D02*
X182261904Y-82357438D01*
X183214285Y-83309819D02*
X182642857Y-83309819D01*
X182928571Y-83309819D02*
X182928571Y-82309819D01*
X182928571Y-82309819D02*
X182833333Y-82452676D01*
X182833333Y-82452676D02*
X182738095Y-82547914D01*
X182738095Y-82547914D02*
X182642857Y-82595533D01*
X183642857Y-83309819D02*
X183642857Y-82309819D01*
X183642857Y-82309819D02*
X184214285Y-83309819D01*
X184214285Y-83309819D02*
X184214285Y-82309819D01*
X184690476Y-82928866D02*
X185452381Y-82928866D01*
X186261904Y-82786009D02*
X186404761Y-82833628D01*
X186404761Y-82833628D02*
X186452380Y-82881247D01*
X186452380Y-82881247D02*
X186499999Y-82976485D01*
X186499999Y-82976485D02*
X186499999Y-83119342D01*
X186499999Y-83119342D02*
X186452380Y-83214580D01*
X186452380Y-83214580D02*
X186404761Y-83262200D01*
X186404761Y-83262200D02*
X186309523Y-83309819D01*
X186309523Y-83309819D02*
X185928571Y-83309819D01*
X185928571Y-83309819D02*
X185928571Y-82309819D01*
X185928571Y-82309819D02*
X186261904Y-82309819D01*
X186261904Y-82309819D02*
X186357142Y-82357438D01*
X186357142Y-82357438D02*
X186404761Y-82405057D01*
X186404761Y-82405057D02*
X186452380Y-82500295D01*
X186452380Y-82500295D02*
X186452380Y-82595533D01*
X186452380Y-82595533D02*
X186404761Y-82690771D01*
X186404761Y-82690771D02*
X186357142Y-82738390D01*
X186357142Y-82738390D02*
X186261904Y-82786009D01*
X186261904Y-82786009D02*
X185928571Y-82786009D01*
X186690476Y-83405057D02*
X187452380Y-83405057D01*
X187690476Y-83309819D02*
X187690476Y-82309819D01*
X187690476Y-82786009D02*
X188261904Y-82786009D01*
X188261904Y-83309819D02*
X188261904Y-82309819D01*
X188880952Y-83309819D02*
X188785714Y-83262200D01*
X188785714Y-83262200D02*
X188738095Y-83214580D01*
X188738095Y-83214580D02*
X188690476Y-83119342D01*
X188690476Y-83119342D02*
X188690476Y-82833628D01*
X188690476Y-82833628D02*
X188738095Y-82738390D01*
X188738095Y-82738390D02*
X188785714Y-82690771D01*
X188785714Y-82690771D02*
X188880952Y-82643152D01*
X188880952Y-82643152D02*
X189023809Y-82643152D01*
X189023809Y-82643152D02*
X189119047Y-82690771D01*
X189119047Y-82690771D02*
X189166666Y-82738390D01*
X189166666Y-82738390D02*
X189214285Y-82833628D01*
X189214285Y-82833628D02*
X189214285Y-83119342D01*
X189214285Y-83119342D02*
X189166666Y-83214580D01*
X189166666Y-83214580D02*
X189119047Y-83262200D01*
X189119047Y-83262200D02*
X189023809Y-83309819D01*
X189023809Y-83309819D02*
X188880952Y-83309819D01*
X189642857Y-83309819D02*
X189642857Y-82643152D01*
X189642857Y-82833628D02*
X189690476Y-82738390D01*
X189690476Y-82738390D02*
X189738095Y-82690771D01*
X189738095Y-82690771D02*
X189833333Y-82643152D01*
X189833333Y-82643152D02*
X189928571Y-82643152D01*
X190261905Y-83309819D02*
X190261905Y-82643152D01*
X190261905Y-82309819D02*
X190214286Y-82357438D01*
X190214286Y-82357438D02*
X190261905Y-82405057D01*
X190261905Y-82405057D02*
X190309524Y-82357438D01*
X190309524Y-82357438D02*
X190261905Y-82309819D01*
X190261905Y-82309819D02*
X190261905Y-82405057D01*
X190642857Y-82643152D02*
X191166666Y-82643152D01*
X191166666Y-82643152D02*
X190642857Y-83309819D01*
X190642857Y-83309819D02*
X191166666Y-83309819D01*
X191690476Y-83309819D02*
X191595238Y-83262200D01*
X191595238Y-83262200D02*
X191547619Y-83214580D01*
X191547619Y-83214580D02*
X191500000Y-83119342D01*
X191500000Y-83119342D02*
X191500000Y-82833628D01*
X191500000Y-82833628D02*
X191547619Y-82738390D01*
X191547619Y-82738390D02*
X191595238Y-82690771D01*
X191595238Y-82690771D02*
X191690476Y-82643152D01*
X191690476Y-82643152D02*
X191833333Y-82643152D01*
X191833333Y-82643152D02*
X191928571Y-82690771D01*
X191928571Y-82690771D02*
X191976190Y-82738390D01*
X191976190Y-82738390D02*
X192023809Y-82833628D01*
X192023809Y-82833628D02*
X192023809Y-83119342D01*
X192023809Y-83119342D02*
X191976190Y-83214580D01*
X191976190Y-83214580D02*
X191928571Y-83262200D01*
X191928571Y-83262200D02*
X191833333Y-83309819D01*
X191833333Y-83309819D02*
X191690476Y-83309819D01*
X192452381Y-82643152D02*
X192452381Y-83309819D01*
X192452381Y-82738390D02*
X192500000Y-82690771D01*
X192500000Y-82690771D02*
X192595238Y-82643152D01*
X192595238Y-82643152D02*
X192738095Y-82643152D01*
X192738095Y-82643152D02*
X192833333Y-82690771D01*
X192833333Y-82690771D02*
X192880952Y-82786009D01*
X192880952Y-82786009D02*
X192880952Y-83309819D01*
X193214286Y-82643152D02*
X193595238Y-82643152D01*
X193357143Y-82309819D02*
X193357143Y-83166961D01*
X193357143Y-83166961D02*
X193404762Y-83262200D01*
X193404762Y-83262200D02*
X193500000Y-83309819D01*
X193500000Y-83309819D02*
X193595238Y-83309819D01*
X194357143Y-83309819D02*
X194357143Y-82786009D01*
X194357143Y-82786009D02*
X194309524Y-82690771D01*
X194309524Y-82690771D02*
X194214286Y-82643152D01*
X194214286Y-82643152D02*
X194023810Y-82643152D01*
X194023810Y-82643152D02*
X193928572Y-82690771D01*
X194357143Y-83262200D02*
X194261905Y-83309819D01*
X194261905Y-83309819D02*
X194023810Y-83309819D01*
X194023810Y-83309819D02*
X193928572Y-83262200D01*
X193928572Y-83262200D02*
X193880953Y-83166961D01*
X193880953Y-83166961D02*
X193880953Y-83071723D01*
X193880953Y-83071723D02*
X193928572Y-82976485D01*
X193928572Y-82976485D02*
X194023810Y-82928866D01*
X194023810Y-82928866D02*
X194261905Y-82928866D01*
X194261905Y-82928866D02*
X194357143Y-82881247D01*
X194976191Y-83309819D02*
X194880953Y-83262200D01*
X194880953Y-83262200D02*
X194833334Y-83166961D01*
X194833334Y-83166961D02*
X194833334Y-82309819D01*
X176166666Y-84309819D02*
X176166666Y-85024104D01*
X176166666Y-85024104D02*
X176119047Y-85166961D01*
X176119047Y-85166961D02*
X176023809Y-85262200D01*
X176023809Y-85262200D02*
X175880952Y-85309819D01*
X175880952Y-85309819D02*
X175785714Y-85309819D01*
X176547619Y-84309819D02*
X177166666Y-84309819D01*
X177166666Y-84309819D02*
X176833333Y-84690771D01*
X176833333Y-84690771D02*
X176976190Y-84690771D01*
X176976190Y-84690771D02*
X177071428Y-84738390D01*
X177071428Y-84738390D02*
X177119047Y-84786009D01*
X177119047Y-84786009D02*
X177166666Y-84881247D01*
X177166666Y-84881247D02*
X177166666Y-85119342D01*
X177166666Y-85119342D02*
X177119047Y-85214580D01*
X177119047Y-85214580D02*
X177071428Y-85262200D01*
X177071428Y-85262200D02*
X176976190Y-85309819D01*
X176976190Y-85309819D02*
X176690476Y-85309819D01*
X176690476Y-85309819D02*
X176595238Y-85262200D01*
X176595238Y-85262200D02*
X176547619Y-85214580D01*
X117754819Y-140857143D02*
X116754819Y-140857143D01*
X116754819Y-140857143D02*
X116754819Y-140476191D01*
X116754819Y-140476191D02*
X116802438Y-140380953D01*
X116802438Y-140380953D02*
X116850057Y-140333334D01*
X116850057Y-140333334D02*
X116945295Y-140285715D01*
X116945295Y-140285715D02*
X117088152Y-140285715D01*
X117088152Y-140285715D02*
X117183390Y-140333334D01*
X117183390Y-140333334D02*
X117231009Y-140380953D01*
X117231009Y-140380953D02*
X117278628Y-140476191D01*
X117278628Y-140476191D02*
X117278628Y-140857143D01*
X117754819Y-139857143D02*
X117088152Y-139857143D01*
X116754819Y-139857143D02*
X116802438Y-139904762D01*
X116802438Y-139904762D02*
X116850057Y-139857143D01*
X116850057Y-139857143D02*
X116802438Y-139809524D01*
X116802438Y-139809524D02*
X116754819Y-139857143D01*
X116754819Y-139857143D02*
X116850057Y-139857143D01*
X117088152Y-139380953D02*
X117754819Y-139380953D01*
X117183390Y-139380953D02*
X117135771Y-139333334D01*
X117135771Y-139333334D02*
X117088152Y-139238096D01*
X117088152Y-139238096D02*
X117088152Y-139095239D01*
X117088152Y-139095239D02*
X117135771Y-139000001D01*
X117135771Y-139000001D02*
X117231009Y-138952382D01*
X117231009Y-138952382D02*
X117754819Y-138952382D01*
X117754819Y-138476191D02*
X116754819Y-138476191D01*
X117231009Y-138476191D02*
X117231009Y-137904763D01*
X117754819Y-137904763D02*
X116754819Y-137904763D01*
X117707200Y-137047620D02*
X117754819Y-137142858D01*
X117754819Y-137142858D02*
X117754819Y-137333334D01*
X117754819Y-137333334D02*
X117707200Y-137428572D01*
X117707200Y-137428572D02*
X117611961Y-137476191D01*
X117611961Y-137476191D02*
X117231009Y-137476191D01*
X117231009Y-137476191D02*
X117135771Y-137428572D01*
X117135771Y-137428572D02*
X117088152Y-137333334D01*
X117088152Y-137333334D02*
X117088152Y-137142858D01*
X117088152Y-137142858D02*
X117135771Y-137047620D01*
X117135771Y-137047620D02*
X117231009Y-137000001D01*
X117231009Y-137000001D02*
X117326247Y-137000001D01*
X117326247Y-137000001D02*
X117421485Y-137476191D01*
X117754819Y-136142858D02*
X117231009Y-136142858D01*
X117231009Y-136142858D02*
X117135771Y-136190477D01*
X117135771Y-136190477D02*
X117088152Y-136285715D01*
X117088152Y-136285715D02*
X117088152Y-136476191D01*
X117088152Y-136476191D02*
X117135771Y-136571429D01*
X117707200Y-136142858D02*
X117754819Y-136238096D01*
X117754819Y-136238096D02*
X117754819Y-136476191D01*
X117754819Y-136476191D02*
X117707200Y-136571429D01*
X117707200Y-136571429D02*
X117611961Y-136619048D01*
X117611961Y-136619048D02*
X117516723Y-136619048D01*
X117516723Y-136619048D02*
X117421485Y-136571429D01*
X117421485Y-136571429D02*
X117373866Y-136476191D01*
X117373866Y-136476191D02*
X117373866Y-136238096D01*
X117373866Y-136238096D02*
X117326247Y-136142858D01*
X117754819Y-135238096D02*
X116754819Y-135238096D01*
X117707200Y-135238096D02*
X117754819Y-135333334D01*
X117754819Y-135333334D02*
X117754819Y-135523810D01*
X117754819Y-135523810D02*
X117707200Y-135619048D01*
X117707200Y-135619048D02*
X117659580Y-135666667D01*
X117659580Y-135666667D02*
X117564342Y-135714286D01*
X117564342Y-135714286D02*
X117278628Y-135714286D01*
X117278628Y-135714286D02*
X117183390Y-135666667D01*
X117183390Y-135666667D02*
X117135771Y-135619048D01*
X117135771Y-135619048D02*
X117088152Y-135523810D01*
X117088152Y-135523810D02*
X117088152Y-135333334D01*
X117088152Y-135333334D02*
X117135771Y-135238096D01*
X117707200Y-134380953D02*
X117754819Y-134476191D01*
X117754819Y-134476191D02*
X117754819Y-134666667D01*
X117754819Y-134666667D02*
X117707200Y-134761905D01*
X117707200Y-134761905D02*
X117611961Y-134809524D01*
X117611961Y-134809524D02*
X117231009Y-134809524D01*
X117231009Y-134809524D02*
X117135771Y-134761905D01*
X117135771Y-134761905D02*
X117088152Y-134666667D01*
X117088152Y-134666667D02*
X117088152Y-134476191D01*
X117088152Y-134476191D02*
X117135771Y-134380953D01*
X117135771Y-134380953D02*
X117231009Y-134333334D01*
X117231009Y-134333334D02*
X117326247Y-134333334D01*
X117326247Y-134333334D02*
X117421485Y-134809524D01*
X117754819Y-133904762D02*
X117088152Y-133904762D01*
X117278628Y-133904762D02*
X117183390Y-133857143D01*
X117183390Y-133857143D02*
X117135771Y-133809524D01*
X117135771Y-133809524D02*
X117088152Y-133714286D01*
X117088152Y-133714286D02*
X117088152Y-133619048D01*
X117850057Y-133523810D02*
X117850057Y-132761905D01*
X116850057Y-132571428D02*
X116802438Y-132523809D01*
X116802438Y-132523809D02*
X116754819Y-132428571D01*
X116754819Y-132428571D02*
X116754819Y-132190476D01*
X116754819Y-132190476D02*
X116802438Y-132095238D01*
X116802438Y-132095238D02*
X116850057Y-132047619D01*
X116850057Y-132047619D02*
X116945295Y-132000000D01*
X116945295Y-132000000D02*
X117040533Y-132000000D01*
X117040533Y-132000000D02*
X117183390Y-132047619D01*
X117183390Y-132047619D02*
X117754819Y-132619047D01*
X117754819Y-132619047D02*
X117754819Y-132000000D01*
X117754819Y-131666666D02*
X117088152Y-131142857D01*
X117088152Y-131666666D02*
X117754819Y-131142857D01*
X116754819Y-130571428D02*
X116754819Y-130476190D01*
X116754819Y-130476190D02*
X116802438Y-130380952D01*
X116802438Y-130380952D02*
X116850057Y-130333333D01*
X116850057Y-130333333D02*
X116945295Y-130285714D01*
X116945295Y-130285714D02*
X117135771Y-130238095D01*
X117135771Y-130238095D02*
X117373866Y-130238095D01*
X117373866Y-130238095D02*
X117564342Y-130285714D01*
X117564342Y-130285714D02*
X117659580Y-130333333D01*
X117659580Y-130333333D02*
X117707200Y-130380952D01*
X117707200Y-130380952D02*
X117754819Y-130476190D01*
X117754819Y-130476190D02*
X117754819Y-130571428D01*
X117754819Y-130571428D02*
X117707200Y-130666666D01*
X117707200Y-130666666D02*
X117659580Y-130714285D01*
X117659580Y-130714285D02*
X117564342Y-130761904D01*
X117564342Y-130761904D02*
X117373866Y-130809523D01*
X117373866Y-130809523D02*
X117135771Y-130809523D01*
X117135771Y-130809523D02*
X116945295Y-130761904D01*
X116945295Y-130761904D02*
X116850057Y-130714285D01*
X116850057Y-130714285D02*
X116802438Y-130666666D01*
X116802438Y-130666666D02*
X116754819Y-130571428D01*
X116754819Y-129333333D02*
X116754819Y-129809523D01*
X116754819Y-129809523D02*
X117231009Y-129857142D01*
X117231009Y-129857142D02*
X117183390Y-129809523D01*
X117183390Y-129809523D02*
X117135771Y-129714285D01*
X117135771Y-129714285D02*
X117135771Y-129476190D01*
X117135771Y-129476190D02*
X117183390Y-129380952D01*
X117183390Y-129380952D02*
X117231009Y-129333333D01*
X117231009Y-129333333D02*
X117326247Y-129285714D01*
X117326247Y-129285714D02*
X117564342Y-129285714D01*
X117564342Y-129285714D02*
X117659580Y-129333333D01*
X117659580Y-129333333D02*
X117707200Y-129380952D01*
X117707200Y-129380952D02*
X117754819Y-129476190D01*
X117754819Y-129476190D02*
X117754819Y-129714285D01*
X117754819Y-129714285D02*
X117707200Y-129809523D01*
X117707200Y-129809523D02*
X117659580Y-129857142D01*
X117850057Y-129095238D02*
X117850057Y-128333333D01*
X117754819Y-128095237D02*
X116754819Y-128095237D01*
X116754819Y-128095237D02*
X116754819Y-127714285D01*
X116754819Y-127714285D02*
X116802438Y-127619047D01*
X116802438Y-127619047D02*
X116850057Y-127571428D01*
X116850057Y-127571428D02*
X116945295Y-127523809D01*
X116945295Y-127523809D02*
X117088152Y-127523809D01*
X117088152Y-127523809D02*
X117183390Y-127571428D01*
X117183390Y-127571428D02*
X117231009Y-127619047D01*
X117231009Y-127619047D02*
X117278628Y-127714285D01*
X117278628Y-127714285D02*
X117278628Y-128095237D01*
X116850057Y-127142856D02*
X116802438Y-127095237D01*
X116802438Y-127095237D02*
X116754819Y-126999999D01*
X116754819Y-126999999D02*
X116754819Y-126761904D01*
X116754819Y-126761904D02*
X116802438Y-126666666D01*
X116802438Y-126666666D02*
X116850057Y-126619047D01*
X116850057Y-126619047D02*
X116945295Y-126571428D01*
X116945295Y-126571428D02*
X117040533Y-126571428D01*
X117040533Y-126571428D02*
X117183390Y-126619047D01*
X117183390Y-126619047D02*
X117754819Y-127190475D01*
X117754819Y-127190475D02*
X117754819Y-126571428D01*
X117659580Y-126142856D02*
X117707200Y-126095237D01*
X117707200Y-126095237D02*
X117754819Y-126142856D01*
X117754819Y-126142856D02*
X117707200Y-126190475D01*
X117707200Y-126190475D02*
X117659580Y-126142856D01*
X117659580Y-126142856D02*
X117754819Y-126142856D01*
X116754819Y-125190476D02*
X116754819Y-125666666D01*
X116754819Y-125666666D02*
X117231009Y-125714285D01*
X117231009Y-125714285D02*
X117183390Y-125666666D01*
X117183390Y-125666666D02*
X117135771Y-125571428D01*
X117135771Y-125571428D02*
X117135771Y-125333333D01*
X117135771Y-125333333D02*
X117183390Y-125238095D01*
X117183390Y-125238095D02*
X117231009Y-125190476D01*
X117231009Y-125190476D02*
X117326247Y-125142857D01*
X117326247Y-125142857D02*
X117564342Y-125142857D01*
X117564342Y-125142857D02*
X117659580Y-125190476D01*
X117659580Y-125190476D02*
X117707200Y-125238095D01*
X117707200Y-125238095D02*
X117754819Y-125333333D01*
X117754819Y-125333333D02*
X117754819Y-125571428D01*
X117754819Y-125571428D02*
X117707200Y-125666666D01*
X117707200Y-125666666D02*
X117659580Y-125714285D01*
X117088152Y-124285714D02*
X117754819Y-124285714D01*
X116707200Y-124523809D02*
X117421485Y-124761904D01*
X117421485Y-124761904D02*
X117421485Y-124142857D01*
X117754819Y-123761904D02*
X117088152Y-123761904D01*
X117183390Y-123761904D02*
X117135771Y-123714285D01*
X117135771Y-123714285D02*
X117088152Y-123619047D01*
X117088152Y-123619047D02*
X117088152Y-123476190D01*
X117088152Y-123476190D02*
X117135771Y-123380952D01*
X117135771Y-123380952D02*
X117231009Y-123333333D01*
X117231009Y-123333333D02*
X117754819Y-123333333D01*
X117231009Y-123333333D02*
X117135771Y-123285714D01*
X117135771Y-123285714D02*
X117088152Y-123190476D01*
X117088152Y-123190476D02*
X117088152Y-123047619D01*
X117088152Y-123047619D02*
X117135771Y-122952380D01*
X117135771Y-122952380D02*
X117231009Y-122904761D01*
X117231009Y-122904761D02*
X117754819Y-122904761D01*
X117754819Y-122428571D02*
X117088152Y-122428571D01*
X117183390Y-122428571D02*
X117135771Y-122380952D01*
X117135771Y-122380952D02*
X117088152Y-122285714D01*
X117088152Y-122285714D02*
X117088152Y-122142857D01*
X117088152Y-122142857D02*
X117135771Y-122047619D01*
X117135771Y-122047619D02*
X117231009Y-122000000D01*
X117231009Y-122000000D02*
X117754819Y-122000000D01*
X117231009Y-122000000D02*
X117135771Y-121952381D01*
X117135771Y-121952381D02*
X117088152Y-121857143D01*
X117088152Y-121857143D02*
X117088152Y-121714286D01*
X117088152Y-121714286D02*
X117135771Y-121619047D01*
X117135771Y-121619047D02*
X117231009Y-121571428D01*
X117231009Y-121571428D02*
X117754819Y-121571428D01*
X117850057Y-121333334D02*
X117850057Y-120571429D01*
X116754819Y-120476190D02*
X117754819Y-120142857D01*
X117754819Y-120142857D02*
X116754819Y-119809524D01*
X117707200Y-119095238D02*
X117754819Y-119190476D01*
X117754819Y-119190476D02*
X117754819Y-119380952D01*
X117754819Y-119380952D02*
X117707200Y-119476190D01*
X117707200Y-119476190D02*
X117611961Y-119523809D01*
X117611961Y-119523809D02*
X117231009Y-119523809D01*
X117231009Y-119523809D02*
X117135771Y-119476190D01*
X117135771Y-119476190D02*
X117088152Y-119380952D01*
X117088152Y-119380952D02*
X117088152Y-119190476D01*
X117088152Y-119190476D02*
X117135771Y-119095238D01*
X117135771Y-119095238D02*
X117231009Y-119047619D01*
X117231009Y-119047619D02*
X117326247Y-119047619D01*
X117326247Y-119047619D02*
X117421485Y-119523809D01*
X117754819Y-118619047D02*
X117088152Y-118619047D01*
X117278628Y-118619047D02*
X117183390Y-118571428D01*
X117183390Y-118571428D02*
X117135771Y-118523809D01*
X117135771Y-118523809D02*
X117088152Y-118428571D01*
X117088152Y-118428571D02*
X117088152Y-118333333D01*
X117088152Y-118142856D02*
X117088152Y-117761904D01*
X116754819Y-117999999D02*
X117611961Y-117999999D01*
X117611961Y-117999999D02*
X117707200Y-117952380D01*
X117707200Y-117952380D02*
X117754819Y-117857142D01*
X117754819Y-117857142D02*
X117754819Y-117761904D01*
X117754819Y-117428570D02*
X117088152Y-117428570D01*
X116754819Y-117428570D02*
X116802438Y-117476189D01*
X116802438Y-117476189D02*
X116850057Y-117428570D01*
X116850057Y-117428570D02*
X116802438Y-117380951D01*
X116802438Y-117380951D02*
X116754819Y-117428570D01*
X116754819Y-117428570D02*
X116850057Y-117428570D01*
X117707200Y-116523809D02*
X117754819Y-116619047D01*
X117754819Y-116619047D02*
X117754819Y-116809523D01*
X117754819Y-116809523D02*
X117707200Y-116904761D01*
X117707200Y-116904761D02*
X117659580Y-116952380D01*
X117659580Y-116952380D02*
X117564342Y-116999999D01*
X117564342Y-116999999D02*
X117278628Y-116999999D01*
X117278628Y-116999999D02*
X117183390Y-116952380D01*
X117183390Y-116952380D02*
X117135771Y-116904761D01*
X117135771Y-116904761D02*
X117088152Y-116809523D01*
X117088152Y-116809523D02*
X117088152Y-116619047D01*
X117088152Y-116619047D02*
X117135771Y-116523809D01*
X117754819Y-115666666D02*
X117231009Y-115666666D01*
X117231009Y-115666666D02*
X117135771Y-115714285D01*
X117135771Y-115714285D02*
X117088152Y-115809523D01*
X117088152Y-115809523D02*
X117088152Y-115999999D01*
X117088152Y-115999999D02*
X117135771Y-116095237D01*
X117707200Y-115666666D02*
X117754819Y-115761904D01*
X117754819Y-115761904D02*
X117754819Y-115999999D01*
X117754819Y-115999999D02*
X117707200Y-116095237D01*
X117707200Y-116095237D02*
X117611961Y-116142856D01*
X117611961Y-116142856D02*
X117516723Y-116142856D01*
X117516723Y-116142856D02*
X117421485Y-116095237D01*
X117421485Y-116095237D02*
X117373866Y-115999999D01*
X117373866Y-115999999D02*
X117373866Y-115761904D01*
X117373866Y-115761904D02*
X117326247Y-115666666D01*
X117754819Y-115047618D02*
X117707200Y-115142856D01*
X117707200Y-115142856D02*
X117611961Y-115190475D01*
X117611961Y-115190475D02*
X116754819Y-115190475D01*
X109506666Y-127454819D02*
X109506666Y-128169104D01*
X109506666Y-128169104D02*
X109459047Y-128311961D01*
X109459047Y-128311961D02*
X109363809Y-128407200D01*
X109363809Y-128407200D02*
X109220952Y-128454819D01*
X109220952Y-128454819D02*
X109125714Y-128454819D01*
X109935238Y-127550057D02*
X109982857Y-127502438D01*
X109982857Y-127502438D02*
X110078095Y-127454819D01*
X110078095Y-127454819D02*
X110316190Y-127454819D01*
X110316190Y-127454819D02*
X110411428Y-127502438D01*
X110411428Y-127502438D02*
X110459047Y-127550057D01*
X110459047Y-127550057D02*
X110506666Y-127645295D01*
X110506666Y-127645295D02*
X110506666Y-127740533D01*
X110506666Y-127740533D02*
X110459047Y-127883390D01*
X110459047Y-127883390D02*
X109887619Y-128454819D01*
X109887619Y-128454819D02*
X110506666Y-128454819D01*
X176454819Y-151746429D02*
X177264342Y-151746429D01*
X177264342Y-151746429D02*
X177359580Y-151698810D01*
X177359580Y-151698810D02*
X177407200Y-151651191D01*
X177407200Y-151651191D02*
X177454819Y-151555953D01*
X177454819Y-151555953D02*
X177454819Y-151365477D01*
X177454819Y-151365477D02*
X177407200Y-151270239D01*
X177407200Y-151270239D02*
X177359580Y-151222620D01*
X177359580Y-151222620D02*
X177264342Y-151175001D01*
X177264342Y-151175001D02*
X176454819Y-151175001D01*
X177407200Y-150746429D02*
X177454819Y-150603572D01*
X177454819Y-150603572D02*
X177454819Y-150365477D01*
X177454819Y-150365477D02*
X177407200Y-150270239D01*
X177407200Y-150270239D02*
X177359580Y-150222620D01*
X177359580Y-150222620D02*
X177264342Y-150175001D01*
X177264342Y-150175001D02*
X177169104Y-150175001D01*
X177169104Y-150175001D02*
X177073866Y-150222620D01*
X177073866Y-150222620D02*
X177026247Y-150270239D01*
X177026247Y-150270239D02*
X176978628Y-150365477D01*
X176978628Y-150365477D02*
X176931009Y-150555953D01*
X176931009Y-150555953D02*
X176883390Y-150651191D01*
X176883390Y-150651191D02*
X176835771Y-150698810D01*
X176835771Y-150698810D02*
X176740533Y-150746429D01*
X176740533Y-150746429D02*
X176645295Y-150746429D01*
X176645295Y-150746429D02*
X176550057Y-150698810D01*
X176550057Y-150698810D02*
X176502438Y-150651191D01*
X176502438Y-150651191D02*
X176454819Y-150555953D01*
X176454819Y-150555953D02*
X176454819Y-150317858D01*
X176454819Y-150317858D02*
X176502438Y-150175001D01*
X176931009Y-149413096D02*
X176978628Y-149270239D01*
X176978628Y-149270239D02*
X177026247Y-149222620D01*
X177026247Y-149222620D02*
X177121485Y-149175001D01*
X177121485Y-149175001D02*
X177264342Y-149175001D01*
X177264342Y-149175001D02*
X177359580Y-149222620D01*
X177359580Y-149222620D02*
X177407200Y-149270239D01*
X177407200Y-149270239D02*
X177454819Y-149365477D01*
X177454819Y-149365477D02*
X177454819Y-149746429D01*
X177454819Y-149746429D02*
X176454819Y-149746429D01*
X176454819Y-149746429D02*
X176454819Y-149413096D01*
X176454819Y-149413096D02*
X176502438Y-149317858D01*
X176502438Y-149317858D02*
X176550057Y-149270239D01*
X176550057Y-149270239D02*
X176645295Y-149222620D01*
X176645295Y-149222620D02*
X176740533Y-149222620D01*
X176740533Y-149222620D02*
X176835771Y-149270239D01*
X176835771Y-149270239D02*
X176883390Y-149317858D01*
X176883390Y-149317858D02*
X176931009Y-149413096D01*
X176931009Y-149413096D02*
X176931009Y-149746429D01*
X177550057Y-148984525D02*
X177550057Y-148222620D01*
X177169104Y-148032143D02*
X177169104Y-147555953D01*
X177454819Y-148127381D02*
X176454819Y-147794048D01*
X176454819Y-147794048D02*
X177454819Y-147460715D01*
X177550057Y-147365477D02*
X177550057Y-146603572D01*
X177454819Y-146365476D02*
X176454819Y-146365476D01*
X176454819Y-146365476D02*
X177169104Y-146032143D01*
X177169104Y-146032143D02*
X176454819Y-145698810D01*
X176454819Y-145698810D02*
X177454819Y-145698810D01*
X177454819Y-145079762D02*
X177407200Y-145175000D01*
X177407200Y-145175000D02*
X177359580Y-145222619D01*
X177359580Y-145222619D02*
X177264342Y-145270238D01*
X177264342Y-145270238D02*
X176978628Y-145270238D01*
X176978628Y-145270238D02*
X176883390Y-145222619D01*
X176883390Y-145222619D02*
X176835771Y-145175000D01*
X176835771Y-145175000D02*
X176788152Y-145079762D01*
X176788152Y-145079762D02*
X176788152Y-144936905D01*
X176788152Y-144936905D02*
X176835771Y-144841667D01*
X176835771Y-144841667D02*
X176883390Y-144794048D01*
X176883390Y-144794048D02*
X176978628Y-144746429D01*
X176978628Y-144746429D02*
X177264342Y-144746429D01*
X177264342Y-144746429D02*
X177359580Y-144794048D01*
X177359580Y-144794048D02*
X177407200Y-144841667D01*
X177407200Y-144841667D02*
X177454819Y-144936905D01*
X177454819Y-144936905D02*
X177454819Y-145079762D01*
X177454819Y-144175000D02*
X177407200Y-144270238D01*
X177407200Y-144270238D02*
X177311961Y-144317857D01*
X177311961Y-144317857D02*
X176454819Y-144317857D01*
X177407200Y-143413095D02*
X177454819Y-143508333D01*
X177454819Y-143508333D02*
X177454819Y-143698809D01*
X177454819Y-143698809D02*
X177407200Y-143794047D01*
X177407200Y-143794047D02*
X177311961Y-143841666D01*
X177311961Y-143841666D02*
X176931009Y-143841666D01*
X176931009Y-143841666D02*
X176835771Y-143794047D01*
X176835771Y-143794047D02*
X176788152Y-143698809D01*
X176788152Y-143698809D02*
X176788152Y-143508333D01*
X176788152Y-143508333D02*
X176835771Y-143413095D01*
X176835771Y-143413095D02*
X176931009Y-143365476D01*
X176931009Y-143365476D02*
X177026247Y-143365476D01*
X177026247Y-143365476D02*
X177121485Y-143841666D01*
X177454819Y-143032142D02*
X176788152Y-142508333D01*
X176788152Y-143032142D02*
X177454819Y-142508333D01*
X177550057Y-142365476D02*
X177550057Y-141603571D01*
X176788152Y-140936904D02*
X177454819Y-140936904D01*
X176407200Y-141174999D02*
X177121485Y-141413094D01*
X177121485Y-141413094D02*
X177121485Y-140794047D01*
X176883390Y-140270237D02*
X176835771Y-140365475D01*
X176835771Y-140365475D02*
X176788152Y-140413094D01*
X176788152Y-140413094D02*
X176692914Y-140460713D01*
X176692914Y-140460713D02*
X176645295Y-140460713D01*
X176645295Y-140460713D02*
X176550057Y-140413094D01*
X176550057Y-140413094D02*
X176502438Y-140365475D01*
X176502438Y-140365475D02*
X176454819Y-140270237D01*
X176454819Y-140270237D02*
X176454819Y-140079761D01*
X176454819Y-140079761D02*
X176502438Y-139984523D01*
X176502438Y-139984523D02*
X176550057Y-139936904D01*
X176550057Y-139936904D02*
X176645295Y-139889285D01*
X176645295Y-139889285D02*
X176692914Y-139889285D01*
X176692914Y-139889285D02*
X176788152Y-139936904D01*
X176788152Y-139936904D02*
X176835771Y-139984523D01*
X176835771Y-139984523D02*
X176883390Y-140079761D01*
X176883390Y-140079761D02*
X176883390Y-140270237D01*
X176883390Y-140270237D02*
X176931009Y-140365475D01*
X176931009Y-140365475D02*
X176978628Y-140413094D01*
X176978628Y-140413094D02*
X177073866Y-140460713D01*
X177073866Y-140460713D02*
X177264342Y-140460713D01*
X177264342Y-140460713D02*
X177359580Y-140413094D01*
X177359580Y-140413094D02*
X177407200Y-140365475D01*
X177407200Y-140365475D02*
X177454819Y-140270237D01*
X177454819Y-140270237D02*
X177454819Y-140079761D01*
X177454819Y-140079761D02*
X177407200Y-139984523D01*
X177407200Y-139984523D02*
X177359580Y-139936904D01*
X177359580Y-139936904D02*
X177264342Y-139889285D01*
X177264342Y-139889285D02*
X177073866Y-139889285D01*
X177073866Y-139889285D02*
X176978628Y-139936904D01*
X176978628Y-139936904D02*
X176931009Y-139984523D01*
X176931009Y-139984523D02*
X176883390Y-140079761D01*
X176454819Y-139270237D02*
X176454819Y-139174999D01*
X176454819Y-139174999D02*
X176502438Y-139079761D01*
X176502438Y-139079761D02*
X176550057Y-139032142D01*
X176550057Y-139032142D02*
X176645295Y-138984523D01*
X176645295Y-138984523D02*
X176835771Y-138936904D01*
X176835771Y-138936904D02*
X177073866Y-138936904D01*
X177073866Y-138936904D02*
X177264342Y-138984523D01*
X177264342Y-138984523D02*
X177359580Y-139032142D01*
X177359580Y-139032142D02*
X177407200Y-139079761D01*
X177407200Y-139079761D02*
X177454819Y-139174999D01*
X177454819Y-139174999D02*
X177454819Y-139270237D01*
X177454819Y-139270237D02*
X177407200Y-139365475D01*
X177407200Y-139365475D02*
X177359580Y-139413094D01*
X177359580Y-139413094D02*
X177264342Y-139460713D01*
X177264342Y-139460713D02*
X177073866Y-139508332D01*
X177073866Y-139508332D02*
X176835771Y-139508332D01*
X176835771Y-139508332D02*
X176645295Y-139460713D01*
X176645295Y-139460713D02*
X176550057Y-139413094D01*
X176550057Y-139413094D02*
X176502438Y-139365475D01*
X176502438Y-139365475D02*
X176454819Y-139270237D01*
X176454819Y-138603570D02*
X176454819Y-137984523D01*
X176454819Y-137984523D02*
X176835771Y-138317856D01*
X176835771Y-138317856D02*
X176835771Y-138174999D01*
X176835771Y-138174999D02*
X176883390Y-138079761D01*
X176883390Y-138079761D02*
X176931009Y-138032142D01*
X176931009Y-138032142D02*
X177026247Y-137984523D01*
X177026247Y-137984523D02*
X177264342Y-137984523D01*
X177264342Y-137984523D02*
X177359580Y-138032142D01*
X177359580Y-138032142D02*
X177407200Y-138079761D01*
X177407200Y-138079761D02*
X177454819Y-138174999D01*
X177454819Y-138174999D02*
X177454819Y-138460713D01*
X177454819Y-138460713D02*
X177407200Y-138555951D01*
X177407200Y-138555951D02*
X177359580Y-138603570D01*
X176454819Y-137651189D02*
X176454819Y-136984523D01*
X176454819Y-136984523D02*
X177454819Y-137413094D01*
X177073866Y-136603570D02*
X177073866Y-135841666D01*
X176550057Y-135413094D02*
X176502438Y-135365475D01*
X176502438Y-135365475D02*
X176454819Y-135270237D01*
X176454819Y-135270237D02*
X176454819Y-135032142D01*
X176454819Y-135032142D02*
X176502438Y-134936904D01*
X176502438Y-134936904D02*
X176550057Y-134889285D01*
X176550057Y-134889285D02*
X176645295Y-134841666D01*
X176645295Y-134841666D02*
X176740533Y-134841666D01*
X176740533Y-134841666D02*
X176883390Y-134889285D01*
X176883390Y-134889285D02*
X177454819Y-135460713D01*
X177454819Y-135460713D02*
X177454819Y-134841666D01*
X176550057Y-134460713D02*
X176502438Y-134413094D01*
X176502438Y-134413094D02*
X176454819Y-134317856D01*
X176454819Y-134317856D02*
X176454819Y-134079761D01*
X176454819Y-134079761D02*
X176502438Y-133984523D01*
X176502438Y-133984523D02*
X176550057Y-133936904D01*
X176550057Y-133936904D02*
X176645295Y-133889285D01*
X176645295Y-133889285D02*
X176740533Y-133889285D01*
X176740533Y-133889285D02*
X176883390Y-133936904D01*
X176883390Y-133936904D02*
X177454819Y-134508332D01*
X177454819Y-134508332D02*
X177454819Y-133889285D01*
X176454819Y-133270237D02*
X176454819Y-133174999D01*
X176454819Y-133174999D02*
X176502438Y-133079761D01*
X176502438Y-133079761D02*
X176550057Y-133032142D01*
X176550057Y-133032142D02*
X176645295Y-132984523D01*
X176645295Y-132984523D02*
X176835771Y-132936904D01*
X176835771Y-132936904D02*
X177073866Y-132936904D01*
X177073866Y-132936904D02*
X177264342Y-132984523D01*
X177264342Y-132984523D02*
X177359580Y-133032142D01*
X177359580Y-133032142D02*
X177407200Y-133079761D01*
X177407200Y-133079761D02*
X177454819Y-133174999D01*
X177454819Y-133174999D02*
X177454819Y-133270237D01*
X177454819Y-133270237D02*
X177407200Y-133365475D01*
X177407200Y-133365475D02*
X177359580Y-133413094D01*
X177359580Y-133413094D02*
X177264342Y-133460713D01*
X177264342Y-133460713D02*
X177073866Y-133508332D01*
X177073866Y-133508332D02*
X176835771Y-133508332D01*
X176835771Y-133508332D02*
X176645295Y-133460713D01*
X176645295Y-133460713D02*
X176550057Y-133413094D01*
X176550057Y-133413094D02*
X176502438Y-133365475D01*
X176502438Y-133365475D02*
X176454819Y-133270237D01*
X176454819Y-132317856D02*
X176454819Y-132222618D01*
X176454819Y-132222618D02*
X176502438Y-132127380D01*
X176502438Y-132127380D02*
X176550057Y-132079761D01*
X176550057Y-132079761D02*
X176645295Y-132032142D01*
X176645295Y-132032142D02*
X176835771Y-131984523D01*
X176835771Y-131984523D02*
X177073866Y-131984523D01*
X177073866Y-131984523D02*
X177264342Y-132032142D01*
X177264342Y-132032142D02*
X177359580Y-132079761D01*
X177359580Y-132079761D02*
X177407200Y-132127380D01*
X177407200Y-132127380D02*
X177454819Y-132222618D01*
X177454819Y-132222618D02*
X177454819Y-132317856D01*
X177454819Y-132317856D02*
X177407200Y-132413094D01*
X177407200Y-132413094D02*
X177359580Y-132460713D01*
X177359580Y-132460713D02*
X177264342Y-132508332D01*
X177264342Y-132508332D02*
X177073866Y-132555951D01*
X177073866Y-132555951D02*
X176835771Y-132555951D01*
X176835771Y-132555951D02*
X176645295Y-132508332D01*
X176645295Y-132508332D02*
X176550057Y-132460713D01*
X176550057Y-132460713D02*
X176502438Y-132413094D01*
X176502438Y-132413094D02*
X176454819Y-132317856D01*
X177550057Y-131794047D02*
X177550057Y-131032142D01*
X177454819Y-130794046D02*
X176454819Y-130794046D01*
X176931009Y-130794046D02*
X176931009Y-130222618D01*
X177454819Y-130222618D02*
X176454819Y-130222618D01*
X177454819Y-129603570D02*
X177407200Y-129698808D01*
X177407200Y-129698808D02*
X177359580Y-129746427D01*
X177359580Y-129746427D02*
X177264342Y-129794046D01*
X177264342Y-129794046D02*
X176978628Y-129794046D01*
X176978628Y-129794046D02*
X176883390Y-129746427D01*
X176883390Y-129746427D02*
X176835771Y-129698808D01*
X176835771Y-129698808D02*
X176788152Y-129603570D01*
X176788152Y-129603570D02*
X176788152Y-129460713D01*
X176788152Y-129460713D02*
X176835771Y-129365475D01*
X176835771Y-129365475D02*
X176883390Y-129317856D01*
X176883390Y-129317856D02*
X176978628Y-129270237D01*
X176978628Y-129270237D02*
X177264342Y-129270237D01*
X177264342Y-129270237D02*
X177359580Y-129317856D01*
X177359580Y-129317856D02*
X177407200Y-129365475D01*
X177407200Y-129365475D02*
X177454819Y-129460713D01*
X177454819Y-129460713D02*
X177454819Y-129603570D01*
X177454819Y-128841665D02*
X176788152Y-128841665D01*
X176978628Y-128841665D02*
X176883390Y-128794046D01*
X176883390Y-128794046D02*
X176835771Y-128746427D01*
X176835771Y-128746427D02*
X176788152Y-128651189D01*
X176788152Y-128651189D02*
X176788152Y-128555951D01*
X177454819Y-128222617D02*
X176788152Y-128222617D01*
X176454819Y-128222617D02*
X176502438Y-128270236D01*
X176502438Y-128270236D02*
X176550057Y-128222617D01*
X176550057Y-128222617D02*
X176502438Y-128174998D01*
X176502438Y-128174998D02*
X176454819Y-128222617D01*
X176454819Y-128222617D02*
X176550057Y-128222617D01*
X176788152Y-127841665D02*
X176788152Y-127317856D01*
X176788152Y-127317856D02*
X177454819Y-127841665D01*
X177454819Y-127841665D02*
X177454819Y-127317856D01*
X177454819Y-126794046D02*
X177407200Y-126889284D01*
X177407200Y-126889284D02*
X177359580Y-126936903D01*
X177359580Y-126936903D02*
X177264342Y-126984522D01*
X177264342Y-126984522D02*
X176978628Y-126984522D01*
X176978628Y-126984522D02*
X176883390Y-126936903D01*
X176883390Y-126936903D02*
X176835771Y-126889284D01*
X176835771Y-126889284D02*
X176788152Y-126794046D01*
X176788152Y-126794046D02*
X176788152Y-126651189D01*
X176788152Y-126651189D02*
X176835771Y-126555951D01*
X176835771Y-126555951D02*
X176883390Y-126508332D01*
X176883390Y-126508332D02*
X176978628Y-126460713D01*
X176978628Y-126460713D02*
X177264342Y-126460713D01*
X177264342Y-126460713D02*
X177359580Y-126508332D01*
X177359580Y-126508332D02*
X177407200Y-126555951D01*
X177407200Y-126555951D02*
X177454819Y-126651189D01*
X177454819Y-126651189D02*
X177454819Y-126794046D01*
X176788152Y-126032141D02*
X177454819Y-126032141D01*
X176883390Y-126032141D02*
X176835771Y-125984522D01*
X176835771Y-125984522D02*
X176788152Y-125889284D01*
X176788152Y-125889284D02*
X176788152Y-125746427D01*
X176788152Y-125746427D02*
X176835771Y-125651189D01*
X176835771Y-125651189D02*
X176931009Y-125603570D01*
X176931009Y-125603570D02*
X177454819Y-125603570D01*
X176788152Y-125270236D02*
X176788152Y-124889284D01*
X176454819Y-125127379D02*
X177311961Y-125127379D01*
X177311961Y-125127379D02*
X177407200Y-125079760D01*
X177407200Y-125079760D02*
X177454819Y-124984522D01*
X177454819Y-124984522D02*
X177454819Y-124889284D01*
X177454819Y-124127379D02*
X176931009Y-124127379D01*
X176931009Y-124127379D02*
X176835771Y-124174998D01*
X176835771Y-124174998D02*
X176788152Y-124270236D01*
X176788152Y-124270236D02*
X176788152Y-124460712D01*
X176788152Y-124460712D02*
X176835771Y-124555950D01*
X177407200Y-124127379D02*
X177454819Y-124222617D01*
X177454819Y-124222617D02*
X177454819Y-124460712D01*
X177454819Y-124460712D02*
X177407200Y-124555950D01*
X177407200Y-124555950D02*
X177311961Y-124603569D01*
X177311961Y-124603569D02*
X177216723Y-124603569D01*
X177216723Y-124603569D02*
X177121485Y-124555950D01*
X177121485Y-124555950D02*
X177073866Y-124460712D01*
X177073866Y-124460712D02*
X177073866Y-124222617D01*
X177073866Y-124222617D02*
X177026247Y-124127379D01*
X177454819Y-123508331D02*
X177407200Y-123603569D01*
X177407200Y-123603569D02*
X177311961Y-123651188D01*
X177311961Y-123651188D02*
X176454819Y-123651188D01*
X184454819Y-138008333D02*
X185169104Y-138008333D01*
X185169104Y-138008333D02*
X185311961Y-138055952D01*
X185311961Y-138055952D02*
X185407200Y-138151190D01*
X185407200Y-138151190D02*
X185454819Y-138294047D01*
X185454819Y-138294047D02*
X185454819Y-138389285D01*
X184454819Y-137055952D02*
X184454819Y-137532142D01*
X184454819Y-137532142D02*
X184931009Y-137579761D01*
X184931009Y-137579761D02*
X184883390Y-137532142D01*
X184883390Y-137532142D02*
X184835771Y-137436904D01*
X184835771Y-137436904D02*
X184835771Y-137198809D01*
X184835771Y-137198809D02*
X184883390Y-137103571D01*
X184883390Y-137103571D02*
X184931009Y-137055952D01*
X184931009Y-137055952D02*
X185026247Y-137008333D01*
X185026247Y-137008333D02*
X185264342Y-137008333D01*
X185264342Y-137008333D02*
X185359580Y-137055952D01*
X185359580Y-137055952D02*
X185407200Y-137103571D01*
X185407200Y-137103571D02*
X185454819Y-137198809D01*
X185454819Y-137198809D02*
X185454819Y-137436904D01*
X185454819Y-137436904D02*
X185407200Y-137532142D01*
X185407200Y-137532142D02*
X185359580Y-137579761D01*
X87095238Y-135104819D02*
X87095238Y-134104819D01*
X87095238Y-134104819D02*
X87428571Y-134819104D01*
X87428571Y-134819104D02*
X87761904Y-134104819D01*
X87761904Y-134104819D02*
X87761904Y-135104819D01*
X88380952Y-135104819D02*
X88285714Y-135057200D01*
X88285714Y-135057200D02*
X88238095Y-135009580D01*
X88238095Y-135009580D02*
X88190476Y-134914342D01*
X88190476Y-134914342D02*
X88190476Y-134628628D01*
X88190476Y-134628628D02*
X88238095Y-134533390D01*
X88238095Y-134533390D02*
X88285714Y-134485771D01*
X88285714Y-134485771D02*
X88380952Y-134438152D01*
X88380952Y-134438152D02*
X88523809Y-134438152D01*
X88523809Y-134438152D02*
X88619047Y-134485771D01*
X88619047Y-134485771D02*
X88666666Y-134533390D01*
X88666666Y-134533390D02*
X88714285Y-134628628D01*
X88714285Y-134628628D02*
X88714285Y-134914342D01*
X88714285Y-134914342D02*
X88666666Y-135009580D01*
X88666666Y-135009580D02*
X88619047Y-135057200D01*
X88619047Y-135057200D02*
X88523809Y-135104819D01*
X88523809Y-135104819D02*
X88380952Y-135104819D01*
X89571428Y-134438152D02*
X89571428Y-135104819D01*
X89142857Y-134438152D02*
X89142857Y-134961961D01*
X89142857Y-134961961D02*
X89190476Y-135057200D01*
X89190476Y-135057200D02*
X89285714Y-135104819D01*
X89285714Y-135104819D02*
X89428571Y-135104819D01*
X89428571Y-135104819D02*
X89523809Y-135057200D01*
X89523809Y-135057200D02*
X89571428Y-135009580D01*
X90047619Y-134438152D02*
X90047619Y-135104819D01*
X90047619Y-134533390D02*
X90095238Y-134485771D01*
X90095238Y-134485771D02*
X90190476Y-134438152D01*
X90190476Y-134438152D02*
X90333333Y-134438152D01*
X90333333Y-134438152D02*
X90428571Y-134485771D01*
X90428571Y-134485771D02*
X90476190Y-134581009D01*
X90476190Y-134581009D02*
X90476190Y-135104819D01*
X90809524Y-134438152D02*
X91190476Y-134438152D01*
X90952381Y-134104819D02*
X90952381Y-134961961D01*
X90952381Y-134961961D02*
X91000000Y-135057200D01*
X91000000Y-135057200D02*
X91095238Y-135104819D01*
X91095238Y-135104819D02*
X91190476Y-135104819D01*
X91523810Y-135104819D02*
X91523810Y-134438152D01*
X91523810Y-134104819D02*
X91476191Y-134152438D01*
X91476191Y-134152438D02*
X91523810Y-134200057D01*
X91523810Y-134200057D02*
X91571429Y-134152438D01*
X91571429Y-134152438D02*
X91523810Y-134104819D01*
X91523810Y-134104819D02*
X91523810Y-134200057D01*
X92000000Y-134438152D02*
X92000000Y-135104819D01*
X92000000Y-134533390D02*
X92047619Y-134485771D01*
X92047619Y-134485771D02*
X92142857Y-134438152D01*
X92142857Y-134438152D02*
X92285714Y-134438152D01*
X92285714Y-134438152D02*
X92380952Y-134485771D01*
X92380952Y-134485771D02*
X92428571Y-134581009D01*
X92428571Y-134581009D02*
X92428571Y-135104819D01*
X93333333Y-134438152D02*
X93333333Y-135247676D01*
X93333333Y-135247676D02*
X93285714Y-135342914D01*
X93285714Y-135342914D02*
X93238095Y-135390533D01*
X93238095Y-135390533D02*
X93142857Y-135438152D01*
X93142857Y-135438152D02*
X93000000Y-135438152D01*
X93000000Y-135438152D02*
X92904762Y-135390533D01*
X93333333Y-135057200D02*
X93238095Y-135104819D01*
X93238095Y-135104819D02*
X93047619Y-135104819D01*
X93047619Y-135104819D02*
X92952381Y-135057200D01*
X92952381Y-135057200D02*
X92904762Y-135009580D01*
X92904762Y-135009580D02*
X92857143Y-134914342D01*
X92857143Y-134914342D02*
X92857143Y-134628628D01*
X92857143Y-134628628D02*
X92904762Y-134533390D01*
X92904762Y-134533390D02*
X92952381Y-134485771D01*
X92952381Y-134485771D02*
X93047619Y-134438152D01*
X93047619Y-134438152D02*
X93238095Y-134438152D01*
X93238095Y-134438152D02*
X93333333Y-134485771D01*
X93809524Y-135104819D02*
X93809524Y-134104819D01*
X93809524Y-134581009D02*
X94380952Y-134581009D01*
X94380952Y-135104819D02*
X94380952Y-134104819D01*
X95000000Y-135104819D02*
X94904762Y-135057200D01*
X94904762Y-135057200D02*
X94857143Y-135009580D01*
X94857143Y-135009580D02*
X94809524Y-134914342D01*
X94809524Y-134914342D02*
X94809524Y-134628628D01*
X94809524Y-134628628D02*
X94857143Y-134533390D01*
X94857143Y-134533390D02*
X94904762Y-134485771D01*
X94904762Y-134485771D02*
X95000000Y-134438152D01*
X95000000Y-134438152D02*
X95142857Y-134438152D01*
X95142857Y-134438152D02*
X95238095Y-134485771D01*
X95238095Y-134485771D02*
X95285714Y-134533390D01*
X95285714Y-134533390D02*
X95333333Y-134628628D01*
X95333333Y-134628628D02*
X95333333Y-134914342D01*
X95333333Y-134914342D02*
X95285714Y-135009580D01*
X95285714Y-135009580D02*
X95238095Y-135057200D01*
X95238095Y-135057200D02*
X95142857Y-135104819D01*
X95142857Y-135104819D02*
X95000000Y-135104819D01*
X95904762Y-135104819D02*
X95809524Y-135057200D01*
X95809524Y-135057200D02*
X95761905Y-134961961D01*
X95761905Y-134961961D02*
X95761905Y-134104819D01*
X96666667Y-135057200D02*
X96571429Y-135104819D01*
X96571429Y-135104819D02*
X96380953Y-135104819D01*
X96380953Y-135104819D02*
X96285715Y-135057200D01*
X96285715Y-135057200D02*
X96238096Y-134961961D01*
X96238096Y-134961961D02*
X96238096Y-134581009D01*
X96238096Y-134581009D02*
X96285715Y-134485771D01*
X96285715Y-134485771D02*
X96380953Y-134438152D01*
X96380953Y-134438152D02*
X96571429Y-134438152D01*
X96571429Y-134438152D02*
X96666667Y-134485771D01*
X96666667Y-134485771D02*
X96714286Y-134581009D01*
X96714286Y-134581009D02*
X96714286Y-134676247D01*
X96714286Y-134676247D02*
X96238096Y-134771485D01*
X96904763Y-135200057D02*
X97666667Y-135200057D01*
X97809525Y-134104819D02*
X98428572Y-134104819D01*
X98428572Y-134104819D02*
X98095239Y-134485771D01*
X98095239Y-134485771D02*
X98238096Y-134485771D01*
X98238096Y-134485771D02*
X98333334Y-134533390D01*
X98333334Y-134533390D02*
X98380953Y-134581009D01*
X98380953Y-134581009D02*
X98428572Y-134676247D01*
X98428572Y-134676247D02*
X98428572Y-134914342D01*
X98428572Y-134914342D02*
X98380953Y-135009580D01*
X98380953Y-135009580D02*
X98333334Y-135057200D01*
X98333334Y-135057200D02*
X98238096Y-135104819D01*
X98238096Y-135104819D02*
X97952382Y-135104819D01*
X97952382Y-135104819D02*
X97857144Y-135057200D01*
X97857144Y-135057200D02*
X97809525Y-135009580D01*
X98857144Y-135009580D02*
X98904763Y-135057200D01*
X98904763Y-135057200D02*
X98857144Y-135104819D01*
X98857144Y-135104819D02*
X98809525Y-135057200D01*
X98809525Y-135057200D02*
X98857144Y-135009580D01*
X98857144Y-135009580D02*
X98857144Y-135104819D01*
X99285715Y-134200057D02*
X99333334Y-134152438D01*
X99333334Y-134152438D02*
X99428572Y-134104819D01*
X99428572Y-134104819D02*
X99666667Y-134104819D01*
X99666667Y-134104819D02*
X99761905Y-134152438D01*
X99761905Y-134152438D02*
X99809524Y-134200057D01*
X99809524Y-134200057D02*
X99857143Y-134295295D01*
X99857143Y-134295295D02*
X99857143Y-134390533D01*
X99857143Y-134390533D02*
X99809524Y-134533390D01*
X99809524Y-134533390D02*
X99238096Y-135104819D01*
X99238096Y-135104819D02*
X99857143Y-135104819D01*
X100285715Y-135104819D02*
X100285715Y-134438152D01*
X100285715Y-134533390D02*
X100333334Y-134485771D01*
X100333334Y-134485771D02*
X100428572Y-134438152D01*
X100428572Y-134438152D02*
X100571429Y-134438152D01*
X100571429Y-134438152D02*
X100666667Y-134485771D01*
X100666667Y-134485771D02*
X100714286Y-134581009D01*
X100714286Y-134581009D02*
X100714286Y-135104819D01*
X100714286Y-134581009D02*
X100761905Y-134485771D01*
X100761905Y-134485771D02*
X100857143Y-134438152D01*
X100857143Y-134438152D02*
X101000000Y-134438152D01*
X101000000Y-134438152D02*
X101095239Y-134485771D01*
X101095239Y-134485771D02*
X101142858Y-134581009D01*
X101142858Y-134581009D02*
X101142858Y-135104819D01*
X101619048Y-135104819D02*
X101619048Y-134438152D01*
X101619048Y-134533390D02*
X101666667Y-134485771D01*
X101666667Y-134485771D02*
X101761905Y-134438152D01*
X101761905Y-134438152D02*
X101904762Y-134438152D01*
X101904762Y-134438152D02*
X102000000Y-134485771D01*
X102000000Y-134485771D02*
X102047619Y-134581009D01*
X102047619Y-134581009D02*
X102047619Y-135104819D01*
X102047619Y-134581009D02*
X102095238Y-134485771D01*
X102095238Y-134485771D02*
X102190476Y-134438152D01*
X102190476Y-134438152D02*
X102333333Y-134438152D01*
X102333333Y-134438152D02*
X102428572Y-134485771D01*
X102428572Y-134485771D02*
X102476191Y-134581009D01*
X102476191Y-134581009D02*
X102476191Y-135104819D01*
X102714286Y-135200057D02*
X103476190Y-135200057D01*
X103714286Y-135104819D02*
X103714286Y-134104819D01*
X103714286Y-134104819D02*
X104047619Y-134819104D01*
X104047619Y-134819104D02*
X104380952Y-134104819D01*
X104380952Y-134104819D02*
X104380952Y-135104819D01*
X104761905Y-134104819D02*
X105380952Y-134104819D01*
X105380952Y-134104819D02*
X105047619Y-134485771D01*
X105047619Y-134485771D02*
X105190476Y-134485771D01*
X105190476Y-134485771D02*
X105285714Y-134533390D01*
X105285714Y-134533390D02*
X105333333Y-134581009D01*
X105333333Y-134581009D02*
X105380952Y-134676247D01*
X105380952Y-134676247D02*
X105380952Y-134914342D01*
X105380952Y-134914342D02*
X105333333Y-135009580D01*
X105333333Y-135009580D02*
X105285714Y-135057200D01*
X105285714Y-135057200D02*
X105190476Y-135104819D01*
X105190476Y-135104819D02*
X104904762Y-135104819D01*
X104904762Y-135104819D02*
X104809524Y-135057200D01*
X104809524Y-135057200D02*
X104761905Y-135009580D01*
X105571429Y-135200057D02*
X106333333Y-135200057D01*
X106571429Y-135104819D02*
X106571429Y-134104819D01*
X106571429Y-134104819D02*
X106952381Y-134104819D01*
X106952381Y-134104819D02*
X107047619Y-134152438D01*
X107047619Y-134152438D02*
X107095238Y-134200057D01*
X107095238Y-134200057D02*
X107142857Y-134295295D01*
X107142857Y-134295295D02*
X107142857Y-134438152D01*
X107142857Y-134438152D02*
X107095238Y-134533390D01*
X107095238Y-134533390D02*
X107047619Y-134581009D01*
X107047619Y-134581009D02*
X106952381Y-134628628D01*
X106952381Y-134628628D02*
X106571429Y-134628628D01*
X108000000Y-135104819D02*
X108000000Y-134581009D01*
X108000000Y-134581009D02*
X107952381Y-134485771D01*
X107952381Y-134485771D02*
X107857143Y-134438152D01*
X107857143Y-134438152D02*
X107666667Y-134438152D01*
X107666667Y-134438152D02*
X107571429Y-134485771D01*
X108000000Y-135057200D02*
X107904762Y-135104819D01*
X107904762Y-135104819D02*
X107666667Y-135104819D01*
X107666667Y-135104819D02*
X107571429Y-135057200D01*
X107571429Y-135057200D02*
X107523810Y-134961961D01*
X107523810Y-134961961D02*
X107523810Y-134866723D01*
X107523810Y-134866723D02*
X107571429Y-134771485D01*
X107571429Y-134771485D02*
X107666667Y-134723866D01*
X107666667Y-134723866D02*
X107904762Y-134723866D01*
X107904762Y-134723866D02*
X108000000Y-134676247D01*
X108904762Y-135104819D02*
X108904762Y-134104819D01*
X108904762Y-135057200D02*
X108809524Y-135104819D01*
X108809524Y-135104819D02*
X108619048Y-135104819D01*
X108619048Y-135104819D02*
X108523810Y-135057200D01*
X108523810Y-135057200D02*
X108476191Y-135009580D01*
X108476191Y-135009580D02*
X108428572Y-134914342D01*
X108428572Y-134914342D02*
X108428572Y-134628628D01*
X108428572Y-134628628D02*
X108476191Y-134533390D01*
X108476191Y-134533390D02*
X108523810Y-134485771D01*
X108523810Y-134485771D02*
X108619048Y-134438152D01*
X108619048Y-134438152D02*
X108809524Y-134438152D01*
X108809524Y-134438152D02*
X108904762Y-134485771D01*
X109142858Y-135200057D02*
X109904762Y-135200057D01*
X110000001Y-134104819D02*
X110333334Y-135104819D01*
X110333334Y-135104819D02*
X110666667Y-134104819D01*
X111000001Y-135104819D02*
X111000001Y-134438152D01*
X111000001Y-134104819D02*
X110952382Y-134152438D01*
X110952382Y-134152438D02*
X111000001Y-134200057D01*
X111000001Y-134200057D02*
X111047620Y-134152438D01*
X111047620Y-134152438D02*
X111000001Y-134104819D01*
X111000001Y-134104819D02*
X111000001Y-134200057D01*
X111904762Y-135104819D02*
X111904762Y-134581009D01*
X111904762Y-134581009D02*
X111857143Y-134485771D01*
X111857143Y-134485771D02*
X111761905Y-134438152D01*
X111761905Y-134438152D02*
X111571429Y-134438152D01*
X111571429Y-134438152D02*
X111476191Y-134485771D01*
X111904762Y-135057200D02*
X111809524Y-135104819D01*
X111809524Y-135104819D02*
X111571429Y-135104819D01*
X111571429Y-135104819D02*
X111476191Y-135057200D01*
X111476191Y-135057200D02*
X111428572Y-134961961D01*
X111428572Y-134961961D02*
X111428572Y-134866723D01*
X111428572Y-134866723D02*
X111476191Y-134771485D01*
X111476191Y-134771485D02*
X111571429Y-134723866D01*
X111571429Y-134723866D02*
X111809524Y-134723866D01*
X111809524Y-134723866D02*
X111904762Y-134676247D01*
X98738095Y-130954819D02*
X98738095Y-129954819D01*
X98738095Y-130431009D02*
X99309523Y-130431009D01*
X99309523Y-130954819D02*
X99309523Y-129954819D01*
X99690476Y-129954819D02*
X100309523Y-129954819D01*
X100309523Y-129954819D02*
X99976190Y-130335771D01*
X99976190Y-130335771D02*
X100119047Y-130335771D01*
X100119047Y-130335771D02*
X100214285Y-130383390D01*
X100214285Y-130383390D02*
X100261904Y-130431009D01*
X100261904Y-130431009D02*
X100309523Y-130526247D01*
X100309523Y-130526247D02*
X100309523Y-130764342D01*
X100309523Y-130764342D02*
X100261904Y-130859580D01*
X100261904Y-130859580D02*
X100214285Y-130907200D01*
X100214285Y-130907200D02*
X100119047Y-130954819D01*
X100119047Y-130954819D02*
X99833333Y-130954819D01*
X99833333Y-130954819D02*
X99738095Y-130907200D01*
X99738095Y-130907200D02*
X99690476Y-130859580D01*
X160454819Y-151746429D02*
X161264342Y-151746429D01*
X161264342Y-151746429D02*
X161359580Y-151698810D01*
X161359580Y-151698810D02*
X161407200Y-151651191D01*
X161407200Y-151651191D02*
X161454819Y-151555953D01*
X161454819Y-151555953D02*
X161454819Y-151365477D01*
X161454819Y-151365477D02*
X161407200Y-151270239D01*
X161407200Y-151270239D02*
X161359580Y-151222620D01*
X161359580Y-151222620D02*
X161264342Y-151175001D01*
X161264342Y-151175001D02*
X160454819Y-151175001D01*
X161407200Y-150746429D02*
X161454819Y-150603572D01*
X161454819Y-150603572D02*
X161454819Y-150365477D01*
X161454819Y-150365477D02*
X161407200Y-150270239D01*
X161407200Y-150270239D02*
X161359580Y-150222620D01*
X161359580Y-150222620D02*
X161264342Y-150175001D01*
X161264342Y-150175001D02*
X161169104Y-150175001D01*
X161169104Y-150175001D02*
X161073866Y-150222620D01*
X161073866Y-150222620D02*
X161026247Y-150270239D01*
X161026247Y-150270239D02*
X160978628Y-150365477D01*
X160978628Y-150365477D02*
X160931009Y-150555953D01*
X160931009Y-150555953D02*
X160883390Y-150651191D01*
X160883390Y-150651191D02*
X160835771Y-150698810D01*
X160835771Y-150698810D02*
X160740533Y-150746429D01*
X160740533Y-150746429D02*
X160645295Y-150746429D01*
X160645295Y-150746429D02*
X160550057Y-150698810D01*
X160550057Y-150698810D02*
X160502438Y-150651191D01*
X160502438Y-150651191D02*
X160454819Y-150555953D01*
X160454819Y-150555953D02*
X160454819Y-150317858D01*
X160454819Y-150317858D02*
X160502438Y-150175001D01*
X160931009Y-149413096D02*
X160978628Y-149270239D01*
X160978628Y-149270239D02*
X161026247Y-149222620D01*
X161026247Y-149222620D02*
X161121485Y-149175001D01*
X161121485Y-149175001D02*
X161264342Y-149175001D01*
X161264342Y-149175001D02*
X161359580Y-149222620D01*
X161359580Y-149222620D02*
X161407200Y-149270239D01*
X161407200Y-149270239D02*
X161454819Y-149365477D01*
X161454819Y-149365477D02*
X161454819Y-149746429D01*
X161454819Y-149746429D02*
X160454819Y-149746429D01*
X160454819Y-149746429D02*
X160454819Y-149413096D01*
X160454819Y-149413096D02*
X160502438Y-149317858D01*
X160502438Y-149317858D02*
X160550057Y-149270239D01*
X160550057Y-149270239D02*
X160645295Y-149222620D01*
X160645295Y-149222620D02*
X160740533Y-149222620D01*
X160740533Y-149222620D02*
X160835771Y-149270239D01*
X160835771Y-149270239D02*
X160883390Y-149317858D01*
X160883390Y-149317858D02*
X160931009Y-149413096D01*
X160931009Y-149413096D02*
X160931009Y-149746429D01*
X161550057Y-148984525D02*
X161550057Y-148222620D01*
X161169104Y-148032143D02*
X161169104Y-147555953D01*
X161454819Y-148127381D02*
X160454819Y-147794048D01*
X160454819Y-147794048D02*
X161454819Y-147460715D01*
X161550057Y-147365477D02*
X161550057Y-146603572D01*
X161454819Y-146365476D02*
X160454819Y-146365476D01*
X160454819Y-146365476D02*
X161169104Y-146032143D01*
X161169104Y-146032143D02*
X160454819Y-145698810D01*
X160454819Y-145698810D02*
X161454819Y-145698810D01*
X161454819Y-145079762D02*
X161407200Y-145175000D01*
X161407200Y-145175000D02*
X161359580Y-145222619D01*
X161359580Y-145222619D02*
X161264342Y-145270238D01*
X161264342Y-145270238D02*
X160978628Y-145270238D01*
X160978628Y-145270238D02*
X160883390Y-145222619D01*
X160883390Y-145222619D02*
X160835771Y-145175000D01*
X160835771Y-145175000D02*
X160788152Y-145079762D01*
X160788152Y-145079762D02*
X160788152Y-144936905D01*
X160788152Y-144936905D02*
X160835771Y-144841667D01*
X160835771Y-144841667D02*
X160883390Y-144794048D01*
X160883390Y-144794048D02*
X160978628Y-144746429D01*
X160978628Y-144746429D02*
X161264342Y-144746429D01*
X161264342Y-144746429D02*
X161359580Y-144794048D01*
X161359580Y-144794048D02*
X161407200Y-144841667D01*
X161407200Y-144841667D02*
X161454819Y-144936905D01*
X161454819Y-144936905D02*
X161454819Y-145079762D01*
X161454819Y-144175000D02*
X161407200Y-144270238D01*
X161407200Y-144270238D02*
X161311961Y-144317857D01*
X161311961Y-144317857D02*
X160454819Y-144317857D01*
X161407200Y-143413095D02*
X161454819Y-143508333D01*
X161454819Y-143508333D02*
X161454819Y-143698809D01*
X161454819Y-143698809D02*
X161407200Y-143794047D01*
X161407200Y-143794047D02*
X161311961Y-143841666D01*
X161311961Y-143841666D02*
X160931009Y-143841666D01*
X160931009Y-143841666D02*
X160835771Y-143794047D01*
X160835771Y-143794047D02*
X160788152Y-143698809D01*
X160788152Y-143698809D02*
X160788152Y-143508333D01*
X160788152Y-143508333D02*
X160835771Y-143413095D01*
X160835771Y-143413095D02*
X160931009Y-143365476D01*
X160931009Y-143365476D02*
X161026247Y-143365476D01*
X161026247Y-143365476D02*
X161121485Y-143841666D01*
X161454819Y-143032142D02*
X160788152Y-142508333D01*
X160788152Y-143032142D02*
X161454819Y-142508333D01*
X161550057Y-142365476D02*
X161550057Y-141603571D01*
X160788152Y-140936904D02*
X161454819Y-140936904D01*
X160407200Y-141174999D02*
X161121485Y-141413094D01*
X161121485Y-141413094D02*
X161121485Y-140794047D01*
X160883390Y-140270237D02*
X160835771Y-140365475D01*
X160835771Y-140365475D02*
X160788152Y-140413094D01*
X160788152Y-140413094D02*
X160692914Y-140460713D01*
X160692914Y-140460713D02*
X160645295Y-140460713D01*
X160645295Y-140460713D02*
X160550057Y-140413094D01*
X160550057Y-140413094D02*
X160502438Y-140365475D01*
X160502438Y-140365475D02*
X160454819Y-140270237D01*
X160454819Y-140270237D02*
X160454819Y-140079761D01*
X160454819Y-140079761D02*
X160502438Y-139984523D01*
X160502438Y-139984523D02*
X160550057Y-139936904D01*
X160550057Y-139936904D02*
X160645295Y-139889285D01*
X160645295Y-139889285D02*
X160692914Y-139889285D01*
X160692914Y-139889285D02*
X160788152Y-139936904D01*
X160788152Y-139936904D02*
X160835771Y-139984523D01*
X160835771Y-139984523D02*
X160883390Y-140079761D01*
X160883390Y-140079761D02*
X160883390Y-140270237D01*
X160883390Y-140270237D02*
X160931009Y-140365475D01*
X160931009Y-140365475D02*
X160978628Y-140413094D01*
X160978628Y-140413094D02*
X161073866Y-140460713D01*
X161073866Y-140460713D02*
X161264342Y-140460713D01*
X161264342Y-140460713D02*
X161359580Y-140413094D01*
X161359580Y-140413094D02*
X161407200Y-140365475D01*
X161407200Y-140365475D02*
X161454819Y-140270237D01*
X161454819Y-140270237D02*
X161454819Y-140079761D01*
X161454819Y-140079761D02*
X161407200Y-139984523D01*
X161407200Y-139984523D02*
X161359580Y-139936904D01*
X161359580Y-139936904D02*
X161264342Y-139889285D01*
X161264342Y-139889285D02*
X161073866Y-139889285D01*
X161073866Y-139889285D02*
X160978628Y-139936904D01*
X160978628Y-139936904D02*
X160931009Y-139984523D01*
X160931009Y-139984523D02*
X160883390Y-140079761D01*
X160454819Y-139270237D02*
X160454819Y-139174999D01*
X160454819Y-139174999D02*
X160502438Y-139079761D01*
X160502438Y-139079761D02*
X160550057Y-139032142D01*
X160550057Y-139032142D02*
X160645295Y-138984523D01*
X160645295Y-138984523D02*
X160835771Y-138936904D01*
X160835771Y-138936904D02*
X161073866Y-138936904D01*
X161073866Y-138936904D02*
X161264342Y-138984523D01*
X161264342Y-138984523D02*
X161359580Y-139032142D01*
X161359580Y-139032142D02*
X161407200Y-139079761D01*
X161407200Y-139079761D02*
X161454819Y-139174999D01*
X161454819Y-139174999D02*
X161454819Y-139270237D01*
X161454819Y-139270237D02*
X161407200Y-139365475D01*
X161407200Y-139365475D02*
X161359580Y-139413094D01*
X161359580Y-139413094D02*
X161264342Y-139460713D01*
X161264342Y-139460713D02*
X161073866Y-139508332D01*
X161073866Y-139508332D02*
X160835771Y-139508332D01*
X160835771Y-139508332D02*
X160645295Y-139460713D01*
X160645295Y-139460713D02*
X160550057Y-139413094D01*
X160550057Y-139413094D02*
X160502438Y-139365475D01*
X160502438Y-139365475D02*
X160454819Y-139270237D01*
X160454819Y-138603570D02*
X160454819Y-137984523D01*
X160454819Y-137984523D02*
X160835771Y-138317856D01*
X160835771Y-138317856D02*
X160835771Y-138174999D01*
X160835771Y-138174999D02*
X160883390Y-138079761D01*
X160883390Y-138079761D02*
X160931009Y-138032142D01*
X160931009Y-138032142D02*
X161026247Y-137984523D01*
X161026247Y-137984523D02*
X161264342Y-137984523D01*
X161264342Y-137984523D02*
X161359580Y-138032142D01*
X161359580Y-138032142D02*
X161407200Y-138079761D01*
X161407200Y-138079761D02*
X161454819Y-138174999D01*
X161454819Y-138174999D02*
X161454819Y-138460713D01*
X161454819Y-138460713D02*
X161407200Y-138555951D01*
X161407200Y-138555951D02*
X161359580Y-138603570D01*
X160454819Y-137651189D02*
X160454819Y-136984523D01*
X160454819Y-136984523D02*
X161454819Y-137413094D01*
X161073866Y-136603570D02*
X161073866Y-135841666D01*
X160550057Y-135413094D02*
X160502438Y-135365475D01*
X160502438Y-135365475D02*
X160454819Y-135270237D01*
X160454819Y-135270237D02*
X160454819Y-135032142D01*
X160454819Y-135032142D02*
X160502438Y-134936904D01*
X160502438Y-134936904D02*
X160550057Y-134889285D01*
X160550057Y-134889285D02*
X160645295Y-134841666D01*
X160645295Y-134841666D02*
X160740533Y-134841666D01*
X160740533Y-134841666D02*
X160883390Y-134889285D01*
X160883390Y-134889285D02*
X161454819Y-135460713D01*
X161454819Y-135460713D02*
X161454819Y-134841666D01*
X160550057Y-134460713D02*
X160502438Y-134413094D01*
X160502438Y-134413094D02*
X160454819Y-134317856D01*
X160454819Y-134317856D02*
X160454819Y-134079761D01*
X160454819Y-134079761D02*
X160502438Y-133984523D01*
X160502438Y-133984523D02*
X160550057Y-133936904D01*
X160550057Y-133936904D02*
X160645295Y-133889285D01*
X160645295Y-133889285D02*
X160740533Y-133889285D01*
X160740533Y-133889285D02*
X160883390Y-133936904D01*
X160883390Y-133936904D02*
X161454819Y-134508332D01*
X161454819Y-134508332D02*
X161454819Y-133889285D01*
X160454819Y-133270237D02*
X160454819Y-133174999D01*
X160454819Y-133174999D02*
X160502438Y-133079761D01*
X160502438Y-133079761D02*
X160550057Y-133032142D01*
X160550057Y-133032142D02*
X160645295Y-132984523D01*
X160645295Y-132984523D02*
X160835771Y-132936904D01*
X160835771Y-132936904D02*
X161073866Y-132936904D01*
X161073866Y-132936904D02*
X161264342Y-132984523D01*
X161264342Y-132984523D02*
X161359580Y-133032142D01*
X161359580Y-133032142D02*
X161407200Y-133079761D01*
X161407200Y-133079761D02*
X161454819Y-133174999D01*
X161454819Y-133174999D02*
X161454819Y-133270237D01*
X161454819Y-133270237D02*
X161407200Y-133365475D01*
X161407200Y-133365475D02*
X161359580Y-133413094D01*
X161359580Y-133413094D02*
X161264342Y-133460713D01*
X161264342Y-133460713D02*
X161073866Y-133508332D01*
X161073866Y-133508332D02*
X160835771Y-133508332D01*
X160835771Y-133508332D02*
X160645295Y-133460713D01*
X160645295Y-133460713D02*
X160550057Y-133413094D01*
X160550057Y-133413094D02*
X160502438Y-133365475D01*
X160502438Y-133365475D02*
X160454819Y-133270237D01*
X160454819Y-132317856D02*
X160454819Y-132222618D01*
X160454819Y-132222618D02*
X160502438Y-132127380D01*
X160502438Y-132127380D02*
X160550057Y-132079761D01*
X160550057Y-132079761D02*
X160645295Y-132032142D01*
X160645295Y-132032142D02*
X160835771Y-131984523D01*
X160835771Y-131984523D02*
X161073866Y-131984523D01*
X161073866Y-131984523D02*
X161264342Y-132032142D01*
X161264342Y-132032142D02*
X161359580Y-132079761D01*
X161359580Y-132079761D02*
X161407200Y-132127380D01*
X161407200Y-132127380D02*
X161454819Y-132222618D01*
X161454819Y-132222618D02*
X161454819Y-132317856D01*
X161454819Y-132317856D02*
X161407200Y-132413094D01*
X161407200Y-132413094D02*
X161359580Y-132460713D01*
X161359580Y-132460713D02*
X161264342Y-132508332D01*
X161264342Y-132508332D02*
X161073866Y-132555951D01*
X161073866Y-132555951D02*
X160835771Y-132555951D01*
X160835771Y-132555951D02*
X160645295Y-132508332D01*
X160645295Y-132508332D02*
X160550057Y-132460713D01*
X160550057Y-132460713D02*
X160502438Y-132413094D01*
X160502438Y-132413094D02*
X160454819Y-132317856D01*
X161550057Y-131794047D02*
X161550057Y-131032142D01*
X161454819Y-130794046D02*
X160454819Y-130794046D01*
X160931009Y-130794046D02*
X160931009Y-130222618D01*
X161454819Y-130222618D02*
X160454819Y-130222618D01*
X161454819Y-129603570D02*
X161407200Y-129698808D01*
X161407200Y-129698808D02*
X161359580Y-129746427D01*
X161359580Y-129746427D02*
X161264342Y-129794046D01*
X161264342Y-129794046D02*
X160978628Y-129794046D01*
X160978628Y-129794046D02*
X160883390Y-129746427D01*
X160883390Y-129746427D02*
X160835771Y-129698808D01*
X160835771Y-129698808D02*
X160788152Y-129603570D01*
X160788152Y-129603570D02*
X160788152Y-129460713D01*
X160788152Y-129460713D02*
X160835771Y-129365475D01*
X160835771Y-129365475D02*
X160883390Y-129317856D01*
X160883390Y-129317856D02*
X160978628Y-129270237D01*
X160978628Y-129270237D02*
X161264342Y-129270237D01*
X161264342Y-129270237D02*
X161359580Y-129317856D01*
X161359580Y-129317856D02*
X161407200Y-129365475D01*
X161407200Y-129365475D02*
X161454819Y-129460713D01*
X161454819Y-129460713D02*
X161454819Y-129603570D01*
X161454819Y-128841665D02*
X160788152Y-128841665D01*
X160978628Y-128841665D02*
X160883390Y-128794046D01*
X160883390Y-128794046D02*
X160835771Y-128746427D01*
X160835771Y-128746427D02*
X160788152Y-128651189D01*
X160788152Y-128651189D02*
X160788152Y-128555951D01*
X161454819Y-128222617D02*
X160788152Y-128222617D01*
X160454819Y-128222617D02*
X160502438Y-128270236D01*
X160502438Y-128270236D02*
X160550057Y-128222617D01*
X160550057Y-128222617D02*
X160502438Y-128174998D01*
X160502438Y-128174998D02*
X160454819Y-128222617D01*
X160454819Y-128222617D02*
X160550057Y-128222617D01*
X160788152Y-127841665D02*
X160788152Y-127317856D01*
X160788152Y-127317856D02*
X161454819Y-127841665D01*
X161454819Y-127841665D02*
X161454819Y-127317856D01*
X161454819Y-126794046D02*
X161407200Y-126889284D01*
X161407200Y-126889284D02*
X161359580Y-126936903D01*
X161359580Y-126936903D02*
X161264342Y-126984522D01*
X161264342Y-126984522D02*
X160978628Y-126984522D01*
X160978628Y-126984522D02*
X160883390Y-126936903D01*
X160883390Y-126936903D02*
X160835771Y-126889284D01*
X160835771Y-126889284D02*
X160788152Y-126794046D01*
X160788152Y-126794046D02*
X160788152Y-126651189D01*
X160788152Y-126651189D02*
X160835771Y-126555951D01*
X160835771Y-126555951D02*
X160883390Y-126508332D01*
X160883390Y-126508332D02*
X160978628Y-126460713D01*
X160978628Y-126460713D02*
X161264342Y-126460713D01*
X161264342Y-126460713D02*
X161359580Y-126508332D01*
X161359580Y-126508332D02*
X161407200Y-126555951D01*
X161407200Y-126555951D02*
X161454819Y-126651189D01*
X161454819Y-126651189D02*
X161454819Y-126794046D01*
X160788152Y-126032141D02*
X161454819Y-126032141D01*
X160883390Y-126032141D02*
X160835771Y-125984522D01*
X160835771Y-125984522D02*
X160788152Y-125889284D01*
X160788152Y-125889284D02*
X160788152Y-125746427D01*
X160788152Y-125746427D02*
X160835771Y-125651189D01*
X160835771Y-125651189D02*
X160931009Y-125603570D01*
X160931009Y-125603570D02*
X161454819Y-125603570D01*
X160788152Y-125270236D02*
X160788152Y-124889284D01*
X160454819Y-125127379D02*
X161311961Y-125127379D01*
X161311961Y-125127379D02*
X161407200Y-125079760D01*
X161407200Y-125079760D02*
X161454819Y-124984522D01*
X161454819Y-124984522D02*
X161454819Y-124889284D01*
X161454819Y-124127379D02*
X160931009Y-124127379D01*
X160931009Y-124127379D02*
X160835771Y-124174998D01*
X160835771Y-124174998D02*
X160788152Y-124270236D01*
X160788152Y-124270236D02*
X160788152Y-124460712D01*
X160788152Y-124460712D02*
X160835771Y-124555950D01*
X161407200Y-124127379D02*
X161454819Y-124222617D01*
X161454819Y-124222617D02*
X161454819Y-124460712D01*
X161454819Y-124460712D02*
X161407200Y-124555950D01*
X161407200Y-124555950D02*
X161311961Y-124603569D01*
X161311961Y-124603569D02*
X161216723Y-124603569D01*
X161216723Y-124603569D02*
X161121485Y-124555950D01*
X161121485Y-124555950D02*
X161073866Y-124460712D01*
X161073866Y-124460712D02*
X161073866Y-124222617D01*
X161073866Y-124222617D02*
X161026247Y-124127379D01*
X161454819Y-123508331D02*
X161407200Y-123603569D01*
X161407200Y-123603569D02*
X161311961Y-123651188D01*
X161311961Y-123651188D02*
X160454819Y-123651188D01*
X168454819Y-138008333D02*
X169169104Y-138008333D01*
X169169104Y-138008333D02*
X169311961Y-138055952D01*
X169311961Y-138055952D02*
X169407200Y-138151190D01*
X169407200Y-138151190D02*
X169454819Y-138294047D01*
X169454819Y-138294047D02*
X169454819Y-138389285D01*
X168788152Y-137103571D02*
X169454819Y-137103571D01*
X168407200Y-137341666D02*
X169121485Y-137579761D01*
X169121485Y-137579761D02*
X169121485Y-136960714D01*
X146874819Y-101023809D02*
X145874819Y-101023809D01*
X146874819Y-100547619D02*
X145874819Y-100547619D01*
X145874819Y-100547619D02*
X145874819Y-100309524D01*
X145874819Y-100309524D02*
X145922438Y-100166667D01*
X145922438Y-100166667D02*
X146017676Y-100071429D01*
X146017676Y-100071429D02*
X146112914Y-100023810D01*
X146112914Y-100023810D02*
X146303390Y-99976191D01*
X146303390Y-99976191D02*
X146446247Y-99976191D01*
X146446247Y-99976191D02*
X146636723Y-100023810D01*
X146636723Y-100023810D02*
X146731961Y-100071429D01*
X146731961Y-100071429D02*
X146827200Y-100166667D01*
X146827200Y-100166667D02*
X146874819Y-100309524D01*
X146874819Y-100309524D02*
X146874819Y-100547619D01*
X146779580Y-98976191D02*
X146827200Y-99023810D01*
X146827200Y-99023810D02*
X146874819Y-99166667D01*
X146874819Y-99166667D02*
X146874819Y-99261905D01*
X146874819Y-99261905D02*
X146827200Y-99404762D01*
X146827200Y-99404762D02*
X146731961Y-99500000D01*
X146731961Y-99500000D02*
X146636723Y-99547619D01*
X146636723Y-99547619D02*
X146446247Y-99595238D01*
X146446247Y-99595238D02*
X146303390Y-99595238D01*
X146303390Y-99595238D02*
X146112914Y-99547619D01*
X146112914Y-99547619D02*
X146017676Y-99500000D01*
X146017676Y-99500000D02*
X145922438Y-99404762D01*
X145922438Y-99404762D02*
X145874819Y-99261905D01*
X145874819Y-99261905D02*
X145874819Y-99166667D01*
X145874819Y-99166667D02*
X145922438Y-99023810D01*
X145922438Y-99023810D02*
X145970057Y-98976191D01*
X146493866Y-98547619D02*
X146493866Y-97785715D01*
X146874819Y-97309524D02*
X145874819Y-97309524D01*
X146351009Y-97309524D02*
X146351009Y-96738096D01*
X146874819Y-96738096D02*
X145874819Y-96738096D01*
X146827200Y-95880953D02*
X146874819Y-95976191D01*
X146874819Y-95976191D02*
X146874819Y-96166667D01*
X146874819Y-96166667D02*
X146827200Y-96261905D01*
X146827200Y-96261905D02*
X146731961Y-96309524D01*
X146731961Y-96309524D02*
X146351009Y-96309524D01*
X146351009Y-96309524D02*
X146255771Y-96261905D01*
X146255771Y-96261905D02*
X146208152Y-96166667D01*
X146208152Y-96166667D02*
X146208152Y-95976191D01*
X146208152Y-95976191D02*
X146255771Y-95880953D01*
X146255771Y-95880953D02*
X146351009Y-95833334D01*
X146351009Y-95833334D02*
X146446247Y-95833334D01*
X146446247Y-95833334D02*
X146541485Y-96309524D01*
X146874819Y-94976191D02*
X146351009Y-94976191D01*
X146351009Y-94976191D02*
X146255771Y-95023810D01*
X146255771Y-95023810D02*
X146208152Y-95119048D01*
X146208152Y-95119048D02*
X146208152Y-95309524D01*
X146208152Y-95309524D02*
X146255771Y-95404762D01*
X146827200Y-94976191D02*
X146874819Y-95071429D01*
X146874819Y-95071429D02*
X146874819Y-95309524D01*
X146874819Y-95309524D02*
X146827200Y-95404762D01*
X146827200Y-95404762D02*
X146731961Y-95452381D01*
X146731961Y-95452381D02*
X146636723Y-95452381D01*
X146636723Y-95452381D02*
X146541485Y-95404762D01*
X146541485Y-95404762D02*
X146493866Y-95309524D01*
X146493866Y-95309524D02*
X146493866Y-95071429D01*
X146493866Y-95071429D02*
X146446247Y-94976191D01*
X146874819Y-94071429D02*
X145874819Y-94071429D01*
X146827200Y-94071429D02*
X146874819Y-94166667D01*
X146874819Y-94166667D02*
X146874819Y-94357143D01*
X146874819Y-94357143D02*
X146827200Y-94452381D01*
X146827200Y-94452381D02*
X146779580Y-94500000D01*
X146779580Y-94500000D02*
X146684342Y-94547619D01*
X146684342Y-94547619D02*
X146398628Y-94547619D01*
X146398628Y-94547619D02*
X146303390Y-94500000D01*
X146303390Y-94500000D02*
X146255771Y-94452381D01*
X146255771Y-94452381D02*
X146208152Y-94357143D01*
X146208152Y-94357143D02*
X146208152Y-94166667D01*
X146208152Y-94166667D02*
X146255771Y-94071429D01*
X146827200Y-93214286D02*
X146874819Y-93309524D01*
X146874819Y-93309524D02*
X146874819Y-93500000D01*
X146874819Y-93500000D02*
X146827200Y-93595238D01*
X146827200Y-93595238D02*
X146731961Y-93642857D01*
X146731961Y-93642857D02*
X146351009Y-93642857D01*
X146351009Y-93642857D02*
X146255771Y-93595238D01*
X146255771Y-93595238D02*
X146208152Y-93500000D01*
X146208152Y-93500000D02*
X146208152Y-93309524D01*
X146208152Y-93309524D02*
X146255771Y-93214286D01*
X146255771Y-93214286D02*
X146351009Y-93166667D01*
X146351009Y-93166667D02*
X146446247Y-93166667D01*
X146446247Y-93166667D02*
X146541485Y-93642857D01*
X146874819Y-92738095D02*
X146208152Y-92738095D01*
X146398628Y-92738095D02*
X146303390Y-92690476D01*
X146303390Y-92690476D02*
X146255771Y-92642857D01*
X146255771Y-92642857D02*
X146208152Y-92547619D01*
X146208152Y-92547619D02*
X146208152Y-92452381D01*
X146970057Y-92357143D02*
X146970057Y-91595238D01*
X145970057Y-91404761D02*
X145922438Y-91357142D01*
X145922438Y-91357142D02*
X145874819Y-91261904D01*
X145874819Y-91261904D02*
X145874819Y-91023809D01*
X145874819Y-91023809D02*
X145922438Y-90928571D01*
X145922438Y-90928571D02*
X145970057Y-90880952D01*
X145970057Y-90880952D02*
X146065295Y-90833333D01*
X146065295Y-90833333D02*
X146160533Y-90833333D01*
X146160533Y-90833333D02*
X146303390Y-90880952D01*
X146303390Y-90880952D02*
X146874819Y-91452380D01*
X146874819Y-91452380D02*
X146874819Y-90833333D01*
X146874819Y-90499999D02*
X146208152Y-89976190D01*
X146208152Y-90499999D02*
X146874819Y-89976190D01*
X146874819Y-89071428D02*
X146874819Y-89642856D01*
X146874819Y-89357142D02*
X145874819Y-89357142D01*
X145874819Y-89357142D02*
X146017676Y-89452380D01*
X146017676Y-89452380D02*
X146112914Y-89547618D01*
X146112914Y-89547618D02*
X146160533Y-89642856D01*
X145874819Y-88738094D02*
X145874819Y-88119047D01*
X145874819Y-88119047D02*
X146255771Y-88452380D01*
X146255771Y-88452380D02*
X146255771Y-88309523D01*
X146255771Y-88309523D02*
X146303390Y-88214285D01*
X146303390Y-88214285D02*
X146351009Y-88166666D01*
X146351009Y-88166666D02*
X146446247Y-88119047D01*
X146446247Y-88119047D02*
X146684342Y-88119047D01*
X146684342Y-88119047D02*
X146779580Y-88166666D01*
X146779580Y-88166666D02*
X146827200Y-88214285D01*
X146827200Y-88214285D02*
X146874819Y-88309523D01*
X146874819Y-88309523D02*
X146874819Y-88595237D01*
X146874819Y-88595237D02*
X146827200Y-88690475D01*
X146827200Y-88690475D02*
X146779580Y-88738094D01*
X146970057Y-87928571D02*
X146970057Y-87166666D01*
X146874819Y-86928570D02*
X145874819Y-86928570D01*
X145874819Y-86928570D02*
X145874819Y-86547618D01*
X145874819Y-86547618D02*
X145922438Y-86452380D01*
X145922438Y-86452380D02*
X145970057Y-86404761D01*
X145970057Y-86404761D02*
X146065295Y-86357142D01*
X146065295Y-86357142D02*
X146208152Y-86357142D01*
X146208152Y-86357142D02*
X146303390Y-86404761D01*
X146303390Y-86404761D02*
X146351009Y-86452380D01*
X146351009Y-86452380D02*
X146398628Y-86547618D01*
X146398628Y-86547618D02*
X146398628Y-86928570D01*
X145970057Y-85976189D02*
X145922438Y-85928570D01*
X145922438Y-85928570D02*
X145874819Y-85833332D01*
X145874819Y-85833332D02*
X145874819Y-85595237D01*
X145874819Y-85595237D02*
X145922438Y-85499999D01*
X145922438Y-85499999D02*
X145970057Y-85452380D01*
X145970057Y-85452380D02*
X146065295Y-85404761D01*
X146065295Y-85404761D02*
X146160533Y-85404761D01*
X146160533Y-85404761D02*
X146303390Y-85452380D01*
X146303390Y-85452380D02*
X146874819Y-86023808D01*
X146874819Y-86023808D02*
X146874819Y-85404761D01*
X146779580Y-84976189D02*
X146827200Y-84928570D01*
X146827200Y-84928570D02*
X146874819Y-84976189D01*
X146874819Y-84976189D02*
X146827200Y-85023808D01*
X146827200Y-85023808D02*
X146779580Y-84976189D01*
X146779580Y-84976189D02*
X146874819Y-84976189D01*
X145874819Y-84023809D02*
X145874819Y-84499999D01*
X145874819Y-84499999D02*
X146351009Y-84547618D01*
X146351009Y-84547618D02*
X146303390Y-84499999D01*
X146303390Y-84499999D02*
X146255771Y-84404761D01*
X146255771Y-84404761D02*
X146255771Y-84166666D01*
X146255771Y-84166666D02*
X146303390Y-84071428D01*
X146303390Y-84071428D02*
X146351009Y-84023809D01*
X146351009Y-84023809D02*
X146446247Y-83976190D01*
X146446247Y-83976190D02*
X146684342Y-83976190D01*
X146684342Y-83976190D02*
X146779580Y-84023809D01*
X146779580Y-84023809D02*
X146827200Y-84071428D01*
X146827200Y-84071428D02*
X146874819Y-84166666D01*
X146874819Y-84166666D02*
X146874819Y-84404761D01*
X146874819Y-84404761D02*
X146827200Y-84499999D01*
X146827200Y-84499999D02*
X146779580Y-84547618D01*
X146208152Y-83119047D02*
X146874819Y-83119047D01*
X145827200Y-83357142D02*
X146541485Y-83595237D01*
X146541485Y-83595237D02*
X146541485Y-82976190D01*
X146874819Y-82595237D02*
X146208152Y-82595237D01*
X146303390Y-82595237D02*
X146255771Y-82547618D01*
X146255771Y-82547618D02*
X146208152Y-82452380D01*
X146208152Y-82452380D02*
X146208152Y-82309523D01*
X146208152Y-82309523D02*
X146255771Y-82214285D01*
X146255771Y-82214285D02*
X146351009Y-82166666D01*
X146351009Y-82166666D02*
X146874819Y-82166666D01*
X146351009Y-82166666D02*
X146255771Y-82119047D01*
X146255771Y-82119047D02*
X146208152Y-82023809D01*
X146208152Y-82023809D02*
X146208152Y-81880952D01*
X146208152Y-81880952D02*
X146255771Y-81785713D01*
X146255771Y-81785713D02*
X146351009Y-81738094D01*
X146351009Y-81738094D02*
X146874819Y-81738094D01*
X146874819Y-81261904D02*
X146208152Y-81261904D01*
X146303390Y-81261904D02*
X146255771Y-81214285D01*
X146255771Y-81214285D02*
X146208152Y-81119047D01*
X146208152Y-81119047D02*
X146208152Y-80976190D01*
X146208152Y-80976190D02*
X146255771Y-80880952D01*
X146255771Y-80880952D02*
X146351009Y-80833333D01*
X146351009Y-80833333D02*
X146874819Y-80833333D01*
X146351009Y-80833333D02*
X146255771Y-80785714D01*
X146255771Y-80785714D02*
X146208152Y-80690476D01*
X146208152Y-80690476D02*
X146208152Y-80547619D01*
X146208152Y-80547619D02*
X146255771Y-80452380D01*
X146255771Y-80452380D02*
X146351009Y-80404761D01*
X146351009Y-80404761D02*
X146874819Y-80404761D01*
X146970057Y-80166667D02*
X146970057Y-79404762D01*
X145874819Y-79309523D02*
X146874819Y-78976190D01*
X146874819Y-78976190D02*
X145874819Y-78642857D01*
X146827200Y-77928571D02*
X146874819Y-78023809D01*
X146874819Y-78023809D02*
X146874819Y-78214285D01*
X146874819Y-78214285D02*
X146827200Y-78309523D01*
X146827200Y-78309523D02*
X146731961Y-78357142D01*
X146731961Y-78357142D02*
X146351009Y-78357142D01*
X146351009Y-78357142D02*
X146255771Y-78309523D01*
X146255771Y-78309523D02*
X146208152Y-78214285D01*
X146208152Y-78214285D02*
X146208152Y-78023809D01*
X146208152Y-78023809D02*
X146255771Y-77928571D01*
X146255771Y-77928571D02*
X146351009Y-77880952D01*
X146351009Y-77880952D02*
X146446247Y-77880952D01*
X146446247Y-77880952D02*
X146541485Y-78357142D01*
X146874819Y-77452380D02*
X146208152Y-77452380D01*
X146398628Y-77452380D02*
X146303390Y-77404761D01*
X146303390Y-77404761D02*
X146255771Y-77357142D01*
X146255771Y-77357142D02*
X146208152Y-77261904D01*
X146208152Y-77261904D02*
X146208152Y-77166666D01*
X146208152Y-76976189D02*
X146208152Y-76595237D01*
X145874819Y-76833332D02*
X146731961Y-76833332D01*
X146731961Y-76833332D02*
X146827200Y-76785713D01*
X146827200Y-76785713D02*
X146874819Y-76690475D01*
X146874819Y-76690475D02*
X146874819Y-76595237D01*
X146874819Y-76261903D02*
X146208152Y-76261903D01*
X145874819Y-76261903D02*
X145922438Y-76309522D01*
X145922438Y-76309522D02*
X145970057Y-76261903D01*
X145970057Y-76261903D02*
X145922438Y-76214284D01*
X145922438Y-76214284D02*
X145874819Y-76261903D01*
X145874819Y-76261903D02*
X145970057Y-76261903D01*
X146827200Y-75357142D02*
X146874819Y-75452380D01*
X146874819Y-75452380D02*
X146874819Y-75642856D01*
X146874819Y-75642856D02*
X146827200Y-75738094D01*
X146827200Y-75738094D02*
X146779580Y-75785713D01*
X146779580Y-75785713D02*
X146684342Y-75833332D01*
X146684342Y-75833332D02*
X146398628Y-75833332D01*
X146398628Y-75833332D02*
X146303390Y-75785713D01*
X146303390Y-75785713D02*
X146255771Y-75738094D01*
X146255771Y-75738094D02*
X146208152Y-75642856D01*
X146208152Y-75642856D02*
X146208152Y-75452380D01*
X146208152Y-75452380D02*
X146255771Y-75357142D01*
X146874819Y-74499999D02*
X146351009Y-74499999D01*
X146351009Y-74499999D02*
X146255771Y-74547618D01*
X146255771Y-74547618D02*
X146208152Y-74642856D01*
X146208152Y-74642856D02*
X146208152Y-74833332D01*
X146208152Y-74833332D02*
X146255771Y-74928570D01*
X146827200Y-74499999D02*
X146874819Y-74595237D01*
X146874819Y-74595237D02*
X146874819Y-74833332D01*
X146874819Y-74833332D02*
X146827200Y-74928570D01*
X146827200Y-74928570D02*
X146731961Y-74976189D01*
X146731961Y-74976189D02*
X146636723Y-74976189D01*
X146636723Y-74976189D02*
X146541485Y-74928570D01*
X146541485Y-74928570D02*
X146493866Y-74833332D01*
X146493866Y-74833332D02*
X146493866Y-74595237D01*
X146493866Y-74595237D02*
X146446247Y-74499999D01*
X146874819Y-73880951D02*
X146827200Y-73976189D01*
X146827200Y-73976189D02*
X146731961Y-74023808D01*
X146731961Y-74023808D02*
X145874819Y-74023808D01*
X124341905Y-87954819D02*
X124341905Y-86954819D01*
X124341905Y-86954819D02*
X124722857Y-86954819D01*
X124722857Y-86954819D02*
X124818095Y-87002438D01*
X124818095Y-87002438D02*
X124865714Y-87050057D01*
X124865714Y-87050057D02*
X124913333Y-87145295D01*
X124913333Y-87145295D02*
X124913333Y-87288152D01*
X124913333Y-87288152D02*
X124865714Y-87383390D01*
X124865714Y-87383390D02*
X124818095Y-87431009D01*
X124818095Y-87431009D02*
X124722857Y-87478628D01*
X124722857Y-87478628D02*
X124341905Y-87478628D01*
X125865714Y-87954819D02*
X125294286Y-87954819D01*
X125580000Y-87954819D02*
X125580000Y-86954819D01*
X125580000Y-86954819D02*
X125484762Y-87097676D01*
X125484762Y-87097676D02*
X125389524Y-87192914D01*
X125389524Y-87192914D02*
X125294286Y-87240533D01*
X112976189Y-120504819D02*
X112976189Y-121219104D01*
X112976189Y-121219104D02*
X112928570Y-121361961D01*
X112928570Y-121361961D02*
X112833332Y-121457200D01*
X112833332Y-121457200D02*
X112690475Y-121504819D01*
X112690475Y-121504819D02*
X112595237Y-121504819D01*
X113404761Y-121457200D02*
X113547618Y-121504819D01*
X113547618Y-121504819D02*
X113785713Y-121504819D01*
X113785713Y-121504819D02*
X113880951Y-121457200D01*
X113880951Y-121457200D02*
X113928570Y-121409580D01*
X113928570Y-121409580D02*
X113976189Y-121314342D01*
X113976189Y-121314342D02*
X113976189Y-121219104D01*
X113976189Y-121219104D02*
X113928570Y-121123866D01*
X113928570Y-121123866D02*
X113880951Y-121076247D01*
X113880951Y-121076247D02*
X113785713Y-121028628D01*
X113785713Y-121028628D02*
X113595237Y-120981009D01*
X113595237Y-120981009D02*
X113499999Y-120933390D01*
X113499999Y-120933390D02*
X113452380Y-120885771D01*
X113452380Y-120885771D02*
X113404761Y-120790533D01*
X113404761Y-120790533D02*
X113404761Y-120695295D01*
X113404761Y-120695295D02*
X113452380Y-120600057D01*
X113452380Y-120600057D02*
X113499999Y-120552438D01*
X113499999Y-120552438D02*
X113595237Y-120504819D01*
X113595237Y-120504819D02*
X113833332Y-120504819D01*
X113833332Y-120504819D02*
X113976189Y-120552438D01*
X114261904Y-120504819D02*
X114833332Y-120504819D01*
X114547618Y-121504819D02*
X114547618Y-120504819D01*
X114928571Y-121600057D02*
X115690475Y-121600057D01*
X115928571Y-121504819D02*
X115928571Y-120504819D01*
X115928571Y-120504819D02*
X116309523Y-120504819D01*
X116309523Y-120504819D02*
X116404761Y-120552438D01*
X116404761Y-120552438D02*
X116452380Y-120600057D01*
X116452380Y-120600057D02*
X116499999Y-120695295D01*
X116499999Y-120695295D02*
X116499999Y-120838152D01*
X116499999Y-120838152D02*
X116452380Y-120933390D01*
X116452380Y-120933390D02*
X116404761Y-120981009D01*
X116404761Y-120981009D02*
X116309523Y-121028628D01*
X116309523Y-121028628D02*
X115928571Y-121028628D01*
X116928571Y-121504819D02*
X116928571Y-120504819D01*
X116928571Y-120981009D02*
X117499999Y-120981009D01*
X117499999Y-121504819D02*
X117499999Y-120504819D01*
X117738095Y-121600057D02*
X118499999Y-121600057D01*
X118690476Y-121457200D02*
X118833333Y-121504819D01*
X118833333Y-121504819D02*
X119071428Y-121504819D01*
X119071428Y-121504819D02*
X119166666Y-121457200D01*
X119166666Y-121457200D02*
X119214285Y-121409580D01*
X119214285Y-121409580D02*
X119261904Y-121314342D01*
X119261904Y-121314342D02*
X119261904Y-121219104D01*
X119261904Y-121219104D02*
X119214285Y-121123866D01*
X119214285Y-121123866D02*
X119166666Y-121076247D01*
X119166666Y-121076247D02*
X119071428Y-121028628D01*
X119071428Y-121028628D02*
X118880952Y-120981009D01*
X118880952Y-120981009D02*
X118785714Y-120933390D01*
X118785714Y-120933390D02*
X118738095Y-120885771D01*
X118738095Y-120885771D02*
X118690476Y-120790533D01*
X118690476Y-120790533D02*
X118690476Y-120695295D01*
X118690476Y-120695295D02*
X118738095Y-120600057D01*
X118738095Y-120600057D02*
X118785714Y-120552438D01*
X118785714Y-120552438D02*
X118880952Y-120504819D01*
X118880952Y-120504819D02*
X119119047Y-120504819D01*
X119119047Y-120504819D02*
X119261904Y-120552438D01*
X120119047Y-120838152D02*
X120119047Y-121504819D01*
X119880952Y-120457200D02*
X119642857Y-121171485D01*
X119642857Y-121171485D02*
X120261904Y-121171485D01*
X120976190Y-120981009D02*
X121119047Y-121028628D01*
X121119047Y-121028628D02*
X121166666Y-121076247D01*
X121166666Y-121076247D02*
X121214285Y-121171485D01*
X121214285Y-121171485D02*
X121214285Y-121314342D01*
X121214285Y-121314342D02*
X121166666Y-121409580D01*
X121166666Y-121409580D02*
X121119047Y-121457200D01*
X121119047Y-121457200D02*
X121023809Y-121504819D01*
X121023809Y-121504819D02*
X120642857Y-121504819D01*
X120642857Y-121504819D02*
X120642857Y-120504819D01*
X120642857Y-120504819D02*
X120976190Y-120504819D01*
X120976190Y-120504819D02*
X121071428Y-120552438D01*
X121071428Y-120552438D02*
X121119047Y-120600057D01*
X121119047Y-120600057D02*
X121166666Y-120695295D01*
X121166666Y-120695295D02*
X121166666Y-120790533D01*
X121166666Y-120790533D02*
X121119047Y-120885771D01*
X121119047Y-120885771D02*
X121071428Y-120933390D01*
X121071428Y-120933390D02*
X120976190Y-120981009D01*
X120976190Y-120981009D02*
X120642857Y-120981009D01*
X121642857Y-121123866D02*
X122404762Y-121123866D01*
X122880952Y-121504819D02*
X122880952Y-120504819D01*
X122880952Y-120504819D02*
X123261904Y-120504819D01*
X123261904Y-120504819D02*
X123357142Y-120552438D01*
X123357142Y-120552438D02*
X123404761Y-120600057D01*
X123404761Y-120600057D02*
X123452380Y-120695295D01*
X123452380Y-120695295D02*
X123452380Y-120838152D01*
X123452380Y-120838152D02*
X123404761Y-120933390D01*
X123404761Y-120933390D02*
X123357142Y-120981009D01*
X123357142Y-120981009D02*
X123261904Y-121028628D01*
X123261904Y-121028628D02*
X122880952Y-121028628D01*
X123880952Y-121504819D02*
X123880952Y-120504819D01*
X123880952Y-120981009D02*
X124452380Y-120981009D01*
X124452380Y-121504819D02*
X124452380Y-120504819D01*
X124928571Y-121123866D02*
X125690476Y-121123866D01*
X126166666Y-121504819D02*
X126166666Y-120504819D01*
X126738094Y-121504819D02*
X126309523Y-120933390D01*
X126738094Y-120504819D02*
X126166666Y-121076247D01*
X126928571Y-121600057D02*
X127690475Y-121600057D01*
X128452380Y-121504819D02*
X127880952Y-121504819D01*
X128166666Y-121504819D02*
X128166666Y-120504819D01*
X128166666Y-120504819D02*
X128071428Y-120647676D01*
X128071428Y-120647676D02*
X127976190Y-120742914D01*
X127976190Y-120742914D02*
X127880952Y-120790533D01*
X128785714Y-121504819D02*
X129309523Y-120838152D01*
X128785714Y-120838152D02*
X129309523Y-121504819D01*
X129880952Y-120504819D02*
X129976190Y-120504819D01*
X129976190Y-120504819D02*
X130071428Y-120552438D01*
X130071428Y-120552438D02*
X130119047Y-120600057D01*
X130119047Y-120600057D02*
X130166666Y-120695295D01*
X130166666Y-120695295D02*
X130214285Y-120885771D01*
X130214285Y-120885771D02*
X130214285Y-121123866D01*
X130214285Y-121123866D02*
X130166666Y-121314342D01*
X130166666Y-121314342D02*
X130119047Y-121409580D01*
X130119047Y-121409580D02*
X130071428Y-121457200D01*
X130071428Y-121457200D02*
X129976190Y-121504819D01*
X129976190Y-121504819D02*
X129880952Y-121504819D01*
X129880952Y-121504819D02*
X129785714Y-121457200D01*
X129785714Y-121457200D02*
X129738095Y-121409580D01*
X129738095Y-121409580D02*
X129690476Y-121314342D01*
X129690476Y-121314342D02*
X129642857Y-121123866D01*
X129642857Y-121123866D02*
X129642857Y-120885771D01*
X129642857Y-120885771D02*
X129690476Y-120695295D01*
X129690476Y-120695295D02*
X129738095Y-120600057D01*
X129738095Y-120600057D02*
X129785714Y-120552438D01*
X129785714Y-120552438D02*
X129880952Y-120504819D01*
X131071428Y-120838152D02*
X131071428Y-121504819D01*
X130833333Y-120457200D02*
X130595238Y-121171485D01*
X130595238Y-121171485D02*
X131214285Y-121171485D01*
X131357143Y-121600057D02*
X132119047Y-121600057D01*
X132357143Y-121504819D02*
X132357143Y-120504819D01*
X132357143Y-120504819D02*
X132738095Y-120504819D01*
X132738095Y-120504819D02*
X132833333Y-120552438D01*
X132833333Y-120552438D02*
X132880952Y-120600057D01*
X132880952Y-120600057D02*
X132928571Y-120695295D01*
X132928571Y-120695295D02*
X132928571Y-120838152D01*
X132928571Y-120838152D02*
X132880952Y-120933390D01*
X132880952Y-120933390D02*
X132833333Y-120981009D01*
X132833333Y-120981009D02*
X132738095Y-121028628D01*
X132738095Y-121028628D02*
X132357143Y-121028628D01*
X133309524Y-120600057D02*
X133357143Y-120552438D01*
X133357143Y-120552438D02*
X133452381Y-120504819D01*
X133452381Y-120504819D02*
X133690476Y-120504819D01*
X133690476Y-120504819D02*
X133785714Y-120552438D01*
X133785714Y-120552438D02*
X133833333Y-120600057D01*
X133833333Y-120600057D02*
X133880952Y-120695295D01*
X133880952Y-120695295D02*
X133880952Y-120790533D01*
X133880952Y-120790533D02*
X133833333Y-120933390D01*
X133833333Y-120933390D02*
X133261905Y-121504819D01*
X133261905Y-121504819D02*
X133880952Y-121504819D01*
X134309524Y-121409580D02*
X134357143Y-121457200D01*
X134357143Y-121457200D02*
X134309524Y-121504819D01*
X134309524Y-121504819D02*
X134261905Y-121457200D01*
X134261905Y-121457200D02*
X134309524Y-121409580D01*
X134309524Y-121409580D02*
X134309524Y-121504819D01*
X134976190Y-120504819D02*
X135071428Y-120504819D01*
X135071428Y-120504819D02*
X135166666Y-120552438D01*
X135166666Y-120552438D02*
X135214285Y-120600057D01*
X135214285Y-120600057D02*
X135261904Y-120695295D01*
X135261904Y-120695295D02*
X135309523Y-120885771D01*
X135309523Y-120885771D02*
X135309523Y-121123866D01*
X135309523Y-121123866D02*
X135261904Y-121314342D01*
X135261904Y-121314342D02*
X135214285Y-121409580D01*
X135214285Y-121409580D02*
X135166666Y-121457200D01*
X135166666Y-121457200D02*
X135071428Y-121504819D01*
X135071428Y-121504819D02*
X134976190Y-121504819D01*
X134976190Y-121504819D02*
X134880952Y-121457200D01*
X134880952Y-121457200D02*
X134833333Y-121409580D01*
X134833333Y-121409580D02*
X134785714Y-121314342D01*
X134785714Y-121314342D02*
X134738095Y-121123866D01*
X134738095Y-121123866D02*
X134738095Y-120885771D01*
X134738095Y-120885771D02*
X134785714Y-120695295D01*
X134785714Y-120695295D02*
X134833333Y-120600057D01*
X134833333Y-120600057D02*
X134880952Y-120552438D01*
X134880952Y-120552438D02*
X134976190Y-120504819D01*
X135928571Y-120504819D02*
X136023809Y-120504819D01*
X136023809Y-120504819D02*
X136119047Y-120552438D01*
X136119047Y-120552438D02*
X136166666Y-120600057D01*
X136166666Y-120600057D02*
X136214285Y-120695295D01*
X136214285Y-120695295D02*
X136261904Y-120885771D01*
X136261904Y-120885771D02*
X136261904Y-121123866D01*
X136261904Y-121123866D02*
X136214285Y-121314342D01*
X136214285Y-121314342D02*
X136166666Y-121409580D01*
X136166666Y-121409580D02*
X136119047Y-121457200D01*
X136119047Y-121457200D02*
X136023809Y-121504819D01*
X136023809Y-121504819D02*
X135928571Y-121504819D01*
X135928571Y-121504819D02*
X135833333Y-121457200D01*
X135833333Y-121457200D02*
X135785714Y-121409580D01*
X135785714Y-121409580D02*
X135738095Y-121314342D01*
X135738095Y-121314342D02*
X135690476Y-121123866D01*
X135690476Y-121123866D02*
X135690476Y-120885771D01*
X135690476Y-120885771D02*
X135738095Y-120695295D01*
X135738095Y-120695295D02*
X135785714Y-120600057D01*
X135785714Y-120600057D02*
X135833333Y-120552438D01*
X135833333Y-120552438D02*
X135928571Y-120504819D01*
X136690476Y-121504819D02*
X136690476Y-120838152D01*
X136690476Y-120933390D02*
X136738095Y-120885771D01*
X136738095Y-120885771D02*
X136833333Y-120838152D01*
X136833333Y-120838152D02*
X136976190Y-120838152D01*
X136976190Y-120838152D02*
X137071428Y-120885771D01*
X137071428Y-120885771D02*
X137119047Y-120981009D01*
X137119047Y-120981009D02*
X137119047Y-121504819D01*
X137119047Y-120981009D02*
X137166666Y-120885771D01*
X137166666Y-120885771D02*
X137261904Y-120838152D01*
X137261904Y-120838152D02*
X137404761Y-120838152D01*
X137404761Y-120838152D02*
X137500000Y-120885771D01*
X137500000Y-120885771D02*
X137547619Y-120981009D01*
X137547619Y-120981009D02*
X137547619Y-121504819D01*
X138023809Y-121504819D02*
X138023809Y-120838152D01*
X138023809Y-120933390D02*
X138071428Y-120885771D01*
X138071428Y-120885771D02*
X138166666Y-120838152D01*
X138166666Y-120838152D02*
X138309523Y-120838152D01*
X138309523Y-120838152D02*
X138404761Y-120885771D01*
X138404761Y-120885771D02*
X138452380Y-120981009D01*
X138452380Y-120981009D02*
X138452380Y-121504819D01*
X138452380Y-120981009D02*
X138499999Y-120885771D01*
X138499999Y-120885771D02*
X138595237Y-120838152D01*
X138595237Y-120838152D02*
X138738094Y-120838152D01*
X138738094Y-120838152D02*
X138833333Y-120885771D01*
X138833333Y-120885771D02*
X138880952Y-120981009D01*
X138880952Y-120981009D02*
X138880952Y-121504819D01*
X139119047Y-121600057D02*
X139880951Y-121600057D01*
X140119047Y-121504819D02*
X140119047Y-120504819D01*
X140119047Y-120981009D02*
X140690475Y-120981009D01*
X140690475Y-121504819D02*
X140690475Y-120504819D01*
X141309523Y-121504819D02*
X141214285Y-121457200D01*
X141214285Y-121457200D02*
X141166666Y-121409580D01*
X141166666Y-121409580D02*
X141119047Y-121314342D01*
X141119047Y-121314342D02*
X141119047Y-121028628D01*
X141119047Y-121028628D02*
X141166666Y-120933390D01*
X141166666Y-120933390D02*
X141214285Y-120885771D01*
X141214285Y-120885771D02*
X141309523Y-120838152D01*
X141309523Y-120838152D02*
X141452380Y-120838152D01*
X141452380Y-120838152D02*
X141547618Y-120885771D01*
X141547618Y-120885771D02*
X141595237Y-120933390D01*
X141595237Y-120933390D02*
X141642856Y-121028628D01*
X141642856Y-121028628D02*
X141642856Y-121314342D01*
X141642856Y-121314342D02*
X141595237Y-121409580D01*
X141595237Y-121409580D02*
X141547618Y-121457200D01*
X141547618Y-121457200D02*
X141452380Y-121504819D01*
X141452380Y-121504819D02*
X141309523Y-121504819D01*
X142071428Y-121504819D02*
X142071428Y-120838152D01*
X142071428Y-121028628D02*
X142119047Y-120933390D01*
X142119047Y-120933390D02*
X142166666Y-120885771D01*
X142166666Y-120885771D02*
X142261904Y-120838152D01*
X142261904Y-120838152D02*
X142357142Y-120838152D01*
X142690476Y-121504819D02*
X142690476Y-120838152D01*
X142690476Y-120504819D02*
X142642857Y-120552438D01*
X142642857Y-120552438D02*
X142690476Y-120600057D01*
X142690476Y-120600057D02*
X142738095Y-120552438D01*
X142738095Y-120552438D02*
X142690476Y-120504819D01*
X142690476Y-120504819D02*
X142690476Y-120600057D01*
X143071428Y-120838152D02*
X143595237Y-120838152D01*
X143595237Y-120838152D02*
X143071428Y-121504819D01*
X143071428Y-121504819D02*
X143595237Y-121504819D01*
X144119047Y-121504819D02*
X144023809Y-121457200D01*
X144023809Y-121457200D02*
X143976190Y-121409580D01*
X143976190Y-121409580D02*
X143928571Y-121314342D01*
X143928571Y-121314342D02*
X143928571Y-121028628D01*
X143928571Y-121028628D02*
X143976190Y-120933390D01*
X143976190Y-120933390D02*
X144023809Y-120885771D01*
X144023809Y-120885771D02*
X144119047Y-120838152D01*
X144119047Y-120838152D02*
X144261904Y-120838152D01*
X144261904Y-120838152D02*
X144357142Y-120885771D01*
X144357142Y-120885771D02*
X144404761Y-120933390D01*
X144404761Y-120933390D02*
X144452380Y-121028628D01*
X144452380Y-121028628D02*
X144452380Y-121314342D01*
X144452380Y-121314342D02*
X144404761Y-121409580D01*
X144404761Y-121409580D02*
X144357142Y-121457200D01*
X144357142Y-121457200D02*
X144261904Y-121504819D01*
X144261904Y-121504819D02*
X144119047Y-121504819D01*
X144880952Y-120838152D02*
X144880952Y-121504819D01*
X144880952Y-120933390D02*
X144928571Y-120885771D01*
X144928571Y-120885771D02*
X145023809Y-120838152D01*
X145023809Y-120838152D02*
X145166666Y-120838152D01*
X145166666Y-120838152D02*
X145261904Y-120885771D01*
X145261904Y-120885771D02*
X145309523Y-120981009D01*
X145309523Y-120981009D02*
X145309523Y-121504819D01*
X145642857Y-120838152D02*
X146023809Y-120838152D01*
X145785714Y-120504819D02*
X145785714Y-121361961D01*
X145785714Y-121361961D02*
X145833333Y-121457200D01*
X145833333Y-121457200D02*
X145928571Y-121504819D01*
X145928571Y-121504819D02*
X146023809Y-121504819D01*
X146785714Y-121504819D02*
X146785714Y-120981009D01*
X146785714Y-120981009D02*
X146738095Y-120885771D01*
X146738095Y-120885771D02*
X146642857Y-120838152D01*
X146642857Y-120838152D02*
X146452381Y-120838152D01*
X146452381Y-120838152D02*
X146357143Y-120885771D01*
X146785714Y-121457200D02*
X146690476Y-121504819D01*
X146690476Y-121504819D02*
X146452381Y-121504819D01*
X146452381Y-121504819D02*
X146357143Y-121457200D01*
X146357143Y-121457200D02*
X146309524Y-121361961D01*
X146309524Y-121361961D02*
X146309524Y-121266723D01*
X146309524Y-121266723D02*
X146357143Y-121171485D01*
X146357143Y-121171485D02*
X146452381Y-121123866D01*
X146452381Y-121123866D02*
X146690476Y-121123866D01*
X146690476Y-121123866D02*
X146785714Y-121076247D01*
X147404762Y-121504819D02*
X147309524Y-121457200D01*
X147309524Y-121457200D02*
X147261905Y-121361961D01*
X147261905Y-121361961D02*
X147261905Y-120504819D01*
X129666666Y-125454819D02*
X129666666Y-126169104D01*
X129666666Y-126169104D02*
X129619047Y-126311961D01*
X129619047Y-126311961D02*
X129523809Y-126407200D01*
X129523809Y-126407200D02*
X129380952Y-126454819D01*
X129380952Y-126454819D02*
X129285714Y-126454819D01*
X130047619Y-125454819D02*
X130714285Y-125454819D01*
X130714285Y-125454819D02*
X130285714Y-126454819D01*
X178095238Y-89104819D02*
X178095238Y-88104819D01*
X178095238Y-88104819D02*
X178428571Y-88819104D01*
X178428571Y-88819104D02*
X178761904Y-88104819D01*
X178761904Y-88104819D02*
X178761904Y-89104819D01*
X179380952Y-89104819D02*
X179285714Y-89057200D01*
X179285714Y-89057200D02*
X179238095Y-89009580D01*
X179238095Y-89009580D02*
X179190476Y-88914342D01*
X179190476Y-88914342D02*
X179190476Y-88628628D01*
X179190476Y-88628628D02*
X179238095Y-88533390D01*
X179238095Y-88533390D02*
X179285714Y-88485771D01*
X179285714Y-88485771D02*
X179380952Y-88438152D01*
X179380952Y-88438152D02*
X179523809Y-88438152D01*
X179523809Y-88438152D02*
X179619047Y-88485771D01*
X179619047Y-88485771D02*
X179666666Y-88533390D01*
X179666666Y-88533390D02*
X179714285Y-88628628D01*
X179714285Y-88628628D02*
X179714285Y-88914342D01*
X179714285Y-88914342D02*
X179666666Y-89009580D01*
X179666666Y-89009580D02*
X179619047Y-89057200D01*
X179619047Y-89057200D02*
X179523809Y-89104819D01*
X179523809Y-89104819D02*
X179380952Y-89104819D01*
X180571428Y-88438152D02*
X180571428Y-89104819D01*
X180142857Y-88438152D02*
X180142857Y-88961961D01*
X180142857Y-88961961D02*
X180190476Y-89057200D01*
X180190476Y-89057200D02*
X180285714Y-89104819D01*
X180285714Y-89104819D02*
X180428571Y-89104819D01*
X180428571Y-89104819D02*
X180523809Y-89057200D01*
X180523809Y-89057200D02*
X180571428Y-89009580D01*
X181047619Y-88438152D02*
X181047619Y-89104819D01*
X181047619Y-88533390D02*
X181095238Y-88485771D01*
X181095238Y-88485771D02*
X181190476Y-88438152D01*
X181190476Y-88438152D02*
X181333333Y-88438152D01*
X181333333Y-88438152D02*
X181428571Y-88485771D01*
X181428571Y-88485771D02*
X181476190Y-88581009D01*
X181476190Y-88581009D02*
X181476190Y-89104819D01*
X181809524Y-88438152D02*
X182190476Y-88438152D01*
X181952381Y-88104819D02*
X181952381Y-88961961D01*
X181952381Y-88961961D02*
X182000000Y-89057200D01*
X182000000Y-89057200D02*
X182095238Y-89104819D01*
X182095238Y-89104819D02*
X182190476Y-89104819D01*
X182523810Y-89104819D02*
X182523810Y-88438152D01*
X182523810Y-88104819D02*
X182476191Y-88152438D01*
X182476191Y-88152438D02*
X182523810Y-88200057D01*
X182523810Y-88200057D02*
X182571429Y-88152438D01*
X182571429Y-88152438D02*
X182523810Y-88104819D01*
X182523810Y-88104819D02*
X182523810Y-88200057D01*
X183000000Y-88438152D02*
X183000000Y-89104819D01*
X183000000Y-88533390D02*
X183047619Y-88485771D01*
X183047619Y-88485771D02*
X183142857Y-88438152D01*
X183142857Y-88438152D02*
X183285714Y-88438152D01*
X183285714Y-88438152D02*
X183380952Y-88485771D01*
X183380952Y-88485771D02*
X183428571Y-88581009D01*
X183428571Y-88581009D02*
X183428571Y-89104819D01*
X184333333Y-88438152D02*
X184333333Y-89247676D01*
X184333333Y-89247676D02*
X184285714Y-89342914D01*
X184285714Y-89342914D02*
X184238095Y-89390533D01*
X184238095Y-89390533D02*
X184142857Y-89438152D01*
X184142857Y-89438152D02*
X184000000Y-89438152D01*
X184000000Y-89438152D02*
X183904762Y-89390533D01*
X184333333Y-89057200D02*
X184238095Y-89104819D01*
X184238095Y-89104819D02*
X184047619Y-89104819D01*
X184047619Y-89104819D02*
X183952381Y-89057200D01*
X183952381Y-89057200D02*
X183904762Y-89009580D01*
X183904762Y-89009580D02*
X183857143Y-88914342D01*
X183857143Y-88914342D02*
X183857143Y-88628628D01*
X183857143Y-88628628D02*
X183904762Y-88533390D01*
X183904762Y-88533390D02*
X183952381Y-88485771D01*
X183952381Y-88485771D02*
X184047619Y-88438152D01*
X184047619Y-88438152D02*
X184238095Y-88438152D01*
X184238095Y-88438152D02*
X184333333Y-88485771D01*
X184809524Y-89104819D02*
X184809524Y-88104819D01*
X184809524Y-88581009D02*
X185380952Y-88581009D01*
X185380952Y-89104819D02*
X185380952Y-88104819D01*
X186000000Y-89104819D02*
X185904762Y-89057200D01*
X185904762Y-89057200D02*
X185857143Y-89009580D01*
X185857143Y-89009580D02*
X185809524Y-88914342D01*
X185809524Y-88914342D02*
X185809524Y-88628628D01*
X185809524Y-88628628D02*
X185857143Y-88533390D01*
X185857143Y-88533390D02*
X185904762Y-88485771D01*
X185904762Y-88485771D02*
X186000000Y-88438152D01*
X186000000Y-88438152D02*
X186142857Y-88438152D01*
X186142857Y-88438152D02*
X186238095Y-88485771D01*
X186238095Y-88485771D02*
X186285714Y-88533390D01*
X186285714Y-88533390D02*
X186333333Y-88628628D01*
X186333333Y-88628628D02*
X186333333Y-88914342D01*
X186333333Y-88914342D02*
X186285714Y-89009580D01*
X186285714Y-89009580D02*
X186238095Y-89057200D01*
X186238095Y-89057200D02*
X186142857Y-89104819D01*
X186142857Y-89104819D02*
X186000000Y-89104819D01*
X186904762Y-89104819D02*
X186809524Y-89057200D01*
X186809524Y-89057200D02*
X186761905Y-88961961D01*
X186761905Y-88961961D02*
X186761905Y-88104819D01*
X187666667Y-89057200D02*
X187571429Y-89104819D01*
X187571429Y-89104819D02*
X187380953Y-89104819D01*
X187380953Y-89104819D02*
X187285715Y-89057200D01*
X187285715Y-89057200D02*
X187238096Y-88961961D01*
X187238096Y-88961961D02*
X187238096Y-88581009D01*
X187238096Y-88581009D02*
X187285715Y-88485771D01*
X187285715Y-88485771D02*
X187380953Y-88438152D01*
X187380953Y-88438152D02*
X187571429Y-88438152D01*
X187571429Y-88438152D02*
X187666667Y-88485771D01*
X187666667Y-88485771D02*
X187714286Y-88581009D01*
X187714286Y-88581009D02*
X187714286Y-88676247D01*
X187714286Y-88676247D02*
X187238096Y-88771485D01*
X187904763Y-89200057D02*
X188666667Y-89200057D01*
X188809525Y-88104819D02*
X189428572Y-88104819D01*
X189428572Y-88104819D02*
X189095239Y-88485771D01*
X189095239Y-88485771D02*
X189238096Y-88485771D01*
X189238096Y-88485771D02*
X189333334Y-88533390D01*
X189333334Y-88533390D02*
X189380953Y-88581009D01*
X189380953Y-88581009D02*
X189428572Y-88676247D01*
X189428572Y-88676247D02*
X189428572Y-88914342D01*
X189428572Y-88914342D02*
X189380953Y-89009580D01*
X189380953Y-89009580D02*
X189333334Y-89057200D01*
X189333334Y-89057200D02*
X189238096Y-89104819D01*
X189238096Y-89104819D02*
X188952382Y-89104819D01*
X188952382Y-89104819D02*
X188857144Y-89057200D01*
X188857144Y-89057200D02*
X188809525Y-89009580D01*
X189857144Y-89009580D02*
X189904763Y-89057200D01*
X189904763Y-89057200D02*
X189857144Y-89104819D01*
X189857144Y-89104819D02*
X189809525Y-89057200D01*
X189809525Y-89057200D02*
X189857144Y-89009580D01*
X189857144Y-89009580D02*
X189857144Y-89104819D01*
X190285715Y-88200057D02*
X190333334Y-88152438D01*
X190333334Y-88152438D02*
X190428572Y-88104819D01*
X190428572Y-88104819D02*
X190666667Y-88104819D01*
X190666667Y-88104819D02*
X190761905Y-88152438D01*
X190761905Y-88152438D02*
X190809524Y-88200057D01*
X190809524Y-88200057D02*
X190857143Y-88295295D01*
X190857143Y-88295295D02*
X190857143Y-88390533D01*
X190857143Y-88390533D02*
X190809524Y-88533390D01*
X190809524Y-88533390D02*
X190238096Y-89104819D01*
X190238096Y-89104819D02*
X190857143Y-89104819D01*
X191285715Y-89104819D02*
X191285715Y-88438152D01*
X191285715Y-88533390D02*
X191333334Y-88485771D01*
X191333334Y-88485771D02*
X191428572Y-88438152D01*
X191428572Y-88438152D02*
X191571429Y-88438152D01*
X191571429Y-88438152D02*
X191666667Y-88485771D01*
X191666667Y-88485771D02*
X191714286Y-88581009D01*
X191714286Y-88581009D02*
X191714286Y-89104819D01*
X191714286Y-88581009D02*
X191761905Y-88485771D01*
X191761905Y-88485771D02*
X191857143Y-88438152D01*
X191857143Y-88438152D02*
X192000000Y-88438152D01*
X192000000Y-88438152D02*
X192095239Y-88485771D01*
X192095239Y-88485771D02*
X192142858Y-88581009D01*
X192142858Y-88581009D02*
X192142858Y-89104819D01*
X192619048Y-89104819D02*
X192619048Y-88438152D01*
X192619048Y-88533390D02*
X192666667Y-88485771D01*
X192666667Y-88485771D02*
X192761905Y-88438152D01*
X192761905Y-88438152D02*
X192904762Y-88438152D01*
X192904762Y-88438152D02*
X193000000Y-88485771D01*
X193000000Y-88485771D02*
X193047619Y-88581009D01*
X193047619Y-88581009D02*
X193047619Y-89104819D01*
X193047619Y-88581009D02*
X193095238Y-88485771D01*
X193095238Y-88485771D02*
X193190476Y-88438152D01*
X193190476Y-88438152D02*
X193333333Y-88438152D01*
X193333333Y-88438152D02*
X193428572Y-88485771D01*
X193428572Y-88485771D02*
X193476191Y-88581009D01*
X193476191Y-88581009D02*
X193476191Y-89104819D01*
X193714286Y-89200057D02*
X194476190Y-89200057D01*
X194714286Y-89104819D02*
X194714286Y-88104819D01*
X194714286Y-88104819D02*
X195047619Y-88819104D01*
X195047619Y-88819104D02*
X195380952Y-88104819D01*
X195380952Y-88104819D02*
X195380952Y-89104819D01*
X195761905Y-88104819D02*
X196380952Y-88104819D01*
X196380952Y-88104819D02*
X196047619Y-88485771D01*
X196047619Y-88485771D02*
X196190476Y-88485771D01*
X196190476Y-88485771D02*
X196285714Y-88533390D01*
X196285714Y-88533390D02*
X196333333Y-88581009D01*
X196333333Y-88581009D02*
X196380952Y-88676247D01*
X196380952Y-88676247D02*
X196380952Y-88914342D01*
X196380952Y-88914342D02*
X196333333Y-89009580D01*
X196333333Y-89009580D02*
X196285714Y-89057200D01*
X196285714Y-89057200D02*
X196190476Y-89104819D01*
X196190476Y-89104819D02*
X195904762Y-89104819D01*
X195904762Y-89104819D02*
X195809524Y-89057200D01*
X195809524Y-89057200D02*
X195761905Y-89009580D01*
X196571429Y-89200057D02*
X197333333Y-89200057D01*
X197571429Y-89104819D02*
X197571429Y-88104819D01*
X197571429Y-88104819D02*
X197952381Y-88104819D01*
X197952381Y-88104819D02*
X198047619Y-88152438D01*
X198047619Y-88152438D02*
X198095238Y-88200057D01*
X198095238Y-88200057D02*
X198142857Y-88295295D01*
X198142857Y-88295295D02*
X198142857Y-88438152D01*
X198142857Y-88438152D02*
X198095238Y-88533390D01*
X198095238Y-88533390D02*
X198047619Y-88581009D01*
X198047619Y-88581009D02*
X197952381Y-88628628D01*
X197952381Y-88628628D02*
X197571429Y-88628628D01*
X199000000Y-89104819D02*
X199000000Y-88581009D01*
X199000000Y-88581009D02*
X198952381Y-88485771D01*
X198952381Y-88485771D02*
X198857143Y-88438152D01*
X198857143Y-88438152D02*
X198666667Y-88438152D01*
X198666667Y-88438152D02*
X198571429Y-88485771D01*
X199000000Y-89057200D02*
X198904762Y-89104819D01*
X198904762Y-89104819D02*
X198666667Y-89104819D01*
X198666667Y-89104819D02*
X198571429Y-89057200D01*
X198571429Y-89057200D02*
X198523810Y-88961961D01*
X198523810Y-88961961D02*
X198523810Y-88866723D01*
X198523810Y-88866723D02*
X198571429Y-88771485D01*
X198571429Y-88771485D02*
X198666667Y-88723866D01*
X198666667Y-88723866D02*
X198904762Y-88723866D01*
X198904762Y-88723866D02*
X199000000Y-88676247D01*
X199904762Y-89104819D02*
X199904762Y-88104819D01*
X199904762Y-89057200D02*
X199809524Y-89104819D01*
X199809524Y-89104819D02*
X199619048Y-89104819D01*
X199619048Y-89104819D02*
X199523810Y-89057200D01*
X199523810Y-89057200D02*
X199476191Y-89009580D01*
X199476191Y-89009580D02*
X199428572Y-88914342D01*
X199428572Y-88914342D02*
X199428572Y-88628628D01*
X199428572Y-88628628D02*
X199476191Y-88533390D01*
X199476191Y-88533390D02*
X199523810Y-88485771D01*
X199523810Y-88485771D02*
X199619048Y-88438152D01*
X199619048Y-88438152D02*
X199809524Y-88438152D01*
X199809524Y-88438152D02*
X199904762Y-88485771D01*
X200142858Y-89200057D02*
X200904762Y-89200057D01*
X201000001Y-88104819D02*
X201333334Y-89104819D01*
X201333334Y-89104819D02*
X201666667Y-88104819D01*
X202000001Y-89104819D02*
X202000001Y-88438152D01*
X202000001Y-88104819D02*
X201952382Y-88152438D01*
X201952382Y-88152438D02*
X202000001Y-88200057D01*
X202000001Y-88200057D02*
X202047620Y-88152438D01*
X202047620Y-88152438D02*
X202000001Y-88104819D01*
X202000001Y-88104819D02*
X202000001Y-88200057D01*
X202904762Y-89104819D02*
X202904762Y-88581009D01*
X202904762Y-88581009D02*
X202857143Y-88485771D01*
X202857143Y-88485771D02*
X202761905Y-88438152D01*
X202761905Y-88438152D02*
X202571429Y-88438152D01*
X202571429Y-88438152D02*
X202476191Y-88485771D01*
X202904762Y-89057200D02*
X202809524Y-89104819D01*
X202809524Y-89104819D02*
X202571429Y-89104819D01*
X202571429Y-89104819D02*
X202476191Y-89057200D01*
X202476191Y-89057200D02*
X202428572Y-88961961D01*
X202428572Y-88961961D02*
X202428572Y-88866723D01*
X202428572Y-88866723D02*
X202476191Y-88771485D01*
X202476191Y-88771485D02*
X202571429Y-88723866D01*
X202571429Y-88723866D02*
X202809524Y-88723866D01*
X202809524Y-88723866D02*
X202904762Y-88676247D01*
X189738095Y-84954819D02*
X189738095Y-83954819D01*
X189738095Y-84431009D02*
X190309523Y-84431009D01*
X190309523Y-84954819D02*
X190309523Y-83954819D01*
X190738095Y-84050057D02*
X190785714Y-84002438D01*
X190785714Y-84002438D02*
X190880952Y-83954819D01*
X190880952Y-83954819D02*
X191119047Y-83954819D01*
X191119047Y-83954819D02*
X191214285Y-84002438D01*
X191214285Y-84002438D02*
X191261904Y-84050057D01*
X191261904Y-84050057D02*
X191309523Y-84145295D01*
X191309523Y-84145295D02*
X191309523Y-84240533D01*
X191309523Y-84240533D02*
X191261904Y-84383390D01*
X191261904Y-84383390D02*
X190690476Y-84954819D01*
X190690476Y-84954819D02*
X191309523Y-84954819D01*
X133337142Y-132204819D02*
X133908570Y-132204819D01*
X133622856Y-133204819D02*
X133622856Y-132204819D01*
X134622856Y-133157200D02*
X134527618Y-133204819D01*
X134527618Y-133204819D02*
X134337142Y-133204819D01*
X134337142Y-133204819D02*
X134241904Y-133157200D01*
X134241904Y-133157200D02*
X134194285Y-133061961D01*
X134194285Y-133061961D02*
X134194285Y-132681009D01*
X134194285Y-132681009D02*
X134241904Y-132585771D01*
X134241904Y-132585771D02*
X134337142Y-132538152D01*
X134337142Y-132538152D02*
X134527618Y-132538152D01*
X134527618Y-132538152D02*
X134622856Y-132585771D01*
X134622856Y-132585771D02*
X134670475Y-132681009D01*
X134670475Y-132681009D02*
X134670475Y-132776247D01*
X134670475Y-132776247D02*
X134194285Y-132871485D01*
X135099047Y-133204819D02*
X135099047Y-132538152D01*
X135099047Y-132728628D02*
X135146666Y-132633390D01*
X135146666Y-132633390D02*
X135194285Y-132585771D01*
X135194285Y-132585771D02*
X135289523Y-132538152D01*
X135289523Y-132538152D02*
X135384761Y-132538152D01*
X135718095Y-133204819D02*
X135718095Y-132538152D01*
X135718095Y-132633390D02*
X135765714Y-132585771D01*
X135765714Y-132585771D02*
X135860952Y-132538152D01*
X135860952Y-132538152D02*
X136003809Y-132538152D01*
X136003809Y-132538152D02*
X136099047Y-132585771D01*
X136099047Y-132585771D02*
X136146666Y-132681009D01*
X136146666Y-132681009D02*
X136146666Y-133204819D01*
X136146666Y-132681009D02*
X136194285Y-132585771D01*
X136194285Y-132585771D02*
X136289523Y-132538152D01*
X136289523Y-132538152D02*
X136432380Y-132538152D01*
X136432380Y-132538152D02*
X136527619Y-132585771D01*
X136527619Y-132585771D02*
X136575238Y-132681009D01*
X136575238Y-132681009D02*
X136575238Y-133204819D01*
X137051428Y-133204819D02*
X137051428Y-132538152D01*
X137051428Y-132204819D02*
X137003809Y-132252438D01*
X137003809Y-132252438D02*
X137051428Y-132300057D01*
X137051428Y-132300057D02*
X137099047Y-132252438D01*
X137099047Y-132252438D02*
X137051428Y-132204819D01*
X137051428Y-132204819D02*
X137051428Y-132300057D01*
X137527618Y-132538152D02*
X137527618Y-133204819D01*
X137527618Y-132633390D02*
X137575237Y-132585771D01*
X137575237Y-132585771D02*
X137670475Y-132538152D01*
X137670475Y-132538152D02*
X137813332Y-132538152D01*
X137813332Y-132538152D02*
X137908570Y-132585771D01*
X137908570Y-132585771D02*
X137956189Y-132681009D01*
X137956189Y-132681009D02*
X137956189Y-133204819D01*
X138860951Y-133204819D02*
X138860951Y-132681009D01*
X138860951Y-132681009D02*
X138813332Y-132585771D01*
X138813332Y-132585771D02*
X138718094Y-132538152D01*
X138718094Y-132538152D02*
X138527618Y-132538152D01*
X138527618Y-132538152D02*
X138432380Y-132585771D01*
X138860951Y-133157200D02*
X138765713Y-133204819D01*
X138765713Y-133204819D02*
X138527618Y-133204819D01*
X138527618Y-133204819D02*
X138432380Y-133157200D01*
X138432380Y-133157200D02*
X138384761Y-133061961D01*
X138384761Y-133061961D02*
X138384761Y-132966723D01*
X138384761Y-132966723D02*
X138432380Y-132871485D01*
X138432380Y-132871485D02*
X138527618Y-132823866D01*
X138527618Y-132823866D02*
X138765713Y-132823866D01*
X138765713Y-132823866D02*
X138860951Y-132776247D01*
X139479999Y-133204819D02*
X139384761Y-133157200D01*
X139384761Y-133157200D02*
X139337142Y-133061961D01*
X139337142Y-133061961D02*
X139337142Y-132204819D01*
X140194285Y-132681009D02*
X140337142Y-132728628D01*
X140337142Y-132728628D02*
X140384761Y-132776247D01*
X140384761Y-132776247D02*
X140432380Y-132871485D01*
X140432380Y-132871485D02*
X140432380Y-133014342D01*
X140432380Y-133014342D02*
X140384761Y-133109580D01*
X140384761Y-133109580D02*
X140337142Y-133157200D01*
X140337142Y-133157200D02*
X140241904Y-133204819D01*
X140241904Y-133204819D02*
X139860952Y-133204819D01*
X139860952Y-133204819D02*
X139860952Y-132204819D01*
X139860952Y-132204819D02*
X140194285Y-132204819D01*
X140194285Y-132204819D02*
X140289523Y-132252438D01*
X140289523Y-132252438D02*
X140337142Y-132300057D01*
X140337142Y-132300057D02*
X140384761Y-132395295D01*
X140384761Y-132395295D02*
X140384761Y-132490533D01*
X140384761Y-132490533D02*
X140337142Y-132585771D01*
X140337142Y-132585771D02*
X140289523Y-132633390D01*
X140289523Y-132633390D02*
X140194285Y-132681009D01*
X140194285Y-132681009D02*
X139860952Y-132681009D01*
X141003809Y-133204819D02*
X140908571Y-133157200D01*
X140908571Y-133157200D02*
X140860952Y-133061961D01*
X140860952Y-133061961D02*
X140860952Y-132204819D01*
X141527619Y-133204819D02*
X141432381Y-133157200D01*
X141432381Y-133157200D02*
X141384762Y-133109580D01*
X141384762Y-133109580D02*
X141337143Y-133014342D01*
X141337143Y-133014342D02*
X141337143Y-132728628D01*
X141337143Y-132728628D02*
X141384762Y-132633390D01*
X141384762Y-132633390D02*
X141432381Y-132585771D01*
X141432381Y-132585771D02*
X141527619Y-132538152D01*
X141527619Y-132538152D02*
X141670476Y-132538152D01*
X141670476Y-132538152D02*
X141765714Y-132585771D01*
X141765714Y-132585771D02*
X141813333Y-132633390D01*
X141813333Y-132633390D02*
X141860952Y-132728628D01*
X141860952Y-132728628D02*
X141860952Y-133014342D01*
X141860952Y-133014342D02*
X141813333Y-133109580D01*
X141813333Y-133109580D02*
X141765714Y-133157200D01*
X141765714Y-133157200D02*
X141670476Y-133204819D01*
X141670476Y-133204819D02*
X141527619Y-133204819D01*
X142718095Y-133157200D02*
X142622857Y-133204819D01*
X142622857Y-133204819D02*
X142432381Y-133204819D01*
X142432381Y-133204819D02*
X142337143Y-133157200D01*
X142337143Y-133157200D02*
X142289524Y-133109580D01*
X142289524Y-133109580D02*
X142241905Y-133014342D01*
X142241905Y-133014342D02*
X142241905Y-132728628D01*
X142241905Y-132728628D02*
X142289524Y-132633390D01*
X142289524Y-132633390D02*
X142337143Y-132585771D01*
X142337143Y-132585771D02*
X142432381Y-132538152D01*
X142432381Y-132538152D02*
X142622857Y-132538152D01*
X142622857Y-132538152D02*
X142718095Y-132585771D01*
X143146667Y-133204819D02*
X143146667Y-132204819D01*
X143241905Y-132823866D02*
X143527619Y-133204819D01*
X143527619Y-132538152D02*
X143146667Y-132919104D01*
X143718096Y-133300057D02*
X144480000Y-133300057D01*
X144718096Y-133204819D02*
X144718096Y-132204819D01*
X144718096Y-132585771D02*
X144813334Y-132538152D01*
X144813334Y-132538152D02*
X145003810Y-132538152D01*
X145003810Y-132538152D02*
X145099048Y-132585771D01*
X145099048Y-132585771D02*
X145146667Y-132633390D01*
X145146667Y-132633390D02*
X145194286Y-132728628D01*
X145194286Y-132728628D02*
X145194286Y-133014342D01*
X145194286Y-133014342D02*
X145146667Y-133109580D01*
X145146667Y-133109580D02*
X145099048Y-133157200D01*
X145099048Y-133157200D02*
X145003810Y-133204819D01*
X145003810Y-133204819D02*
X144813334Y-133204819D01*
X144813334Y-133204819D02*
X144718096Y-133157200D01*
X145765715Y-133204819D02*
X145670477Y-133157200D01*
X145670477Y-133157200D02*
X145622858Y-133109580D01*
X145622858Y-133109580D02*
X145575239Y-133014342D01*
X145575239Y-133014342D02*
X145575239Y-132728628D01*
X145575239Y-132728628D02*
X145622858Y-132633390D01*
X145622858Y-132633390D02*
X145670477Y-132585771D01*
X145670477Y-132585771D02*
X145765715Y-132538152D01*
X145765715Y-132538152D02*
X145908572Y-132538152D01*
X145908572Y-132538152D02*
X146003810Y-132585771D01*
X146003810Y-132585771D02*
X146051429Y-132633390D01*
X146051429Y-132633390D02*
X146099048Y-132728628D01*
X146099048Y-132728628D02*
X146099048Y-133014342D01*
X146099048Y-133014342D02*
X146051429Y-133109580D01*
X146051429Y-133109580D02*
X146003810Y-133157200D01*
X146003810Y-133157200D02*
X145908572Y-133204819D01*
X145908572Y-133204819D02*
X145765715Y-133204819D01*
X146527620Y-133204819D02*
X146527620Y-132538152D01*
X146527620Y-132728628D02*
X146575239Y-132633390D01*
X146575239Y-132633390D02*
X146622858Y-132585771D01*
X146622858Y-132585771D02*
X146718096Y-132538152D01*
X146718096Y-132538152D02*
X146813334Y-132538152D01*
X147146668Y-132538152D02*
X147146668Y-133204819D01*
X147146668Y-132633390D02*
X147194287Y-132585771D01*
X147194287Y-132585771D02*
X147289525Y-132538152D01*
X147289525Y-132538152D02*
X147432382Y-132538152D01*
X147432382Y-132538152D02*
X147527620Y-132585771D01*
X147527620Y-132585771D02*
X147575239Y-132681009D01*
X147575239Y-132681009D02*
X147575239Y-133204819D01*
X148051430Y-133204819D02*
X148051430Y-132538152D01*
X148051430Y-132204819D02*
X148003811Y-132252438D01*
X148003811Y-132252438D02*
X148051430Y-132300057D01*
X148051430Y-132300057D02*
X148099049Y-132252438D01*
X148099049Y-132252438D02*
X148051430Y-132204819D01*
X148051430Y-132204819D02*
X148051430Y-132300057D01*
X148908572Y-133157200D02*
X148813334Y-133204819D01*
X148813334Y-133204819D02*
X148622858Y-133204819D01*
X148622858Y-133204819D02*
X148527620Y-133157200D01*
X148527620Y-133157200D02*
X148480001Y-133061961D01*
X148480001Y-133061961D02*
X148480001Y-132681009D01*
X148480001Y-132681009D02*
X148527620Y-132585771D01*
X148527620Y-132585771D02*
X148622858Y-132538152D01*
X148622858Y-132538152D02*
X148813334Y-132538152D01*
X148813334Y-132538152D02*
X148908572Y-132585771D01*
X148908572Y-132585771D02*
X148956191Y-132681009D01*
X148956191Y-132681009D02*
X148956191Y-132776247D01*
X148956191Y-132776247D02*
X148480001Y-132871485D01*
X149384763Y-133204819D02*
X149384763Y-132538152D01*
X149384763Y-132728628D02*
X149432382Y-132633390D01*
X149432382Y-132633390D02*
X149480001Y-132585771D01*
X149480001Y-132585771D02*
X149575239Y-132538152D01*
X149575239Y-132538152D02*
X149670477Y-132538152D01*
X150003811Y-132823866D02*
X150765716Y-132823866D01*
X151670477Y-132538152D02*
X151670477Y-133204819D01*
X151432382Y-132157200D02*
X151194287Y-132871485D01*
X151194287Y-132871485D02*
X151813334Y-132871485D01*
X151956192Y-133300057D02*
X152718096Y-133300057D01*
X152956192Y-133204819D02*
X152956192Y-132204819D01*
X152956192Y-132204819D02*
X153337144Y-132204819D01*
X153337144Y-132204819D02*
X153432382Y-132252438D01*
X153432382Y-132252438D02*
X153480001Y-132300057D01*
X153480001Y-132300057D02*
X153527620Y-132395295D01*
X153527620Y-132395295D02*
X153527620Y-132538152D01*
X153527620Y-132538152D02*
X153480001Y-132633390D01*
X153480001Y-132633390D02*
X153432382Y-132681009D01*
X153432382Y-132681009D02*
X153337144Y-132728628D01*
X153337144Y-132728628D02*
X152956192Y-132728628D01*
X154432382Y-132204819D02*
X153956192Y-132204819D01*
X153956192Y-132204819D02*
X153908573Y-132681009D01*
X153908573Y-132681009D02*
X153956192Y-132633390D01*
X153956192Y-132633390D02*
X154051430Y-132585771D01*
X154051430Y-132585771D02*
X154289525Y-132585771D01*
X154289525Y-132585771D02*
X154384763Y-132633390D01*
X154384763Y-132633390D02*
X154432382Y-132681009D01*
X154432382Y-132681009D02*
X154480001Y-132776247D01*
X154480001Y-132776247D02*
X154480001Y-133014342D01*
X154480001Y-133014342D02*
X154432382Y-133109580D01*
X154432382Y-133109580D02*
X154384763Y-133157200D01*
X154384763Y-133157200D02*
X154289525Y-133204819D01*
X154289525Y-133204819D02*
X154051430Y-133204819D01*
X154051430Y-133204819D02*
X153956192Y-133157200D01*
X153956192Y-133157200D02*
X153908573Y-133109580D01*
X154908573Y-133109580D02*
X154956192Y-133157200D01*
X154956192Y-133157200D02*
X154908573Y-133204819D01*
X154908573Y-133204819D02*
X154860954Y-133157200D01*
X154860954Y-133157200D02*
X154908573Y-133109580D01*
X154908573Y-133109580D02*
X154908573Y-133204819D01*
X155575239Y-132204819D02*
X155670477Y-132204819D01*
X155670477Y-132204819D02*
X155765715Y-132252438D01*
X155765715Y-132252438D02*
X155813334Y-132300057D01*
X155813334Y-132300057D02*
X155860953Y-132395295D01*
X155860953Y-132395295D02*
X155908572Y-132585771D01*
X155908572Y-132585771D02*
X155908572Y-132823866D01*
X155908572Y-132823866D02*
X155860953Y-133014342D01*
X155860953Y-133014342D02*
X155813334Y-133109580D01*
X155813334Y-133109580D02*
X155765715Y-133157200D01*
X155765715Y-133157200D02*
X155670477Y-133204819D01*
X155670477Y-133204819D02*
X155575239Y-133204819D01*
X155575239Y-133204819D02*
X155480001Y-133157200D01*
X155480001Y-133157200D02*
X155432382Y-133109580D01*
X155432382Y-133109580D02*
X155384763Y-133014342D01*
X155384763Y-133014342D02*
X155337144Y-132823866D01*
X155337144Y-132823866D02*
X155337144Y-132585771D01*
X155337144Y-132585771D02*
X155384763Y-132395295D01*
X155384763Y-132395295D02*
X155432382Y-132300057D01*
X155432382Y-132300057D02*
X155480001Y-132252438D01*
X155480001Y-132252438D02*
X155575239Y-132204819D01*
X156480001Y-132633390D02*
X156384763Y-132585771D01*
X156384763Y-132585771D02*
X156337144Y-132538152D01*
X156337144Y-132538152D02*
X156289525Y-132442914D01*
X156289525Y-132442914D02*
X156289525Y-132395295D01*
X156289525Y-132395295D02*
X156337144Y-132300057D01*
X156337144Y-132300057D02*
X156384763Y-132252438D01*
X156384763Y-132252438D02*
X156480001Y-132204819D01*
X156480001Y-132204819D02*
X156670477Y-132204819D01*
X156670477Y-132204819D02*
X156765715Y-132252438D01*
X156765715Y-132252438D02*
X156813334Y-132300057D01*
X156813334Y-132300057D02*
X156860953Y-132395295D01*
X156860953Y-132395295D02*
X156860953Y-132442914D01*
X156860953Y-132442914D02*
X156813334Y-132538152D01*
X156813334Y-132538152D02*
X156765715Y-132585771D01*
X156765715Y-132585771D02*
X156670477Y-132633390D01*
X156670477Y-132633390D02*
X156480001Y-132633390D01*
X156480001Y-132633390D02*
X156384763Y-132681009D01*
X156384763Y-132681009D02*
X156337144Y-132728628D01*
X156337144Y-132728628D02*
X156289525Y-132823866D01*
X156289525Y-132823866D02*
X156289525Y-133014342D01*
X156289525Y-133014342D02*
X156337144Y-133109580D01*
X156337144Y-133109580D02*
X156384763Y-133157200D01*
X156384763Y-133157200D02*
X156480001Y-133204819D01*
X156480001Y-133204819D02*
X156670477Y-133204819D01*
X156670477Y-133204819D02*
X156765715Y-133157200D01*
X156765715Y-133157200D02*
X156813334Y-133109580D01*
X156813334Y-133109580D02*
X156860953Y-133014342D01*
X156860953Y-133014342D02*
X156860953Y-132823866D01*
X156860953Y-132823866D02*
X156813334Y-132728628D01*
X156813334Y-132728628D02*
X156765715Y-132681009D01*
X156765715Y-132681009D02*
X156670477Y-132633390D01*
X157289525Y-133204819D02*
X157289525Y-132538152D01*
X157289525Y-132633390D02*
X157337144Y-132585771D01*
X157337144Y-132585771D02*
X157432382Y-132538152D01*
X157432382Y-132538152D02*
X157575239Y-132538152D01*
X157575239Y-132538152D02*
X157670477Y-132585771D01*
X157670477Y-132585771D02*
X157718096Y-132681009D01*
X157718096Y-132681009D02*
X157718096Y-133204819D01*
X157718096Y-132681009D02*
X157765715Y-132585771D01*
X157765715Y-132585771D02*
X157860953Y-132538152D01*
X157860953Y-132538152D02*
X158003810Y-132538152D01*
X158003810Y-132538152D02*
X158099049Y-132585771D01*
X158099049Y-132585771D02*
X158146668Y-132681009D01*
X158146668Y-132681009D02*
X158146668Y-133204819D01*
X158622858Y-133204819D02*
X158622858Y-132538152D01*
X158622858Y-132633390D02*
X158670477Y-132585771D01*
X158670477Y-132585771D02*
X158765715Y-132538152D01*
X158765715Y-132538152D02*
X158908572Y-132538152D01*
X158908572Y-132538152D02*
X159003810Y-132585771D01*
X159003810Y-132585771D02*
X159051429Y-132681009D01*
X159051429Y-132681009D02*
X159051429Y-133204819D01*
X159051429Y-132681009D02*
X159099048Y-132585771D01*
X159099048Y-132585771D02*
X159194286Y-132538152D01*
X159194286Y-132538152D02*
X159337143Y-132538152D01*
X159337143Y-132538152D02*
X159432382Y-132585771D01*
X159432382Y-132585771D02*
X159480001Y-132681009D01*
X159480001Y-132681009D02*
X159480001Y-133204819D01*
X146166666Y-127454819D02*
X146166666Y-128169104D01*
X146166666Y-128169104D02*
X146119047Y-128311961D01*
X146119047Y-128311961D02*
X146023809Y-128407200D01*
X146023809Y-128407200D02*
X145880952Y-128454819D01*
X145880952Y-128454819D02*
X145785714Y-128454819D01*
X147071428Y-127454819D02*
X146880952Y-127454819D01*
X146880952Y-127454819D02*
X146785714Y-127502438D01*
X146785714Y-127502438D02*
X146738095Y-127550057D01*
X146738095Y-127550057D02*
X146642857Y-127692914D01*
X146642857Y-127692914D02*
X146595238Y-127883390D01*
X146595238Y-127883390D02*
X146595238Y-128264342D01*
X146595238Y-128264342D02*
X146642857Y-128359580D01*
X146642857Y-128359580D02*
X146690476Y-128407200D01*
X146690476Y-128407200D02*
X146785714Y-128454819D01*
X146785714Y-128454819D02*
X146976190Y-128454819D01*
X146976190Y-128454819D02*
X147071428Y-128407200D01*
X147071428Y-128407200D02*
X147119047Y-128359580D01*
X147119047Y-128359580D02*
X147166666Y-128264342D01*
X147166666Y-128264342D02*
X147166666Y-128026247D01*
X147166666Y-128026247D02*
X147119047Y-127931009D01*
X147119047Y-127931009D02*
X147071428Y-127883390D01*
X147071428Y-127883390D02*
X146976190Y-127835771D01*
X146976190Y-127835771D02*
X146785714Y-127835771D01*
X146785714Y-127835771D02*
X146690476Y-127883390D01*
X146690476Y-127883390D02*
X146642857Y-127931009D01*
X146642857Y-127931009D02*
X146595238Y-128026247D01*
D11*
%TO.C,J3*%
X168750000Y-90865000D02*
X168750000Y-76865000D01*
X182370000Y-90865000D02*
X168750000Y-90865000D01*
X182370000Y-90865000D02*
X183250000Y-89985000D01*
X183250000Y-76865000D02*
X168750000Y-76865000D01*
X183250000Y-89985000D02*
X183250000Y-76865000D01*
%TO.C,J2*%
X103490000Y-125460000D02*
X116190000Y-125460000D01*
X103490000Y-129270000D02*
X103490000Y-125460000D01*
X104760000Y-130540000D02*
X103490000Y-129270000D01*
X116190000Y-125460000D02*
X116190000Y-130540000D01*
X116190000Y-130540000D02*
X104760000Y-130540000D01*
%TO.C,J5*%
X179000000Y-128300000D02*
X179000000Y-147050000D01*
X188500000Y-128575000D02*
X188000000Y-129075000D01*
X188500000Y-128575000D02*
X189000000Y-129075000D01*
X189000000Y-129075000D02*
X188000000Y-129075000D01*
X191000000Y-128300000D02*
X179000000Y-128300000D01*
X191000000Y-128300000D02*
X191000000Y-147050000D01*
X191000000Y-147050000D02*
X179000000Y-147050000D01*
%TO.C,J4*%
X163000000Y-128300000D02*
X163000000Y-147050000D01*
X172500000Y-128575000D02*
X172000000Y-129075000D01*
X172500000Y-128575000D02*
X173000000Y-129075000D01*
X173000000Y-129075000D02*
X172000000Y-129075000D01*
X175000000Y-128300000D02*
X163000000Y-128300000D01*
X175000000Y-128300000D02*
X175000000Y-147050000D01*
X175000000Y-147050000D02*
X163000000Y-147050000D01*
%TO.C,P1*%
X104740000Y-83050000D02*
X145420000Y-83050000D01*
X104740000Y-90950000D02*
X104740000Y-83050000D01*
X105740000Y-91950000D02*
X104740000Y-90950000D01*
X105930000Y-84250000D02*
X144230000Y-84250000D01*
X105930000Y-90750000D02*
X105930000Y-84250000D01*
X123030000Y-90750000D02*
X105930000Y-90750000D01*
X123030000Y-91950000D02*
X123030000Y-90750000D01*
X127130000Y-90750000D02*
X127130000Y-90750000D01*
X127130000Y-90750000D02*
X127130000Y-91950000D01*
X144230000Y-84250000D02*
X144230000Y-90750000D01*
X144230000Y-90750000D02*
X127130000Y-90750000D01*
X145420000Y-83050000D02*
X145420000Y-91950000D01*
X145420000Y-91950000D02*
X105740000Y-91950000D01*
%TO.C,J7*%
X125050000Y-122250000D02*
X125050000Y-129850000D01*
X125050000Y-129850000D02*
X125750000Y-129850000D01*
X125750000Y-128250000D02*
X134250000Y-128250000D01*
X125750000Y-129850000D02*
X125750000Y-128250000D01*
X132500000Y-127125000D02*
X133000000Y-127625000D01*
X133000000Y-127625000D02*
X133500000Y-127125000D01*
X133500000Y-127125000D02*
X132500000Y-127125000D01*
X134250000Y-128250000D02*
X134250000Y-129850000D01*
X134250000Y-129850000D02*
X134950000Y-129850000D01*
X134950000Y-122250000D02*
X125050000Y-122250000D01*
X134950000Y-129850000D02*
X134950000Y-122250000D01*
%TO.C,J6*%
X136400000Y-124250000D02*
X156600000Y-124250000D01*
X136400000Y-130550000D02*
X156600000Y-130550000D01*
X136400000Y-131750000D02*
X136400000Y-124250000D01*
X136450000Y-131750000D02*
X136400000Y-131750000D01*
X156600000Y-124250000D02*
X156600000Y-131750000D01*
X156600000Y-131750000D02*
X136450000Y-131750000D01*
%TD*%
M02*
