%TF.GenerationSoftware,KiCad,Pcbnew,9.0.2+dfsg-1*%
%TF.CreationDate,2026-07-17T01:09:15+02:00*%
%TF.ProjectId,chumby-breakout,6368756d-6279-42d6-9272-65616b6f7574,rev?*%
%TF.SameCoordinates,Original*%
%TF.FileFunction,Soldermask,Bot*%
%TF.FilePolarity,Negative*%
%FSLAX46Y46*%
G04 Gerber Fmt 4.6, Leading zero omitted, Abs format (unit mm)*
G04 Created by KiCad (PCBNEW 9.0.2+dfsg-1) date 2026-07-17 01:09:15*
%MOMM*%
%LPD*%
G01*
G04 APERTURE LIST*
G04 Aperture macros list*
%AMRoundRect*
0 Rectangle with rounded corners*
0 $1 Rounding radius*
0 $2 $3 $4 $5 $6 $7 $8 $9 X,Y pos of 4 corners*
0 Add a 4 corners polygon primitive as box body*
4,1,4,$2,$3,$4,$5,$6,$7,$8,$9,$2,$3,0*
0 Add four circle primitives for the rounded corners*
1,1,$1+$1,$2,$3*
1,1,$1+$1,$4,$5*
1,1,$1+$1,$6,$7*
1,1,$1+$1,$8,$9*
0 Add four rect primitives between the rounded corners*
20,1,$1+$1,$2,$3,$4,$5,0*
20,1,$1+$1,$4,$5,$6,$7,0*
20,1,$1+$1,$6,$7,$8,$9,0*
20,1,$1+$1,$8,$9,$2,$3,0*%
G04 Aperture macros list end*
%ADD10C,0.800000*%
%ADD11C,6.400000*%
%ADD12R,1.524000X1.524000*%
%ADD13C,1.524000*%
%ADD14C,3.500000*%
%ADD15R,1.700000X1.700000*%
%ADD16C,1.700000*%
%ADD17C,1.100000*%
%ADD18O,1.300000X3.200000*%
%ADD19RoundRect,0.250000X0.600000X-0.600000X0.600000X0.600000X-0.600000X0.600000X-0.600000X-0.600000X0*%
%ADD20RoundRect,0.250000X0.350000X0.625000X-0.350000X0.625000X-0.350000X-0.625000X0.350000X-0.625000X0*%
%ADD21O,1.200000X1.750000*%
%ADD22R,3.000000X3.000000*%
%ADD23C,3.000000*%
G04 APERTURE END LIST*
D10*
%TO.C,H1*%
X97100000Y-84500000D03*
X97802944Y-82802944D03*
X97802944Y-86197056D03*
X99500000Y-82100000D03*
D11*
X99500000Y-84500000D03*
D10*
X99500000Y-86900000D03*
X101197056Y-82802944D03*
X101197056Y-86197056D03*
X101900000Y-84500000D03*
%TD*%
D12*
%TO.C,J3*%
X179500000Y-89855000D03*
D13*
X177000000Y-89855000D03*
X175000000Y-89855000D03*
X172500000Y-89855000D03*
D14*
X182675000Y-87145000D03*
X169325000Y-87145000D03*
%TD*%
D15*
%TO.C,J2*%
X104760000Y-129270000D03*
D16*
X104760000Y-126730000D03*
X107300000Y-129270000D03*
X107300000Y-126730000D03*
X109840000Y-129270000D03*
X109840000Y-126730000D03*
X112380000Y-129270000D03*
X112380000Y-126730000D03*
X114920000Y-129270000D03*
X114920000Y-126730000D03*
%TD*%
D17*
%TO.C,J5*%
X187250000Y-129300000D03*
X182750000Y-129300000D03*
D18*
X190850000Y-129300000D03*
X179150000Y-129300000D03*
%TD*%
D10*
%TO.C,H3*%
X97100000Y-130500000D03*
X97802944Y-128802944D03*
X97802944Y-132197056D03*
X99500000Y-128100000D03*
D11*
X99500000Y-130500000D03*
D10*
X99500000Y-132900000D03*
X101197056Y-128802944D03*
X101197056Y-132197056D03*
X101900000Y-130500000D03*
%TD*%
D17*
%TO.C,J4*%
X171250000Y-129300000D03*
X166750000Y-129300000D03*
D18*
X174850000Y-129300000D03*
X163150000Y-129300000D03*
%TD*%
D19*
%TO.C,P1*%
X109840000Y-88770000D03*
D16*
X109840000Y-86230000D03*
X112380000Y-88770000D03*
X112380000Y-86230000D03*
X114920000Y-88770000D03*
X114920000Y-86230000D03*
X117460000Y-88770000D03*
X117460000Y-86230000D03*
X120000000Y-88770000D03*
X120000000Y-86230000D03*
X122540000Y-88770000D03*
X122540000Y-86230000D03*
X125080000Y-88770000D03*
X125080000Y-86230000D03*
X127620000Y-88770000D03*
X127620000Y-86230000D03*
X130160000Y-88770000D03*
X130160000Y-86230000D03*
X132700000Y-88770000D03*
X132700000Y-86230000D03*
X135240000Y-88770000D03*
X135240000Y-86230000D03*
X137780000Y-88770000D03*
X137780000Y-86230000D03*
X140320000Y-88770000D03*
X140320000Y-86230000D03*
%TD*%
D20*
%TO.C,J7*%
X133000000Y-128500000D03*
D21*
X131000000Y-128500000D03*
X129000000Y-128500000D03*
X127000000Y-128500000D03*
%TD*%
D10*
%TO.C,H2*%
X188100000Y-84500000D03*
X188802944Y-82802944D03*
X188802944Y-86197056D03*
X190500000Y-82100000D03*
D11*
X190500000Y-84500000D03*
D10*
X190500000Y-86900000D03*
X192197056Y-82802944D03*
X192197056Y-86197056D03*
X192900000Y-84500000D03*
%TD*%
D22*
%TO.C,J6*%
X138880000Y-128000000D03*
D23*
X143960000Y-128000000D03*
X149040000Y-128000000D03*
X154120000Y-128000000D03*
%TD*%
M02*
