%TF.GenerationSoftware,KiCad,Pcbnew,9.0.2+dfsg-1*%
%TF.CreationDate,2026-07-17T01:09:15+02:00*%
%TF.ProjectId,chumby-breakout,6368756d-6279-42d6-9272-65616b6f7574,rev?*%
%TF.SameCoordinates,Original*%
%TF.FileFunction,Copper,L1,Top*%
%TF.FilePolarity,Positive*%
%FSLAX46Y46*%
G04 Gerber Fmt 4.6, Leading zero omitted, Abs format (unit mm)*
G04 Created by KiCad (PCBNEW 9.0.2+dfsg-1) date 2026-07-17 01:09:15*
%MOMM*%
%LPD*%
G01*
G04 APERTURE LIST*
G04 Aperture macros list*
%AMRoundRect*
0 Rectangle with rounded corners*
0 $1 Rounding radius*
0 $2 $3 $4 $5 $6 $7 $8 $9 X,Y pos of 4 corners*
0 Add a 4 corners polygon primitive as box body*
4,1,4,$2,$3,$4,$5,$6,$7,$8,$9,$2,$3,0*
0 Add four circle primitives for the rounded corners*
1,1,$1+$1,$2,$3*
1,1,$1+$1,$4,$5*
1,1,$1+$1,$6,$7*
1,1,$1+$1,$8,$9*
0 Add four rect primitives between the rounded corners*
20,1,$1+$1,$2,$3,$4,$5,0*
20,1,$1+$1,$4,$5,$6,$7,0*
20,1,$1+$1,$6,$7,$8,$9,0*
20,1,$1+$1,$8,$9,$2,$3,0*%
G04 Aperture macros list end*
%TA.AperFunction,ComponentPad*%
%ADD10C,0.800000*%
%TD*%
%TA.AperFunction,ComponentPad*%
%ADD11C,6.400000*%
%TD*%
%TA.AperFunction,ComponentPad*%
%ADD12R,1.524000X1.524000*%
%TD*%
%TA.AperFunction,ComponentPad*%
%ADD13C,1.524000*%
%TD*%
%TA.AperFunction,ComponentPad*%
%ADD14C,3.500000*%
%TD*%
%TA.AperFunction,ComponentPad*%
%ADD15R,1.700000X1.700000*%
%TD*%
%TA.AperFunction,ComponentPad*%
%ADD16C,1.700000*%
%TD*%
%TA.AperFunction,SMDPad,CuDef*%
%ADD17RoundRect,0.300000X-0.300000X0.700000X-0.300000X-0.700000X0.300000X-0.700000X0.300000X0.700000X0*%
%TD*%
%TA.AperFunction,HeatsinkPad*%
%ADD18O,1.300000X3.200000*%
%TD*%
%TA.AperFunction,ComponentPad*%
%ADD19RoundRect,0.250000X0.600000X-0.600000X0.600000X0.600000X-0.600000X0.600000X-0.600000X-0.600000X0*%
%TD*%
%TA.AperFunction,ComponentPad*%
%ADD20RoundRect,0.250000X0.350000X0.625000X-0.350000X0.625000X-0.350000X-0.625000X0.350000X-0.625000X0*%
%TD*%
%TA.AperFunction,ComponentPad*%
%ADD21O,1.200000X1.750000*%
%TD*%
%TA.AperFunction,ComponentPad*%
%ADD22R,3.000000X3.000000*%
%TD*%
%TA.AperFunction,ComponentPad*%
%ADD23C,3.000000*%
%TD*%
%TA.AperFunction,ViaPad*%
%ADD24C,0.700000*%
%TD*%
%TA.AperFunction,Conductor*%
%ADD25C,0.400000*%
%TD*%
%TA.AperFunction,Conductor*%
%ADD26C,0.300000*%
%TD*%
G04 APERTURE END LIST*
D10*
%TO.P,H1,1*%
%TO.N,GND*%
X97100000Y-84500000D03*
X97802944Y-82802944D03*
X97802944Y-86197056D03*
X99500000Y-82100000D03*
D11*
X99500000Y-84500000D03*
D10*
X99500000Y-86900000D03*
X101197056Y-82802944D03*
X101197056Y-86197056D03*
X101900000Y-84500000D03*
%TD*%
D12*
%TO.P,J3,1*%
%TO.N,+5V*%
X179500000Y-89855000D03*
D13*
%TO.P,J3,2*%
%TO.N,unconnected-(J3-D--Pad2)*%
X177000000Y-89855000D03*
%TO.P,J3,3*%
%TO.N,unconnected-(J3-D+-Pad3)*%
X175000000Y-89855000D03*
%TO.P,J3,4*%
%TO.N,GND*%
X172500000Y-89855000D03*
D14*
%TO.P,J3,5*%
X182675000Y-87145000D03*
X169325000Y-87145000D03*
%TD*%
D15*
%TO.P,J2,1*%
%TO.N,+3V3*%
X104760000Y-129270000D03*
D16*
%TO.P,J2,2*%
%TO.N,CHUMBY_BEND*%
X104760000Y-126730000D03*
%TO.P,J2,3*%
%TO.N,CSPI1_MOSI*%
X107300000Y-129270000D03*
%TO.P,J2,4*%
%TO.N,GND*%
X107300000Y-126730000D03*
%TO.P,J2,5*%
%TO.N,CSPI1_MISO*%
X109840000Y-129270000D03*
%TO.P,J2,6*%
%TO.N,CHUMBY_RESET_REQ*%
X109840000Y-126730000D03*
%TO.P,J2,7*%
%TO.N,CSPI1_SCLK*%
X112380000Y-129270000D03*
%TO.P,J2,8*%
%TO.N,CSPI1_SS0*%
X112380000Y-126730000D03*
%TO.P,J2,9*%
%TO.N,GND*%
X114920000Y-129270000D03*
%TO.P,J2,10*%
%TO.N,CSPI1_SS1*%
X114920000Y-126730000D03*
%TD*%
D17*
%TO.P,J5,1*%
%TO.N,unconnected-(J5-VBUS-Pad1)*%
X188500000Y-126700000D03*
%TO.P,J5,2*%
%TO.N,USBB2_DN*%
X186000000Y-126700000D03*
%TO.P,J5,3*%
%TO.N,USBB2_DP*%
X184000000Y-126700000D03*
%TO.P,J5,4*%
%TO.N,GND*%
X181500000Y-126700000D03*
D18*
%TO.P,J5,5*%
X190850000Y-129300000D03*
X179150000Y-129300000D03*
%TD*%
D10*
%TO.P,H3,1*%
%TO.N,GND*%
X97100000Y-130500000D03*
X97802944Y-128802944D03*
X97802944Y-132197056D03*
X99500000Y-128100000D03*
D11*
X99500000Y-130500000D03*
D10*
X99500000Y-132900000D03*
X101197056Y-128802944D03*
X101197056Y-132197056D03*
X101900000Y-130500000D03*
%TD*%
D17*
%TO.P,J4,1*%
%TO.N,unconnected-(J4-VBUS-Pad1)*%
X172500000Y-126700000D03*
%TO.P,J4,2*%
%TO.N,USBB_DN*%
X170000000Y-126700000D03*
%TO.P,J4,3*%
%TO.N,USBB_DP*%
X168000000Y-126700000D03*
%TO.P,J4,4*%
%TO.N,GND*%
X165500000Y-126700000D03*
D18*
%TO.P,J4,5*%
X174850000Y-129300000D03*
X163150000Y-129300000D03*
%TD*%
D19*
%TO.P,P1,1*%
%TO.N,unconnected-(P1-Pin_1-Pad1)*%
X109840000Y-88770000D03*
D16*
%TO.P,P1,2*%
%TO.N,+5V*%
X109840000Y-86230000D03*
%TO.P,P1,3*%
%TO.N,CSPI1_MISO*%
X112380000Y-88770000D03*
%TO.P,P1,4*%
%TO.N,CSPI1_SCLK*%
X112380000Y-86230000D03*
%TO.P,P1,5*%
%TO.N,CSPI1_MOSI*%
X114920000Y-88770000D03*
%TO.P,P1,6*%
%TO.N,CSPI1_SS0*%
X114920000Y-86230000D03*
%TO.P,P1,7*%
%TO.N,CHUMBY_RESET_REQ*%
X117460000Y-88770000D03*
%TO.P,P1,8*%
%TO.N,CSPI1_SS1*%
X117460000Y-86230000D03*
%TO.P,P1,9*%
%TO.N,+3V3*%
X120000000Y-88770000D03*
%TO.P,P1,10*%
%TO.N,unconnected-(P1-Pin_10-Pad10)*%
X120000000Y-86230000D03*
%TO.P,P1,11*%
%TO.N,USBB_DN*%
X122540000Y-88770000D03*
%TO.P,P1,12*%
%TO.N,USBB_DP*%
X122540000Y-86230000D03*
%TO.P,P1,13*%
%TO.N,USBB2_DN*%
X125080000Y-88770000D03*
%TO.P,P1,14*%
%TO.N,USBB2_DP*%
X125080000Y-86230000D03*
%TO.P,P1,15*%
%TO.N,CHUMBY_BEND*%
X127620000Y-88770000D03*
%TO.P,P1,16*%
%TO.N,+5V*%
X127620000Y-86230000D03*
%TO.P,P1,17*%
%TO.N,HP_NOTIN*%
X130160000Y-88770000D03*
%TO.P,P1,18*%
%TO.N,HPLEFT*%
X130160000Y-86230000D03*
%TO.P,P1,19*%
%TO.N,unconnected-(P1-Pin_19-Pad19)*%
X132700000Y-88770000D03*
%TO.P,P1,20*%
%TO.N,HPRIGHT*%
X132700000Y-86230000D03*
%TO.P,P1,21*%
%TO.N,SPKL_VO2*%
X135240000Y-88770000D03*
%TO.P,P1,22*%
%TO.N,SPKR_VO2*%
X135240000Y-86230000D03*
%TO.P,P1,23*%
%TO.N,SPKL_VO1*%
X137780000Y-88770000D03*
%TO.P,P1,24*%
%TO.N,SPKR_VO1*%
X137780000Y-86230000D03*
%TO.P,P1,25*%
%TO.N,GND*%
X140320000Y-88770000D03*
%TO.P,P1,26*%
X140320000Y-86230000D03*
%TD*%
D20*
%TO.P,J7,1*%
%TO.N,SPKL_VO1*%
X133000000Y-128500000D03*
D21*
%TO.P,J7,2*%
%TO.N,SPKL_VO2*%
X131000000Y-128500000D03*
%TO.P,J7,3*%
%TO.N,SPKR_VO1*%
X129000000Y-128500000D03*
%TO.P,J7,4*%
%TO.N,SPKR_VO2*%
X127000000Y-128500000D03*
%TD*%
D10*
%TO.P,H2,1*%
%TO.N,GND*%
X188100000Y-84500000D03*
X188802944Y-82802944D03*
X188802944Y-86197056D03*
X190500000Y-82100000D03*
D11*
X190500000Y-84500000D03*
D10*
X190500000Y-86900000D03*
X192197056Y-82802944D03*
X192197056Y-86197056D03*
X192900000Y-84500000D03*
%TD*%
D22*
%TO.P,J6,1*%
%TO.N,HPLEFT*%
X138880000Y-128000000D03*
D23*
%TO.P,J6,2*%
%TO.N,HPRIGHT*%
X143960000Y-128000000D03*
%TO.P,J6,3*%
%TO.N,GND*%
X149040000Y-128000000D03*
%TO.P,J6,4*%
%TO.N,HP_NOTIN*%
X154120000Y-128000000D03*
%TD*%
D24*
%TO.N,+3V3*%
X120000000Y-100000000D03*
X106030000Y-100000000D03*
%TO.N,+5V*%
X179500000Y-102400000D03*
X128890000Y-101200000D03*
X179500000Y-101200000D03*
X111110000Y-102400000D03*
%TO.N,CHUMBY_BEND*%
X104760000Y-103600000D03*
X127620000Y-103600000D03*
%TO.N,CHUMBY_RESET_REQ*%
X117460000Y-104800000D03*
X109840000Y-104800000D03*
%TO.N,CSPI1_MISO*%
X111110000Y-116800000D03*
X112380000Y-116800000D03*
%TO.N,CSPI1_MOSI*%
X108570000Y-106000000D03*
X114920000Y-106000000D03*
%TO.N,CSPI1_SCLK*%
X113650000Y-107200000D03*
X113650000Y-107200000D03*
%TO.N,CSPI1_SS0*%
X116190000Y-121600000D03*
X112380000Y-121600000D03*
%TO.N,CSPI1_SS1*%
X114920000Y-118000000D03*
X118730000Y-118000000D03*
%TO.N,HPLEFT*%
X138880000Y-122800000D03*
X131430000Y-122800000D03*
%TO.N,HPRIGHT*%
X143960000Y-108400000D03*
X133970000Y-108400000D03*
%TO.N,HP_NOTIN*%
X154120000Y-109600000D03*
X130160000Y-109600000D03*
%TO.N,SPKL_VO1*%
X137780000Y-110800000D03*
X133000000Y-110800000D03*
%TO.N,SPKL_VO2*%
X135240000Y-124000000D03*
X131000000Y-124000000D03*
%TO.N,SPKR_VO1*%
X139050000Y-119200000D03*
X129000000Y-119200000D03*
%TO.N,SPKR_VO2*%
X136510000Y-120400000D03*
X127000000Y-120400000D03*
%TO.N,USBB2_DN*%
X125080000Y-112000000D03*
X186000000Y-112000000D03*
%TO.N,USBB2_DP*%
X126350000Y-113200000D03*
X184000000Y-113200000D03*
%TO.N,USBB_DN*%
X170000000Y-114400000D03*
X122540000Y-114400000D03*
%TO.N,USBB_DP*%
X168000000Y-115600000D03*
X123810000Y-115600000D03*
%TD*%
D25*
%TO.N,+3V3*%
X104760000Y-129270000D02*
X106030000Y-128000000D01*
X120000000Y-88770000D02*
X120000000Y-100000000D01*
X106030000Y-128000000D02*
X106030000Y-100000000D01*
%TO.N,+5V*%
X127620000Y-86230000D02*
X128890000Y-87500000D01*
X179500000Y-89855000D02*
X179500000Y-101200000D01*
X109840000Y-86230000D02*
X111110000Y-87500000D01*
X179500000Y-89855000D02*
X179500000Y-102400000D01*
X111110000Y-87500000D02*
X111110000Y-102400000D01*
X128890000Y-87500000D02*
X128890000Y-101200000D01*
D26*
%TO.N,CHUMBY_BEND*%
X127620000Y-88770000D02*
X127620000Y-103600000D01*
X104760000Y-126730000D02*
X104760000Y-103600000D01*
%TO.N,CHUMBY_RESET_REQ*%
X109840000Y-126730000D02*
X109840000Y-104800000D01*
X117460000Y-88770000D02*
X117460000Y-104800000D01*
%TO.N,CSPI1_MISO*%
X109840000Y-129270000D02*
X111110000Y-128000000D01*
X111110000Y-128000000D02*
X111110000Y-116800000D01*
X112380000Y-88770000D02*
X112380000Y-116800000D01*
%TO.N,CSPI1_MOSI*%
X108570000Y-128000000D02*
X108570000Y-106000000D01*
X107300000Y-129270000D02*
X108570000Y-128000000D01*
X114920000Y-88770000D02*
X114920000Y-106000000D01*
%TO.N,CSPI1_SCLK*%
X113650000Y-128000000D02*
X113650000Y-107200000D01*
X113650000Y-87500000D02*
X113650000Y-107200000D01*
X112380000Y-86230000D02*
X113650000Y-87500000D01*
X112380000Y-129270000D02*
X113650000Y-128000000D01*
%TO.N,CSPI1_SS0*%
X116190000Y-87500000D02*
X116190000Y-121600000D01*
X114920000Y-86230000D02*
X116190000Y-87500000D01*
X112380000Y-126730000D02*
X112380000Y-121600000D01*
%TO.N,CSPI1_SS1*%
X117460000Y-86230000D02*
X118730000Y-87500000D01*
X114920000Y-126730000D02*
X114920000Y-118000000D01*
X118730000Y-87500000D02*
X118730000Y-118000000D01*
%TO.N,HPLEFT*%
X138880000Y-128000000D02*
X138880000Y-122800000D01*
X131430000Y-87500000D02*
X131430000Y-122800000D01*
X130160000Y-86230000D02*
X131430000Y-87500000D01*
%TO.N,HPRIGHT*%
X132700000Y-86230000D02*
X133970000Y-87500000D01*
X143960000Y-128000000D02*
X143960000Y-108400000D01*
X133970000Y-87500000D02*
X133970000Y-108400000D01*
%TO.N,HP_NOTIN*%
X130160000Y-88770000D02*
X130160000Y-109600000D01*
X154120000Y-128000000D02*
X154120000Y-109600000D01*
%TO.N,SPKL_VO1*%
X133000000Y-128500000D02*
X133000000Y-110800000D01*
X137780000Y-88770000D02*
X137780000Y-110800000D01*
%TO.N,SPKL_VO2*%
X135240000Y-88770000D02*
X135240000Y-124000000D01*
X131000000Y-128500000D02*
X131000000Y-124000000D01*
%TO.N,SPKR_VO1*%
X137780000Y-86230000D02*
X139050000Y-87500000D01*
X129000000Y-128500000D02*
X129000000Y-119200000D01*
X139050000Y-87500000D02*
X139050000Y-119200000D01*
%TO.N,SPKR_VO2*%
X135240000Y-86230000D02*
X136510000Y-87500000D01*
X136510000Y-87500000D02*
X136510000Y-120400000D01*
X127000000Y-128500000D02*
X127000000Y-120400000D01*
%TO.N,USBB2_DN*%
X125080000Y-88770000D02*
X125080000Y-112000000D01*
X186000000Y-126700000D02*
X186000000Y-112000000D01*
%TO.N,USBB2_DP*%
X184000000Y-126700000D02*
X184000000Y-113200000D01*
X126350000Y-87500000D02*
X126350000Y-113200000D01*
X125080000Y-86230000D02*
X126350000Y-87500000D01*
%TO.N,USBB_DN*%
X170000000Y-126700000D02*
X170000000Y-114400000D01*
X122540000Y-88770000D02*
X122540000Y-114400000D01*
%TO.N,USBB_DP*%
X168000000Y-126700000D02*
X168000000Y-115600000D01*
X122540000Y-86230000D02*
X123810000Y-87500000D01*
X123810000Y-87500000D02*
X123810000Y-115600000D01*
%TD*%
%TA.AperFunction,Conductor*%
%TO.N,GND*%
G36*
X194943039Y-80019685D02*
G01*
X194988794Y-80072489D01*
X195000000Y-80124000D01*
X195000000Y-134876000D01*
X194980315Y-134943039D01*
X194927511Y-134988794D01*
X194876000Y-135000000D01*
X95124000Y-135000000D01*
X95056961Y-134980315D01*
X95011206Y-134927511D01*
X95000000Y-134876000D01*
X95000000Y-126623713D01*
X103409500Y-126623713D01*
X103409500Y-126836286D01*
X103429195Y-126960639D01*
X103442754Y-127046243D01*
X103500920Y-127225260D01*
X103508444Y-127248414D01*
X103604951Y-127437820D01*
X103729890Y-127609786D01*
X103843430Y-127723326D01*
X103876915Y-127784649D01*
X103871931Y-127854341D01*
X103830059Y-127910274D01*
X103799083Y-127927189D01*
X103667669Y-127976203D01*
X103667664Y-127976206D01*
X103552455Y-128062452D01*
X103552452Y-128062455D01*
X103466206Y-128177664D01*
X103466202Y-128177671D01*
X103415908Y-128312517D01*
X103409501Y-128372116D01*
X103409500Y-128372135D01*
X103409500Y-130167870D01*
X103409501Y-130167876D01*
X103415908Y-130227483D01*
X103466202Y-130362328D01*
X103466206Y-130362335D01*
X103552452Y-130477544D01*
X103552455Y-130477547D01*
X103667664Y-130563793D01*
X103667671Y-130563797D01*
X103802517Y-130614091D01*
X103802516Y-130614091D01*
X103809444Y-130614835D01*
X103862127Y-130620500D01*
X105657872Y-130620499D01*
X105717483Y-130614091D01*
X105852331Y-130563796D01*
X105967546Y-130477546D01*
X106053796Y-130362331D01*
X106102810Y-130230916D01*
X106144681Y-130174984D01*
X106210145Y-130150566D01*
X106278418Y-130165417D01*
X106306673Y-130186569D01*
X106420213Y-130300109D01*
X106592179Y-130425048D01*
X106592181Y-130425049D01*
X106592184Y-130425051D01*
X106781588Y-130521557D01*
X106983757Y-130587246D01*
X107193713Y-130620500D01*
X107193714Y-130620500D01*
X107406286Y-130620500D01*
X107406287Y-130620500D01*
X107616243Y-130587246D01*
X107818412Y-130521557D01*
X108007816Y-130425051D01*
X108094138Y-130362335D01*
X108179786Y-130300109D01*
X108179788Y-130300106D01*
X108179792Y-130300104D01*
X108330104Y-130149792D01*
X108330106Y-130149788D01*
X108330109Y-130149786D01*
X108455048Y-129977820D01*
X108455047Y-129977820D01*
X108455051Y-129977816D01*
X108459514Y-129969054D01*
X108507488Y-129918259D01*
X108575308Y-129901463D01*
X108641444Y-129923999D01*
X108680486Y-129969056D01*
X108684951Y-129977820D01*
X108809890Y-130149786D01*
X108960213Y-130300109D01*
X109132179Y-130425048D01*
X109132181Y-130425049D01*
X109132184Y-130425051D01*
X109321588Y-130521557D01*
X109523757Y-130587246D01*
X109733713Y-130620500D01*
X109733714Y-130620500D01*
X109946286Y-130620500D01*
X109946287Y-130620500D01*
X110156243Y-130587246D01*
X110358412Y-130521557D01*
X110547816Y-130425051D01*
X110634138Y-130362335D01*
X110719786Y-130300109D01*
X110719788Y-130300106D01*
X110719792Y-130300104D01*
X110870104Y-130149792D01*
X110870106Y-130149788D01*
X110870109Y-130149786D01*
X110995048Y-129977820D01*
X110995047Y-129977820D01*
X110995051Y-129977816D01*
X110999514Y-129969054D01*
X111047488Y-129918259D01*
X111115308Y-129901463D01*
X111181444Y-129923999D01*
X111220486Y-129969056D01*
X111224951Y-129977820D01*
X111349890Y-130149786D01*
X111500213Y-130300109D01*
X111672179Y-130425048D01*
X111672181Y-130425049D01*
X111672184Y-130425051D01*
X111861588Y-130521557D01*
X112063757Y-130587246D01*
X112273713Y-130620500D01*
X112273714Y-130620500D01*
X112486286Y-130620500D01*
X112486287Y-130620500D01*
X112696243Y-130587246D01*
X112898412Y-130521557D01*
X113087816Y-130425051D01*
X113174138Y-130362335D01*
X113259786Y-130300109D01*
X113259788Y-130300106D01*
X113259792Y-130300104D01*
X113410104Y-130149792D01*
X113410106Y-130149788D01*
X113410109Y-130149786D01*
X113495890Y-130031717D01*
X113535051Y-129977816D01*
X113539793Y-129968508D01*
X113587763Y-129917711D01*
X113655583Y-129900911D01*
X113721719Y-129923445D01*
X113760763Y-129968500D01*
X113765373Y-129977547D01*
X113804728Y-130031716D01*
X114437037Y-129399408D01*
X114454075Y-129462993D01*
X114519901Y-129577007D01*
X114612993Y-129670099D01*
X114727007Y-129735925D01*
X114790590Y-129752962D01*
X114158282Y-130385269D01*
X114158282Y-130385270D01*
X114212449Y-130424624D01*
X114401782Y-130521095D01*
X114603870Y-130586757D01*
X114813754Y-130620000D01*
X115026246Y-130620000D01*
X115236127Y-130586757D01*
X115236130Y-130586757D01*
X115438217Y-130521095D01*
X115627554Y-130424622D01*
X115681716Y-130385270D01*
X115681717Y-130385270D01*
X115049408Y-129752962D01*
X115112993Y-129735925D01*
X115227007Y-129670099D01*
X115320099Y-129577007D01*
X115385925Y-129462993D01*
X115402962Y-129399408D01*
X116035270Y-130031717D01*
X116035270Y-130031716D01*
X116074622Y-129977554D01*
X116171095Y-129788217D01*
X116236757Y-129586130D01*
X116236757Y-129586127D01*
X116270000Y-129376246D01*
X116270000Y-129163753D01*
X116236757Y-128953872D01*
X116236757Y-128953869D01*
X116171095Y-128751782D01*
X116074624Y-128562449D01*
X116035270Y-128508282D01*
X116035269Y-128508282D01*
X115402962Y-129140590D01*
X115385925Y-129077007D01*
X115320099Y-128962993D01*
X115227007Y-128869901D01*
X115112993Y-128804075D01*
X115049408Y-128787037D01*
X115681716Y-128154728D01*
X115627547Y-128115373D01*
X115627547Y-128115372D01*
X115618500Y-128110763D01*
X115567706Y-128062788D01*
X115550912Y-127994966D01*
X115573451Y-127928832D01*
X115618508Y-127889793D01*
X115627816Y-127885051D01*
X115741367Y-127802552D01*
X115799786Y-127760109D01*
X115799788Y-127760106D01*
X115799792Y-127760104D01*
X115950104Y-127609792D01*
X115950106Y-127609788D01*
X115950109Y-127609786D01*
X116069861Y-127444960D01*
X116075051Y-127437816D01*
X116171557Y-127248412D01*
X116237246Y-127046243D01*
X116270500Y-126836287D01*
X116270500Y-126623713D01*
X116237246Y-126413757D01*
X116171557Y-126211588D01*
X116075051Y-126022184D01*
X116075049Y-126022181D01*
X116075048Y-126022179D01*
X115950109Y-125850213D01*
X115799786Y-125699890D01*
X115623875Y-125572085D01*
X115624851Y-125570740D01*
X115582834Y-125524295D01*
X115570500Y-125470382D01*
X115570500Y-122440938D01*
X115590185Y-122373899D01*
X115642989Y-122328144D01*
X115712147Y-122318200D01*
X115763389Y-122337835D01*
X115787137Y-122353703D01*
X115941918Y-122417816D01*
X116106228Y-122450499D01*
X116106232Y-122450500D01*
X116106233Y-122450500D01*
X116273768Y-122450500D01*
X116273769Y-122450499D01*
X116438082Y-122417816D01*
X116592863Y-122353703D01*
X116732162Y-122260626D01*
X116850626Y-122142162D01*
X116943703Y-122002863D01*
X117007816Y-121848082D01*
X117040500Y-121683767D01*
X117040500Y-121516233D01*
X117007816Y-121351918D01*
X116943703Y-121197137D01*
X116861398Y-121073959D01*
X116840520Y-121007281D01*
X116840500Y-121005068D01*
X116840500Y-105640938D01*
X116860185Y-105573899D01*
X116912989Y-105528144D01*
X116982147Y-105518200D01*
X117033389Y-105537835D01*
X117057137Y-105553703D01*
X117211918Y-105617816D01*
X117376228Y-105650499D01*
X117376232Y-105650500D01*
X117376233Y-105650500D01*
X117543768Y-105650500D01*
X117543769Y-105650499D01*
X117708082Y-105617816D01*
X117862863Y-105553703D01*
X117886610Y-105537835D01*
X117953286Y-105516958D01*
X118020667Y-105535442D01*
X118067357Y-105587421D01*
X118079500Y-105640938D01*
X118079500Y-117405068D01*
X118059815Y-117472107D01*
X118058602Y-117473959D01*
X117976295Y-117597139D01*
X117912184Y-117751917D01*
X117912182Y-117751925D01*
X117879500Y-117916228D01*
X117879500Y-118083771D01*
X117912182Y-118248074D01*
X117912184Y-118248082D01*
X117976295Y-118402860D01*
X118069373Y-118542162D01*
X118187837Y-118660626D01*
X118280494Y-118722537D01*
X118327137Y-118753703D01*
X118481918Y-118817816D01*
X118646228Y-118850499D01*
X118646232Y-118850500D01*
X118646233Y-118850500D01*
X118813768Y-118850500D01*
X118813769Y-118850499D01*
X118978082Y-118817816D01*
X119132863Y-118753703D01*
X119272162Y-118660626D01*
X119390626Y-118542162D01*
X119483703Y-118402863D01*
X119547816Y-118248082D01*
X119580500Y-118083767D01*
X119580500Y-117916233D01*
X119547816Y-117751918D01*
X119483703Y-117597137D01*
X119401398Y-117473959D01*
X119380520Y-117407281D01*
X119380500Y-117405068D01*
X119380500Y-100840938D01*
X119400185Y-100773899D01*
X119452989Y-100728144D01*
X119522147Y-100718200D01*
X119573389Y-100737835D01*
X119597137Y-100753703D01*
X119751918Y-100817816D01*
X119916228Y-100850499D01*
X119916232Y-100850500D01*
X119916233Y-100850500D01*
X120083768Y-100850500D01*
X120083769Y-100850499D01*
X120248082Y-100817816D01*
X120402863Y-100753703D01*
X120542162Y-100660626D01*
X120660626Y-100542162D01*
X120753703Y-100402863D01*
X120817816Y-100248082D01*
X120850500Y-100083767D01*
X120850500Y-99916233D01*
X120817816Y-99751918D01*
X120753703Y-99597137D01*
X120753701Y-99597134D01*
X120753699Y-99597130D01*
X120721398Y-99548788D01*
X120700520Y-99482110D01*
X120700500Y-99479897D01*
X120700500Y-89993547D01*
X120720185Y-89926508D01*
X120751614Y-89893230D01*
X120879792Y-89800104D01*
X121030104Y-89649792D01*
X121030106Y-89649788D01*
X121030109Y-89649786D01*
X121155048Y-89477820D01*
X121155047Y-89477820D01*
X121155051Y-89477816D01*
X121159514Y-89469054D01*
X121207488Y-89418259D01*
X121275308Y-89401463D01*
X121341444Y-89423999D01*
X121380486Y-89469056D01*
X121384951Y-89477820D01*
X121509890Y-89649786D01*
X121509896Y-89649792D01*
X121660208Y-89800104D01*
X121832184Y-89925051D01*
X121832188Y-89925053D01*
X121836126Y-89927914D01*
X121835146Y-89929262D01*
X121877160Y-89975690D01*
X121889500Y-90029617D01*
X121889500Y-113805068D01*
X121869815Y-113872107D01*
X121868602Y-113873959D01*
X121786295Y-113997139D01*
X121722184Y-114151917D01*
X121722182Y-114151925D01*
X121689500Y-114316228D01*
X121689500Y-114483771D01*
X121722182Y-114648074D01*
X121722184Y-114648082D01*
X121786295Y-114802860D01*
X121879373Y-114942162D01*
X121997837Y-115060626D01*
X122090494Y-115122537D01*
X122137137Y-115153703D01*
X122291918Y-115217816D01*
X122456228Y-115250499D01*
X122456232Y-115250500D01*
X122456233Y-115250500D01*
X122623768Y-115250500D01*
X122623769Y-115250499D01*
X122788082Y-115217816D01*
X122825821Y-115202183D01*
X122895289Y-115194714D01*
X122957768Y-115225988D01*
X122993422Y-115286076D01*
X122992093Y-115345688D01*
X122993372Y-115345943D01*
X122959500Y-115516228D01*
X122959500Y-115683771D01*
X122992182Y-115848074D01*
X122992184Y-115848082D01*
X123056295Y-116002860D01*
X123149373Y-116142162D01*
X123267837Y-116260626D01*
X123360494Y-116322537D01*
X123407137Y-116353703D01*
X123561918Y-116417816D01*
X123726228Y-116450499D01*
X123726232Y-116450500D01*
X123726233Y-116450500D01*
X123893768Y-116450500D01*
X123893769Y-116450499D01*
X124058082Y-116417816D01*
X124212863Y-116353703D01*
X124352162Y-116260626D01*
X124470626Y-116142162D01*
X124563703Y-116002863D01*
X124627816Y-115848082D01*
X124660500Y-115683767D01*
X124660500Y-115516233D01*
X124627816Y-115351918D01*
X124563703Y-115197137D01*
X124481398Y-115073959D01*
X124460520Y-115007281D01*
X124460500Y-115005068D01*
X124460500Y-112840938D01*
X124480185Y-112773899D01*
X124532989Y-112728144D01*
X124602147Y-112718200D01*
X124653389Y-112737835D01*
X124677137Y-112753703D01*
X124831918Y-112817816D01*
X124996228Y-112850499D01*
X124996232Y-112850500D01*
X124996233Y-112850500D01*
X125163768Y-112850500D01*
X125163769Y-112850499D01*
X125328082Y-112817816D01*
X125365821Y-112802183D01*
X125435289Y-112794714D01*
X125497768Y-112825988D01*
X125533422Y-112886076D01*
X125532093Y-112945688D01*
X125533372Y-112945943D01*
X125499500Y-113116228D01*
X125499500Y-113283771D01*
X125532182Y-113448074D01*
X125532184Y-113448082D01*
X125596295Y-113602860D01*
X125689373Y-113742162D01*
X125807837Y-113860626D01*
X125900494Y-113922537D01*
X125947137Y-113953703D01*
X126101918Y-114017816D01*
X126266228Y-114050499D01*
X126266232Y-114050500D01*
X126266233Y-114050500D01*
X126433768Y-114050500D01*
X126433769Y-114050499D01*
X126598082Y-114017816D01*
X126752863Y-113953703D01*
X126892162Y-113860626D01*
X127010626Y-113742162D01*
X127103703Y-113602863D01*
X127167816Y-113448082D01*
X127200500Y-113283767D01*
X127200500Y-113116233D01*
X127167816Y-112951918D01*
X127103703Y-112797137D01*
X127021398Y-112673959D01*
X127000520Y-112607281D01*
X127000500Y-112605068D01*
X127000500Y-104440938D01*
X127020185Y-104373899D01*
X127072989Y-104328144D01*
X127142147Y-104318200D01*
X127193389Y-104337835D01*
X127217137Y-104353703D01*
X127371918Y-104417816D01*
X127536228Y-104450499D01*
X127536232Y-104450500D01*
X127536233Y-104450500D01*
X127703768Y-104450500D01*
X127703769Y-104450499D01*
X127868082Y-104417816D01*
X128022863Y-104353703D01*
X128162162Y-104260626D01*
X128280626Y-104142162D01*
X128373703Y-104002863D01*
X128437816Y-103848082D01*
X128470500Y-103683767D01*
X128470500Y-103516233D01*
X128437816Y-103351918D01*
X128373703Y-103197137D01*
X128291398Y-103073959D01*
X128270520Y-103007281D01*
X128270500Y-103005068D01*
X128270500Y-102040938D01*
X128290185Y-101973899D01*
X128342989Y-101928144D01*
X128412147Y-101918200D01*
X128463389Y-101937835D01*
X128487137Y-101953703D01*
X128641918Y-102017816D01*
X128806228Y-102050499D01*
X128806232Y-102050500D01*
X128806233Y-102050500D01*
X128973768Y-102050500D01*
X128973769Y-102050499D01*
X129138082Y-102017816D01*
X129292863Y-101953703D01*
X129316610Y-101937835D01*
X129383286Y-101916958D01*
X129450667Y-101935442D01*
X129497357Y-101987421D01*
X129509500Y-102040938D01*
X129509500Y-109005068D01*
X129489815Y-109072107D01*
X129488602Y-109073959D01*
X129406295Y-109197139D01*
X129342184Y-109351917D01*
X129342182Y-109351925D01*
X129309500Y-109516228D01*
X129309500Y-109683771D01*
X129342182Y-109848074D01*
X129342184Y-109848082D01*
X129406295Y-110002860D01*
X129499373Y-110142162D01*
X129617837Y-110260626D01*
X129684827Y-110305387D01*
X129757137Y-110353703D01*
X129911918Y-110417816D01*
X130076228Y-110450499D01*
X130076232Y-110450500D01*
X130076233Y-110450500D01*
X130243768Y-110450500D01*
X130243769Y-110450499D01*
X130408082Y-110417816D01*
X130562863Y-110353703D01*
X130586610Y-110337835D01*
X130653286Y-110316958D01*
X130720667Y-110335442D01*
X130767357Y-110387421D01*
X130779500Y-110440938D01*
X130779500Y-122205068D01*
X130759815Y-122272107D01*
X130758602Y-122273959D01*
X130676295Y-122397139D01*
X130612184Y-122551917D01*
X130612182Y-122551925D01*
X130579500Y-122716228D01*
X130579500Y-122883771D01*
X130612182Y-123048074D01*
X130612184Y-123048082D01*
X130634284Y-123101436D01*
X130641753Y-123170906D01*
X130610478Y-123233385D01*
X130588614Y-123251991D01*
X130457838Y-123339373D01*
X130457834Y-123339376D01*
X130339373Y-123457837D01*
X130246295Y-123597139D01*
X130182184Y-123751917D01*
X130182182Y-123751925D01*
X130149500Y-123916228D01*
X130149500Y-124083771D01*
X130182182Y-124248074D01*
X130182184Y-124248082D01*
X130246295Y-124402860D01*
X130328602Y-124526040D01*
X130349480Y-124592717D01*
X130349500Y-124594931D01*
X130349500Y-127274142D01*
X130329815Y-127341181D01*
X130298387Y-127374459D01*
X130283072Y-127385585D01*
X130160588Y-127508069D01*
X130160581Y-127508078D01*
X130100317Y-127591023D01*
X130044987Y-127633689D01*
X129975374Y-127639667D01*
X129913579Y-127607061D01*
X129899683Y-127591023D01*
X129851899Y-127525257D01*
X129839414Y-127508072D01*
X129716928Y-127385586D01*
X129701612Y-127374458D01*
X129658948Y-127319128D01*
X129650500Y-127274142D01*
X129650500Y-119794931D01*
X129670185Y-119727892D01*
X129671398Y-119726040D01*
X129753703Y-119602863D01*
X129817816Y-119448082D01*
X129850500Y-119283767D01*
X129850500Y-119116233D01*
X129817816Y-118951918D01*
X129753703Y-118797137D01*
X129671398Y-118673959D01*
X129660626Y-118657837D01*
X129542162Y-118539373D01*
X129402860Y-118446295D01*
X129248082Y-118382184D01*
X129248074Y-118382182D01*
X129083771Y-118349500D01*
X129083767Y-118349500D01*
X128916233Y-118349500D01*
X128916228Y-118349500D01*
X128751925Y-118382182D01*
X128751917Y-118382184D01*
X128597139Y-118446295D01*
X128457837Y-118539373D01*
X128339373Y-118657837D01*
X128246295Y-118797139D01*
X128182184Y-118951917D01*
X128182182Y-118951925D01*
X128149500Y-119116228D01*
X128149500Y-119283771D01*
X128182182Y-119448074D01*
X128182184Y-119448082D01*
X128246295Y-119602860D01*
X128246296Y-119602862D01*
X128246297Y-119602863D01*
X128275317Y-119646295D01*
X128328602Y-119726040D01*
X128349480Y-119792717D01*
X128349500Y-119794931D01*
X128349500Y-127274142D01*
X128329815Y-127341181D01*
X128298387Y-127374459D01*
X128283072Y-127385585D01*
X128160588Y-127508069D01*
X128160581Y-127508078D01*
X128100317Y-127591023D01*
X128044987Y-127633689D01*
X127975374Y-127639667D01*
X127913579Y-127607061D01*
X127899683Y-127591023D01*
X127851899Y-127525257D01*
X127839414Y-127508072D01*
X127716928Y-127385586D01*
X127701612Y-127374458D01*
X127658948Y-127319128D01*
X127650500Y-127274142D01*
X127650500Y-120994931D01*
X127670185Y-120927892D01*
X127671398Y-120926040D01*
X127753703Y-120802863D01*
X127817816Y-120648082D01*
X127850500Y-120483767D01*
X127850500Y-120316233D01*
X127817816Y-120151918D01*
X127753703Y-119997137D01*
X127671398Y-119873959D01*
X127660626Y-119857837D01*
X127542162Y-119739373D01*
X127402860Y-119646295D01*
X127248082Y-119582184D01*
X127248074Y-119582182D01*
X127083771Y-119549500D01*
X127083767Y-119549500D01*
X126916233Y-119549500D01*
X126916228Y-119549500D01*
X126751925Y-119582182D01*
X126751917Y-119582184D01*
X126597139Y-119646295D01*
X126457837Y-119739373D01*
X126339373Y-119857837D01*
X126246295Y-119997139D01*
X126182184Y-120151917D01*
X126182182Y-120151925D01*
X126149500Y-120316228D01*
X126149500Y-120483771D01*
X126182182Y-120648074D01*
X126182184Y-120648082D01*
X126246295Y-120802860D01*
X126246296Y-120802862D01*
X126246297Y-120802863D01*
X126299870Y-120883041D01*
X126328602Y-120926040D01*
X126349480Y-120992717D01*
X126349500Y-120994931D01*
X126349500Y-127274142D01*
X126329815Y-127341181D01*
X126298387Y-127374459D01*
X126283072Y-127385585D01*
X126160588Y-127508069D01*
X126160588Y-127508070D01*
X126160586Y-127508072D01*
X126147361Y-127526275D01*
X126058768Y-127648211D01*
X125980128Y-127802552D01*
X125926597Y-127967302D01*
X125903145Y-128115373D01*
X125899500Y-128138389D01*
X125899500Y-128861611D01*
X125926598Y-129032701D01*
X125980127Y-129197445D01*
X126058768Y-129351788D01*
X126160586Y-129491928D01*
X126283072Y-129614414D01*
X126423212Y-129716232D01*
X126577555Y-129794873D01*
X126742299Y-129848402D01*
X126913389Y-129875500D01*
X126913390Y-129875500D01*
X127086610Y-129875500D01*
X127086611Y-129875500D01*
X127257701Y-129848402D01*
X127422445Y-129794873D01*
X127576788Y-129716232D01*
X127716928Y-129614414D01*
X127839414Y-129491928D01*
X127899682Y-129408975D01*
X127955012Y-129366311D01*
X128024626Y-129360332D01*
X128086421Y-129392938D01*
X128100315Y-129408973D01*
X128160586Y-129491928D01*
X128283072Y-129614414D01*
X128423212Y-129716232D01*
X128577555Y-129794873D01*
X128742299Y-129848402D01*
X128913389Y-129875500D01*
X128913390Y-129875500D01*
X129086610Y-129875500D01*
X129086611Y-129875500D01*
X129257701Y-129848402D01*
X129422445Y-129794873D01*
X129576788Y-129716232D01*
X129716928Y-129614414D01*
X129839414Y-129491928D01*
X129899682Y-129408975D01*
X129955012Y-129366311D01*
X130024626Y-129360332D01*
X130086421Y-129392938D01*
X130100315Y-129408973D01*
X130160586Y-129491928D01*
X130283072Y-129614414D01*
X130423212Y-129716232D01*
X130577555Y-129794873D01*
X130742299Y-129848402D01*
X130913389Y-129875500D01*
X130913390Y-129875500D01*
X131086610Y-129875500D01*
X131086611Y-129875500D01*
X131257701Y-129848402D01*
X131422445Y-129794873D01*
X131576788Y-129716232D01*
X131716928Y-129614414D01*
X131824472Y-129506869D01*
X131885791Y-129473387D01*
X131955483Y-129478371D01*
X132011417Y-129520242D01*
X132017688Y-129529456D01*
X132057285Y-129593652D01*
X132057288Y-129593656D01*
X132181344Y-129717712D01*
X132330666Y-129809814D01*
X132497203Y-129864999D01*
X132599991Y-129875500D01*
X133400008Y-129875499D01*
X133400016Y-129875498D01*
X133400019Y-129875498D01*
X133456302Y-129869748D01*
X133502797Y-129864999D01*
X133669334Y-129809814D01*
X133818656Y-129717712D01*
X133942712Y-129593656D01*
X134034814Y-129444334D01*
X134089999Y-129277797D01*
X134100500Y-129175009D01*
X134100499Y-127824992D01*
X134089999Y-127722203D01*
X134034814Y-127555666D01*
X133942712Y-127406344D01*
X133818656Y-127282288D01*
X133709402Y-127214900D01*
X133662679Y-127162953D01*
X133650500Y-127109362D01*
X133650500Y-126452135D01*
X136879500Y-126452135D01*
X136879500Y-129547870D01*
X136879501Y-129547876D01*
X136885908Y-129607483D01*
X136936202Y-129742328D01*
X136936206Y-129742335D01*
X137022452Y-129857544D01*
X137022455Y-129857547D01*
X137137664Y-129943793D01*
X137137671Y-129943797D01*
X137272517Y-129994091D01*
X137272516Y-129994091D01*
X137279444Y-129994835D01*
X137332127Y-130000500D01*
X140427872Y-130000499D01*
X140487483Y-129994091D01*
X140622331Y-129943796D01*
X140737546Y-129857546D01*
X140823796Y-129742331D01*
X140874091Y-129607483D01*
X140880500Y-129547873D01*
X140880499Y-127868872D01*
X141959500Y-127868872D01*
X141959500Y-128131127D01*
X141982804Y-128308127D01*
X141993730Y-128391116D01*
X142047109Y-128590330D01*
X142061602Y-128644418D01*
X142061605Y-128644428D01*
X142161953Y-128886690D01*
X142161958Y-128886700D01*
X142293075Y-129113803D01*
X142452718Y-129321851D01*
X142452726Y-129321860D01*
X142638140Y-129507274D01*
X142638148Y-129507281D01*
X142846196Y-129666924D01*
X143073299Y-129798041D01*
X143073309Y-129798046D01*
X143315571Y-129898394D01*
X143315581Y-129898398D01*
X143568884Y-129966270D01*
X143817188Y-129998960D01*
X143828864Y-130000498D01*
X143828880Y-130000500D01*
X143828887Y-130000500D01*
X144091113Y-130000500D01*
X144091120Y-130000500D01*
X144351116Y-129966270D01*
X144604419Y-129898398D01*
X144846697Y-129798043D01*
X145073803Y-129666924D01*
X145281851Y-129507282D01*
X145281855Y-129507277D01*
X145281860Y-129507274D01*
X145467274Y-129321860D01*
X145467277Y-129321855D01*
X145467282Y-129321851D01*
X145626924Y-129113803D01*
X145758043Y-128886697D01*
X145858398Y-128644419D01*
X145926270Y-128391116D01*
X145960500Y-128131120D01*
X145960500Y-127868905D01*
X147040000Y-127868905D01*
X147040000Y-128131094D01*
X147074220Y-128391009D01*
X147074222Y-128391020D01*
X147142075Y-128644255D01*
X147242404Y-128886471D01*
X147242409Y-128886482D01*
X147373488Y-129113516D01*
X147373494Y-129113524D01*
X147460080Y-129226365D01*
X148354767Y-128331677D01*
X148366497Y-128359995D01*
X148449670Y-128484472D01*
X148555528Y-128590330D01*
X148680005Y-128673503D01*
X148708320Y-128685231D01*
X147813633Y-129579917D01*
X147813633Y-129579918D01*
X147926475Y-129666505D01*
X147926483Y-129666511D01*
X148153517Y-129797590D01*
X148153528Y-129797595D01*
X148395744Y-129897924D01*
X148648979Y-129965777D01*
X148648990Y-129965779D01*
X148908905Y-129999999D01*
X148908920Y-130000000D01*
X149171080Y-130000000D01*
X149171094Y-129999999D01*
X149431009Y-129965779D01*
X149431020Y-129965777D01*
X149684255Y-129897924D01*
X149926471Y-129797595D01*
X149926482Y-129797590D01*
X150153516Y-129666511D01*
X150153534Y-129666499D01*
X150266365Y-129579919D01*
X150266365Y-129579917D01*
X149371679Y-128685231D01*
X149399995Y-128673503D01*
X149524472Y-128590330D01*
X149630330Y-128484472D01*
X149713503Y-128359995D01*
X149725231Y-128331679D01*
X150619917Y-129226365D01*
X150619919Y-129226365D01*
X150706499Y-129113534D01*
X150706511Y-129113516D01*
X150837590Y-128886482D01*
X150837595Y-128886471D01*
X150937924Y-128644255D01*
X151005777Y-128391020D01*
X151005779Y-128391009D01*
X151039999Y-128131094D01*
X151040000Y-128131080D01*
X151040000Y-127868912D01*
X151039995Y-127868872D01*
X152119500Y-127868872D01*
X152119500Y-128131127D01*
X152142804Y-128308127D01*
X152153730Y-128391116D01*
X152207109Y-128590330D01*
X152221602Y-128644418D01*
X152221605Y-128644428D01*
X152321953Y-128886690D01*
X152321958Y-128886700D01*
X152453075Y-129113803D01*
X152612718Y-129321851D01*
X152612726Y-129321860D01*
X152798140Y-129507274D01*
X152798148Y-129507281D01*
X153006196Y-129666924D01*
X153233299Y-129798041D01*
X153233309Y-129798046D01*
X153475571Y-129898394D01*
X153475581Y-129898398D01*
X153728884Y-129966270D01*
X153977188Y-129998960D01*
X153988864Y-130000498D01*
X153988880Y-130000500D01*
X153988887Y-130000500D01*
X154251113Y-130000500D01*
X154251120Y-130000500D01*
X154511116Y-129966270D01*
X154764419Y-129898398D01*
X155006697Y-129798043D01*
X155233803Y-129666924D01*
X155441851Y-129507282D01*
X155441855Y-129507277D01*
X155441860Y-129507274D01*
X155627274Y-129321860D01*
X155627277Y-129321855D01*
X155627282Y-129321851D01*
X155786924Y-129113803D01*
X155918043Y-128886697D01*
X156018398Y-128644419D01*
X156086270Y-128391116D01*
X156103599Y-128259493D01*
X162000000Y-128259493D01*
X162000000Y-129050000D01*
X162800000Y-129050000D01*
X162800000Y-129550000D01*
X162000000Y-129550000D01*
X162000000Y-130340506D01*
X162028317Y-130519293D01*
X162084251Y-130691444D01*
X162084252Y-130691447D01*
X162166434Y-130852734D01*
X162272823Y-130999169D01*
X162400830Y-131127176D01*
X162547265Y-131233565D01*
X162708552Y-131315747D01*
X162708555Y-131315748D01*
X162880699Y-131371680D01*
X162880712Y-131371683D01*
X162900000Y-131374738D01*
X162900000Y-130444975D01*
X162935095Y-130480070D01*
X163014905Y-130526148D01*
X163103922Y-130550000D01*
X163196078Y-130550000D01*
X163285095Y-130526148D01*
X163364905Y-130480070D01*
X163400000Y-130444975D01*
X163400000Y-131374737D01*
X163419287Y-131371683D01*
X163419300Y-131371680D01*
X163591444Y-131315748D01*
X163591447Y-131315747D01*
X163752734Y-131233565D01*
X163899169Y-131127176D01*
X164027176Y-130999169D01*
X164133565Y-130852734D01*
X164215747Y-130691447D01*
X164215748Y-130691444D01*
X164271682Y-130519293D01*
X164300000Y-130340506D01*
X164300000Y-129550000D01*
X163500000Y-129550000D01*
X163500000Y-129050000D01*
X164300000Y-129050000D01*
X164300000Y-128259493D01*
X173700000Y-128259493D01*
X173700000Y-129050000D01*
X174500000Y-129050000D01*
X174500000Y-129550000D01*
X173700000Y-129550000D01*
X173700000Y-130340506D01*
X173728317Y-130519293D01*
X173784251Y-130691444D01*
X173784252Y-130691447D01*
X173866434Y-130852734D01*
X173972823Y-130999169D01*
X174100830Y-131127176D01*
X174247265Y-131233565D01*
X174408552Y-131315747D01*
X174408555Y-131315748D01*
X174580699Y-131371680D01*
X174580712Y-131371683D01*
X174600000Y-131374738D01*
X174600000Y-130444975D01*
X174635095Y-130480070D01*
X174714905Y-130526148D01*
X174803922Y-130550000D01*
X174896078Y-130550000D01*
X174985095Y-130526148D01*
X175064905Y-130480070D01*
X175100000Y-130444975D01*
X175100000Y-131374737D01*
X175119287Y-131371683D01*
X175119300Y-131371680D01*
X175291444Y-131315748D01*
X175291447Y-131315747D01*
X175452734Y-131233565D01*
X175599169Y-131127176D01*
X175727176Y-130999169D01*
X175833565Y-130852734D01*
X175915747Y-130691447D01*
X175915748Y-130691444D01*
X175971682Y-130519293D01*
X176000000Y-130340506D01*
X176000000Y-129550000D01*
X175200000Y-129550000D01*
X175200000Y-129050000D01*
X176000000Y-129050000D01*
X176000000Y-128259493D01*
X178000000Y-128259493D01*
X178000000Y-129050000D01*
X178800000Y-129050000D01*
X178800000Y-129550000D01*
X178000000Y-129550000D01*
X178000000Y-130340506D01*
X178028317Y-130519293D01*
X178084251Y-130691444D01*
X178084252Y-130691447D01*
X178166434Y-130852734D01*
X178272823Y-130999169D01*
X178400830Y-131127176D01*
X178547265Y-131233565D01*
X178708552Y-131315747D01*
X178708555Y-131315748D01*
X178880699Y-131371680D01*
X178880712Y-131371683D01*
X178900000Y-131374738D01*
X178900000Y-130444975D01*
X178935095Y-130480070D01*
X179014905Y-130526148D01*
X179103922Y-130550000D01*
X179196078Y-130550000D01*
X179285095Y-130526148D01*
X179364905Y-130480070D01*
X179400000Y-130444975D01*
X179400000Y-131374737D01*
X179419287Y-131371683D01*
X179419300Y-131371680D01*
X179591444Y-131315748D01*
X179591447Y-131315747D01*
X179752734Y-131233565D01*
X179899169Y-131127176D01*
X180027176Y-130999169D01*
X180133565Y-130852734D01*
X180215747Y-130691447D01*
X180215748Y-130691444D01*
X180271682Y-130519293D01*
X180300000Y-130340506D01*
X180300000Y-129550000D01*
X179500000Y-129550000D01*
X179500000Y-129050000D01*
X180300000Y-129050000D01*
X180300000Y-128259493D01*
X189700000Y-128259493D01*
X189700000Y-129050000D01*
X190500000Y-129050000D01*
X190500000Y-129550000D01*
X189700000Y-129550000D01*
X189700000Y-130340506D01*
X189728317Y-130519293D01*
X189784251Y-130691444D01*
X189784252Y-130691447D01*
X189866434Y-130852734D01*
X189972823Y-130999169D01*
X190100830Y-131127176D01*
X190247265Y-131233565D01*
X190408552Y-131315747D01*
X190408555Y-131315748D01*
X190580699Y-131371680D01*
X190580712Y-131371683D01*
X190600000Y-131374738D01*
X190600000Y-130444975D01*
X190635095Y-130480070D01*
X190714905Y-130526148D01*
X190803922Y-130550000D01*
X190896078Y-130550000D01*
X190985095Y-130526148D01*
X191064905Y-130480070D01*
X191100000Y-130444975D01*
X191100000Y-131374737D01*
X191119287Y-131371683D01*
X191119300Y-131371680D01*
X191291444Y-131315748D01*
X191291447Y-131315747D01*
X191452734Y-131233565D01*
X191599169Y-131127176D01*
X191727176Y-130999169D01*
X191833565Y-130852734D01*
X191915747Y-130691447D01*
X191915748Y-130691444D01*
X191971682Y-130519293D01*
X192000000Y-130340506D01*
X192000000Y-129550000D01*
X191200000Y-129550000D01*
X191200000Y-129050000D01*
X192000000Y-129050000D01*
X192000000Y-128259493D01*
X191971682Y-128080706D01*
X191915748Y-127908555D01*
X191915747Y-127908552D01*
X191833565Y-127747265D01*
X191727176Y-127600830D01*
X191599169Y-127472823D01*
X191452734Y-127366434D01*
X191291447Y-127284252D01*
X191291441Y-127284250D01*
X191119295Y-127228318D01*
X191119285Y-127228315D01*
X191100000Y-127225260D01*
X191100000Y-128155025D01*
X191064905Y-128119930D01*
X190985095Y-128073852D01*
X190896078Y-128050000D01*
X190803922Y-128050000D01*
X190714905Y-128073852D01*
X190635095Y-128119930D01*
X190600000Y-128155025D01*
X190600000Y-127225260D01*
X190580714Y-127228315D01*
X190580704Y-127228318D01*
X190408558Y-127284250D01*
X190408552Y-127284252D01*
X190247265Y-127366434D01*
X190100830Y-127472823D01*
X189972823Y-127600830D01*
X189866434Y-127747265D01*
X189784252Y-127908552D01*
X189784251Y-127908555D01*
X189728317Y-128080706D01*
X189700000Y-128259493D01*
X180300000Y-128259493D01*
X180271682Y-128080706D01*
X180215748Y-127908555D01*
X180215747Y-127908552D01*
X180133565Y-127747265D01*
X180027176Y-127600830D01*
X179899169Y-127472823D01*
X179860777Y-127444930D01*
X180400000Y-127444930D01*
X180415122Y-127579141D01*
X180474663Y-127749301D01*
X180570577Y-127901948D01*
X180698051Y-128029422D01*
X180850698Y-128125336D01*
X181020858Y-128184877D01*
X181155069Y-128199999D01*
X181155070Y-128200000D01*
X181250000Y-128200000D01*
X181750000Y-128200000D01*
X181844930Y-128200000D01*
X181844930Y-128199999D01*
X181979141Y-128184877D01*
X182149301Y-128125336D01*
X182301948Y-128029422D01*
X182429422Y-127901948D01*
X182525336Y-127749301D01*
X182584877Y-127579141D01*
X182599999Y-127444930D01*
X182600000Y-127444930D01*
X182600000Y-126950000D01*
X181750000Y-126950000D01*
X181750000Y-128200000D01*
X181250000Y-128200000D01*
X181250000Y-126950000D01*
X180400000Y-126950000D01*
X180400000Y-127444930D01*
X179860777Y-127444930D01*
X179752734Y-127366434D01*
X179591447Y-127284252D01*
X179591441Y-127284250D01*
X179419295Y-127228318D01*
X179419285Y-127228315D01*
X179400000Y-127225260D01*
X179400000Y-128155025D01*
X179364905Y-128119930D01*
X179285095Y-128073852D01*
X179196078Y-128050000D01*
X179103922Y-128050000D01*
X179014905Y-128073852D01*
X178935095Y-128119930D01*
X178900000Y-128155025D01*
X178900000Y-127225260D01*
X178880714Y-127228315D01*
X178880704Y-127228318D01*
X178708558Y-127284250D01*
X178708552Y-127284252D01*
X178547265Y-127366434D01*
X178400830Y-127472823D01*
X178272823Y-127600830D01*
X178166434Y-127747265D01*
X178084252Y-127908552D01*
X178084251Y-127908555D01*
X178028317Y-128080706D01*
X178000000Y-128259493D01*
X176000000Y-128259493D01*
X175971682Y-128080706D01*
X175915748Y-127908555D01*
X175915747Y-127908552D01*
X175833565Y-127747265D01*
X175727176Y-127600830D01*
X175599169Y-127472823D01*
X175452734Y-127366434D01*
X175291447Y-127284252D01*
X175291441Y-127284250D01*
X175119295Y-127228318D01*
X175119285Y-127228315D01*
X175100000Y-127225260D01*
X175100000Y-128155025D01*
X175064905Y-128119930D01*
X174985095Y-128073852D01*
X174896078Y-128050000D01*
X174803922Y-128050000D01*
X174714905Y-128073852D01*
X174635095Y-128119930D01*
X174600000Y-128155025D01*
X174600000Y-127225260D01*
X174580714Y-127228315D01*
X174580704Y-127228318D01*
X174408558Y-127284250D01*
X174408552Y-127284252D01*
X174247265Y-127366434D01*
X174100830Y-127472823D01*
X173972823Y-127600830D01*
X173866434Y-127747265D01*
X173784252Y-127908552D01*
X173784251Y-127908555D01*
X173728317Y-128080706D01*
X173700000Y-128259493D01*
X164300000Y-128259493D01*
X164271682Y-128080706D01*
X164215748Y-127908555D01*
X164215747Y-127908552D01*
X164133565Y-127747265D01*
X164027176Y-127600830D01*
X163899169Y-127472823D01*
X163860777Y-127444930D01*
X164400000Y-127444930D01*
X164415122Y-127579141D01*
X164474663Y-127749301D01*
X164570577Y-127901948D01*
X164698051Y-128029422D01*
X164850698Y-128125336D01*
X165020858Y-128184877D01*
X165155069Y-128199999D01*
X165155070Y-128200000D01*
X165250000Y-128200000D01*
X165750000Y-128200000D01*
X165844930Y-128200000D01*
X165844930Y-128199999D01*
X165979141Y-128184877D01*
X166149301Y-128125336D01*
X166301948Y-128029422D01*
X166429422Y-127901948D01*
X166525336Y-127749301D01*
X166584877Y-127579141D01*
X166599999Y-127444930D01*
X166600000Y-127444930D01*
X166600000Y-126950000D01*
X165750000Y-126950000D01*
X165750000Y-128200000D01*
X165250000Y-128200000D01*
X165250000Y-126950000D01*
X164400000Y-126950000D01*
X164400000Y-127444930D01*
X163860777Y-127444930D01*
X163752734Y-127366434D01*
X163591447Y-127284252D01*
X163591441Y-127284250D01*
X163419295Y-127228318D01*
X163419285Y-127228315D01*
X163400000Y-127225260D01*
X163400000Y-128155025D01*
X163364905Y-128119930D01*
X163285095Y-128073852D01*
X163196078Y-128050000D01*
X163103922Y-128050000D01*
X163014905Y-128073852D01*
X162935095Y-128119930D01*
X162900000Y-128155025D01*
X162900000Y-127225260D01*
X162880714Y-127228315D01*
X162880704Y-127228318D01*
X162708558Y-127284250D01*
X162708552Y-127284252D01*
X162547265Y-127366434D01*
X162400830Y-127472823D01*
X162272823Y-127600830D01*
X162166434Y-127747265D01*
X162084252Y-127908552D01*
X162084251Y-127908555D01*
X162028317Y-128080706D01*
X162000000Y-128259493D01*
X156103599Y-128259493D01*
X156120500Y-128131120D01*
X156120500Y-127868880D01*
X156086270Y-127608884D01*
X156018398Y-127355581D01*
X155996764Y-127303351D01*
X155918046Y-127113309D01*
X155918037Y-127113292D01*
X155829904Y-126960639D01*
X155829903Y-126960638D01*
X155786924Y-126886196D01*
X155627281Y-126678148D01*
X155627274Y-126678140D01*
X155441860Y-126492726D01*
X155441851Y-126492718D01*
X155233803Y-126333075D01*
X155006700Y-126201958D01*
X155006690Y-126201953D01*
X154847047Y-126135827D01*
X154831481Y-126123283D01*
X154813297Y-126114979D01*
X154804832Y-126101808D01*
X154792644Y-126091986D01*
X154786331Y-126073018D01*
X154775523Y-126056201D01*
X154771560Y-126028640D01*
X154770579Y-126025692D01*
X154770500Y-126021266D01*
X154770500Y-125955069D01*
X164400000Y-125955069D01*
X164400000Y-126450000D01*
X165250000Y-126450000D01*
X165750000Y-126450000D01*
X166600000Y-126450000D01*
X166600000Y-125955084D01*
X166599998Y-125955054D01*
X166599996Y-125955039D01*
X166899500Y-125955039D01*
X166899500Y-127444960D01*
X166914630Y-127579249D01*
X166914631Y-127579254D01*
X166974211Y-127749523D01*
X167040073Y-127854341D01*
X167070184Y-127902262D01*
X167197738Y-128029816D01*
X167350478Y-128125789D01*
X167386487Y-128138389D01*
X167520745Y-128185368D01*
X167520750Y-128185369D01*
X167611246Y-128195565D01*
X167655040Y-128200499D01*
X167655043Y-128200500D01*
X167655046Y-128200500D01*
X168344957Y-128200500D01*
X168344958Y-128200499D01*
X168412104Y-128192934D01*
X168479249Y-128185369D01*
X168479252Y-128185368D01*
X168479255Y-128185368D01*
X168649522Y-128125789D01*
X168802262Y-128029816D01*
X168912319Y-127919759D01*
X168973642Y-127886274D01*
X169043334Y-127891258D01*
X169087681Y-127919759D01*
X169197738Y-128029816D01*
X169350478Y-128125789D01*
X169386487Y-128138389D01*
X169520745Y-128185368D01*
X169520750Y-128185369D01*
X169611246Y-128195565D01*
X169655040Y-128200499D01*
X169655043Y-128200500D01*
X169655046Y-128200500D01*
X170344957Y-128200500D01*
X170344958Y-128200499D01*
X170412104Y-128192934D01*
X170479249Y-128185369D01*
X170479252Y-128185368D01*
X170479255Y-128185368D01*
X170649522Y-128125789D01*
X170802262Y-128029816D01*
X170929816Y-127902262D01*
X171025789Y-127749522D01*
X171085368Y-127579255D01*
X171100500Y-127444954D01*
X171100500Y-125955046D01*
X171100499Y-125955039D01*
X171399500Y-125955039D01*
X171399500Y-127444960D01*
X171414630Y-127579249D01*
X171414631Y-127579254D01*
X171474211Y-127749523D01*
X171540073Y-127854341D01*
X171570184Y-127902262D01*
X171697738Y-128029816D01*
X171850478Y-128125789D01*
X171886487Y-128138389D01*
X172020745Y-128185368D01*
X172020750Y-128185369D01*
X172111246Y-128195565D01*
X172155040Y-128200499D01*
X172155043Y-128200500D01*
X172155046Y-128200500D01*
X172844957Y-128200500D01*
X172844958Y-128200499D01*
X172912104Y-128192934D01*
X172979249Y-128185369D01*
X172979252Y-128185368D01*
X172979255Y-128185368D01*
X173149522Y-128125789D01*
X173302262Y-128029816D01*
X173429816Y-127902262D01*
X173525789Y-127749522D01*
X173585368Y-127579255D01*
X173600500Y-127444954D01*
X173600500Y-125955069D01*
X180400000Y-125955069D01*
X180400000Y-126450000D01*
X181250000Y-126450000D01*
X181750000Y-126450000D01*
X182600000Y-126450000D01*
X182600000Y-125955084D01*
X182599998Y-125955054D01*
X182599996Y-125955039D01*
X182899500Y-125955039D01*
X182899500Y-127444960D01*
X182914630Y-127579249D01*
X182914631Y-127579254D01*
X182974211Y-127749523D01*
X183040073Y-127854341D01*
X183070184Y-127902262D01*
X183197738Y-128029816D01*
X183350478Y-128125789D01*
X183386487Y-128138389D01*
X183520745Y-128185368D01*
X183520750Y-128185369D01*
X183611246Y-128195565D01*
X183655040Y-128200499D01*
X183655043Y-128200500D01*
X183655046Y-128200500D01*
X184344957Y-128200500D01*
X184344958Y-128200499D01*
X184412104Y-128192934D01*
X184479249Y-128185369D01*
X184479252Y-128185368D01*
X184479255Y-128185368D01*
X184649522Y-128125789D01*
X184802262Y-128029816D01*
X184912319Y-127919759D01*
X184973642Y-127886274D01*
X185043334Y-127891258D01*
X185087681Y-127919759D01*
X185197738Y-128029816D01*
X185350478Y-128125789D01*
X185386487Y-128138389D01*
X185520745Y-128185368D01*
X185520750Y-128185369D01*
X185611246Y-128195565D01*
X185655040Y-128200499D01*
X185655043Y-128200500D01*
X185655046Y-128200500D01*
X186344957Y-128200500D01*
X186344958Y-128200499D01*
X186412104Y-128192934D01*
X186479249Y-128185369D01*
X186479252Y-128185368D01*
X186479255Y-128185368D01*
X186649522Y-128125789D01*
X186802262Y-128029816D01*
X186929816Y-127902262D01*
X187025789Y-127749522D01*
X187085368Y-127579255D01*
X187100500Y-127444954D01*
X187100500Y-125955046D01*
X187100499Y-125955039D01*
X187399500Y-125955039D01*
X187399500Y-127444960D01*
X187414630Y-127579249D01*
X187414631Y-127579254D01*
X187474211Y-127749523D01*
X187540073Y-127854341D01*
X187570184Y-127902262D01*
X187697738Y-128029816D01*
X187850478Y-128125789D01*
X187886487Y-128138389D01*
X188020745Y-128185368D01*
X188020750Y-128185369D01*
X188111246Y-128195565D01*
X188155040Y-128200499D01*
X188155043Y-128200500D01*
X188155046Y-128200500D01*
X188844957Y-128200500D01*
X188844958Y-128200499D01*
X188912104Y-128192934D01*
X188979249Y-128185369D01*
X188979252Y-128185368D01*
X188979255Y-128185368D01*
X189149522Y-128125789D01*
X189302262Y-128029816D01*
X189429816Y-127902262D01*
X189525789Y-127749522D01*
X189585368Y-127579255D01*
X189600500Y-127444954D01*
X189600500Y-125955046D01*
X189595565Y-125911246D01*
X189585369Y-125820750D01*
X189585368Y-125820745D01*
X189525788Y-125650476D01*
X189459981Y-125545745D01*
X189429816Y-125497738D01*
X189302262Y-125370184D01*
X189263837Y-125346040D01*
X189149523Y-125274211D01*
X188979254Y-125214631D01*
X188979249Y-125214630D01*
X188844960Y-125199500D01*
X188844954Y-125199500D01*
X188155046Y-125199500D01*
X188155039Y-125199500D01*
X188020750Y-125214630D01*
X188020745Y-125214631D01*
X187850476Y-125274211D01*
X187697737Y-125370184D01*
X187570184Y-125497737D01*
X187474211Y-125650476D01*
X187414631Y-125820745D01*
X187414630Y-125820750D01*
X187399500Y-125955039D01*
X187100499Y-125955039D01*
X187095565Y-125911246D01*
X187085369Y-125820750D01*
X187085368Y-125820745D01*
X187025788Y-125650476D01*
X186959981Y-125545745D01*
X186929816Y-125497738D01*
X186802262Y-125370184D01*
X186802260Y-125370182D01*
X186802258Y-125370181D01*
X186708527Y-125311285D01*
X186662237Y-125258951D01*
X186650500Y-125206292D01*
X186650500Y-112594931D01*
X186670185Y-112527892D01*
X186671398Y-112526040D01*
X186753703Y-112402863D01*
X186817816Y-112248082D01*
X186850500Y-112083767D01*
X186850500Y-111916233D01*
X186817816Y-111751918D01*
X186753703Y-111597137D01*
X186700129Y-111516958D01*
X186660626Y-111457837D01*
X186542162Y-111339373D01*
X186402860Y-111246295D01*
X186248082Y-111182184D01*
X186248074Y-111182182D01*
X186083771Y-111149500D01*
X186083767Y-111149500D01*
X185916233Y-111149500D01*
X185916228Y-111149500D01*
X185751925Y-111182182D01*
X185751917Y-111182184D01*
X185597139Y-111246295D01*
X185457837Y-111339373D01*
X185339373Y-111457837D01*
X185246295Y-111597139D01*
X185182184Y-111751917D01*
X185182182Y-111751925D01*
X185149500Y-111916228D01*
X185149500Y-112083771D01*
X185182182Y-112248074D01*
X185182184Y-112248082D01*
X185246295Y-112402860D01*
X185246296Y-112402862D01*
X185246297Y-112402863D01*
X185275317Y-112446295D01*
X185328602Y-112526040D01*
X185349480Y-112592717D01*
X185349500Y-112594931D01*
X185349500Y-125206292D01*
X185329815Y-125273331D01*
X185291473Y-125311285D01*
X185197741Y-125370181D01*
X185197739Y-125370182D01*
X185087681Y-125480241D01*
X185026358Y-125513726D01*
X184956666Y-125508742D01*
X184912319Y-125480241D01*
X184802260Y-125370182D01*
X184802258Y-125370181D01*
X184708527Y-125311285D01*
X184662237Y-125258951D01*
X184650500Y-125206292D01*
X184650500Y-113794931D01*
X184670185Y-113727892D01*
X184671398Y-113726040D01*
X184753703Y-113602863D01*
X184817816Y-113448082D01*
X184850500Y-113283767D01*
X184850500Y-113116233D01*
X184817816Y-112951918D01*
X184753703Y-112797137D01*
X184671398Y-112673959D01*
X184660626Y-112657837D01*
X184542162Y-112539373D01*
X184402860Y-112446295D01*
X184248082Y-112382184D01*
X184248074Y-112382182D01*
X184083771Y-112349500D01*
X184083767Y-112349500D01*
X183916233Y-112349500D01*
X183916228Y-112349500D01*
X183751925Y-112382182D01*
X183751917Y-112382184D01*
X183597139Y-112446295D01*
X183457837Y-112539373D01*
X183339373Y-112657837D01*
X183246295Y-112797139D01*
X183182184Y-112951917D01*
X183182182Y-112951925D01*
X183149500Y-113116228D01*
X183149500Y-113283771D01*
X183182182Y-113448074D01*
X183182184Y-113448082D01*
X183246295Y-113602860D01*
X183246296Y-113602862D01*
X183246297Y-113602863D01*
X183275317Y-113646295D01*
X183328602Y-113726040D01*
X183349480Y-113792717D01*
X183349500Y-113794931D01*
X183349500Y-125206292D01*
X183329815Y-125273331D01*
X183291473Y-125311285D01*
X183197741Y-125370181D01*
X183197739Y-125370182D01*
X183070184Y-125497737D01*
X182974211Y-125650476D01*
X182914631Y-125820745D01*
X182914630Y-125820750D01*
X182899500Y-125955039D01*
X182599996Y-125955039D01*
X182584877Y-125820858D01*
X182525336Y-125650698D01*
X182429422Y-125498051D01*
X182301948Y-125370577D01*
X182149301Y-125274663D01*
X181979141Y-125215122D01*
X181844930Y-125200000D01*
X181750000Y-125200000D01*
X181750000Y-126450000D01*
X181250000Y-126450000D01*
X181250000Y-125200000D01*
X181155070Y-125200000D01*
X181020858Y-125215122D01*
X180850698Y-125274663D01*
X180698051Y-125370577D01*
X180570577Y-125498051D01*
X180474663Y-125650698D01*
X180415122Y-125820858D01*
X180400000Y-125955069D01*
X173600500Y-125955069D01*
X173600500Y-125955046D01*
X173595565Y-125911246D01*
X173585369Y-125820750D01*
X173585368Y-125820745D01*
X173525788Y-125650476D01*
X173459981Y-125545745D01*
X173429816Y-125497738D01*
X173302262Y-125370184D01*
X173263837Y-125346040D01*
X173149523Y-125274211D01*
X172979254Y-125214631D01*
X172979249Y-125214630D01*
X172844960Y-125199500D01*
X172844954Y-125199500D01*
X172155046Y-125199500D01*
X172155039Y-125199500D01*
X172020750Y-125214630D01*
X172020745Y-125214631D01*
X171850476Y-125274211D01*
X171697737Y-125370184D01*
X171570184Y-125497737D01*
X171474211Y-125650476D01*
X171414631Y-125820745D01*
X171414630Y-125820750D01*
X171399500Y-125955039D01*
X171100499Y-125955039D01*
X171095565Y-125911246D01*
X171085369Y-125820750D01*
X171085368Y-125820745D01*
X171025788Y-125650476D01*
X170959981Y-125545745D01*
X170929816Y-125497738D01*
X170802262Y-125370184D01*
X170802260Y-125370182D01*
X170802258Y-125370181D01*
X170708527Y-125311285D01*
X170662237Y-125258951D01*
X170650500Y-125206292D01*
X170650500Y-114994931D01*
X170670185Y-114927892D01*
X170671398Y-114926040D01*
X170753703Y-114802863D01*
X170817816Y-114648082D01*
X170850500Y-114483767D01*
X170850500Y-114316233D01*
X170817816Y-114151918D01*
X170753703Y-113997137D01*
X170671398Y-113873959D01*
X170660626Y-113857837D01*
X170542162Y-113739373D01*
X170402860Y-113646295D01*
X170248082Y-113582184D01*
X170248074Y-113582182D01*
X170083771Y-113549500D01*
X170083767Y-113549500D01*
X169916233Y-113549500D01*
X169916228Y-113549500D01*
X169751925Y-113582182D01*
X169751917Y-113582184D01*
X169597139Y-113646295D01*
X169457837Y-113739373D01*
X169339373Y-113857837D01*
X169246295Y-113997139D01*
X169182184Y-114151917D01*
X169182182Y-114151925D01*
X169149500Y-114316228D01*
X169149500Y-114483771D01*
X169182182Y-114648074D01*
X169182184Y-114648082D01*
X169246295Y-114802860D01*
X169246296Y-114802862D01*
X169246297Y-114802863D01*
X169275317Y-114846295D01*
X169328602Y-114926040D01*
X169349480Y-114992717D01*
X169349500Y-114994931D01*
X169349500Y-125206292D01*
X169329815Y-125273331D01*
X169291473Y-125311285D01*
X169197741Y-125370181D01*
X169197739Y-125370182D01*
X169087681Y-125480241D01*
X169026358Y-125513726D01*
X168956666Y-125508742D01*
X168912319Y-125480241D01*
X168802260Y-125370182D01*
X168802258Y-125370181D01*
X168708527Y-125311285D01*
X168662237Y-125258951D01*
X168650500Y-125206292D01*
X168650500Y-116194931D01*
X168670185Y-116127892D01*
X168671398Y-116126040D01*
X168753703Y-116002863D01*
X168817816Y-115848082D01*
X168850500Y-115683767D01*
X168850500Y-115516233D01*
X168817816Y-115351918D01*
X168753703Y-115197137D01*
X168671398Y-115073959D01*
X168660626Y-115057837D01*
X168542162Y-114939373D01*
X168402860Y-114846295D01*
X168248082Y-114782184D01*
X168248074Y-114782182D01*
X168083771Y-114749500D01*
X168083767Y-114749500D01*
X167916233Y-114749500D01*
X167916228Y-114749500D01*
X167751925Y-114782182D01*
X167751917Y-114782184D01*
X167597139Y-114846295D01*
X167457837Y-114939373D01*
X167339373Y-115057837D01*
X167246295Y-115197139D01*
X167182184Y-115351917D01*
X167182182Y-115351925D01*
X167149500Y-115516228D01*
X167149500Y-115683771D01*
X167182182Y-115848074D01*
X167182184Y-115848082D01*
X167246295Y-116002860D01*
X167246296Y-116002862D01*
X167246297Y-116002863D01*
X167299870Y-116083041D01*
X167328602Y-116126040D01*
X167349480Y-116192717D01*
X167349500Y-116194931D01*
X167349500Y-125206292D01*
X167329815Y-125273331D01*
X167291473Y-125311285D01*
X167197741Y-125370181D01*
X167197739Y-125370182D01*
X167070184Y-125497737D01*
X166974211Y-125650476D01*
X166914631Y-125820745D01*
X166914630Y-125820750D01*
X166899500Y-125955039D01*
X166599996Y-125955039D01*
X166584877Y-125820858D01*
X166525336Y-125650698D01*
X166429422Y-125498051D01*
X166301948Y-125370577D01*
X166149301Y-125274663D01*
X165979141Y-125215122D01*
X165844930Y-125200000D01*
X165750000Y-125200000D01*
X165750000Y-126450000D01*
X165250000Y-126450000D01*
X165250000Y-125200000D01*
X165155070Y-125200000D01*
X165020858Y-125215122D01*
X164850698Y-125274663D01*
X164698051Y-125370577D01*
X164570577Y-125498051D01*
X164474663Y-125650698D01*
X164415122Y-125820858D01*
X164400000Y-125955069D01*
X154770500Y-125955069D01*
X154770500Y-110194931D01*
X154790185Y-110127892D01*
X154791398Y-110126040D01*
X154873703Y-110002863D01*
X154937816Y-109848082D01*
X154970500Y-109683767D01*
X154970500Y-109516233D01*
X154937816Y-109351918D01*
X154873703Y-109197137D01*
X154791398Y-109073959D01*
X154780626Y-109057837D01*
X154662162Y-108939373D01*
X154522860Y-108846295D01*
X154368082Y-108782184D01*
X154368074Y-108782182D01*
X154203771Y-108749500D01*
X154203767Y-108749500D01*
X154036233Y-108749500D01*
X154036228Y-108749500D01*
X153871925Y-108782182D01*
X153871917Y-108782184D01*
X153717139Y-108846295D01*
X153577837Y-108939373D01*
X153459373Y-109057837D01*
X153366295Y-109197139D01*
X153302184Y-109351917D01*
X153302182Y-109351925D01*
X153269500Y-109516228D01*
X153269500Y-109683771D01*
X153302182Y-109848074D01*
X153302184Y-109848082D01*
X153366295Y-110002860D01*
X153366296Y-110002862D01*
X153366297Y-110002863D01*
X153395317Y-110046295D01*
X153448602Y-110126040D01*
X153469480Y-110192717D01*
X153469500Y-110194931D01*
X153469500Y-126021266D01*
X153449815Y-126088305D01*
X153397011Y-126134060D01*
X153392953Y-126135827D01*
X153233309Y-126201953D01*
X153233299Y-126201958D01*
X153006196Y-126333075D01*
X152798148Y-126492718D01*
X152612718Y-126678148D01*
X152453075Y-126886196D01*
X152321958Y-127113299D01*
X152321953Y-127113309D01*
X152221605Y-127355571D01*
X152221602Y-127355581D01*
X152153730Y-127608884D01*
X152150464Y-127633689D01*
X152119500Y-127868872D01*
X151039995Y-127868872D01*
X151005779Y-127608990D01*
X151005777Y-127608979D01*
X150937924Y-127355744D01*
X150837595Y-127113528D01*
X150837590Y-127113517D01*
X150706511Y-126886483D01*
X150706505Y-126886475D01*
X150619918Y-126773633D01*
X150619917Y-126773633D01*
X149725231Y-127668320D01*
X149713503Y-127640005D01*
X149630330Y-127515528D01*
X149524472Y-127409670D01*
X149399995Y-127326497D01*
X149371677Y-127314767D01*
X150266365Y-126420080D01*
X150153524Y-126333494D01*
X150153516Y-126333488D01*
X149926482Y-126202409D01*
X149926471Y-126202404D01*
X149684255Y-126102075D01*
X149431020Y-126034222D01*
X149431009Y-126034220D01*
X149171094Y-126000000D01*
X148908905Y-126000000D01*
X148648990Y-126034220D01*
X148648979Y-126034222D01*
X148395744Y-126102075D01*
X148153528Y-126202404D01*
X148153517Y-126202409D01*
X147926471Y-126333496D01*
X147813633Y-126420079D01*
X147813633Y-126420080D01*
X148708321Y-127314768D01*
X148680005Y-127326497D01*
X148555528Y-127409670D01*
X148449670Y-127515528D01*
X148366497Y-127640005D01*
X148354768Y-127668321D01*
X147460080Y-126773633D01*
X147460079Y-126773633D01*
X147373496Y-126886471D01*
X147242409Y-127113517D01*
X147242404Y-127113528D01*
X147142075Y-127355744D01*
X147074222Y-127608979D01*
X147074220Y-127608990D01*
X147040000Y-127868905D01*
X145960500Y-127868905D01*
X145960500Y-127868880D01*
X145926270Y-127608884D01*
X145858398Y-127355581D01*
X145836764Y-127303351D01*
X145758046Y-127113309D01*
X145758041Y-127113299D01*
X145626924Y-126886196D01*
X145467281Y-126678148D01*
X145467274Y-126678140D01*
X145281860Y-126492726D01*
X145281851Y-126492718D01*
X145073803Y-126333075D01*
X144846700Y-126201958D01*
X144846690Y-126201953D01*
X144687047Y-126135827D01*
X144632644Y-126091986D01*
X144610579Y-126025692D01*
X144610500Y-126021266D01*
X144610500Y-108994931D01*
X144630185Y-108927892D01*
X144631398Y-108926040D01*
X144713703Y-108802863D01*
X144777816Y-108648082D01*
X144810500Y-108483767D01*
X144810500Y-108316233D01*
X144777816Y-108151918D01*
X144713703Y-107997137D01*
X144631398Y-107873959D01*
X144620626Y-107857837D01*
X144502162Y-107739373D01*
X144362860Y-107646295D01*
X144208082Y-107582184D01*
X144208074Y-107582182D01*
X144043771Y-107549500D01*
X144043767Y-107549500D01*
X143876233Y-107549500D01*
X143876228Y-107549500D01*
X143711925Y-107582182D01*
X143711917Y-107582184D01*
X143557139Y-107646295D01*
X143417837Y-107739373D01*
X143299373Y-107857837D01*
X143206295Y-107997139D01*
X143142184Y-108151917D01*
X143142182Y-108151925D01*
X143109500Y-108316228D01*
X143109500Y-108483771D01*
X143142182Y-108648074D01*
X143142184Y-108648082D01*
X143206295Y-108802860D01*
X143206296Y-108802862D01*
X143206297Y-108802863D01*
X143235317Y-108846295D01*
X143288602Y-108926040D01*
X143309480Y-108992717D01*
X143309500Y-108994931D01*
X143309500Y-126021266D01*
X143289815Y-126088305D01*
X143237011Y-126134060D01*
X143232953Y-126135827D01*
X143073309Y-126201953D01*
X143073299Y-126201958D01*
X142846196Y-126333075D01*
X142638148Y-126492718D01*
X142452718Y-126678148D01*
X142293075Y-126886196D01*
X142161958Y-127113299D01*
X142161953Y-127113309D01*
X142061605Y-127355571D01*
X142061602Y-127355581D01*
X141993730Y-127608884D01*
X141990464Y-127633689D01*
X141959500Y-127868872D01*
X140880499Y-127868872D01*
X140880499Y-126452128D01*
X140874091Y-126392517D01*
X140826185Y-126264075D01*
X140823797Y-126257671D01*
X140823793Y-126257664D01*
X140737547Y-126142455D01*
X140737544Y-126142452D01*
X140622335Y-126056206D01*
X140622328Y-126056202D01*
X140487482Y-126005908D01*
X140487483Y-126005908D01*
X140427883Y-125999501D01*
X140427881Y-125999500D01*
X140427873Y-125999500D01*
X140427865Y-125999500D01*
X139654500Y-125999500D01*
X139587461Y-125979815D01*
X139541706Y-125927011D01*
X139530500Y-125875500D01*
X139530500Y-123394931D01*
X139550185Y-123327892D01*
X139551398Y-123326040D01*
X139588005Y-123271254D01*
X139633703Y-123202863D01*
X139697816Y-123048082D01*
X139730500Y-122883767D01*
X139730500Y-122716233D01*
X139697816Y-122551918D01*
X139633703Y-122397137D01*
X139587603Y-122328144D01*
X139540626Y-122257837D01*
X139422162Y-122139373D01*
X139282860Y-122046295D01*
X139128082Y-121982184D01*
X139128074Y-121982182D01*
X138963771Y-121949500D01*
X138963767Y-121949500D01*
X138796233Y-121949500D01*
X138796228Y-121949500D01*
X138631925Y-121982182D01*
X138631917Y-121982184D01*
X138477139Y-122046295D01*
X138337837Y-122139373D01*
X138219373Y-122257837D01*
X138126295Y-122397139D01*
X138062184Y-122551917D01*
X138062182Y-122551925D01*
X138029500Y-122716228D01*
X138029500Y-122883771D01*
X138062182Y-123048074D01*
X138062184Y-123048082D01*
X138126295Y-123202860D01*
X138126296Y-123202862D01*
X138126297Y-123202863D01*
X138159123Y-123251991D01*
X138208602Y-123326040D01*
X138229480Y-123392717D01*
X138229500Y-123394931D01*
X138229500Y-125875500D01*
X138209815Y-125942539D01*
X138157011Y-125988294D01*
X138105500Y-125999500D01*
X137332129Y-125999500D01*
X137332123Y-125999501D01*
X137272516Y-126005908D01*
X137137671Y-126056202D01*
X137137664Y-126056206D01*
X137022455Y-126142452D01*
X137022452Y-126142455D01*
X136936206Y-126257664D01*
X136936202Y-126257671D01*
X136885908Y-126392517D01*
X136879501Y-126452116D01*
X136879501Y-126452123D01*
X136879500Y-126452135D01*
X133650500Y-126452135D01*
X133650500Y-111394931D01*
X133670185Y-111327892D01*
X133671398Y-111326040D01*
X133671399Y-111326039D01*
X133753703Y-111202863D01*
X133817816Y-111048082D01*
X133850500Y-110883767D01*
X133850500Y-110716233D01*
X133817816Y-110551918D01*
X133753703Y-110397137D01*
X133700129Y-110316958D01*
X133660626Y-110257837D01*
X133542162Y-110139373D01*
X133402860Y-110046295D01*
X133248082Y-109982184D01*
X133248074Y-109982182D01*
X133083771Y-109949500D01*
X133083767Y-109949500D01*
X132916233Y-109949500D01*
X132916228Y-109949500D01*
X132751925Y-109982182D01*
X132751917Y-109982184D01*
X132597139Y-110046295D01*
X132457837Y-110139373D01*
X132339376Y-110257834D01*
X132339373Y-110257838D01*
X132307602Y-110305387D01*
X132253989Y-110350192D01*
X132184664Y-110358899D01*
X132121637Y-110328744D01*
X132084918Y-110269301D01*
X132080500Y-110236496D01*
X132080500Y-90159382D01*
X132100185Y-90092343D01*
X132152989Y-90046588D01*
X132222147Y-90036644D01*
X132242805Y-90041447D01*
X132383757Y-90087246D01*
X132593713Y-90120500D01*
X132593714Y-90120500D01*
X132806286Y-90120500D01*
X132806287Y-90120500D01*
X133016243Y-90087246D01*
X133157185Y-90041450D01*
X133227022Y-90039456D01*
X133286855Y-90075536D01*
X133317684Y-90138237D01*
X133319500Y-90159382D01*
X133319500Y-107805068D01*
X133299815Y-107872107D01*
X133298602Y-107873959D01*
X133216295Y-107997139D01*
X133152184Y-108151917D01*
X133152182Y-108151925D01*
X133119500Y-108316228D01*
X133119500Y-108483771D01*
X133152182Y-108648074D01*
X133152184Y-108648082D01*
X133216295Y-108802860D01*
X133309373Y-108942162D01*
X133427837Y-109060626D01*
X133512144Y-109116958D01*
X133567137Y-109153703D01*
X133721918Y-109217816D01*
X133886228Y-109250499D01*
X133886232Y-109250500D01*
X133886233Y-109250500D01*
X134053768Y-109250500D01*
X134053769Y-109250499D01*
X134218082Y-109217816D01*
X134372863Y-109153703D01*
X134396610Y-109137835D01*
X134463286Y-109116958D01*
X134530667Y-109135442D01*
X134577357Y-109187421D01*
X134589500Y-109240938D01*
X134589500Y-123405068D01*
X134569815Y-123472107D01*
X134568602Y-123473959D01*
X134486295Y-123597139D01*
X134422184Y-123751917D01*
X134422182Y-123751925D01*
X134389500Y-123916228D01*
X134389500Y-124083771D01*
X134422182Y-124248074D01*
X134422184Y-124248082D01*
X134486295Y-124402860D01*
X134579373Y-124542162D01*
X134697837Y-124660626D01*
X134790494Y-124722537D01*
X134837137Y-124753703D01*
X134991918Y-124817816D01*
X135156228Y-124850499D01*
X135156232Y-124850500D01*
X135156233Y-124850500D01*
X135323768Y-124850500D01*
X135323769Y-124850499D01*
X135488082Y-124817816D01*
X135642863Y-124753703D01*
X135782162Y-124660626D01*
X135900626Y-124542162D01*
X135993703Y-124402863D01*
X136057816Y-124248082D01*
X136090500Y-124083767D01*
X136090500Y-123916233D01*
X136057816Y-123751918D01*
X135993703Y-123597137D01*
X135911398Y-123473959D01*
X135890520Y-123407281D01*
X135890500Y-123405068D01*
X135890500Y-121240938D01*
X135910185Y-121173899D01*
X135962989Y-121128144D01*
X136032147Y-121118200D01*
X136083389Y-121137835D01*
X136107137Y-121153703D01*
X136261918Y-121217816D01*
X136426228Y-121250499D01*
X136426232Y-121250500D01*
X136426233Y-121250500D01*
X136593768Y-121250500D01*
X136593769Y-121250499D01*
X136758082Y-121217816D01*
X136912863Y-121153703D01*
X137052162Y-121060626D01*
X137170626Y-120942162D01*
X137263703Y-120802863D01*
X137327816Y-120648082D01*
X137360500Y-120483767D01*
X137360500Y-120316233D01*
X137327816Y-120151918D01*
X137263703Y-119997137D01*
X137181398Y-119873959D01*
X137160520Y-119807281D01*
X137160500Y-119805068D01*
X137160500Y-111640938D01*
X137180185Y-111573899D01*
X137232989Y-111528144D01*
X137302147Y-111518200D01*
X137353389Y-111537835D01*
X137377137Y-111553703D01*
X137531918Y-111617816D01*
X137696228Y-111650499D01*
X137696232Y-111650500D01*
X137696233Y-111650500D01*
X137863768Y-111650500D01*
X137863769Y-111650499D01*
X138028082Y-111617816D01*
X138182863Y-111553703D01*
X138206610Y-111537835D01*
X138273286Y-111516958D01*
X138340667Y-111535442D01*
X138387357Y-111587421D01*
X138399500Y-111640938D01*
X138399500Y-118605068D01*
X138379815Y-118672107D01*
X138378602Y-118673959D01*
X138296295Y-118797139D01*
X138232184Y-118951917D01*
X138232182Y-118951925D01*
X138199500Y-119116228D01*
X138199500Y-119283771D01*
X138232182Y-119448074D01*
X138232184Y-119448082D01*
X138296295Y-119602860D01*
X138389373Y-119742162D01*
X138507837Y-119860626D01*
X138600494Y-119922537D01*
X138647137Y-119953703D01*
X138801918Y-120017816D01*
X138966228Y-120050499D01*
X138966232Y-120050500D01*
X138966233Y-120050500D01*
X139133768Y-120050500D01*
X139133769Y-120050499D01*
X139298082Y-120017816D01*
X139452863Y-119953703D01*
X139592162Y-119860626D01*
X139710626Y-119742162D01*
X139803703Y-119602863D01*
X139867816Y-119448082D01*
X139900500Y-119283767D01*
X139900500Y-119116233D01*
X139867816Y-118951918D01*
X139803703Y-118797137D01*
X139721398Y-118673959D01*
X139700520Y-118607281D01*
X139700500Y-118605068D01*
X139700500Y-90158857D01*
X139720185Y-90091818D01*
X139772989Y-90046063D01*
X139842147Y-90036119D01*
X139862819Y-90040926D01*
X140003873Y-90086758D01*
X140213754Y-90120000D01*
X140426246Y-90120000D01*
X140636127Y-90086757D01*
X140636130Y-90086757D01*
X140838217Y-90021095D01*
X141027554Y-89924622D01*
X141081716Y-89885270D01*
X141081717Y-89885270D01*
X140952125Y-89755678D01*
X171238000Y-89755678D01*
X171238000Y-89954321D01*
X171269075Y-90150520D01*
X171269075Y-90150523D01*
X171330457Y-90339437D01*
X171420641Y-90516432D01*
X171447730Y-90553715D01*
X171447731Y-90553716D01*
X172049697Y-89951749D01*
X172071349Y-90032553D01*
X172131909Y-90137446D01*
X172217554Y-90223091D01*
X172322447Y-90283651D01*
X172403250Y-90305302D01*
X171801283Y-90907268D01*
X171801283Y-90907269D01*
X171838567Y-90934358D01*
X172015562Y-91024542D01*
X172204477Y-91085924D01*
X172400679Y-91117000D01*
X172599321Y-91117000D01*
X172795520Y-91085924D01*
X172795523Y-91085924D01*
X172984437Y-91024542D01*
X173161425Y-90934362D01*
X173198716Y-90907268D01*
X172596750Y-90305302D01*
X172677553Y-90283651D01*
X172782446Y-90223091D01*
X172868091Y-90137446D01*
X172928651Y-90032553D01*
X172950302Y-89951749D01*
X173552268Y-90553715D01*
X173579364Y-90516422D01*
X173639234Y-90398921D01*
X173687208Y-90348124D01*
X173755029Y-90331329D01*
X173821164Y-90353866D01*
X173860203Y-90398919D01*
X173920213Y-90516694D01*
X174037019Y-90677464D01*
X174177536Y-90817981D01*
X174338306Y-90934787D01*
X174416333Y-90974544D01*
X174515367Y-91025005D01*
X174515370Y-91025006D01*
X174609866Y-91055709D01*
X174704364Y-91086413D01*
X174900639Y-91117500D01*
X174900640Y-91117500D01*
X175099360Y-91117500D01*
X175099361Y-91117500D01*
X175295636Y-91086413D01*
X175484632Y-91025005D01*
X175661694Y-90934787D01*
X175822464Y-90817981D01*
X175912319Y-90728126D01*
X175973642Y-90694641D01*
X176043334Y-90699625D01*
X176087681Y-90728126D01*
X176177536Y-90817981D01*
X176338306Y-90934787D01*
X176416333Y-90974544D01*
X176515367Y-91025005D01*
X176515370Y-91025006D01*
X176609866Y-91055709D01*
X176704364Y-91086413D01*
X176900639Y-91117500D01*
X176900640Y-91117500D01*
X177099360Y-91117500D01*
X177099361Y-91117500D01*
X177295636Y-91086413D01*
X177484632Y-91025005D01*
X177661694Y-90934787D01*
X177822464Y-90817981D01*
X177962981Y-90677464D01*
X178014094Y-90607113D01*
X178069424Y-90564447D01*
X178139037Y-90558468D01*
X178200832Y-90591074D01*
X178235189Y-90651912D01*
X178237702Y-90666744D01*
X178243909Y-90724483D01*
X178294202Y-90859328D01*
X178294206Y-90859335D01*
X178380452Y-90974544D01*
X178380455Y-90974547D01*
X178495664Y-91060793D01*
X178495671Y-91060797D01*
X178630517Y-91111091D01*
X178630515Y-91111091D01*
X178688756Y-91117353D01*
X178753307Y-91144091D01*
X178793155Y-91201484D01*
X178799500Y-91240642D01*
X178799500Y-100679897D01*
X178779815Y-100746936D01*
X178778602Y-100748788D01*
X178746300Y-100797130D01*
X178746295Y-100797140D01*
X178682184Y-100951917D01*
X178682182Y-100951925D01*
X178649500Y-101116228D01*
X178649500Y-101283771D01*
X178682182Y-101448074D01*
X178682184Y-101448082D01*
X178746295Y-101602860D01*
X178778602Y-101651210D01*
X178784252Y-101669256D01*
X178794477Y-101685166D01*
X178798928Y-101716125D01*
X178799480Y-101717887D01*
X178799500Y-101720101D01*
X178799500Y-101879897D01*
X178779815Y-101946936D01*
X178778602Y-101948788D01*
X178746300Y-101997130D01*
X178746295Y-101997140D01*
X178682184Y-102151917D01*
X178682182Y-102151925D01*
X178649500Y-102316228D01*
X178649500Y-102483771D01*
X178682182Y-102648074D01*
X178682184Y-102648082D01*
X178746295Y-102802860D01*
X178839373Y-102942162D01*
X178957837Y-103060626D01*
X179042144Y-103116958D01*
X179097137Y-103153703D01*
X179251918Y-103217816D01*
X179416228Y-103250499D01*
X179416232Y-103250500D01*
X179416233Y-103250500D01*
X179583768Y-103250500D01*
X179583769Y-103250499D01*
X179748082Y-103217816D01*
X179902863Y-103153703D01*
X180042162Y-103060626D01*
X180160626Y-102942162D01*
X180253703Y-102802863D01*
X180317816Y-102648082D01*
X180350500Y-102483767D01*
X180350500Y-102316233D01*
X180317816Y-102151918D01*
X180253703Y-101997137D01*
X180253701Y-101997134D01*
X180253699Y-101997130D01*
X180221398Y-101948788D01*
X180215747Y-101930741D01*
X180205523Y-101914832D01*
X180201071Y-101883870D01*
X180200520Y-101882110D01*
X180200500Y-101879897D01*
X180200500Y-101720101D01*
X180220185Y-101653062D01*
X180221398Y-101651210D01*
X180253703Y-101602863D01*
X180317816Y-101448082D01*
X180350500Y-101283767D01*
X180350500Y-101116233D01*
X180317816Y-100951918D01*
X180253703Y-100797137D01*
X180253701Y-100797134D01*
X180253699Y-100797130D01*
X180221398Y-100748788D01*
X180200520Y-100682110D01*
X180200500Y-100679897D01*
X180200500Y-91240641D01*
X180220185Y-91173602D01*
X180272989Y-91127847D01*
X180311245Y-91117351D01*
X180369483Y-91111091D01*
X180504331Y-91060796D01*
X180619546Y-90974546D01*
X180705796Y-90859331D01*
X180756091Y-90724483D01*
X180762500Y-90664873D01*
X180762499Y-89045128D01*
X180756091Y-88985517D01*
X180754732Y-88981874D01*
X180723674Y-88898602D01*
X180705797Y-88850671D01*
X180705793Y-88850664D01*
X180619547Y-88735455D01*
X180619544Y-88735452D01*
X180504335Y-88649206D01*
X180504328Y-88649202D01*
X180369482Y-88598908D01*
X180369483Y-88598908D01*
X180309883Y-88592501D01*
X180309881Y-88592500D01*
X180309873Y-88592500D01*
X180309864Y-88592500D01*
X178690129Y-88592500D01*
X178690123Y-88592501D01*
X178630516Y-88598908D01*
X178495671Y-88649202D01*
X178495664Y-88649206D01*
X178380455Y-88735452D01*
X178380452Y-88735455D01*
X178294206Y-88850664D01*
X178294202Y-88850671D01*
X178243908Y-88985516D01*
X178237700Y-89043258D01*
X178210961Y-89107809D01*
X178153568Y-89147656D01*
X178083743Y-89150149D01*
X178023655Y-89114495D01*
X178014093Y-89102886D01*
X177972130Y-89045129D01*
X177962981Y-89032536D01*
X177822464Y-88892019D01*
X177661694Y-88775213D01*
X177651461Y-88769999D01*
X177484632Y-88684994D01*
X177484629Y-88684993D01*
X177295637Y-88623587D01*
X177197498Y-88608043D01*
X177099361Y-88592500D01*
X176900639Y-88592500D01*
X176835214Y-88602862D01*
X176704362Y-88623587D01*
X176515370Y-88684993D01*
X176515367Y-88684994D01*
X176338305Y-88775213D01*
X176177533Y-88892021D01*
X176087681Y-88981874D01*
X176026358Y-89015359D01*
X175956666Y-89010375D01*
X175912319Y-88981874D01*
X175822466Y-88892021D01*
X175822464Y-88892019D01*
X175661694Y-88775213D01*
X175651461Y-88769999D01*
X175484632Y-88684994D01*
X175484629Y-88684993D01*
X175295637Y-88623587D01*
X175197498Y-88608043D01*
X175099361Y-88592500D01*
X174900639Y-88592500D01*
X174835214Y-88602862D01*
X174704362Y-88623587D01*
X174515370Y-88684993D01*
X174515367Y-88684994D01*
X174338305Y-88775213D01*
X174177533Y-88892021D01*
X174037021Y-89032533D01*
X173920213Y-89193305D01*
X173860204Y-89311079D01*
X173812229Y-89361875D01*
X173744408Y-89378670D01*
X173678273Y-89356132D01*
X173639234Y-89311079D01*
X173579358Y-89193567D01*
X173552268Y-89156283D01*
X172950302Y-89758249D01*
X172928651Y-89677447D01*
X172868091Y-89572554D01*
X172782446Y-89486909D01*
X172677553Y-89426349D01*
X172596749Y-89404697D01*
X173198716Y-88802731D01*
X173198715Y-88802730D01*
X173161432Y-88775641D01*
X172984437Y-88685457D01*
X172795522Y-88624075D01*
X172599321Y-88593000D01*
X172400679Y-88593000D01*
X172204479Y-88624075D01*
X172204476Y-88624075D01*
X172015562Y-88685457D01*
X171838564Y-88775643D01*
X171801283Y-88802729D01*
X171801282Y-88802730D01*
X172403250Y-89404697D01*
X172322447Y-89426349D01*
X172217554Y-89486909D01*
X172131909Y-89572554D01*
X172071349Y-89677447D01*
X172049697Y-89758250D01*
X171447730Y-89156282D01*
X171447729Y-89156283D01*
X171420643Y-89193564D01*
X171330457Y-89370562D01*
X171269075Y-89559476D01*
X171269075Y-89559479D01*
X171238000Y-89755678D01*
X140952125Y-89755678D01*
X140449409Y-89252962D01*
X140512993Y-89235925D01*
X140627007Y-89170099D01*
X140720099Y-89077007D01*
X140785925Y-88962993D01*
X140802962Y-88899408D01*
X141435270Y-89531717D01*
X141435270Y-89531716D01*
X141474622Y-89477554D01*
X141571095Y-89288217D01*
X141636757Y-89086130D01*
X141636757Y-89086127D01*
X141670000Y-88876246D01*
X141670000Y-88663753D01*
X141636757Y-88453872D01*
X141636757Y-88453869D01*
X141571095Y-88251782D01*
X141474624Y-88062449D01*
X141435270Y-88008282D01*
X141435269Y-88008282D01*
X140802962Y-88640590D01*
X140785925Y-88577007D01*
X140720099Y-88462993D01*
X140627007Y-88369901D01*
X140512993Y-88304075D01*
X140449407Y-88287036D01*
X141081716Y-87654728D01*
X141027550Y-87615375D01*
X141017954Y-87610486D01*
X140967157Y-87562512D01*
X140950361Y-87494692D01*
X140972897Y-87428556D01*
X141017954Y-87389514D01*
X141027554Y-87384622D01*
X141081716Y-87345270D01*
X141081717Y-87345270D01*
X140733979Y-86997533D01*
X167075000Y-86997533D01*
X167075000Y-87292466D01*
X167075001Y-87292483D01*
X167113496Y-87584884D01*
X167113499Y-87584897D01*
X167189835Y-87869790D01*
X167189838Y-87869800D01*
X167302704Y-88142281D01*
X167302709Y-88142292D01*
X167450174Y-88397707D01*
X167450180Y-88397715D01*
X167566777Y-88549667D01*
X168352912Y-87763532D01*
X168447829Y-87894175D01*
X168575825Y-88022171D01*
X168706466Y-88117086D01*
X167920331Y-88903221D01*
X168072284Y-89019819D01*
X168072292Y-89019825D01*
X168327707Y-89167290D01*
X168327718Y-89167295D01*
X168600199Y-89280161D01*
X168600209Y-89280164D01*
X168885102Y-89356500D01*
X168885115Y-89356503D01*
X169177516Y-89394998D01*
X169177534Y-89395000D01*
X169472466Y-89395000D01*
X169472483Y-89394998D01*
X169764884Y-89356503D01*
X169764897Y-89356500D01*
X170049790Y-89280164D01*
X170049800Y-89280161D01*
X170322281Y-89167295D01*
X170322292Y-89167290D01*
X170577707Y-89019825D01*
X170577725Y-89019813D01*
X170729667Y-88903222D01*
X170729667Y-88903220D01*
X169943533Y-88117086D01*
X170074175Y-88022171D01*
X170202171Y-87894175D01*
X170297086Y-87763533D01*
X171083220Y-88549667D01*
X171083222Y-88549667D01*
X171199813Y-88397725D01*
X171199825Y-88397707D01*
X171347290Y-88142292D01*
X171347295Y-88142281D01*
X171460161Y-87869800D01*
X171460164Y-87869790D01*
X171536500Y-87584897D01*
X171536503Y-87584884D01*
X171574998Y-87292483D01*
X171575000Y-87292466D01*
X171575000Y-86997533D01*
X180425000Y-86997533D01*
X180425000Y-87292466D01*
X180425001Y-87292483D01*
X180463496Y-87584884D01*
X180463499Y-87584897D01*
X180539835Y-87869790D01*
X180539838Y-87869800D01*
X180652704Y-88142281D01*
X180652709Y-88142292D01*
X180800174Y-88397707D01*
X180800180Y-88397715D01*
X180916777Y-88549667D01*
X181702912Y-87763532D01*
X181797829Y-87894175D01*
X181925825Y-88022171D01*
X182056466Y-88117086D01*
X181270331Y-88903221D01*
X181422284Y-89019819D01*
X181422292Y-89019825D01*
X181677707Y-89167290D01*
X181677718Y-89167295D01*
X181950199Y-89280161D01*
X181950209Y-89280164D01*
X182235102Y-89356500D01*
X182235115Y-89356503D01*
X182527516Y-89394998D01*
X182527534Y-89395000D01*
X182822466Y-89395000D01*
X182822483Y-89394998D01*
X183114884Y-89356503D01*
X183114897Y-89356500D01*
X183399790Y-89280164D01*
X183399800Y-89280161D01*
X183672281Y-89167295D01*
X183672292Y-89167290D01*
X183927707Y-89019825D01*
X183927725Y-89019813D01*
X184079667Y-88903222D01*
X184079667Y-88903220D01*
X183293533Y-88117086D01*
X183424175Y-88022171D01*
X183552171Y-87894175D01*
X183647086Y-87763533D01*
X184433220Y-88549667D01*
X184433222Y-88549667D01*
X184549813Y-88397725D01*
X184549825Y-88397707D01*
X184697290Y-88142292D01*
X184697295Y-88142281D01*
X184810161Y-87869800D01*
X184810164Y-87869790D01*
X184886500Y-87584897D01*
X184886503Y-87584884D01*
X184924998Y-87292483D01*
X184925000Y-87292466D01*
X184925000Y-86997533D01*
X184924998Y-86997516D01*
X184886503Y-86705115D01*
X184886500Y-86705102D01*
X184810164Y-86420209D01*
X184810161Y-86420199D01*
X184697295Y-86147718D01*
X184697290Y-86147707D01*
X184549825Y-85892292D01*
X184549819Y-85892284D01*
X184433221Y-85740331D01*
X183647086Y-86526466D01*
X183552171Y-86395825D01*
X183424175Y-86267829D01*
X183293532Y-86172912D01*
X184079667Y-85386777D01*
X183927715Y-85270180D01*
X183927707Y-85270174D01*
X183672292Y-85122709D01*
X183672281Y-85122704D01*
X183399800Y-85009838D01*
X183399790Y-85009835D01*
X183114897Y-84933499D01*
X183114884Y-84933496D01*
X182822483Y-84895001D01*
X182822466Y-84895000D01*
X182527534Y-84895000D01*
X182527516Y-84895001D01*
X182235115Y-84933496D01*
X182235102Y-84933499D01*
X181950209Y-85009835D01*
X181950199Y-85009838D01*
X181677718Y-85122704D01*
X181677707Y-85122709D01*
X181422292Y-85270174D01*
X181422276Y-85270185D01*
X181270331Y-85386775D01*
X181270331Y-85386777D01*
X182056466Y-86172912D01*
X181925825Y-86267829D01*
X181797829Y-86395825D01*
X181702912Y-86526466D01*
X180916777Y-85740331D01*
X180916775Y-85740331D01*
X180800185Y-85892276D01*
X180800174Y-85892292D01*
X180652709Y-86147707D01*
X180652704Y-86147718D01*
X180539838Y-86420199D01*
X180539835Y-86420209D01*
X180463499Y-86705102D01*
X180463496Y-86705115D01*
X180425001Y-86997516D01*
X180425000Y-86997533D01*
X171575000Y-86997533D01*
X171574998Y-86997516D01*
X171536503Y-86705115D01*
X171536500Y-86705102D01*
X171460164Y-86420209D01*
X171460161Y-86420199D01*
X171347295Y-86147718D01*
X171347290Y-86147707D01*
X171199825Y-85892292D01*
X171199819Y-85892284D01*
X171083221Y-85740331D01*
X170297086Y-86526466D01*
X170202171Y-86395825D01*
X170074175Y-86267829D01*
X169943532Y-86172912D01*
X170729667Y-85386777D01*
X170577715Y-85270180D01*
X170577707Y-85270174D01*
X170322292Y-85122709D01*
X170322281Y-85122704D01*
X170049800Y-85009838D01*
X170049790Y-85009835D01*
X169764897Y-84933499D01*
X169764884Y-84933496D01*
X169472483Y-84895001D01*
X169472466Y-84895000D01*
X169177534Y-84895000D01*
X169177516Y-84895001D01*
X168885115Y-84933496D01*
X168885102Y-84933499D01*
X168600209Y-85009835D01*
X168600199Y-85009838D01*
X168327718Y-85122704D01*
X168327707Y-85122709D01*
X168072292Y-85270174D01*
X168072276Y-85270185D01*
X167920331Y-85386775D01*
X167920331Y-85386777D01*
X168706466Y-86172912D01*
X168575825Y-86267829D01*
X168447829Y-86395825D01*
X168352912Y-86526466D01*
X167566777Y-85740331D01*
X167566775Y-85740331D01*
X167450185Y-85892276D01*
X167450174Y-85892292D01*
X167302709Y-86147707D01*
X167302704Y-86147718D01*
X167189838Y-86420199D01*
X167189835Y-86420209D01*
X167113499Y-86705102D01*
X167113496Y-86705115D01*
X167075001Y-86997516D01*
X167075000Y-86997533D01*
X140733979Y-86997533D01*
X140449408Y-86712962D01*
X140512993Y-86695925D01*
X140627007Y-86630099D01*
X140720099Y-86537007D01*
X140785925Y-86422993D01*
X140802962Y-86359408D01*
X141435270Y-86991717D01*
X141435270Y-86991716D01*
X141474622Y-86937554D01*
X141474817Y-86937173D01*
X141571095Y-86748217D01*
X141636757Y-86546130D01*
X141636757Y-86546127D01*
X141670000Y-86336246D01*
X141670000Y-86123753D01*
X141636757Y-85913872D01*
X141636757Y-85913869D01*
X141571095Y-85711782D01*
X141474623Y-85522447D01*
X141474622Y-85522445D01*
X141463847Y-85507614D01*
X141463846Y-85507613D01*
X141435271Y-85468282D01*
X141435269Y-85468282D01*
X140802962Y-86100590D01*
X140785925Y-86037007D01*
X140720099Y-85922993D01*
X140627007Y-85829901D01*
X140512993Y-85764075D01*
X140449409Y-85747037D01*
X141081716Y-85114728D01*
X141027550Y-85075375D01*
X140838217Y-84978904D01*
X140636129Y-84913242D01*
X140426246Y-84880000D01*
X140213754Y-84880000D01*
X140003872Y-84913242D01*
X140003869Y-84913242D01*
X139801782Y-84978904D01*
X139612439Y-85075380D01*
X139558282Y-85114727D01*
X139558282Y-85114728D01*
X140190591Y-85747037D01*
X140127007Y-85764075D01*
X140012993Y-85829901D01*
X139919901Y-85922993D01*
X139854075Y-86037007D01*
X139837037Y-86100591D01*
X139204728Y-85468282D01*
X139204727Y-85468282D01*
X139165380Y-85522440D01*
X139165376Y-85522446D01*
X139160760Y-85531505D01*
X139112781Y-85582297D01*
X139044959Y-85599087D01*
X138978826Y-85576543D01*
X138939794Y-85531493D01*
X138935051Y-85522184D01*
X138935049Y-85522181D01*
X138935048Y-85522179D01*
X138810109Y-85350213D01*
X138659786Y-85199890D01*
X138487820Y-85074951D01*
X138298414Y-84978444D01*
X138298413Y-84978443D01*
X138298412Y-84978443D01*
X138096243Y-84912754D01*
X138096241Y-84912753D01*
X138096240Y-84912753D01*
X137934957Y-84887208D01*
X137886287Y-84879500D01*
X137673713Y-84879500D01*
X137625042Y-84887208D01*
X137463760Y-84912753D01*
X137261585Y-84978444D01*
X137072179Y-85074951D01*
X136900213Y-85199890D01*
X136749890Y-85350213D01*
X136624949Y-85522182D01*
X136620484Y-85530946D01*
X136572509Y-85581742D01*
X136504688Y-85598536D01*
X136438553Y-85575998D01*
X136399516Y-85530946D01*
X136395050Y-85522182D01*
X136270109Y-85350213D01*
X136119786Y-85199890D01*
X135947820Y-85074951D01*
X135758414Y-84978444D01*
X135758413Y-84978443D01*
X135758412Y-84978443D01*
X135556243Y-84912754D01*
X135556241Y-84912753D01*
X135556240Y-84912753D01*
X135394957Y-84887208D01*
X135346287Y-84879500D01*
X135133713Y-84879500D01*
X135085042Y-84887208D01*
X134923760Y-84912753D01*
X134721585Y-84978444D01*
X134532179Y-85074951D01*
X134360213Y-85199890D01*
X134209890Y-85350213D01*
X134084949Y-85522182D01*
X134080484Y-85530946D01*
X134032509Y-85581742D01*
X133964688Y-85598536D01*
X133898553Y-85575998D01*
X133859516Y-85530946D01*
X133855050Y-85522182D01*
X133730109Y-85350213D01*
X133579786Y-85199890D01*
X133407820Y-85074951D01*
X133218414Y-84978444D01*
X133218413Y-84978443D01*
X133218412Y-84978443D01*
X133016243Y-84912754D01*
X133016241Y-84912753D01*
X133016240Y-84912753D01*
X132854957Y-84887208D01*
X132806287Y-84879500D01*
X132593713Y-84879500D01*
X132545042Y-84887208D01*
X132383760Y-84912753D01*
X132181585Y-84978444D01*
X131992179Y-85074951D01*
X131820213Y-85199890D01*
X131669890Y-85350213D01*
X131544949Y-85522182D01*
X131540484Y-85530946D01*
X131492509Y-85581742D01*
X131424688Y-85598536D01*
X131358553Y-85575998D01*
X131319516Y-85530946D01*
X131315050Y-85522182D01*
X131190109Y-85350213D01*
X131039786Y-85199890D01*
X130867820Y-85074951D01*
X130678414Y-84978444D01*
X130678413Y-84978443D01*
X130678412Y-84978443D01*
X130476243Y-84912754D01*
X130476241Y-84912753D01*
X130476240Y-84912753D01*
X130314957Y-84887208D01*
X130266287Y-84879500D01*
X130053713Y-84879500D01*
X130005042Y-84887208D01*
X129843760Y-84912753D01*
X129641585Y-84978444D01*
X129452179Y-85074951D01*
X129280213Y-85199890D01*
X129129890Y-85350213D01*
X129004949Y-85522182D01*
X129000484Y-85530946D01*
X128952509Y-85581742D01*
X128884688Y-85598536D01*
X128818553Y-85575998D01*
X128779516Y-85530946D01*
X128775050Y-85522182D01*
X128650109Y-85350213D01*
X128499786Y-85199890D01*
X128327820Y-85074951D01*
X128138414Y-84978444D01*
X128138413Y-84978443D01*
X128138412Y-84978443D01*
X127936243Y-84912754D01*
X127936241Y-84912753D01*
X127936240Y-84912753D01*
X127774957Y-84887208D01*
X127726287Y-84879500D01*
X127513713Y-84879500D01*
X127465042Y-84887208D01*
X127303760Y-84912753D01*
X127101585Y-84978444D01*
X126912179Y-85074951D01*
X126740213Y-85199890D01*
X126589890Y-85350213D01*
X126464949Y-85522182D01*
X126460484Y-85530946D01*
X126412509Y-85581742D01*
X126344688Y-85598536D01*
X126278553Y-85575998D01*
X126239516Y-85530946D01*
X126235050Y-85522182D01*
X126110109Y-85350213D01*
X125959786Y-85199890D01*
X125787820Y-85074951D01*
X125598414Y-84978444D01*
X125598413Y-84978443D01*
X125598412Y-84978443D01*
X125396243Y-84912754D01*
X125396241Y-84912753D01*
X125396240Y-84912753D01*
X125234957Y-84887208D01*
X125186287Y-84879500D01*
X124973713Y-84879500D01*
X124925042Y-84887208D01*
X124763760Y-84912753D01*
X124561585Y-84978444D01*
X124372179Y-85074951D01*
X124200213Y-85199890D01*
X124049890Y-85350213D01*
X123924949Y-85522182D01*
X123920484Y-85530946D01*
X123872509Y-85581742D01*
X123804688Y-85598536D01*
X123738553Y-85575998D01*
X123699516Y-85530946D01*
X123695050Y-85522182D01*
X123570109Y-85350213D01*
X123419786Y-85199890D01*
X123247820Y-85074951D01*
X123058414Y-84978444D01*
X123058413Y-84978443D01*
X123058412Y-84978443D01*
X122856243Y-84912754D01*
X122856241Y-84912753D01*
X122856240Y-84912753D01*
X122694957Y-84887208D01*
X122646287Y-84879500D01*
X122433713Y-84879500D01*
X122385042Y-84887208D01*
X122223760Y-84912753D01*
X122021585Y-84978444D01*
X121832179Y-85074951D01*
X121660213Y-85199890D01*
X121509890Y-85350213D01*
X121384949Y-85522182D01*
X121380484Y-85530946D01*
X121332509Y-85581742D01*
X121264688Y-85598536D01*
X121198553Y-85575998D01*
X121159516Y-85530946D01*
X121155050Y-85522182D01*
X121030109Y-85350213D01*
X120879786Y-85199890D01*
X120707820Y-85074951D01*
X120518414Y-84978444D01*
X120518413Y-84978443D01*
X120518412Y-84978443D01*
X120316243Y-84912754D01*
X120316241Y-84912753D01*
X120316240Y-84912753D01*
X120154957Y-84887208D01*
X120106287Y-84879500D01*
X119893713Y-84879500D01*
X119845042Y-84887208D01*
X119683760Y-84912753D01*
X119481585Y-84978444D01*
X119292179Y-85074951D01*
X119120213Y-85199890D01*
X118969890Y-85350213D01*
X118844949Y-85522182D01*
X118840484Y-85530946D01*
X118792509Y-85581742D01*
X118724688Y-85598536D01*
X118658553Y-85575998D01*
X118619516Y-85530946D01*
X118615050Y-85522182D01*
X118490109Y-85350213D01*
X118339786Y-85199890D01*
X118167820Y-85074951D01*
X117978414Y-84978444D01*
X117978413Y-84978443D01*
X117978412Y-84978443D01*
X117776243Y-84912754D01*
X117776241Y-84912753D01*
X117776240Y-84912753D01*
X117614957Y-84887208D01*
X117566287Y-84879500D01*
X117353713Y-84879500D01*
X117305042Y-84887208D01*
X117143760Y-84912753D01*
X116941585Y-84978444D01*
X116752179Y-85074951D01*
X116580213Y-85199890D01*
X116429890Y-85350213D01*
X116304949Y-85522182D01*
X116300484Y-85530946D01*
X116252509Y-85581742D01*
X116184688Y-85598536D01*
X116118553Y-85575998D01*
X116079516Y-85530946D01*
X116075050Y-85522182D01*
X115950109Y-85350213D01*
X115799786Y-85199890D01*
X115627820Y-85074951D01*
X115438414Y-84978444D01*
X115438413Y-84978443D01*
X115438412Y-84978443D01*
X115236243Y-84912754D01*
X115236241Y-84912753D01*
X115236240Y-84912753D01*
X115074957Y-84887208D01*
X115026287Y-84879500D01*
X114813713Y-84879500D01*
X114765042Y-84887208D01*
X114603760Y-84912753D01*
X114401585Y-84978444D01*
X114212179Y-85074951D01*
X114040213Y-85199890D01*
X113889890Y-85350213D01*
X113764949Y-85522182D01*
X113760484Y-85530946D01*
X113712509Y-85581742D01*
X113644688Y-85598536D01*
X113578553Y-85575998D01*
X113539516Y-85530946D01*
X113535050Y-85522182D01*
X113410109Y-85350213D01*
X113259786Y-85199890D01*
X113087820Y-85074951D01*
X112898414Y-84978444D01*
X112898413Y-84978443D01*
X112898412Y-84978443D01*
X112696243Y-84912754D01*
X112696241Y-84912753D01*
X112696240Y-84912753D01*
X112534957Y-84887208D01*
X112486287Y-84879500D01*
X112273713Y-84879500D01*
X112225042Y-84887208D01*
X112063760Y-84912753D01*
X111861585Y-84978444D01*
X111672179Y-85074951D01*
X111500213Y-85199890D01*
X111349890Y-85350213D01*
X111224949Y-85522182D01*
X111220484Y-85530946D01*
X111172509Y-85581742D01*
X111104688Y-85598536D01*
X111038553Y-85575998D01*
X110999516Y-85530946D01*
X110995050Y-85522182D01*
X110870109Y-85350213D01*
X110719786Y-85199890D01*
X110547820Y-85074951D01*
X110358414Y-84978444D01*
X110358413Y-84978443D01*
X110358412Y-84978443D01*
X110156243Y-84912754D01*
X110156241Y-84912753D01*
X110156240Y-84912753D01*
X109994957Y-84887208D01*
X109946287Y-84879500D01*
X109733713Y-84879500D01*
X109685042Y-84887208D01*
X109523760Y-84912753D01*
X109321585Y-84978444D01*
X109132179Y-85074951D01*
X108960213Y-85199890D01*
X108809890Y-85350213D01*
X108684951Y-85522179D01*
X108588444Y-85711585D01*
X108522753Y-85913760D01*
X108489500Y-86123713D01*
X108489500Y-86336286D01*
X108522735Y-86546127D01*
X108522754Y-86546243D01*
X108573867Y-86703553D01*
X108588444Y-86748414D01*
X108684951Y-86937820D01*
X108809890Y-87109786D01*
X108960209Y-87260105D01*
X108965106Y-87263663D01*
X109007771Y-87318994D01*
X109013750Y-87388607D01*
X108981144Y-87450402D01*
X108931229Y-87481685D01*
X108920673Y-87485183D01*
X108920663Y-87485187D01*
X108771342Y-87577289D01*
X108647289Y-87701342D01*
X108555187Y-87850663D01*
X108555185Y-87850668D01*
X108527349Y-87934670D01*
X108500001Y-88017203D01*
X108500001Y-88017204D01*
X108500000Y-88017204D01*
X108489500Y-88119983D01*
X108489500Y-89420001D01*
X108489501Y-89420018D01*
X108500000Y-89522796D01*
X108500001Y-89522799D01*
X108542081Y-89649786D01*
X108555186Y-89689334D01*
X108647288Y-89838656D01*
X108771344Y-89962712D01*
X108920666Y-90054814D01*
X109087203Y-90109999D01*
X109189991Y-90120500D01*
X110285500Y-90120499D01*
X110352539Y-90140184D01*
X110398294Y-90192987D01*
X110409500Y-90244499D01*
X110409500Y-101879897D01*
X110389815Y-101946936D01*
X110388602Y-101948788D01*
X110356300Y-101997130D01*
X110356295Y-101997140D01*
X110292184Y-102151917D01*
X110292182Y-102151925D01*
X110259500Y-102316228D01*
X110259500Y-102483771D01*
X110292182Y-102648074D01*
X110292184Y-102648082D01*
X110356295Y-102802860D01*
X110449373Y-102942162D01*
X110567837Y-103060626D01*
X110652144Y-103116958D01*
X110707137Y-103153703D01*
X110861918Y-103217816D01*
X111026228Y-103250499D01*
X111026232Y-103250500D01*
X111026233Y-103250500D01*
X111193768Y-103250500D01*
X111193769Y-103250499D01*
X111358082Y-103217816D01*
X111512863Y-103153703D01*
X111536610Y-103137835D01*
X111603286Y-103116958D01*
X111670667Y-103135442D01*
X111717357Y-103187421D01*
X111729500Y-103240938D01*
X111729500Y-115959061D01*
X111709815Y-116026100D01*
X111657011Y-116071855D01*
X111587853Y-116081799D01*
X111536612Y-116062165D01*
X111521043Y-116051763D01*
X111512863Y-116046297D01*
X111358082Y-115982184D01*
X111358074Y-115982182D01*
X111193771Y-115949500D01*
X111193767Y-115949500D01*
X111026233Y-115949500D01*
X111026228Y-115949500D01*
X110861925Y-115982182D01*
X110861917Y-115982184D01*
X110707138Y-116046296D01*
X110683388Y-116062165D01*
X110616711Y-116083041D01*
X110549331Y-116064555D01*
X110502642Y-116012575D01*
X110490500Y-115959061D01*
X110490500Y-105394931D01*
X110510185Y-105327892D01*
X110511398Y-105326040D01*
X110593703Y-105202863D01*
X110657816Y-105048082D01*
X110690500Y-104883767D01*
X110690500Y-104716233D01*
X110657816Y-104551918D01*
X110593703Y-104397137D01*
X110540959Y-104318200D01*
X110500626Y-104257837D01*
X110382162Y-104139373D01*
X110242860Y-104046295D01*
X110088082Y-103982184D01*
X110088074Y-103982182D01*
X109923771Y-103949500D01*
X109923767Y-103949500D01*
X109756233Y-103949500D01*
X109756228Y-103949500D01*
X109591925Y-103982182D01*
X109591917Y-103982184D01*
X109437139Y-104046295D01*
X109297837Y-104139373D01*
X109179373Y-104257837D01*
X109086295Y-104397139D01*
X109022184Y-104551917D01*
X109022182Y-104551925D01*
X108989500Y-104716228D01*
X108989500Y-104883771D01*
X109023372Y-105054057D01*
X109021997Y-105054330D01*
X109022559Y-105117123D01*
X108985312Y-105176237D01*
X108922019Y-105205830D01*
X108855822Y-105197816D01*
X108818086Y-105182185D01*
X108818074Y-105182182D01*
X108653771Y-105149500D01*
X108653767Y-105149500D01*
X108486233Y-105149500D01*
X108486228Y-105149500D01*
X108321925Y-105182182D01*
X108321917Y-105182184D01*
X108167139Y-105246295D01*
X108027837Y-105339373D01*
X107909373Y-105457837D01*
X107816295Y-105597139D01*
X107752184Y-105751917D01*
X107752182Y-105751925D01*
X107719500Y-105916228D01*
X107719500Y-106083771D01*
X107752182Y-106248074D01*
X107752184Y-106248082D01*
X107816295Y-106402860D01*
X107898602Y-106526040D01*
X107919480Y-106592717D01*
X107919500Y-106594931D01*
X107919500Y-125341141D01*
X107899815Y-125408180D01*
X107847011Y-125453935D01*
X107777853Y-125463879D01*
X107757183Y-125459072D01*
X107616134Y-125413243D01*
X107616127Y-125413242D01*
X107406246Y-125380000D01*
X107193754Y-125380000D01*
X106983872Y-125413242D01*
X106983869Y-125413242D01*
X106892818Y-125442827D01*
X106822977Y-125444822D01*
X106763144Y-125408741D01*
X106732316Y-125346040D01*
X106730500Y-125324896D01*
X106730500Y-100520101D01*
X106750185Y-100453062D01*
X106751398Y-100451210D01*
X106783703Y-100402863D01*
X106847816Y-100248082D01*
X106880500Y-100083767D01*
X106880500Y-99916233D01*
X106847816Y-99751918D01*
X106783703Y-99597137D01*
X106730500Y-99517513D01*
X106690626Y-99457837D01*
X106572162Y-99339373D01*
X106432860Y-99246295D01*
X106278082Y-99182184D01*
X106278074Y-99182182D01*
X106113771Y-99149500D01*
X106113767Y-99149500D01*
X105946233Y-99149500D01*
X105946228Y-99149500D01*
X105781925Y-99182182D01*
X105781917Y-99182184D01*
X105627139Y-99246295D01*
X105487837Y-99339373D01*
X105369373Y-99457837D01*
X105276295Y-99597139D01*
X105212184Y-99751917D01*
X105212182Y-99751925D01*
X105179500Y-99916228D01*
X105179500Y-100083771D01*
X105212182Y-100248074D01*
X105212184Y-100248082D01*
X105276295Y-100402860D01*
X105308602Y-100451210D01*
X105329480Y-100517887D01*
X105329500Y-100520101D01*
X105329500Y-102729740D01*
X105309815Y-102796779D01*
X105257011Y-102842534D01*
X105187853Y-102852478D01*
X105158048Y-102844301D01*
X105008086Y-102782185D01*
X105008074Y-102782182D01*
X104843771Y-102749500D01*
X104843767Y-102749500D01*
X104676233Y-102749500D01*
X104676228Y-102749500D01*
X104511925Y-102782182D01*
X104511917Y-102782184D01*
X104357139Y-102846295D01*
X104217837Y-102939373D01*
X104099373Y-103057837D01*
X104006295Y-103197139D01*
X103942184Y-103351917D01*
X103942182Y-103351925D01*
X103909500Y-103516228D01*
X103909500Y-103683771D01*
X103942182Y-103848074D01*
X103942184Y-103848082D01*
X104006295Y-104002860D01*
X104006296Y-104002862D01*
X104006297Y-104002863D01*
X104035317Y-104046295D01*
X104088602Y-104126040D01*
X104109480Y-104192717D01*
X104109500Y-104194931D01*
X104109500Y-125470382D01*
X104089815Y-125537421D01*
X104055408Y-125571099D01*
X104056125Y-125572085D01*
X103880213Y-125699890D01*
X103729890Y-125850213D01*
X103604951Y-126022179D01*
X103508444Y-126211585D01*
X103442753Y-126413760D01*
X103409500Y-126623713D01*
X95000000Y-126623713D01*
X95000000Y-80124000D01*
X95019685Y-80056961D01*
X95072489Y-80011206D01*
X95124000Y-80000000D01*
X194876000Y-80000000D01*
X194943039Y-80019685D01*
G37*
%TD.AperFunction*%
%TD*%
M02*
