M48
; DRILL file {KiCad 9.0.2+dfsg-1} date 2026-07-17T01:09:16+0200
; FORMAT={-:-/ absolute / metric / decimal}
; #@! TF.CreationDate,2026-07-17T01:09:16+02:00
; #@! TF.GenerationSoftware,Kicad,Pcbnew,9.0.2+dfsg-1
; #@! TF.FileFunction,MixedPlating,1,2
FMAT,2
METRIC
; #@! TA.AperFunction,Plated,PTH,ViaDrill
T1C0.350
; #@! TA.AperFunction,Plated,PTH,ComponentDrill
T2C0.500
; #@! TA.AperFunction,Plated,PTH,ComponentDrill
T3C0.700
; #@! TA.AperFunction,Plated,PTH,ComponentDrill
T4C0.750
; #@! TA.AperFunction,Plated,PTH,ComponentDrill
T5C0.920
; #@! TA.AperFunction,Plated,PTH,ComponentDrill
T6C1.000
; #@! TA.AperFunction,Plated,PTH,ComponentDrill
T7C1.520
; #@! TA.AperFunction,Plated,PTH,ComponentDrill
T8C2.300
; #@! TA.AperFunction,Plated,PTH,ComponentDrill
T9C3.200
; #@! TA.AperFunction,NonPlated,NPTH,ComponentDrill
T10C1.100
%
G90
G05
T1
X104.76Y-103.6
X106.03Y-100.0
X108.57Y-106.0
X109.84Y-104.8
X111.11Y-102.4
X111.11Y-116.8
X112.38Y-116.8
X112.38Y-121.6
X113.65Y-107.2
X113.65Y-107.2
X114.92Y-106.0
X114.92Y-118.0
X116.19Y-121.6
X117.46Y-104.8
X118.73Y-118.0
X120.0Y-100.0
X122.54Y-114.4
X123.81Y-115.6
X125.08Y-112.0
X126.35Y-113.2
X127.0Y-120.4
X127.62Y-103.6
X128.89Y-101.2
X129.0Y-119.2
X130.16Y-109.6
X131.0Y-124.0
X131.43Y-122.8
X133.0Y-110.8
X133.97Y-108.4
X135.24Y-124.0
X136.51Y-120.4
X137.78Y-110.8
X138.88Y-122.8
X139.05Y-119.2
X143.96Y-108.4
X154.12Y-109.6
X168.0Y-115.6
X170.0Y-114.4
X179.5Y-101.2
X179.5Y-102.4
X184.0Y-113.2
X186.0Y-112.0
T2
X97.1Y-84.5
X97.1Y-130.5
X97.803Y-82.803
X97.803Y-86.197
X97.803Y-128.803
X97.803Y-132.197
X99.5Y-82.1
X99.5Y-86.9
X99.5Y-128.1
X99.5Y-132.9
X101.197Y-82.803
X101.197Y-86.197
X101.197Y-128.803
X101.197Y-132.197
X101.9Y-84.5
X101.9Y-130.5
X188.1Y-84.5
X188.803Y-82.803
X188.803Y-86.197
X190.5Y-82.1
X190.5Y-86.9
X192.197Y-82.803
X192.197Y-86.197
X192.9Y-84.5
T4
X127.0Y-128.5
X129.0Y-128.5
X131.0Y-128.5
X133.0Y-128.5
T5
X172.5Y-89.855
X175.0Y-89.855
X177.0Y-89.855
X179.5Y-89.855
T6
X104.76Y-126.73
X104.76Y-129.27
X107.3Y-126.73
X107.3Y-129.27
X109.84Y-86.23
X109.84Y-88.77
X109.84Y-126.73
X109.84Y-129.27
X112.38Y-86.23
X112.38Y-88.77
X112.38Y-126.73
X112.38Y-129.27
X114.92Y-86.23
X114.92Y-88.77
X114.92Y-126.73
X114.92Y-129.27
X117.46Y-86.23
X117.46Y-88.77
X120.0Y-86.23
X120.0Y-88.77
X122.54Y-86.23
X122.54Y-88.77
X125.08Y-86.23
X125.08Y-88.77
X127.62Y-86.23
X127.62Y-88.77
X130.16Y-86.23
X130.16Y-88.77
X132.7Y-86.23
X132.7Y-88.77
X135.24Y-86.23
X135.24Y-88.77
X137.78Y-86.23
X137.78Y-88.77
X140.32Y-86.23
X140.32Y-88.77
T7
X138.88Y-128.0
X143.96Y-128.0
X149.04Y-128.0
X154.12Y-128.0
T8
X169.325Y-87.145
X182.675Y-87.145
T9
X99.5Y-84.5
X99.5Y-130.5
X190.5Y-84.5
T10
X166.75Y-129.3
X171.25Y-129.3
X182.75Y-129.3
X187.25Y-129.3
T3
X163.15Y-128.4G85X163.15Y-130.2
G05
X174.85Y-128.4G85X174.85Y-130.2
G05
X179.15Y-128.4G85X179.15Y-130.2
G05
X190.85Y-128.4G85X190.85Y-130.2
G05
M30
